G04 #@! TF.GenerationSoftware,KiCad,Pcbnew,(5.1.10)-1*
G04 #@! TF.CreationDate,2022-03-14T11:30:17-04:00*
G04 #@! TF.ProjectId,overhead,6f766572-6865-4616-942e-6b696361645f,rev?*
G04 #@! TF.SameCoordinates,Original*
G04 #@! TF.FileFunction,Copper,L2,Bot*
G04 #@! TF.FilePolarity,Positive*
%FSLAX46Y46*%
G04 Gerber Fmt 4.6, Leading zero omitted, Abs format (unit mm)*
G04 Created by KiCad (PCBNEW (5.1.10)-1) date 2022-03-14 11:30:17*
%MOMM*%
%LPD*%
G01*
G04 APERTURE LIST*
G04 #@! TA.AperFunction,ComponentPad*
%ADD10O,0.900000X1.800000*%
G04 #@! TD*
G04 #@! TA.AperFunction,ComponentPad*
%ADD11C,1.600000*%
G04 #@! TD*
G04 #@! TA.AperFunction,ComponentPad*
%ADD12R,1.600000X1.600000*%
G04 #@! TD*
G04 #@! TA.AperFunction,ComponentPad*
%ADD13C,0.400000*%
G04 #@! TD*
G04 #@! TA.AperFunction,ComponentPad*
%ADD14O,1.700000X1.700000*%
G04 #@! TD*
G04 #@! TA.AperFunction,ComponentPad*
%ADD15R,1.700000X1.700000*%
G04 #@! TD*
G04 #@! TA.AperFunction,ComponentPad*
%ADD16O,1.524000X3.048000*%
G04 #@! TD*
G04 #@! TA.AperFunction,ComponentPad*
%ADD17O,3.048000X1.524000*%
G04 #@! TD*
G04 #@! TA.AperFunction,ViaPad*
%ADD18C,0.800000*%
G04 #@! TD*
G04 #@! TA.AperFunction,ViaPad*
%ADD19C,0.600000*%
G04 #@! TD*
G04 #@! TA.AperFunction,Conductor*
%ADD20C,0.500000*%
G04 #@! TD*
G04 #@! TA.AperFunction,Conductor*
%ADD21C,0.150000*%
G04 #@! TD*
G04 #@! TA.AperFunction,Conductor*
%ADD22C,0.250000*%
G04 #@! TD*
G04 #@! TA.AperFunction,Conductor*
%ADD23C,0.200000*%
G04 #@! TD*
G04 #@! TA.AperFunction,Conductor*
%ADD24C,0.100000*%
G04 #@! TD*
G04 APERTURE END LIST*
D10*
X58700000Y-51500000D03*
X65300000Y-51500000D03*
D11*
X67750000Y-104500000D03*
D12*
X67750000Y-102500000D03*
D13*
X82340000Y-87550000D03*
X83840000Y-87550000D03*
X82340000Y-89050000D03*
X83840000Y-89050000D03*
X82340000Y-90550000D03*
X83840000Y-90550000D03*
X81590000Y-88300000D03*
X83090000Y-88300000D03*
X84590000Y-88300000D03*
X81590000Y-89800000D03*
X84590000Y-89800000D03*
X83090000Y-89800000D03*
D14*
X77440000Y-63380000D03*
X74900000Y-63380000D03*
X77440000Y-60840000D03*
X74900000Y-60840000D03*
X77440000Y-58300000D03*
D15*
X74900000Y-58300000D03*
D14*
X66540000Y-89700000D03*
X64000000Y-89700000D03*
X66540000Y-87160000D03*
X64000000Y-87160000D03*
X66540000Y-84620000D03*
X64000000Y-84620000D03*
X66540000Y-82080000D03*
X64000000Y-82080000D03*
X66540000Y-79540000D03*
X64000000Y-79540000D03*
X66540000Y-77000000D03*
D15*
X64000000Y-77000000D03*
D14*
X57300000Y-72680000D03*
X57300000Y-70140000D03*
D15*
X57300000Y-67600000D03*
D14*
X97920000Y-107750000D03*
X100460000Y-107750000D03*
D15*
X103000000Y-107750000D03*
D14*
X73920000Y-108000000D03*
X76460000Y-108000000D03*
D15*
X79000000Y-108000000D03*
D14*
X98540000Y-88490000D03*
X96000000Y-88490000D03*
X98540000Y-85950000D03*
X96000000Y-85950000D03*
X98540000Y-83410000D03*
X96000000Y-83410000D03*
X98540000Y-80870000D03*
X96000000Y-80870000D03*
X98540000Y-78330000D03*
X96000000Y-78330000D03*
X98540000Y-75790000D03*
X96000000Y-75790000D03*
X98540000Y-73250000D03*
D15*
X96000000Y-73250000D03*
D14*
X84380000Y-107750000D03*
X86920000Y-107750000D03*
X89460000Y-107750000D03*
D15*
X92000000Y-107750000D03*
D16*
X97300000Y-55000000D03*
D17*
X100000000Y-52500000D03*
X100000000Y-57500000D03*
D18*
X60250000Y-55750000D03*
X97000000Y-69750000D03*
X99750000Y-70000000D03*
D19*
X61000000Y-102000000D03*
X59000000Y-105500000D03*
X57000000Y-105500000D03*
D18*
X62000000Y-72750000D03*
X88250000Y-101750000D03*
X74250000Y-67750000D03*
D19*
X94000000Y-86000000D03*
X93750000Y-82250000D03*
X92500000Y-105500000D03*
X98500000Y-105500000D03*
X71500000Y-98750000D03*
X56750000Y-96750000D03*
X97000000Y-93000000D03*
X92500000Y-98750000D03*
X83000000Y-63000000D03*
X92250000Y-51750000D03*
X87250000Y-51750000D03*
X82250000Y-51750000D03*
X68250000Y-53750000D03*
X57000000Y-59500000D03*
X61250000Y-64000000D03*
X65250000Y-61000000D03*
X67000000Y-64750000D03*
X67000000Y-97000000D03*
D18*
X93000000Y-60000000D03*
X97000000Y-65250000D03*
D19*
X67000000Y-69000000D03*
X70250000Y-93500000D03*
X92000000Y-95500000D03*
X60750000Y-61000000D03*
X57000000Y-102000000D03*
X69250000Y-55000000D03*
X62750000Y-57000000D03*
X70250000Y-55000000D03*
X63750000Y-57000000D03*
X65250000Y-100500000D03*
X59500000Y-104000000D03*
X56750000Y-76000000D03*
X75250000Y-76750000D03*
X71500000Y-76750000D03*
X64000000Y-104000000D03*
X55500000Y-76000000D03*
X75250000Y-75750000D03*
X71500000Y-75750000D03*
X74750000Y-82000000D03*
X74750000Y-80500000D03*
X92500000Y-84000000D03*
X92500000Y-85000000D03*
X92500000Y-86000000D03*
X92500000Y-87000000D03*
X79250000Y-83500000D03*
X78250000Y-83500000D03*
X77250000Y-83500000D03*
X76250000Y-83500000D03*
X59500000Y-79500000D03*
D18*
X64250000Y-92750000D03*
D19*
X87000000Y-59500000D03*
X88000000Y-87250000D03*
X86000000Y-59500000D03*
X87000000Y-87250000D03*
X85000000Y-59500000D03*
X86000000Y-87250000D03*
X62000000Y-66750000D03*
X71500000Y-90500000D03*
X61250000Y-67500000D03*
X71500000Y-91500000D03*
X65750000Y-65000000D03*
X65750000Y-70250000D03*
X64750000Y-65000000D03*
X64750000Y-70250000D03*
D18*
X62000000Y-87000000D03*
D19*
X94000000Y-91500000D03*
X88484999Y-85984999D03*
X77250000Y-88750000D03*
X67250000Y-66500000D03*
X69000000Y-59750000D03*
X61700000Y-57900000D03*
D20*
X76150001Y-57049999D02*
X92049999Y-57049999D01*
X74900000Y-58300000D02*
X76150001Y-57049999D01*
X74150001Y-59049999D02*
X74900000Y-58300000D01*
X60750000Y-61000000D02*
X62700001Y-59049999D01*
X64000000Y-84620000D02*
X62630000Y-83250000D01*
X62630000Y-78370000D02*
X64000000Y-77000000D01*
X62630000Y-83250000D02*
X62630000Y-78370000D01*
X98250000Y-71000000D02*
X96000000Y-73250000D01*
X93170001Y-109000001D02*
X85630001Y-109000001D01*
X93750000Y-108420002D02*
X93170001Y-109000001D01*
X93750000Y-95750000D02*
X93750000Y-108420002D01*
X84380000Y-107630000D02*
X84380000Y-107750000D01*
X70250000Y-93500000D02*
X84380000Y-107630000D01*
X67000000Y-93500000D02*
X70250000Y-93500000D01*
X93750000Y-95750000D02*
X96250000Y-95750000D01*
X96250000Y-95750000D02*
X102000000Y-90000000D01*
X102000000Y-67000000D02*
X98250000Y-63250000D01*
X102000000Y-90000000D02*
X102000000Y-67000000D01*
X67000000Y-76540000D02*
X66540000Y-77000000D01*
X67000000Y-69000000D02*
X67000000Y-76540000D01*
X57300000Y-72680000D02*
X58320000Y-72680000D01*
X59724990Y-62025010D02*
X60750000Y-61000000D01*
X59724990Y-71275010D02*
X59724990Y-62025010D01*
X58320000Y-72680000D02*
X59724990Y-71275010D01*
X64000000Y-64250000D02*
X60750000Y-61000000D01*
X64000000Y-77000000D02*
X64000000Y-64250000D01*
X85630001Y-109000001D02*
X84380000Y-107750000D01*
X93500000Y-95500000D02*
X93750000Y-95750000D01*
X92000000Y-95500000D02*
X93500000Y-95500000D01*
X62700001Y-59049999D02*
X74150001Y-59049999D01*
X98250000Y-66500000D02*
X98250000Y-67000000D01*
X98250000Y-67000000D02*
X98250000Y-71000000D01*
X97000000Y-65250000D02*
X98250000Y-66500000D01*
X98250000Y-63250000D02*
X98250000Y-67000000D01*
X95000000Y-60000000D02*
X95625000Y-60625000D01*
X93000000Y-60000000D02*
X95000000Y-60000000D01*
X95625000Y-60625000D02*
X98250000Y-63250000D01*
X92049999Y-57049999D02*
X95625000Y-60625000D01*
X57000000Y-102536002D02*
X57000000Y-102000000D01*
X59213998Y-104750000D02*
X57000000Y-102536002D01*
X60500000Y-104750000D02*
X59213998Y-104750000D01*
X64549999Y-100700001D02*
X60500000Y-104750000D01*
X64549999Y-95950001D02*
X64549999Y-100700001D01*
X67000000Y-93500000D02*
X64549999Y-95950001D01*
D21*
X63537868Y-56212132D02*
X62750000Y-57000000D01*
X64750000Y-55000000D02*
X63537868Y-56212132D01*
X69250000Y-55000000D02*
X64750000Y-55000000D01*
X64874265Y-55300000D02*
X63750000Y-56424265D01*
X68997999Y-55525001D02*
X68772998Y-55300000D01*
X69502001Y-55525001D02*
X68997999Y-55525001D01*
X69950000Y-55300000D02*
X69727002Y-55300000D01*
X68772998Y-55300000D02*
X64874265Y-55300000D01*
X70250000Y-55000000D02*
X69950000Y-55300000D01*
X69727002Y-55300000D02*
X69502001Y-55525001D01*
X63750000Y-56424265D02*
X63750000Y-57000000D01*
D22*
X68960000Y-100500000D02*
X76460000Y-108000000D01*
X65250000Y-100500000D02*
X68960000Y-100500000D01*
X75250000Y-76750000D02*
X71500000Y-76750000D01*
X56000000Y-76750000D02*
X56750000Y-76000000D01*
X56000000Y-98000000D02*
X56000000Y-76750000D01*
X59500000Y-101500000D02*
X56000000Y-98000000D01*
X59500000Y-104000000D02*
X59500000Y-101500000D01*
X75250000Y-75750000D02*
X71500000Y-75750000D01*
X61250000Y-106750000D02*
X64000000Y-104000000D01*
X59250000Y-106750000D02*
X61250000Y-106750000D01*
X55500000Y-103000000D02*
X59250000Y-106750000D01*
X55500000Y-76000000D02*
X55500000Y-103000000D01*
X86920000Y-97464996D02*
X86920000Y-107750000D01*
X74750000Y-85294996D02*
X86920000Y-97464996D01*
X74750000Y-82000000D02*
X74750000Y-85294996D01*
X89460000Y-99368586D02*
X89460000Y-107750000D01*
X75375001Y-85283587D02*
X89460000Y-99368586D01*
X75375001Y-81125001D02*
X75375001Y-85283587D01*
X74750000Y-80500000D02*
X75375001Y-81125001D01*
X97175001Y-79694999D02*
X98540000Y-78330000D01*
X95435999Y-79694999D02*
X97175001Y-79694999D01*
X92500000Y-82630998D02*
X95435999Y-79694999D01*
X92500000Y-84000000D02*
X92500000Y-82630998D01*
X95265001Y-82234999D02*
X92500000Y-85000000D01*
X97175001Y-82234999D02*
X95265001Y-82234999D01*
X98540000Y-80870000D02*
X97175001Y-82234999D01*
X93914999Y-84585001D02*
X92500000Y-86000000D01*
X97364999Y-84585001D02*
X93914999Y-84585001D01*
X98540000Y-83410000D02*
X97364999Y-84585001D01*
X92814999Y-87314999D02*
X92500000Y-87000000D01*
X97175001Y-87314999D02*
X92814999Y-87314999D01*
X98540000Y-85950000D02*
X97175001Y-87314999D01*
X78615001Y-64634999D02*
X78615001Y-59475001D01*
X78615001Y-59475001D02*
X77440000Y-58300000D01*
X76750000Y-66500000D02*
X78615001Y-64634999D01*
X76750000Y-74250000D02*
X76750000Y-66500000D01*
X79250000Y-76750000D02*
X76750000Y-74250000D01*
X79250000Y-83500000D02*
X79250000Y-76750000D01*
X76264999Y-62015001D02*
X77440000Y-60840000D01*
X76264999Y-74522873D02*
X76264999Y-62015001D01*
X78250000Y-76507874D02*
X76264999Y-74522873D01*
X78250000Y-83500000D02*
X78250000Y-76507874D01*
X72950010Y-65329990D02*
X74900000Y-63380000D01*
X72950010Y-71844294D02*
X72950010Y-65329990D01*
X77250000Y-76144284D02*
X76927858Y-75822142D01*
X77250000Y-83500000D02*
X77250000Y-76144284D01*
X76927858Y-75822142D02*
X72950010Y-71844294D01*
X77000000Y-75894284D02*
X76927858Y-75822142D01*
X76250000Y-75824998D02*
X72500000Y-72074998D01*
X72500000Y-63240000D02*
X74900000Y-60840000D01*
X72500000Y-72074998D02*
X72500000Y-63240000D01*
X76250000Y-83500000D02*
X76250000Y-75824998D01*
X59500000Y-79500000D02*
X59500000Y-89500000D01*
X62750000Y-92750000D02*
X59500000Y-89500000D01*
X64250000Y-92750000D02*
X62750000Y-92750000D01*
X87000000Y-86250000D02*
X88000000Y-87250000D01*
X87000000Y-59500000D02*
X87000000Y-86250000D01*
X86000000Y-86250000D02*
X87000000Y-87250000D01*
X86000000Y-59500000D02*
X86000000Y-86250000D01*
X85000000Y-86250000D02*
X86000000Y-87250000D01*
X85000000Y-59500000D02*
X85000000Y-86250000D01*
X71174999Y-90825001D02*
X63075001Y-90825001D01*
X71500000Y-90500000D02*
X71174999Y-90825001D01*
X63075001Y-90825001D02*
X61000000Y-88750000D01*
X62000000Y-67601002D02*
X62000000Y-66750000D01*
X61000000Y-68601002D02*
X62000000Y-67601002D01*
X61000000Y-88750000D02*
X61000000Y-68601002D01*
X60599992Y-68150008D02*
X61250000Y-67500000D01*
X60250000Y-68500000D02*
X60599992Y-68150008D01*
X60250000Y-89000000D02*
X60250000Y-68500000D01*
X62750000Y-91500000D02*
X60250000Y-89000000D01*
X71500000Y-91500000D02*
X62750000Y-91500000D01*
D21*
X65400000Y-69900000D02*
X65750000Y-70250000D01*
X65400000Y-65350000D02*
X65400000Y-69900000D01*
X65750000Y-65000000D02*
X65400000Y-65350000D01*
X65100000Y-69900000D02*
X64750000Y-70250000D01*
X65100000Y-65350000D02*
X65100000Y-69900000D01*
X64750000Y-65000000D02*
X65100000Y-65350000D01*
D22*
X88484999Y-85984999D02*
X88484999Y-85984999D01*
X62000000Y-87000000D02*
X63015001Y-85984999D01*
X63015001Y-85984999D02*
X74515001Y-85984999D01*
X88484999Y-85984999D02*
X94000000Y-91500000D01*
X74515001Y-85984999D02*
X74515001Y-85984999D01*
X74515001Y-86015001D02*
X74515001Y-85984999D01*
X77250000Y-88750000D02*
X74515001Y-86015001D01*
X68969905Y-59780095D02*
X69000000Y-59750000D01*
X69000000Y-64750000D02*
X67250000Y-66500000D01*
X69000000Y-59750000D02*
X69000000Y-64750000D01*
X61700000Y-57900000D02*
X57100000Y-57900000D01*
X56124999Y-68964999D02*
X57300000Y-70140000D01*
X56124999Y-58875001D02*
X56124999Y-68964999D01*
X57100000Y-57900000D02*
X56124999Y-58875001D01*
D23*
X104675001Y-94984030D02*
X104675000Y-94984040D01*
X104675001Y-109675000D01*
X55325000Y-109675000D01*
X55325000Y-103426040D01*
X58934721Y-107035762D01*
X58948026Y-107051974D01*
X59012740Y-107105084D01*
X59060855Y-107130801D01*
X59086572Y-107144548D01*
X59166685Y-107168850D01*
X59174327Y-107169603D01*
X59229126Y-107175000D01*
X59229133Y-107175000D01*
X59250000Y-107177055D01*
X59270867Y-107175000D01*
X61229133Y-107175000D01*
X61250000Y-107177055D01*
X61270867Y-107175000D01*
X61270874Y-107175000D01*
X61333314Y-107168850D01*
X61413427Y-107144548D01*
X61487260Y-107105084D01*
X61551974Y-107051974D01*
X61565283Y-107035757D01*
X64001041Y-104600000D01*
X64059095Y-104600000D01*
X64175014Y-104576942D01*
X64284207Y-104531713D01*
X64382478Y-104466050D01*
X64466050Y-104382478D01*
X64531713Y-104284207D01*
X64576942Y-104175014D01*
X64600000Y-104059095D01*
X64600000Y-103940905D01*
X64576942Y-103824986D01*
X64531713Y-103715793D01*
X64466050Y-103617522D01*
X64382478Y-103533950D01*
X64284207Y-103468287D01*
X64175014Y-103423058D01*
X64059095Y-103400000D01*
X63940905Y-103400000D01*
X63824986Y-103423058D01*
X63715793Y-103468287D01*
X63617522Y-103533950D01*
X63533950Y-103617522D01*
X63468287Y-103715793D01*
X63423058Y-103824986D01*
X63400000Y-103940905D01*
X63400000Y-103998959D01*
X61073960Y-106325000D01*
X59426041Y-106325000D01*
X55925000Y-102823960D01*
X55925000Y-98526040D01*
X59075001Y-101676042D01*
X59075000Y-103576472D01*
X59033950Y-103617522D01*
X58968287Y-103715793D01*
X58965159Y-103723344D01*
X57550000Y-102308185D01*
X57550000Y-102240058D01*
X57576942Y-102175014D01*
X57600000Y-102059095D01*
X57600000Y-101940905D01*
X57576942Y-101824986D01*
X57531713Y-101715793D01*
X57466050Y-101617522D01*
X57382478Y-101533950D01*
X57284207Y-101468287D01*
X57175014Y-101423058D01*
X57059095Y-101400000D01*
X56940905Y-101400000D01*
X56824986Y-101423058D01*
X56715793Y-101468287D01*
X56617522Y-101533950D01*
X56533950Y-101617522D01*
X56468287Y-101715793D01*
X56423058Y-101824986D01*
X56400000Y-101940905D01*
X56400000Y-102059095D01*
X56423058Y-102175014D01*
X56450000Y-102240058D01*
X56450000Y-102508994D01*
X56447340Y-102536002D01*
X56450000Y-102563010D01*
X56450000Y-102563019D01*
X56457958Y-102643820D01*
X56489408Y-102747495D01*
X56540479Y-102843044D01*
X56609210Y-102926792D01*
X56630196Y-102944015D01*
X58805990Y-105119810D01*
X58823208Y-105140790D01*
X58844188Y-105158008D01*
X58844193Y-105158013D01*
X58906955Y-105209521D01*
X58958026Y-105236818D01*
X59002504Y-105260592D01*
X59106179Y-105292042D01*
X59186980Y-105300000D01*
X59186990Y-105300000D01*
X59213998Y-105302660D01*
X59241006Y-105300000D01*
X60472992Y-105300000D01*
X60500000Y-105302660D01*
X60527008Y-105300000D01*
X60527018Y-105300000D01*
X60607819Y-105292042D01*
X60711494Y-105260592D01*
X60807042Y-105209521D01*
X60890790Y-105140790D01*
X60908013Y-105119804D01*
X64327817Y-101700000D01*
X66648549Y-101700000D01*
X66648549Y-103300000D01*
X66654341Y-103358810D01*
X66671496Y-103415360D01*
X66699353Y-103467477D01*
X66736842Y-103513158D01*
X66782523Y-103550647D01*
X66834640Y-103578504D01*
X66891190Y-103595659D01*
X66950000Y-103601451D01*
X68550000Y-103601451D01*
X68608810Y-103595659D01*
X68665360Y-103578504D01*
X68717477Y-103550647D01*
X68763158Y-103513158D01*
X68800647Y-103467477D01*
X68828504Y-103415360D01*
X68845659Y-103358810D01*
X68851451Y-103300000D01*
X68851451Y-101700000D01*
X68845659Y-101641190D01*
X68828504Y-101584640D01*
X68800647Y-101532523D01*
X68763158Y-101486842D01*
X68717477Y-101449353D01*
X68665360Y-101421496D01*
X68608810Y-101404341D01*
X68550000Y-101398549D01*
X66950000Y-101398549D01*
X66891190Y-101404341D01*
X66834640Y-101421496D01*
X66782523Y-101449353D01*
X66736842Y-101486842D01*
X66699353Y-101532523D01*
X66671496Y-101584640D01*
X66654341Y-101641190D01*
X66648549Y-101700000D01*
X64327817Y-101700000D01*
X64919803Y-101108014D01*
X64940789Y-101090791D01*
X64983317Y-101038972D01*
X65074986Y-101076942D01*
X65190905Y-101100000D01*
X65309095Y-101100000D01*
X65425014Y-101076942D01*
X65534207Y-101031713D01*
X65632478Y-100966050D01*
X65673528Y-100925000D01*
X68783960Y-100925000D01*
X75403788Y-107544829D01*
X75354194Y-107664557D01*
X75310000Y-107886735D01*
X75310000Y-108113265D01*
X75354194Y-108335443D01*
X75440884Y-108544729D01*
X75566737Y-108733082D01*
X75726918Y-108893263D01*
X75915271Y-109019116D01*
X76124557Y-109105806D01*
X76346735Y-109150000D01*
X76573265Y-109150000D01*
X76795443Y-109105806D01*
X77004729Y-109019116D01*
X77193082Y-108893263D01*
X77353263Y-108733082D01*
X77479116Y-108544729D01*
X77565806Y-108335443D01*
X77610000Y-108113265D01*
X77610000Y-107886735D01*
X77565806Y-107664557D01*
X77479116Y-107455271D01*
X77353263Y-107266918D01*
X77236345Y-107150000D01*
X77848549Y-107150000D01*
X77848549Y-108850000D01*
X77854341Y-108908810D01*
X77871496Y-108965360D01*
X77899353Y-109017477D01*
X77936842Y-109063158D01*
X77982523Y-109100647D01*
X78034640Y-109128504D01*
X78091190Y-109145659D01*
X78150000Y-109151451D01*
X79850000Y-109151451D01*
X79908810Y-109145659D01*
X79965360Y-109128504D01*
X80017477Y-109100647D01*
X80063158Y-109063158D01*
X80100647Y-109017477D01*
X80128504Y-108965360D01*
X80145659Y-108908810D01*
X80151451Y-108850000D01*
X80151451Y-107150000D01*
X80145659Y-107091190D01*
X80128504Y-107034640D01*
X80100647Y-106982523D01*
X80063158Y-106936842D01*
X80017477Y-106899353D01*
X79965360Y-106871496D01*
X79908810Y-106854341D01*
X79850000Y-106848549D01*
X78150000Y-106848549D01*
X78091190Y-106854341D01*
X78034640Y-106871496D01*
X77982523Y-106899353D01*
X77936842Y-106936842D01*
X77899353Y-106982523D01*
X77871496Y-107034640D01*
X77854341Y-107091190D01*
X77848549Y-107150000D01*
X77236345Y-107150000D01*
X77193082Y-107106737D01*
X77004729Y-106980884D01*
X76795443Y-106894194D01*
X76573265Y-106850000D01*
X76346735Y-106850000D01*
X76124557Y-106894194D01*
X76004829Y-106943788D01*
X69275284Y-100214244D01*
X69261974Y-100198026D01*
X69197260Y-100144916D01*
X69123427Y-100105452D01*
X69043314Y-100081150D01*
X68980874Y-100075000D01*
X68980867Y-100075000D01*
X68960000Y-100072945D01*
X68939133Y-100075000D01*
X65673528Y-100075000D01*
X65632478Y-100033950D01*
X65534207Y-99968287D01*
X65425014Y-99923058D01*
X65309095Y-99900000D01*
X65190905Y-99900000D01*
X65099999Y-99918083D01*
X65099999Y-96177818D01*
X67227817Y-94050000D01*
X70009942Y-94050000D01*
X70030839Y-94058656D01*
X83307158Y-107334975D01*
X83274194Y-107414557D01*
X83230000Y-107636735D01*
X83230000Y-107863265D01*
X83274194Y-108085443D01*
X83360884Y-108294729D01*
X83486737Y-108483082D01*
X83646918Y-108643263D01*
X83835271Y-108769116D01*
X84044557Y-108855806D01*
X84266735Y-108900000D01*
X84493265Y-108900000D01*
X84709225Y-108857043D01*
X85221993Y-109369811D01*
X85239211Y-109390791D01*
X85260191Y-109408009D01*
X85260196Y-109408014D01*
X85312098Y-109450608D01*
X85322959Y-109459522D01*
X85418507Y-109510593D01*
X85522182Y-109542043D01*
X85602983Y-109550001D01*
X85602992Y-109550001D01*
X85630000Y-109552661D01*
X85657008Y-109550001D01*
X93142993Y-109550001D01*
X93170001Y-109552661D01*
X93197009Y-109550001D01*
X93197019Y-109550001D01*
X93277820Y-109542043D01*
X93381495Y-109510593D01*
X93477043Y-109459522D01*
X93560791Y-109390791D01*
X93578014Y-109369806D01*
X94119809Y-108828011D01*
X94140790Y-108810792D01*
X94158008Y-108789812D01*
X94158013Y-108789807D01*
X94209520Y-108727045D01*
X94215766Y-108715360D01*
X94260592Y-108631496D01*
X94292042Y-108527821D01*
X94300000Y-108447020D01*
X94300000Y-108447011D01*
X94302660Y-108420003D01*
X94300000Y-108392995D01*
X94300000Y-107636735D01*
X99310000Y-107636735D01*
X99310000Y-107863265D01*
X99354194Y-108085443D01*
X99440884Y-108294729D01*
X99566737Y-108483082D01*
X99726918Y-108643263D01*
X99915271Y-108769116D01*
X100124557Y-108855806D01*
X100346735Y-108900000D01*
X100573265Y-108900000D01*
X100795443Y-108855806D01*
X101004729Y-108769116D01*
X101193082Y-108643263D01*
X101353263Y-108483082D01*
X101479116Y-108294729D01*
X101565806Y-108085443D01*
X101610000Y-107863265D01*
X101610000Y-107636735D01*
X101565806Y-107414557D01*
X101479116Y-107205271D01*
X101353263Y-107016918D01*
X101236345Y-106900000D01*
X101848549Y-106900000D01*
X101848549Y-108600000D01*
X101854341Y-108658810D01*
X101871496Y-108715360D01*
X101899353Y-108767477D01*
X101936842Y-108813158D01*
X101982523Y-108850647D01*
X102034640Y-108878504D01*
X102091190Y-108895659D01*
X102150000Y-108901451D01*
X103850000Y-108901451D01*
X103908810Y-108895659D01*
X103965360Y-108878504D01*
X104017477Y-108850647D01*
X104063158Y-108813158D01*
X104100647Y-108767477D01*
X104128504Y-108715360D01*
X104145659Y-108658810D01*
X104151451Y-108600000D01*
X104151451Y-106900000D01*
X104145659Y-106841190D01*
X104128504Y-106784640D01*
X104100647Y-106732523D01*
X104063158Y-106686842D01*
X104017477Y-106649353D01*
X103965360Y-106621496D01*
X103908810Y-106604341D01*
X103850000Y-106598549D01*
X102150000Y-106598549D01*
X102091190Y-106604341D01*
X102034640Y-106621496D01*
X101982523Y-106649353D01*
X101936842Y-106686842D01*
X101899353Y-106732523D01*
X101871496Y-106784640D01*
X101854341Y-106841190D01*
X101848549Y-106900000D01*
X101236345Y-106900000D01*
X101193082Y-106856737D01*
X101004729Y-106730884D01*
X100795443Y-106644194D01*
X100573265Y-106600000D01*
X100346735Y-106600000D01*
X100124557Y-106644194D01*
X99915271Y-106730884D01*
X99726918Y-106856737D01*
X99566737Y-107016918D01*
X99440884Y-107205271D01*
X99354194Y-107414557D01*
X99310000Y-107636735D01*
X94300000Y-107636735D01*
X94300000Y-102862112D01*
X100100000Y-102862112D01*
X100100000Y-103137888D01*
X100153801Y-103408365D01*
X100259336Y-103663149D01*
X100412549Y-103892448D01*
X100607552Y-104087451D01*
X100836851Y-104240664D01*
X101091635Y-104346199D01*
X101362112Y-104400000D01*
X101637888Y-104400000D01*
X101908365Y-104346199D01*
X102163149Y-104240664D01*
X102392448Y-104087451D01*
X102587451Y-103892448D01*
X102740664Y-103663149D01*
X102846199Y-103408365D01*
X102900000Y-103137888D01*
X102900000Y-102862112D01*
X102846199Y-102591635D01*
X102740664Y-102336851D01*
X102587451Y-102107552D01*
X102392448Y-101912549D01*
X102163149Y-101759336D01*
X101908365Y-101653801D01*
X101637888Y-101600000D01*
X101362112Y-101600000D01*
X101091635Y-101653801D01*
X100836851Y-101759336D01*
X100607552Y-101912549D01*
X100412549Y-102107552D01*
X100259336Y-102336851D01*
X100153801Y-102591635D01*
X100100000Y-102862112D01*
X94300000Y-102862112D01*
X94300000Y-96300000D01*
X96222992Y-96300000D01*
X96250000Y-96302660D01*
X96277008Y-96300000D01*
X96277018Y-96300000D01*
X96357819Y-96292042D01*
X96461494Y-96260592D01*
X96557042Y-96209521D01*
X96640790Y-96140790D01*
X96658013Y-96119804D01*
X102369810Y-90408008D01*
X102390790Y-90390790D01*
X102408008Y-90369810D01*
X102408013Y-90369805D01*
X102459521Y-90307043D01*
X102510591Y-90211495D01*
X102510592Y-90211494D01*
X102542042Y-90107819D01*
X102550000Y-90027018D01*
X102550000Y-90027008D01*
X102552660Y-90000000D01*
X102550000Y-89972992D01*
X102550000Y-67027008D01*
X102552660Y-67000000D01*
X102550000Y-66972992D01*
X102550000Y-66972982D01*
X102542042Y-66892181D01*
X102514678Y-66801974D01*
X102510592Y-66788505D01*
X102459521Y-66692958D01*
X102408013Y-66630195D01*
X102408008Y-66630190D01*
X102390790Y-66609210D01*
X102369810Y-66591992D01*
X98658013Y-62880196D01*
X98640790Y-62859210D01*
X98619804Y-62841987D01*
X96033018Y-60255201D01*
X96033013Y-60255195D01*
X95408009Y-59630191D01*
X95390790Y-59609210D01*
X95369809Y-59591991D01*
X93277818Y-57500000D01*
X98170862Y-57500000D01*
X98191367Y-57708188D01*
X98252093Y-57908376D01*
X98350707Y-58092870D01*
X98483419Y-58254581D01*
X98645130Y-58387293D01*
X98829624Y-58485907D01*
X99029812Y-58546633D01*
X99185834Y-58562000D01*
X100814166Y-58562000D01*
X100970188Y-58546633D01*
X101170376Y-58485907D01*
X101354870Y-58387293D01*
X101516581Y-58254581D01*
X101649293Y-58092870D01*
X101747907Y-57908376D01*
X101808633Y-57708188D01*
X101829138Y-57500000D01*
X101808633Y-57291812D01*
X101747907Y-57091624D01*
X101649293Y-56907130D01*
X101516581Y-56745419D01*
X101354870Y-56612707D01*
X101170376Y-56514093D01*
X100970188Y-56453367D01*
X100814166Y-56438000D01*
X99185834Y-56438000D01*
X99029812Y-56453367D01*
X98829624Y-56514093D01*
X98645130Y-56612707D01*
X98483419Y-56745419D01*
X98350707Y-56907130D01*
X98252093Y-57091624D01*
X98191367Y-57291812D01*
X98170862Y-57500000D01*
X93277818Y-57500000D01*
X92458012Y-56680195D01*
X92440789Y-56659209D01*
X92357041Y-56590478D01*
X92261493Y-56539407D01*
X92157818Y-56507957D01*
X92077017Y-56499999D01*
X92077007Y-56499999D01*
X92049999Y-56497339D01*
X92022991Y-56499999D01*
X76177008Y-56499999D01*
X76150000Y-56497339D01*
X76122992Y-56499999D01*
X76122983Y-56499999D01*
X76042182Y-56507957D01*
X75938507Y-56539407D01*
X75842959Y-56590478D01*
X75842957Y-56590479D01*
X75842958Y-56590479D01*
X75780196Y-56641986D01*
X75780191Y-56641991D01*
X75759211Y-56659209D01*
X75741993Y-56680189D01*
X75273633Y-57148549D01*
X74050000Y-57148549D01*
X73991190Y-57154341D01*
X73934640Y-57171496D01*
X73882523Y-57199353D01*
X73836842Y-57236842D01*
X73799353Y-57282523D01*
X73771496Y-57334640D01*
X73754341Y-57391190D01*
X73748549Y-57450000D01*
X73748549Y-58499999D01*
X62727009Y-58499999D01*
X62700001Y-58497339D01*
X62672993Y-58499999D01*
X62672983Y-58499999D01*
X62592182Y-58507957D01*
X62512636Y-58532087D01*
X62488506Y-58539407D01*
X62392959Y-58590478D01*
X62330196Y-58641986D01*
X62330191Y-58641991D01*
X62309211Y-58659209D01*
X62291993Y-58680189D01*
X60530839Y-60441344D01*
X60465793Y-60468287D01*
X60367522Y-60533950D01*
X60283950Y-60617522D01*
X60218287Y-60715793D01*
X60191345Y-60780837D01*
X59355181Y-61617002D01*
X59334201Y-61634220D01*
X59316983Y-61655200D01*
X59316977Y-61655206D01*
X59265469Y-61717968D01*
X59214399Y-61813516D01*
X59182949Y-61917192D01*
X59172330Y-62025010D01*
X59174991Y-62052028D01*
X59174990Y-71047192D01*
X58226108Y-71996075D01*
X58193263Y-71946918D01*
X58033082Y-71786737D01*
X57844729Y-71660884D01*
X57635443Y-71574194D01*
X57413265Y-71530000D01*
X57186735Y-71530000D01*
X56964557Y-71574194D01*
X56755271Y-71660884D01*
X56566918Y-71786737D01*
X56406737Y-71946918D01*
X56280884Y-72135271D01*
X56194194Y-72344557D01*
X56150000Y-72566735D01*
X56150000Y-72793265D01*
X56194194Y-73015443D01*
X56280884Y-73224729D01*
X56406737Y-73413082D01*
X56566918Y-73573263D01*
X56755271Y-73699116D01*
X56964557Y-73785806D01*
X57186735Y-73830000D01*
X57413265Y-73830000D01*
X57635443Y-73785806D01*
X57844729Y-73699116D01*
X58033082Y-73573263D01*
X58193263Y-73413082D01*
X58314198Y-73232089D01*
X58320000Y-73232660D01*
X58347008Y-73230000D01*
X58347018Y-73230000D01*
X58427819Y-73222042D01*
X58531494Y-73190592D01*
X58627042Y-73139521D01*
X58710790Y-73070790D01*
X58728013Y-73049804D01*
X59825001Y-71952817D01*
X59825000Y-78995545D01*
X59784207Y-78968287D01*
X59675014Y-78923058D01*
X59559095Y-78900000D01*
X59440905Y-78900000D01*
X59324986Y-78923058D01*
X59215793Y-78968287D01*
X59117522Y-79033950D01*
X59033950Y-79117522D01*
X58968287Y-79215793D01*
X58923058Y-79324986D01*
X58900000Y-79440905D01*
X58900000Y-79559095D01*
X58923058Y-79675014D01*
X58968287Y-79784207D01*
X59033950Y-79882478D01*
X59075000Y-79923528D01*
X59075001Y-86595102D01*
X58892448Y-86412549D01*
X58663149Y-86259336D01*
X58408365Y-86153801D01*
X58137888Y-86100000D01*
X57862112Y-86100000D01*
X57591635Y-86153801D01*
X57336851Y-86259336D01*
X57107552Y-86412549D01*
X56912549Y-86607552D01*
X56759336Y-86836851D01*
X56653801Y-87091635D01*
X56600000Y-87362112D01*
X56600000Y-87637888D01*
X56653801Y-87908365D01*
X56759336Y-88163149D01*
X56912549Y-88392448D01*
X57107552Y-88587451D01*
X57336851Y-88740664D01*
X57591635Y-88846199D01*
X57862112Y-88900000D01*
X58137888Y-88900000D01*
X58408365Y-88846199D01*
X58663149Y-88740664D01*
X58892448Y-88587451D01*
X59075001Y-88404898D01*
X59075001Y-89479123D01*
X59072945Y-89500000D01*
X59081150Y-89583314D01*
X59089006Y-89609210D01*
X59105453Y-89663427D01*
X59144917Y-89737260D01*
X59198027Y-89801974D01*
X59214239Y-89815279D01*
X62434721Y-93035762D01*
X62448026Y-93051974D01*
X62512740Y-93105084D01*
X62586573Y-93144548D01*
X62642383Y-93161478D01*
X62666685Y-93168850D01*
X62675098Y-93169679D01*
X62729126Y-93175000D01*
X62729132Y-93175000D01*
X62749999Y-93177055D01*
X62770866Y-93175000D01*
X63692093Y-93175000D01*
X63706274Y-93196224D01*
X63803776Y-93293726D01*
X63918426Y-93370332D01*
X64045818Y-93423099D01*
X64181056Y-93450000D01*
X64318944Y-93450000D01*
X64454182Y-93423099D01*
X64581574Y-93370332D01*
X64696224Y-93293726D01*
X64793726Y-93196224D01*
X64870332Y-93081574D01*
X64923099Y-92954182D01*
X64950000Y-92818944D01*
X64950000Y-92681056D01*
X64923099Y-92545818D01*
X64870332Y-92418426D01*
X64793726Y-92303776D01*
X64696224Y-92206274D01*
X64581574Y-92129668D01*
X64454182Y-92076901D01*
X64318944Y-92050000D01*
X64181056Y-92050000D01*
X64045818Y-92076901D01*
X63918426Y-92129668D01*
X63803776Y-92206274D01*
X63706274Y-92303776D01*
X63692093Y-92325000D01*
X62926041Y-92325000D01*
X59925000Y-89323960D01*
X59925000Y-89273917D01*
X59948026Y-89301974D01*
X59964243Y-89315283D01*
X62434721Y-91785762D01*
X62448026Y-91801974D01*
X62512740Y-91855084D01*
X62586573Y-91894548D01*
X62642383Y-91911478D01*
X62666685Y-91918850D01*
X62674327Y-91919603D01*
X62729126Y-91925000D01*
X62729133Y-91925000D01*
X62750000Y-91927055D01*
X62770867Y-91925000D01*
X71076472Y-91925000D01*
X71117522Y-91966050D01*
X71215793Y-92031713D01*
X71324986Y-92076942D01*
X71440905Y-92100000D01*
X71559095Y-92100000D01*
X71675014Y-92076942D01*
X71784207Y-92031713D01*
X71882478Y-91966050D01*
X71966050Y-91882478D01*
X72031713Y-91784207D01*
X72076942Y-91675014D01*
X72100000Y-91559095D01*
X72100000Y-91440905D01*
X72076942Y-91324986D01*
X72031713Y-91215793D01*
X71966050Y-91117522D01*
X71882478Y-91033950D01*
X71831669Y-91000000D01*
X71882478Y-90966050D01*
X71966050Y-90882478D01*
X72031713Y-90784207D01*
X72076942Y-90675014D01*
X72100000Y-90559095D01*
X72100000Y-90440905D01*
X72076942Y-90324986D01*
X72031713Y-90215793D01*
X71966050Y-90117522D01*
X71882478Y-90033950D01*
X71784207Y-89968287D01*
X71675014Y-89923058D01*
X71559095Y-89900000D01*
X71440905Y-89900000D01*
X71324986Y-89923058D01*
X71215793Y-89968287D01*
X71117522Y-90033950D01*
X71033950Y-90117522D01*
X70968287Y-90215793D01*
X70923058Y-90324986D01*
X70908136Y-90400001D01*
X63251041Y-90400001D01*
X61425000Y-88573960D01*
X61425000Y-87399419D01*
X61456274Y-87446224D01*
X61553776Y-87543726D01*
X61668426Y-87620332D01*
X61795818Y-87673099D01*
X61931056Y-87700000D01*
X62068944Y-87700000D01*
X62204182Y-87673099D01*
X62331574Y-87620332D01*
X62446224Y-87543726D01*
X62543726Y-87446224D01*
X62620332Y-87331574D01*
X62673099Y-87204182D01*
X62700000Y-87068944D01*
X62700000Y-86931056D01*
X62695020Y-86906020D01*
X62977429Y-86623611D01*
X62894194Y-86824557D01*
X62850000Y-87046735D01*
X62850000Y-87273265D01*
X62894194Y-87495443D01*
X62980884Y-87704729D01*
X63106737Y-87893082D01*
X63266918Y-88053263D01*
X63455271Y-88179116D01*
X63664557Y-88265806D01*
X63886735Y-88310000D01*
X64113265Y-88310000D01*
X64335443Y-88265806D01*
X64544729Y-88179116D01*
X64733082Y-88053263D01*
X64893263Y-87893082D01*
X65019116Y-87704729D01*
X65105806Y-87495443D01*
X65150000Y-87273265D01*
X65150000Y-87046735D01*
X65105806Y-86824557D01*
X65019116Y-86615271D01*
X64893263Y-86426918D01*
X64876344Y-86409999D01*
X65663656Y-86409999D01*
X65646737Y-86426918D01*
X65520884Y-86615271D01*
X65434194Y-86824557D01*
X65390000Y-87046735D01*
X65390000Y-87273265D01*
X65434194Y-87495443D01*
X65520884Y-87704729D01*
X65646737Y-87893082D01*
X65806918Y-88053263D01*
X65995271Y-88179116D01*
X66204557Y-88265806D01*
X66426735Y-88310000D01*
X66653265Y-88310000D01*
X66875443Y-88265806D01*
X67084729Y-88179116D01*
X67273082Y-88053263D01*
X67433263Y-87893082D01*
X67559116Y-87704729D01*
X67645806Y-87495443D01*
X67690000Y-87273265D01*
X67690000Y-87046735D01*
X67645806Y-86824557D01*
X67559116Y-86615271D01*
X67433263Y-86426918D01*
X67416344Y-86409999D01*
X74308959Y-86409999D01*
X76650000Y-88751041D01*
X76650000Y-88809095D01*
X76673058Y-88925014D01*
X76718287Y-89034207D01*
X76783950Y-89132478D01*
X76867522Y-89216050D01*
X76965793Y-89281713D01*
X77074986Y-89326942D01*
X77190905Y-89350000D01*
X77309095Y-89350000D01*
X77425014Y-89326942D01*
X77534207Y-89281713D01*
X77632478Y-89216050D01*
X77716050Y-89132478D01*
X77781713Y-89034207D01*
X77812894Y-88958930D01*
X86495000Y-97641037D01*
X86495001Y-106681290D01*
X86375271Y-106730884D01*
X86186918Y-106856737D01*
X86026737Y-107016918D01*
X85900884Y-107205271D01*
X85814194Y-107414557D01*
X85770000Y-107636735D01*
X85770000Y-107863265D01*
X85814194Y-108085443D01*
X85900884Y-108294729D01*
X86004633Y-108450001D01*
X85857819Y-108450001D01*
X85487043Y-108079225D01*
X85530000Y-107863265D01*
X85530000Y-107636735D01*
X85485806Y-107414557D01*
X85399116Y-107205271D01*
X85273263Y-107016918D01*
X85113082Y-106856737D01*
X84924729Y-106730884D01*
X84715443Y-106644194D01*
X84493265Y-106600000D01*
X84266735Y-106600000D01*
X84150865Y-106623048D01*
X70808656Y-93280839D01*
X70781713Y-93215793D01*
X70716050Y-93117522D01*
X70632478Y-93033950D01*
X70534207Y-92968287D01*
X70425014Y-92923058D01*
X70309095Y-92900000D01*
X70190905Y-92900000D01*
X70074986Y-92923058D01*
X70009942Y-92950000D01*
X67027011Y-92950000D01*
X67000000Y-92947340D01*
X66972989Y-92950000D01*
X66972982Y-92950000D01*
X66892181Y-92957958D01*
X66788506Y-92989408D01*
X66692958Y-93040479D01*
X66609210Y-93109210D01*
X66591987Y-93130196D01*
X64180195Y-95541988D01*
X64159209Y-95559211D01*
X64090478Y-95642959D01*
X64039407Y-95738508D01*
X64007957Y-95842183D01*
X63999999Y-95922984D01*
X63999999Y-95922993D01*
X63997339Y-95950001D01*
X63999999Y-95977009D01*
X64000000Y-100472183D01*
X60272183Y-104200000D01*
X60066593Y-104200000D01*
X60076942Y-104175014D01*
X60100000Y-104059095D01*
X60100000Y-103940905D01*
X60076942Y-103824986D01*
X60031713Y-103715793D01*
X59966050Y-103617522D01*
X59925000Y-103576472D01*
X59925000Y-101520866D01*
X59927055Y-101499999D01*
X59925000Y-101479132D01*
X59925000Y-101479126D01*
X59918850Y-101416686D01*
X59894548Y-101336573D01*
X59855084Y-101262740D01*
X59801974Y-101198026D01*
X59785762Y-101184721D01*
X56425000Y-97823960D01*
X56425000Y-76926040D01*
X56751041Y-76600000D01*
X56809095Y-76600000D01*
X56925014Y-76576942D01*
X57034207Y-76531713D01*
X57132478Y-76466050D01*
X57216050Y-76382478D01*
X57281713Y-76284207D01*
X57326942Y-76175014D01*
X57350000Y-76059095D01*
X57350000Y-75940905D01*
X57326942Y-75824986D01*
X57281713Y-75715793D01*
X57216050Y-75617522D01*
X57132478Y-75533950D01*
X57034207Y-75468287D01*
X56925014Y-75423058D01*
X56809095Y-75400000D01*
X56690905Y-75400000D01*
X56574986Y-75423058D01*
X56465793Y-75468287D01*
X56367522Y-75533950D01*
X56283950Y-75617522D01*
X56218287Y-75715793D01*
X56173058Y-75824986D01*
X56150000Y-75940905D01*
X56150000Y-75998959D01*
X56100000Y-76048959D01*
X56100000Y-75940905D01*
X56076942Y-75824986D01*
X56031713Y-75715793D01*
X55966050Y-75617522D01*
X55882478Y-75533950D01*
X55784207Y-75468287D01*
X55675014Y-75423058D01*
X55559095Y-75400000D01*
X55440905Y-75400000D01*
X55325000Y-75423055D01*
X55325000Y-58875001D01*
X55697944Y-58875001D01*
X55699999Y-58895868D01*
X55700000Y-68944122D01*
X55697944Y-68964999D01*
X55706149Y-69048313D01*
X55728164Y-69120884D01*
X55730452Y-69128426D01*
X55769916Y-69202259D01*
X55797453Y-69235812D01*
X55806419Y-69246737D01*
X55823026Y-69266973D01*
X55839238Y-69280278D01*
X56243788Y-69684828D01*
X56194194Y-69804557D01*
X56150000Y-70026735D01*
X56150000Y-70253265D01*
X56194194Y-70475443D01*
X56280884Y-70684729D01*
X56406737Y-70873082D01*
X56566918Y-71033263D01*
X56755271Y-71159116D01*
X56964557Y-71245806D01*
X57186735Y-71290000D01*
X57413265Y-71290000D01*
X57635443Y-71245806D01*
X57844729Y-71159116D01*
X58033082Y-71033263D01*
X58193263Y-70873082D01*
X58319116Y-70684729D01*
X58405806Y-70475443D01*
X58450000Y-70253265D01*
X58450000Y-70026735D01*
X58405806Y-69804557D01*
X58319116Y-69595271D01*
X58193263Y-69406918D01*
X58033082Y-69246737D01*
X57844729Y-69120884D01*
X57635443Y-69034194D01*
X57413265Y-68990000D01*
X57186735Y-68990000D01*
X56964557Y-69034194D01*
X56844828Y-69083788D01*
X56549999Y-68788959D01*
X56549999Y-59051041D01*
X57276040Y-58325000D01*
X61276472Y-58325000D01*
X61317522Y-58366050D01*
X61415793Y-58431713D01*
X61524986Y-58476942D01*
X61640905Y-58500000D01*
X61759095Y-58500000D01*
X61875014Y-58476942D01*
X61984207Y-58431713D01*
X62082478Y-58366050D01*
X62166050Y-58282478D01*
X62231713Y-58184207D01*
X62276942Y-58075014D01*
X62300000Y-57959095D01*
X62300000Y-57840905D01*
X62276942Y-57724986D01*
X62231713Y-57615793D01*
X62166050Y-57517522D01*
X62082478Y-57433950D01*
X61984207Y-57368287D01*
X61875014Y-57323058D01*
X61759095Y-57300000D01*
X61640905Y-57300000D01*
X61524986Y-57323058D01*
X61415793Y-57368287D01*
X61317522Y-57433950D01*
X61276472Y-57475000D01*
X57120867Y-57475000D01*
X57100000Y-57472945D01*
X57079133Y-57475000D01*
X57079126Y-57475000D01*
X57016686Y-57481150D01*
X56936573Y-57505452D01*
X56862740Y-57544916D01*
X56798026Y-57598026D01*
X56784716Y-57614244D01*
X55839243Y-58559717D01*
X55823025Y-58573027D01*
X55769915Y-58637742D01*
X55730451Y-58711575D01*
X55706149Y-58791688D01*
X55699999Y-58854128D01*
X55699999Y-58854134D01*
X55697944Y-58875001D01*
X55325000Y-58875001D01*
X55325000Y-56940905D01*
X62150000Y-56940905D01*
X62150000Y-57059095D01*
X62173058Y-57175014D01*
X62218287Y-57284207D01*
X62283950Y-57382478D01*
X62367522Y-57466050D01*
X62465793Y-57531713D01*
X62574986Y-57576942D01*
X62690905Y-57600000D01*
X62809095Y-57600000D01*
X62925014Y-57576942D01*
X63034207Y-57531713D01*
X63132478Y-57466050D01*
X63216050Y-57382478D01*
X63250000Y-57331669D01*
X63283950Y-57382478D01*
X63367522Y-57466050D01*
X63465793Y-57531713D01*
X63574986Y-57576942D01*
X63690905Y-57600000D01*
X63809095Y-57600000D01*
X63925014Y-57576942D01*
X64034207Y-57531713D01*
X64132478Y-57466050D01*
X64216050Y-57382478D01*
X64281713Y-57284207D01*
X64326942Y-57175014D01*
X64350000Y-57059095D01*
X64350000Y-56940905D01*
X64326942Y-56824986D01*
X64281713Y-56715793D01*
X64216050Y-56617522D01*
X64151561Y-56553033D01*
X65029595Y-55675000D01*
X68617669Y-55675000D01*
X68719804Y-55777135D01*
X68731551Y-55791449D01*
X68772139Y-55824758D01*
X68788651Y-55838310D01*
X68836718Y-55864002D01*
X68853799Y-55873132D01*
X68924486Y-55894575D01*
X68979580Y-55900001D01*
X68979582Y-55900001D01*
X68997998Y-55901815D01*
X69016414Y-55900001D01*
X69483585Y-55900001D01*
X69502001Y-55901815D01*
X69520417Y-55900001D01*
X69520420Y-55900001D01*
X69575514Y-55894575D01*
X69646201Y-55873132D01*
X69711348Y-55838310D01*
X69768449Y-55791449D01*
X69780196Y-55777135D01*
X69882331Y-55675000D01*
X69931584Y-55675000D01*
X69950000Y-55676814D01*
X69968416Y-55675000D01*
X69968419Y-55675000D01*
X70023513Y-55669574D01*
X70094200Y-55648131D01*
X70159347Y-55613309D01*
X70178557Y-55597544D01*
X70190905Y-55600000D01*
X70309095Y-55600000D01*
X70425014Y-55576942D01*
X70534207Y-55531713D01*
X70632478Y-55466050D01*
X70716050Y-55382478D01*
X70781713Y-55284207D01*
X70826942Y-55175014D01*
X70850000Y-55059095D01*
X70850000Y-54940905D01*
X70826942Y-54824986D01*
X70781713Y-54715793D01*
X70716050Y-54617522D01*
X70632478Y-54533950D01*
X70534207Y-54468287D01*
X70425014Y-54423058D01*
X70309095Y-54400000D01*
X70190905Y-54400000D01*
X70074986Y-54423058D01*
X69965793Y-54468287D01*
X69867522Y-54533950D01*
X69783950Y-54617522D01*
X69750000Y-54668331D01*
X69716050Y-54617522D01*
X69632478Y-54533950D01*
X69534207Y-54468287D01*
X69425014Y-54423058D01*
X69309095Y-54400000D01*
X69190905Y-54400000D01*
X69074986Y-54423058D01*
X68965793Y-54468287D01*
X68867522Y-54533950D01*
X68783950Y-54617522D01*
X68778953Y-54625000D01*
X64768416Y-54625000D01*
X64750000Y-54623186D01*
X64731584Y-54625000D01*
X64731581Y-54625000D01*
X64676487Y-54630426D01*
X64605800Y-54651869D01*
X64585107Y-54662930D01*
X64540653Y-54686690D01*
X64507892Y-54713577D01*
X64483552Y-54733552D01*
X64471809Y-54747861D01*
X63285732Y-55933939D01*
X63285727Y-55933943D01*
X62817916Y-56401755D01*
X62809095Y-56400000D01*
X62690905Y-56400000D01*
X62574986Y-56423058D01*
X62465793Y-56468287D01*
X62367522Y-56533950D01*
X62283950Y-56617522D01*
X62218287Y-56715793D01*
X62173058Y-56824986D01*
X62150000Y-56940905D01*
X55325000Y-56940905D01*
X55325000Y-53112112D01*
X74100000Y-53112112D01*
X74100000Y-53387888D01*
X74153801Y-53658365D01*
X74259336Y-53913149D01*
X74412549Y-54142448D01*
X74607552Y-54337451D01*
X74836851Y-54490664D01*
X75091635Y-54596199D01*
X75362112Y-54650000D01*
X75637888Y-54650000D01*
X75908365Y-54596199D01*
X76163149Y-54490664D01*
X76392448Y-54337451D01*
X76587451Y-54142448D01*
X76740664Y-53913149D01*
X76846199Y-53658365D01*
X76900000Y-53387888D01*
X76900000Y-53112112D01*
X76846199Y-52841635D01*
X76740664Y-52586851D01*
X76587451Y-52357552D01*
X76392448Y-52162549D01*
X76163149Y-52009336D01*
X75908365Y-51903801D01*
X75637888Y-51850000D01*
X75362112Y-51850000D01*
X75091635Y-51903801D01*
X74836851Y-52009336D01*
X74607552Y-52162549D01*
X74412549Y-52357552D01*
X74259336Y-52586851D01*
X74153801Y-52841635D01*
X74100000Y-53112112D01*
X55325000Y-53112112D01*
X55325000Y-50325000D01*
X104675000Y-50325000D01*
X104675001Y-94984030D01*
G04 #@! TA.AperFunction,Conductor*
D24*
G36*
X104675001Y-94984030D02*
G01*
X104675000Y-94984040D01*
X104675001Y-109675000D01*
X55325000Y-109675000D01*
X55325000Y-103426040D01*
X58934721Y-107035762D01*
X58948026Y-107051974D01*
X59012740Y-107105084D01*
X59060855Y-107130801D01*
X59086572Y-107144548D01*
X59166685Y-107168850D01*
X59174327Y-107169603D01*
X59229126Y-107175000D01*
X59229133Y-107175000D01*
X59250000Y-107177055D01*
X59270867Y-107175000D01*
X61229133Y-107175000D01*
X61250000Y-107177055D01*
X61270867Y-107175000D01*
X61270874Y-107175000D01*
X61333314Y-107168850D01*
X61413427Y-107144548D01*
X61487260Y-107105084D01*
X61551974Y-107051974D01*
X61565283Y-107035757D01*
X64001041Y-104600000D01*
X64059095Y-104600000D01*
X64175014Y-104576942D01*
X64284207Y-104531713D01*
X64382478Y-104466050D01*
X64466050Y-104382478D01*
X64531713Y-104284207D01*
X64576942Y-104175014D01*
X64600000Y-104059095D01*
X64600000Y-103940905D01*
X64576942Y-103824986D01*
X64531713Y-103715793D01*
X64466050Y-103617522D01*
X64382478Y-103533950D01*
X64284207Y-103468287D01*
X64175014Y-103423058D01*
X64059095Y-103400000D01*
X63940905Y-103400000D01*
X63824986Y-103423058D01*
X63715793Y-103468287D01*
X63617522Y-103533950D01*
X63533950Y-103617522D01*
X63468287Y-103715793D01*
X63423058Y-103824986D01*
X63400000Y-103940905D01*
X63400000Y-103998959D01*
X61073960Y-106325000D01*
X59426041Y-106325000D01*
X55925000Y-102823960D01*
X55925000Y-98526040D01*
X59075001Y-101676042D01*
X59075000Y-103576472D01*
X59033950Y-103617522D01*
X58968287Y-103715793D01*
X58965159Y-103723344D01*
X57550000Y-102308185D01*
X57550000Y-102240058D01*
X57576942Y-102175014D01*
X57600000Y-102059095D01*
X57600000Y-101940905D01*
X57576942Y-101824986D01*
X57531713Y-101715793D01*
X57466050Y-101617522D01*
X57382478Y-101533950D01*
X57284207Y-101468287D01*
X57175014Y-101423058D01*
X57059095Y-101400000D01*
X56940905Y-101400000D01*
X56824986Y-101423058D01*
X56715793Y-101468287D01*
X56617522Y-101533950D01*
X56533950Y-101617522D01*
X56468287Y-101715793D01*
X56423058Y-101824986D01*
X56400000Y-101940905D01*
X56400000Y-102059095D01*
X56423058Y-102175014D01*
X56450000Y-102240058D01*
X56450000Y-102508994D01*
X56447340Y-102536002D01*
X56450000Y-102563010D01*
X56450000Y-102563019D01*
X56457958Y-102643820D01*
X56489408Y-102747495D01*
X56540479Y-102843044D01*
X56609210Y-102926792D01*
X56630196Y-102944015D01*
X58805990Y-105119810D01*
X58823208Y-105140790D01*
X58844188Y-105158008D01*
X58844193Y-105158013D01*
X58906955Y-105209521D01*
X58958026Y-105236818D01*
X59002504Y-105260592D01*
X59106179Y-105292042D01*
X59186980Y-105300000D01*
X59186990Y-105300000D01*
X59213998Y-105302660D01*
X59241006Y-105300000D01*
X60472992Y-105300000D01*
X60500000Y-105302660D01*
X60527008Y-105300000D01*
X60527018Y-105300000D01*
X60607819Y-105292042D01*
X60711494Y-105260592D01*
X60807042Y-105209521D01*
X60890790Y-105140790D01*
X60908013Y-105119804D01*
X64327817Y-101700000D01*
X66648549Y-101700000D01*
X66648549Y-103300000D01*
X66654341Y-103358810D01*
X66671496Y-103415360D01*
X66699353Y-103467477D01*
X66736842Y-103513158D01*
X66782523Y-103550647D01*
X66834640Y-103578504D01*
X66891190Y-103595659D01*
X66950000Y-103601451D01*
X68550000Y-103601451D01*
X68608810Y-103595659D01*
X68665360Y-103578504D01*
X68717477Y-103550647D01*
X68763158Y-103513158D01*
X68800647Y-103467477D01*
X68828504Y-103415360D01*
X68845659Y-103358810D01*
X68851451Y-103300000D01*
X68851451Y-101700000D01*
X68845659Y-101641190D01*
X68828504Y-101584640D01*
X68800647Y-101532523D01*
X68763158Y-101486842D01*
X68717477Y-101449353D01*
X68665360Y-101421496D01*
X68608810Y-101404341D01*
X68550000Y-101398549D01*
X66950000Y-101398549D01*
X66891190Y-101404341D01*
X66834640Y-101421496D01*
X66782523Y-101449353D01*
X66736842Y-101486842D01*
X66699353Y-101532523D01*
X66671496Y-101584640D01*
X66654341Y-101641190D01*
X66648549Y-101700000D01*
X64327817Y-101700000D01*
X64919803Y-101108014D01*
X64940789Y-101090791D01*
X64983317Y-101038972D01*
X65074986Y-101076942D01*
X65190905Y-101100000D01*
X65309095Y-101100000D01*
X65425014Y-101076942D01*
X65534207Y-101031713D01*
X65632478Y-100966050D01*
X65673528Y-100925000D01*
X68783960Y-100925000D01*
X75403788Y-107544829D01*
X75354194Y-107664557D01*
X75310000Y-107886735D01*
X75310000Y-108113265D01*
X75354194Y-108335443D01*
X75440884Y-108544729D01*
X75566737Y-108733082D01*
X75726918Y-108893263D01*
X75915271Y-109019116D01*
X76124557Y-109105806D01*
X76346735Y-109150000D01*
X76573265Y-109150000D01*
X76795443Y-109105806D01*
X77004729Y-109019116D01*
X77193082Y-108893263D01*
X77353263Y-108733082D01*
X77479116Y-108544729D01*
X77565806Y-108335443D01*
X77610000Y-108113265D01*
X77610000Y-107886735D01*
X77565806Y-107664557D01*
X77479116Y-107455271D01*
X77353263Y-107266918D01*
X77236345Y-107150000D01*
X77848549Y-107150000D01*
X77848549Y-108850000D01*
X77854341Y-108908810D01*
X77871496Y-108965360D01*
X77899353Y-109017477D01*
X77936842Y-109063158D01*
X77982523Y-109100647D01*
X78034640Y-109128504D01*
X78091190Y-109145659D01*
X78150000Y-109151451D01*
X79850000Y-109151451D01*
X79908810Y-109145659D01*
X79965360Y-109128504D01*
X80017477Y-109100647D01*
X80063158Y-109063158D01*
X80100647Y-109017477D01*
X80128504Y-108965360D01*
X80145659Y-108908810D01*
X80151451Y-108850000D01*
X80151451Y-107150000D01*
X80145659Y-107091190D01*
X80128504Y-107034640D01*
X80100647Y-106982523D01*
X80063158Y-106936842D01*
X80017477Y-106899353D01*
X79965360Y-106871496D01*
X79908810Y-106854341D01*
X79850000Y-106848549D01*
X78150000Y-106848549D01*
X78091190Y-106854341D01*
X78034640Y-106871496D01*
X77982523Y-106899353D01*
X77936842Y-106936842D01*
X77899353Y-106982523D01*
X77871496Y-107034640D01*
X77854341Y-107091190D01*
X77848549Y-107150000D01*
X77236345Y-107150000D01*
X77193082Y-107106737D01*
X77004729Y-106980884D01*
X76795443Y-106894194D01*
X76573265Y-106850000D01*
X76346735Y-106850000D01*
X76124557Y-106894194D01*
X76004829Y-106943788D01*
X69275284Y-100214244D01*
X69261974Y-100198026D01*
X69197260Y-100144916D01*
X69123427Y-100105452D01*
X69043314Y-100081150D01*
X68980874Y-100075000D01*
X68980867Y-100075000D01*
X68960000Y-100072945D01*
X68939133Y-100075000D01*
X65673528Y-100075000D01*
X65632478Y-100033950D01*
X65534207Y-99968287D01*
X65425014Y-99923058D01*
X65309095Y-99900000D01*
X65190905Y-99900000D01*
X65099999Y-99918083D01*
X65099999Y-96177818D01*
X67227817Y-94050000D01*
X70009942Y-94050000D01*
X70030839Y-94058656D01*
X83307158Y-107334975D01*
X83274194Y-107414557D01*
X83230000Y-107636735D01*
X83230000Y-107863265D01*
X83274194Y-108085443D01*
X83360884Y-108294729D01*
X83486737Y-108483082D01*
X83646918Y-108643263D01*
X83835271Y-108769116D01*
X84044557Y-108855806D01*
X84266735Y-108900000D01*
X84493265Y-108900000D01*
X84709225Y-108857043D01*
X85221993Y-109369811D01*
X85239211Y-109390791D01*
X85260191Y-109408009D01*
X85260196Y-109408014D01*
X85312098Y-109450608D01*
X85322959Y-109459522D01*
X85418507Y-109510593D01*
X85522182Y-109542043D01*
X85602983Y-109550001D01*
X85602992Y-109550001D01*
X85630000Y-109552661D01*
X85657008Y-109550001D01*
X93142993Y-109550001D01*
X93170001Y-109552661D01*
X93197009Y-109550001D01*
X93197019Y-109550001D01*
X93277820Y-109542043D01*
X93381495Y-109510593D01*
X93477043Y-109459522D01*
X93560791Y-109390791D01*
X93578014Y-109369806D01*
X94119809Y-108828011D01*
X94140790Y-108810792D01*
X94158008Y-108789812D01*
X94158013Y-108789807D01*
X94209520Y-108727045D01*
X94215766Y-108715360D01*
X94260592Y-108631496D01*
X94292042Y-108527821D01*
X94300000Y-108447020D01*
X94300000Y-108447011D01*
X94302660Y-108420003D01*
X94300000Y-108392995D01*
X94300000Y-107636735D01*
X99310000Y-107636735D01*
X99310000Y-107863265D01*
X99354194Y-108085443D01*
X99440884Y-108294729D01*
X99566737Y-108483082D01*
X99726918Y-108643263D01*
X99915271Y-108769116D01*
X100124557Y-108855806D01*
X100346735Y-108900000D01*
X100573265Y-108900000D01*
X100795443Y-108855806D01*
X101004729Y-108769116D01*
X101193082Y-108643263D01*
X101353263Y-108483082D01*
X101479116Y-108294729D01*
X101565806Y-108085443D01*
X101610000Y-107863265D01*
X101610000Y-107636735D01*
X101565806Y-107414557D01*
X101479116Y-107205271D01*
X101353263Y-107016918D01*
X101236345Y-106900000D01*
X101848549Y-106900000D01*
X101848549Y-108600000D01*
X101854341Y-108658810D01*
X101871496Y-108715360D01*
X101899353Y-108767477D01*
X101936842Y-108813158D01*
X101982523Y-108850647D01*
X102034640Y-108878504D01*
X102091190Y-108895659D01*
X102150000Y-108901451D01*
X103850000Y-108901451D01*
X103908810Y-108895659D01*
X103965360Y-108878504D01*
X104017477Y-108850647D01*
X104063158Y-108813158D01*
X104100647Y-108767477D01*
X104128504Y-108715360D01*
X104145659Y-108658810D01*
X104151451Y-108600000D01*
X104151451Y-106900000D01*
X104145659Y-106841190D01*
X104128504Y-106784640D01*
X104100647Y-106732523D01*
X104063158Y-106686842D01*
X104017477Y-106649353D01*
X103965360Y-106621496D01*
X103908810Y-106604341D01*
X103850000Y-106598549D01*
X102150000Y-106598549D01*
X102091190Y-106604341D01*
X102034640Y-106621496D01*
X101982523Y-106649353D01*
X101936842Y-106686842D01*
X101899353Y-106732523D01*
X101871496Y-106784640D01*
X101854341Y-106841190D01*
X101848549Y-106900000D01*
X101236345Y-106900000D01*
X101193082Y-106856737D01*
X101004729Y-106730884D01*
X100795443Y-106644194D01*
X100573265Y-106600000D01*
X100346735Y-106600000D01*
X100124557Y-106644194D01*
X99915271Y-106730884D01*
X99726918Y-106856737D01*
X99566737Y-107016918D01*
X99440884Y-107205271D01*
X99354194Y-107414557D01*
X99310000Y-107636735D01*
X94300000Y-107636735D01*
X94300000Y-102862112D01*
X100100000Y-102862112D01*
X100100000Y-103137888D01*
X100153801Y-103408365D01*
X100259336Y-103663149D01*
X100412549Y-103892448D01*
X100607552Y-104087451D01*
X100836851Y-104240664D01*
X101091635Y-104346199D01*
X101362112Y-104400000D01*
X101637888Y-104400000D01*
X101908365Y-104346199D01*
X102163149Y-104240664D01*
X102392448Y-104087451D01*
X102587451Y-103892448D01*
X102740664Y-103663149D01*
X102846199Y-103408365D01*
X102900000Y-103137888D01*
X102900000Y-102862112D01*
X102846199Y-102591635D01*
X102740664Y-102336851D01*
X102587451Y-102107552D01*
X102392448Y-101912549D01*
X102163149Y-101759336D01*
X101908365Y-101653801D01*
X101637888Y-101600000D01*
X101362112Y-101600000D01*
X101091635Y-101653801D01*
X100836851Y-101759336D01*
X100607552Y-101912549D01*
X100412549Y-102107552D01*
X100259336Y-102336851D01*
X100153801Y-102591635D01*
X100100000Y-102862112D01*
X94300000Y-102862112D01*
X94300000Y-96300000D01*
X96222992Y-96300000D01*
X96250000Y-96302660D01*
X96277008Y-96300000D01*
X96277018Y-96300000D01*
X96357819Y-96292042D01*
X96461494Y-96260592D01*
X96557042Y-96209521D01*
X96640790Y-96140790D01*
X96658013Y-96119804D01*
X102369810Y-90408008D01*
X102390790Y-90390790D01*
X102408008Y-90369810D01*
X102408013Y-90369805D01*
X102459521Y-90307043D01*
X102510591Y-90211495D01*
X102510592Y-90211494D01*
X102542042Y-90107819D01*
X102550000Y-90027018D01*
X102550000Y-90027008D01*
X102552660Y-90000000D01*
X102550000Y-89972992D01*
X102550000Y-67027008D01*
X102552660Y-67000000D01*
X102550000Y-66972992D01*
X102550000Y-66972982D01*
X102542042Y-66892181D01*
X102514678Y-66801974D01*
X102510592Y-66788505D01*
X102459521Y-66692958D01*
X102408013Y-66630195D01*
X102408008Y-66630190D01*
X102390790Y-66609210D01*
X102369810Y-66591992D01*
X98658013Y-62880196D01*
X98640790Y-62859210D01*
X98619804Y-62841987D01*
X96033018Y-60255201D01*
X96033013Y-60255195D01*
X95408009Y-59630191D01*
X95390790Y-59609210D01*
X95369809Y-59591991D01*
X93277818Y-57500000D01*
X98170862Y-57500000D01*
X98191367Y-57708188D01*
X98252093Y-57908376D01*
X98350707Y-58092870D01*
X98483419Y-58254581D01*
X98645130Y-58387293D01*
X98829624Y-58485907D01*
X99029812Y-58546633D01*
X99185834Y-58562000D01*
X100814166Y-58562000D01*
X100970188Y-58546633D01*
X101170376Y-58485907D01*
X101354870Y-58387293D01*
X101516581Y-58254581D01*
X101649293Y-58092870D01*
X101747907Y-57908376D01*
X101808633Y-57708188D01*
X101829138Y-57500000D01*
X101808633Y-57291812D01*
X101747907Y-57091624D01*
X101649293Y-56907130D01*
X101516581Y-56745419D01*
X101354870Y-56612707D01*
X101170376Y-56514093D01*
X100970188Y-56453367D01*
X100814166Y-56438000D01*
X99185834Y-56438000D01*
X99029812Y-56453367D01*
X98829624Y-56514093D01*
X98645130Y-56612707D01*
X98483419Y-56745419D01*
X98350707Y-56907130D01*
X98252093Y-57091624D01*
X98191367Y-57291812D01*
X98170862Y-57500000D01*
X93277818Y-57500000D01*
X92458012Y-56680195D01*
X92440789Y-56659209D01*
X92357041Y-56590478D01*
X92261493Y-56539407D01*
X92157818Y-56507957D01*
X92077017Y-56499999D01*
X92077007Y-56499999D01*
X92049999Y-56497339D01*
X92022991Y-56499999D01*
X76177008Y-56499999D01*
X76150000Y-56497339D01*
X76122992Y-56499999D01*
X76122983Y-56499999D01*
X76042182Y-56507957D01*
X75938507Y-56539407D01*
X75842959Y-56590478D01*
X75842957Y-56590479D01*
X75842958Y-56590479D01*
X75780196Y-56641986D01*
X75780191Y-56641991D01*
X75759211Y-56659209D01*
X75741993Y-56680189D01*
X75273633Y-57148549D01*
X74050000Y-57148549D01*
X73991190Y-57154341D01*
X73934640Y-57171496D01*
X73882523Y-57199353D01*
X73836842Y-57236842D01*
X73799353Y-57282523D01*
X73771496Y-57334640D01*
X73754341Y-57391190D01*
X73748549Y-57450000D01*
X73748549Y-58499999D01*
X62727009Y-58499999D01*
X62700001Y-58497339D01*
X62672993Y-58499999D01*
X62672983Y-58499999D01*
X62592182Y-58507957D01*
X62512636Y-58532087D01*
X62488506Y-58539407D01*
X62392959Y-58590478D01*
X62330196Y-58641986D01*
X62330191Y-58641991D01*
X62309211Y-58659209D01*
X62291993Y-58680189D01*
X60530839Y-60441344D01*
X60465793Y-60468287D01*
X60367522Y-60533950D01*
X60283950Y-60617522D01*
X60218287Y-60715793D01*
X60191345Y-60780837D01*
X59355181Y-61617002D01*
X59334201Y-61634220D01*
X59316983Y-61655200D01*
X59316977Y-61655206D01*
X59265469Y-61717968D01*
X59214399Y-61813516D01*
X59182949Y-61917192D01*
X59172330Y-62025010D01*
X59174991Y-62052028D01*
X59174990Y-71047192D01*
X58226108Y-71996075D01*
X58193263Y-71946918D01*
X58033082Y-71786737D01*
X57844729Y-71660884D01*
X57635443Y-71574194D01*
X57413265Y-71530000D01*
X57186735Y-71530000D01*
X56964557Y-71574194D01*
X56755271Y-71660884D01*
X56566918Y-71786737D01*
X56406737Y-71946918D01*
X56280884Y-72135271D01*
X56194194Y-72344557D01*
X56150000Y-72566735D01*
X56150000Y-72793265D01*
X56194194Y-73015443D01*
X56280884Y-73224729D01*
X56406737Y-73413082D01*
X56566918Y-73573263D01*
X56755271Y-73699116D01*
X56964557Y-73785806D01*
X57186735Y-73830000D01*
X57413265Y-73830000D01*
X57635443Y-73785806D01*
X57844729Y-73699116D01*
X58033082Y-73573263D01*
X58193263Y-73413082D01*
X58314198Y-73232089D01*
X58320000Y-73232660D01*
X58347008Y-73230000D01*
X58347018Y-73230000D01*
X58427819Y-73222042D01*
X58531494Y-73190592D01*
X58627042Y-73139521D01*
X58710790Y-73070790D01*
X58728013Y-73049804D01*
X59825001Y-71952817D01*
X59825000Y-78995545D01*
X59784207Y-78968287D01*
X59675014Y-78923058D01*
X59559095Y-78900000D01*
X59440905Y-78900000D01*
X59324986Y-78923058D01*
X59215793Y-78968287D01*
X59117522Y-79033950D01*
X59033950Y-79117522D01*
X58968287Y-79215793D01*
X58923058Y-79324986D01*
X58900000Y-79440905D01*
X58900000Y-79559095D01*
X58923058Y-79675014D01*
X58968287Y-79784207D01*
X59033950Y-79882478D01*
X59075000Y-79923528D01*
X59075001Y-86595102D01*
X58892448Y-86412549D01*
X58663149Y-86259336D01*
X58408365Y-86153801D01*
X58137888Y-86100000D01*
X57862112Y-86100000D01*
X57591635Y-86153801D01*
X57336851Y-86259336D01*
X57107552Y-86412549D01*
X56912549Y-86607552D01*
X56759336Y-86836851D01*
X56653801Y-87091635D01*
X56600000Y-87362112D01*
X56600000Y-87637888D01*
X56653801Y-87908365D01*
X56759336Y-88163149D01*
X56912549Y-88392448D01*
X57107552Y-88587451D01*
X57336851Y-88740664D01*
X57591635Y-88846199D01*
X57862112Y-88900000D01*
X58137888Y-88900000D01*
X58408365Y-88846199D01*
X58663149Y-88740664D01*
X58892448Y-88587451D01*
X59075001Y-88404898D01*
X59075001Y-89479123D01*
X59072945Y-89500000D01*
X59081150Y-89583314D01*
X59089006Y-89609210D01*
X59105453Y-89663427D01*
X59144917Y-89737260D01*
X59198027Y-89801974D01*
X59214239Y-89815279D01*
X62434721Y-93035762D01*
X62448026Y-93051974D01*
X62512740Y-93105084D01*
X62586573Y-93144548D01*
X62642383Y-93161478D01*
X62666685Y-93168850D01*
X62675098Y-93169679D01*
X62729126Y-93175000D01*
X62729132Y-93175000D01*
X62749999Y-93177055D01*
X62770866Y-93175000D01*
X63692093Y-93175000D01*
X63706274Y-93196224D01*
X63803776Y-93293726D01*
X63918426Y-93370332D01*
X64045818Y-93423099D01*
X64181056Y-93450000D01*
X64318944Y-93450000D01*
X64454182Y-93423099D01*
X64581574Y-93370332D01*
X64696224Y-93293726D01*
X64793726Y-93196224D01*
X64870332Y-93081574D01*
X64923099Y-92954182D01*
X64950000Y-92818944D01*
X64950000Y-92681056D01*
X64923099Y-92545818D01*
X64870332Y-92418426D01*
X64793726Y-92303776D01*
X64696224Y-92206274D01*
X64581574Y-92129668D01*
X64454182Y-92076901D01*
X64318944Y-92050000D01*
X64181056Y-92050000D01*
X64045818Y-92076901D01*
X63918426Y-92129668D01*
X63803776Y-92206274D01*
X63706274Y-92303776D01*
X63692093Y-92325000D01*
X62926041Y-92325000D01*
X59925000Y-89323960D01*
X59925000Y-89273917D01*
X59948026Y-89301974D01*
X59964243Y-89315283D01*
X62434721Y-91785762D01*
X62448026Y-91801974D01*
X62512740Y-91855084D01*
X62586573Y-91894548D01*
X62642383Y-91911478D01*
X62666685Y-91918850D01*
X62674327Y-91919603D01*
X62729126Y-91925000D01*
X62729133Y-91925000D01*
X62750000Y-91927055D01*
X62770867Y-91925000D01*
X71076472Y-91925000D01*
X71117522Y-91966050D01*
X71215793Y-92031713D01*
X71324986Y-92076942D01*
X71440905Y-92100000D01*
X71559095Y-92100000D01*
X71675014Y-92076942D01*
X71784207Y-92031713D01*
X71882478Y-91966050D01*
X71966050Y-91882478D01*
X72031713Y-91784207D01*
X72076942Y-91675014D01*
X72100000Y-91559095D01*
X72100000Y-91440905D01*
X72076942Y-91324986D01*
X72031713Y-91215793D01*
X71966050Y-91117522D01*
X71882478Y-91033950D01*
X71831669Y-91000000D01*
X71882478Y-90966050D01*
X71966050Y-90882478D01*
X72031713Y-90784207D01*
X72076942Y-90675014D01*
X72100000Y-90559095D01*
X72100000Y-90440905D01*
X72076942Y-90324986D01*
X72031713Y-90215793D01*
X71966050Y-90117522D01*
X71882478Y-90033950D01*
X71784207Y-89968287D01*
X71675014Y-89923058D01*
X71559095Y-89900000D01*
X71440905Y-89900000D01*
X71324986Y-89923058D01*
X71215793Y-89968287D01*
X71117522Y-90033950D01*
X71033950Y-90117522D01*
X70968287Y-90215793D01*
X70923058Y-90324986D01*
X70908136Y-90400001D01*
X63251041Y-90400001D01*
X61425000Y-88573960D01*
X61425000Y-87399419D01*
X61456274Y-87446224D01*
X61553776Y-87543726D01*
X61668426Y-87620332D01*
X61795818Y-87673099D01*
X61931056Y-87700000D01*
X62068944Y-87700000D01*
X62204182Y-87673099D01*
X62331574Y-87620332D01*
X62446224Y-87543726D01*
X62543726Y-87446224D01*
X62620332Y-87331574D01*
X62673099Y-87204182D01*
X62700000Y-87068944D01*
X62700000Y-86931056D01*
X62695020Y-86906020D01*
X62977429Y-86623611D01*
X62894194Y-86824557D01*
X62850000Y-87046735D01*
X62850000Y-87273265D01*
X62894194Y-87495443D01*
X62980884Y-87704729D01*
X63106737Y-87893082D01*
X63266918Y-88053263D01*
X63455271Y-88179116D01*
X63664557Y-88265806D01*
X63886735Y-88310000D01*
X64113265Y-88310000D01*
X64335443Y-88265806D01*
X64544729Y-88179116D01*
X64733082Y-88053263D01*
X64893263Y-87893082D01*
X65019116Y-87704729D01*
X65105806Y-87495443D01*
X65150000Y-87273265D01*
X65150000Y-87046735D01*
X65105806Y-86824557D01*
X65019116Y-86615271D01*
X64893263Y-86426918D01*
X64876344Y-86409999D01*
X65663656Y-86409999D01*
X65646737Y-86426918D01*
X65520884Y-86615271D01*
X65434194Y-86824557D01*
X65390000Y-87046735D01*
X65390000Y-87273265D01*
X65434194Y-87495443D01*
X65520884Y-87704729D01*
X65646737Y-87893082D01*
X65806918Y-88053263D01*
X65995271Y-88179116D01*
X66204557Y-88265806D01*
X66426735Y-88310000D01*
X66653265Y-88310000D01*
X66875443Y-88265806D01*
X67084729Y-88179116D01*
X67273082Y-88053263D01*
X67433263Y-87893082D01*
X67559116Y-87704729D01*
X67645806Y-87495443D01*
X67690000Y-87273265D01*
X67690000Y-87046735D01*
X67645806Y-86824557D01*
X67559116Y-86615271D01*
X67433263Y-86426918D01*
X67416344Y-86409999D01*
X74308959Y-86409999D01*
X76650000Y-88751041D01*
X76650000Y-88809095D01*
X76673058Y-88925014D01*
X76718287Y-89034207D01*
X76783950Y-89132478D01*
X76867522Y-89216050D01*
X76965793Y-89281713D01*
X77074986Y-89326942D01*
X77190905Y-89350000D01*
X77309095Y-89350000D01*
X77425014Y-89326942D01*
X77534207Y-89281713D01*
X77632478Y-89216050D01*
X77716050Y-89132478D01*
X77781713Y-89034207D01*
X77812894Y-88958930D01*
X86495000Y-97641037D01*
X86495001Y-106681290D01*
X86375271Y-106730884D01*
X86186918Y-106856737D01*
X86026737Y-107016918D01*
X85900884Y-107205271D01*
X85814194Y-107414557D01*
X85770000Y-107636735D01*
X85770000Y-107863265D01*
X85814194Y-108085443D01*
X85900884Y-108294729D01*
X86004633Y-108450001D01*
X85857819Y-108450001D01*
X85487043Y-108079225D01*
X85530000Y-107863265D01*
X85530000Y-107636735D01*
X85485806Y-107414557D01*
X85399116Y-107205271D01*
X85273263Y-107016918D01*
X85113082Y-106856737D01*
X84924729Y-106730884D01*
X84715443Y-106644194D01*
X84493265Y-106600000D01*
X84266735Y-106600000D01*
X84150865Y-106623048D01*
X70808656Y-93280839D01*
X70781713Y-93215793D01*
X70716050Y-93117522D01*
X70632478Y-93033950D01*
X70534207Y-92968287D01*
X70425014Y-92923058D01*
X70309095Y-92900000D01*
X70190905Y-92900000D01*
X70074986Y-92923058D01*
X70009942Y-92950000D01*
X67027011Y-92950000D01*
X67000000Y-92947340D01*
X66972989Y-92950000D01*
X66972982Y-92950000D01*
X66892181Y-92957958D01*
X66788506Y-92989408D01*
X66692958Y-93040479D01*
X66609210Y-93109210D01*
X66591987Y-93130196D01*
X64180195Y-95541988D01*
X64159209Y-95559211D01*
X64090478Y-95642959D01*
X64039407Y-95738508D01*
X64007957Y-95842183D01*
X63999999Y-95922984D01*
X63999999Y-95922993D01*
X63997339Y-95950001D01*
X63999999Y-95977009D01*
X64000000Y-100472183D01*
X60272183Y-104200000D01*
X60066593Y-104200000D01*
X60076942Y-104175014D01*
X60100000Y-104059095D01*
X60100000Y-103940905D01*
X60076942Y-103824986D01*
X60031713Y-103715793D01*
X59966050Y-103617522D01*
X59925000Y-103576472D01*
X59925000Y-101520866D01*
X59927055Y-101499999D01*
X59925000Y-101479132D01*
X59925000Y-101479126D01*
X59918850Y-101416686D01*
X59894548Y-101336573D01*
X59855084Y-101262740D01*
X59801974Y-101198026D01*
X59785762Y-101184721D01*
X56425000Y-97823960D01*
X56425000Y-76926040D01*
X56751041Y-76600000D01*
X56809095Y-76600000D01*
X56925014Y-76576942D01*
X57034207Y-76531713D01*
X57132478Y-76466050D01*
X57216050Y-76382478D01*
X57281713Y-76284207D01*
X57326942Y-76175014D01*
X57350000Y-76059095D01*
X57350000Y-75940905D01*
X57326942Y-75824986D01*
X57281713Y-75715793D01*
X57216050Y-75617522D01*
X57132478Y-75533950D01*
X57034207Y-75468287D01*
X56925014Y-75423058D01*
X56809095Y-75400000D01*
X56690905Y-75400000D01*
X56574986Y-75423058D01*
X56465793Y-75468287D01*
X56367522Y-75533950D01*
X56283950Y-75617522D01*
X56218287Y-75715793D01*
X56173058Y-75824986D01*
X56150000Y-75940905D01*
X56150000Y-75998959D01*
X56100000Y-76048959D01*
X56100000Y-75940905D01*
X56076942Y-75824986D01*
X56031713Y-75715793D01*
X55966050Y-75617522D01*
X55882478Y-75533950D01*
X55784207Y-75468287D01*
X55675014Y-75423058D01*
X55559095Y-75400000D01*
X55440905Y-75400000D01*
X55325000Y-75423055D01*
X55325000Y-58875001D01*
X55697944Y-58875001D01*
X55699999Y-58895868D01*
X55700000Y-68944122D01*
X55697944Y-68964999D01*
X55706149Y-69048313D01*
X55728164Y-69120884D01*
X55730452Y-69128426D01*
X55769916Y-69202259D01*
X55797453Y-69235812D01*
X55806419Y-69246737D01*
X55823026Y-69266973D01*
X55839238Y-69280278D01*
X56243788Y-69684828D01*
X56194194Y-69804557D01*
X56150000Y-70026735D01*
X56150000Y-70253265D01*
X56194194Y-70475443D01*
X56280884Y-70684729D01*
X56406737Y-70873082D01*
X56566918Y-71033263D01*
X56755271Y-71159116D01*
X56964557Y-71245806D01*
X57186735Y-71290000D01*
X57413265Y-71290000D01*
X57635443Y-71245806D01*
X57844729Y-71159116D01*
X58033082Y-71033263D01*
X58193263Y-70873082D01*
X58319116Y-70684729D01*
X58405806Y-70475443D01*
X58450000Y-70253265D01*
X58450000Y-70026735D01*
X58405806Y-69804557D01*
X58319116Y-69595271D01*
X58193263Y-69406918D01*
X58033082Y-69246737D01*
X57844729Y-69120884D01*
X57635443Y-69034194D01*
X57413265Y-68990000D01*
X57186735Y-68990000D01*
X56964557Y-69034194D01*
X56844828Y-69083788D01*
X56549999Y-68788959D01*
X56549999Y-59051041D01*
X57276040Y-58325000D01*
X61276472Y-58325000D01*
X61317522Y-58366050D01*
X61415793Y-58431713D01*
X61524986Y-58476942D01*
X61640905Y-58500000D01*
X61759095Y-58500000D01*
X61875014Y-58476942D01*
X61984207Y-58431713D01*
X62082478Y-58366050D01*
X62166050Y-58282478D01*
X62231713Y-58184207D01*
X62276942Y-58075014D01*
X62300000Y-57959095D01*
X62300000Y-57840905D01*
X62276942Y-57724986D01*
X62231713Y-57615793D01*
X62166050Y-57517522D01*
X62082478Y-57433950D01*
X61984207Y-57368287D01*
X61875014Y-57323058D01*
X61759095Y-57300000D01*
X61640905Y-57300000D01*
X61524986Y-57323058D01*
X61415793Y-57368287D01*
X61317522Y-57433950D01*
X61276472Y-57475000D01*
X57120867Y-57475000D01*
X57100000Y-57472945D01*
X57079133Y-57475000D01*
X57079126Y-57475000D01*
X57016686Y-57481150D01*
X56936573Y-57505452D01*
X56862740Y-57544916D01*
X56798026Y-57598026D01*
X56784716Y-57614244D01*
X55839243Y-58559717D01*
X55823025Y-58573027D01*
X55769915Y-58637742D01*
X55730451Y-58711575D01*
X55706149Y-58791688D01*
X55699999Y-58854128D01*
X55699999Y-58854134D01*
X55697944Y-58875001D01*
X55325000Y-58875001D01*
X55325000Y-56940905D01*
X62150000Y-56940905D01*
X62150000Y-57059095D01*
X62173058Y-57175014D01*
X62218287Y-57284207D01*
X62283950Y-57382478D01*
X62367522Y-57466050D01*
X62465793Y-57531713D01*
X62574986Y-57576942D01*
X62690905Y-57600000D01*
X62809095Y-57600000D01*
X62925014Y-57576942D01*
X63034207Y-57531713D01*
X63132478Y-57466050D01*
X63216050Y-57382478D01*
X63250000Y-57331669D01*
X63283950Y-57382478D01*
X63367522Y-57466050D01*
X63465793Y-57531713D01*
X63574986Y-57576942D01*
X63690905Y-57600000D01*
X63809095Y-57600000D01*
X63925014Y-57576942D01*
X64034207Y-57531713D01*
X64132478Y-57466050D01*
X64216050Y-57382478D01*
X64281713Y-57284207D01*
X64326942Y-57175014D01*
X64350000Y-57059095D01*
X64350000Y-56940905D01*
X64326942Y-56824986D01*
X64281713Y-56715793D01*
X64216050Y-56617522D01*
X64151561Y-56553033D01*
X65029595Y-55675000D01*
X68617669Y-55675000D01*
X68719804Y-55777135D01*
X68731551Y-55791449D01*
X68772139Y-55824758D01*
X68788651Y-55838310D01*
X68836718Y-55864002D01*
X68853799Y-55873132D01*
X68924486Y-55894575D01*
X68979580Y-55900001D01*
X68979582Y-55900001D01*
X68997998Y-55901815D01*
X69016414Y-55900001D01*
X69483585Y-55900001D01*
X69502001Y-55901815D01*
X69520417Y-55900001D01*
X69520420Y-55900001D01*
X69575514Y-55894575D01*
X69646201Y-55873132D01*
X69711348Y-55838310D01*
X69768449Y-55791449D01*
X69780196Y-55777135D01*
X69882331Y-55675000D01*
X69931584Y-55675000D01*
X69950000Y-55676814D01*
X69968416Y-55675000D01*
X69968419Y-55675000D01*
X70023513Y-55669574D01*
X70094200Y-55648131D01*
X70159347Y-55613309D01*
X70178557Y-55597544D01*
X70190905Y-55600000D01*
X70309095Y-55600000D01*
X70425014Y-55576942D01*
X70534207Y-55531713D01*
X70632478Y-55466050D01*
X70716050Y-55382478D01*
X70781713Y-55284207D01*
X70826942Y-55175014D01*
X70850000Y-55059095D01*
X70850000Y-54940905D01*
X70826942Y-54824986D01*
X70781713Y-54715793D01*
X70716050Y-54617522D01*
X70632478Y-54533950D01*
X70534207Y-54468287D01*
X70425014Y-54423058D01*
X70309095Y-54400000D01*
X70190905Y-54400000D01*
X70074986Y-54423058D01*
X69965793Y-54468287D01*
X69867522Y-54533950D01*
X69783950Y-54617522D01*
X69750000Y-54668331D01*
X69716050Y-54617522D01*
X69632478Y-54533950D01*
X69534207Y-54468287D01*
X69425014Y-54423058D01*
X69309095Y-54400000D01*
X69190905Y-54400000D01*
X69074986Y-54423058D01*
X68965793Y-54468287D01*
X68867522Y-54533950D01*
X68783950Y-54617522D01*
X68778953Y-54625000D01*
X64768416Y-54625000D01*
X64750000Y-54623186D01*
X64731584Y-54625000D01*
X64731581Y-54625000D01*
X64676487Y-54630426D01*
X64605800Y-54651869D01*
X64585107Y-54662930D01*
X64540653Y-54686690D01*
X64507892Y-54713577D01*
X64483552Y-54733552D01*
X64471809Y-54747861D01*
X63285732Y-55933939D01*
X63285727Y-55933943D01*
X62817916Y-56401755D01*
X62809095Y-56400000D01*
X62690905Y-56400000D01*
X62574986Y-56423058D01*
X62465793Y-56468287D01*
X62367522Y-56533950D01*
X62283950Y-56617522D01*
X62218287Y-56715793D01*
X62173058Y-56824986D01*
X62150000Y-56940905D01*
X55325000Y-56940905D01*
X55325000Y-53112112D01*
X74100000Y-53112112D01*
X74100000Y-53387888D01*
X74153801Y-53658365D01*
X74259336Y-53913149D01*
X74412549Y-54142448D01*
X74607552Y-54337451D01*
X74836851Y-54490664D01*
X75091635Y-54596199D01*
X75362112Y-54650000D01*
X75637888Y-54650000D01*
X75908365Y-54596199D01*
X76163149Y-54490664D01*
X76392448Y-54337451D01*
X76587451Y-54142448D01*
X76740664Y-53913149D01*
X76846199Y-53658365D01*
X76900000Y-53387888D01*
X76900000Y-53112112D01*
X76846199Y-52841635D01*
X76740664Y-52586851D01*
X76587451Y-52357552D01*
X76392448Y-52162549D01*
X76163149Y-52009336D01*
X75908365Y-51903801D01*
X75637888Y-51850000D01*
X75362112Y-51850000D01*
X75091635Y-51903801D01*
X74836851Y-52009336D01*
X74607552Y-52162549D01*
X74412549Y-52357552D01*
X74259336Y-52586851D01*
X74153801Y-52841635D01*
X74100000Y-53112112D01*
X55325000Y-53112112D01*
X55325000Y-50325000D01*
X104675000Y-50325000D01*
X104675001Y-94984030D01*
G37*
G04 #@! TD.AperFunction*
D23*
X93672182Y-59450000D02*
X93436834Y-59450000D01*
X93331574Y-59379668D01*
X93204182Y-59326901D01*
X93068944Y-59300000D01*
X92931056Y-59300000D01*
X92795818Y-59326901D01*
X92668426Y-59379668D01*
X92553776Y-59456274D01*
X92456274Y-59553776D01*
X92379668Y-59668426D01*
X92326901Y-59795818D01*
X92300000Y-59931056D01*
X92300000Y-60068944D01*
X92326901Y-60204182D01*
X92379668Y-60331574D01*
X92456274Y-60446224D01*
X92553776Y-60543726D01*
X92668426Y-60620332D01*
X92795818Y-60673099D01*
X92931056Y-60700000D01*
X93068944Y-60700000D01*
X93204182Y-60673099D01*
X93331574Y-60620332D01*
X93436834Y-60550000D01*
X94772182Y-60550000D01*
X95255195Y-61033013D01*
X95255201Y-61033018D01*
X97700000Y-63477817D01*
X97700001Y-65172183D01*
X97697797Y-65169979D01*
X97673099Y-65045818D01*
X97620332Y-64918426D01*
X97543726Y-64803776D01*
X97446224Y-64706274D01*
X97331574Y-64629668D01*
X97204182Y-64576901D01*
X97068944Y-64550000D01*
X96931056Y-64550000D01*
X96795818Y-64576901D01*
X96668426Y-64629668D01*
X96553776Y-64706274D01*
X96456274Y-64803776D01*
X96379668Y-64918426D01*
X96326901Y-65045818D01*
X96300000Y-65181056D01*
X96300000Y-65318944D01*
X96326901Y-65454182D01*
X96379668Y-65581574D01*
X96456274Y-65696224D01*
X96553776Y-65793726D01*
X96668426Y-65870332D01*
X96795818Y-65923099D01*
X96919979Y-65947797D01*
X97700000Y-66727818D01*
X97700000Y-66972983D01*
X97700001Y-70772182D01*
X96373634Y-72098549D01*
X95150000Y-72098549D01*
X95091190Y-72104341D01*
X95034640Y-72121496D01*
X94982523Y-72149353D01*
X94936842Y-72186842D01*
X94899353Y-72232523D01*
X94871496Y-72284640D01*
X94854341Y-72341190D01*
X94848549Y-72400000D01*
X94848549Y-74100000D01*
X94854341Y-74158810D01*
X94871496Y-74215360D01*
X94899353Y-74267477D01*
X94936842Y-74313158D01*
X94982523Y-74350647D01*
X95034640Y-74378504D01*
X95091190Y-74395659D01*
X95150000Y-74401451D01*
X96850000Y-74401451D01*
X96908810Y-74395659D01*
X96965360Y-74378504D01*
X97017477Y-74350647D01*
X97063158Y-74313158D01*
X97100647Y-74267477D01*
X97128504Y-74215360D01*
X97145659Y-74158810D01*
X97151451Y-74100000D01*
X97151451Y-73136735D01*
X97390000Y-73136735D01*
X97390000Y-73363265D01*
X97434194Y-73585443D01*
X97520884Y-73794729D01*
X97646737Y-73983082D01*
X97806918Y-74143263D01*
X97995271Y-74269116D01*
X98204557Y-74355806D01*
X98426735Y-74400000D01*
X98653265Y-74400000D01*
X98875443Y-74355806D01*
X99084729Y-74269116D01*
X99273082Y-74143263D01*
X99433263Y-73983082D01*
X99559116Y-73794729D01*
X99645806Y-73585443D01*
X99690000Y-73363265D01*
X99690000Y-73136735D01*
X99645806Y-72914557D01*
X99559116Y-72705271D01*
X99433263Y-72516918D01*
X99273082Y-72356737D01*
X99084729Y-72230884D01*
X98875443Y-72144194D01*
X98653265Y-72100000D01*
X98426735Y-72100000D01*
X98204557Y-72144194D01*
X97995271Y-72230884D01*
X97806918Y-72356737D01*
X97646737Y-72516918D01*
X97520884Y-72705271D01*
X97434194Y-72914557D01*
X97390000Y-73136735D01*
X97151451Y-73136735D01*
X97151451Y-72876366D01*
X98619804Y-71408013D01*
X98640790Y-71390790D01*
X98709521Y-71307042D01*
X98760592Y-71211494D01*
X98792042Y-71107819D01*
X98800000Y-71027018D01*
X98800000Y-71027011D01*
X98802660Y-71000000D01*
X98800000Y-70972989D01*
X98800000Y-66527008D01*
X98802660Y-66500000D01*
X98800000Y-66472992D01*
X98800000Y-64577817D01*
X101450001Y-67227819D01*
X101450000Y-89772182D01*
X96022183Y-95200000D01*
X93977817Y-95200000D01*
X93908013Y-95130196D01*
X93890790Y-95109210D01*
X93807042Y-95040479D01*
X93711494Y-94989408D01*
X93607819Y-94957958D01*
X93527018Y-94950000D01*
X93527008Y-94950000D01*
X93500000Y-94947340D01*
X93472992Y-94950000D01*
X92240058Y-94950000D01*
X92175014Y-94923058D01*
X92059095Y-94900000D01*
X91940905Y-94900000D01*
X91824986Y-94923058D01*
X91715793Y-94968287D01*
X91617522Y-95033950D01*
X91533950Y-95117522D01*
X91468287Y-95215793D01*
X91423058Y-95324986D01*
X91400000Y-95440905D01*
X91400000Y-95559095D01*
X91423058Y-95675014D01*
X91468287Y-95784207D01*
X91533950Y-95882478D01*
X91617522Y-95966050D01*
X91715793Y-96031713D01*
X91824986Y-96076942D01*
X91940905Y-96100000D01*
X92059095Y-96100000D01*
X92175014Y-96076942D01*
X92240058Y-96050000D01*
X93200000Y-96050000D01*
X93200001Y-108192183D01*
X92942184Y-108450001D01*
X90375367Y-108450001D01*
X90479116Y-108294729D01*
X90565806Y-108085443D01*
X90610000Y-107863265D01*
X90610000Y-107636735D01*
X90565806Y-107414557D01*
X90479116Y-107205271D01*
X90353263Y-107016918D01*
X90193082Y-106856737D01*
X90004729Y-106730884D01*
X89885000Y-106681290D01*
X89885000Y-99389460D01*
X89887056Y-99368586D01*
X89878850Y-99285272D01*
X89854548Y-99205159D01*
X89815084Y-99131326D01*
X89761974Y-99066612D01*
X89745758Y-99053304D01*
X75800001Y-85107547D01*
X75800001Y-83898529D01*
X75867522Y-83966050D01*
X75965793Y-84031713D01*
X76074986Y-84076942D01*
X76190905Y-84100000D01*
X76309095Y-84100000D01*
X76425014Y-84076942D01*
X76534207Y-84031713D01*
X76632478Y-83966050D01*
X76716050Y-83882478D01*
X76750000Y-83831669D01*
X76783950Y-83882478D01*
X76867522Y-83966050D01*
X76965793Y-84031713D01*
X77074986Y-84076942D01*
X77190905Y-84100000D01*
X77309095Y-84100000D01*
X77425014Y-84076942D01*
X77534207Y-84031713D01*
X77632478Y-83966050D01*
X77716050Y-83882478D01*
X77750000Y-83831669D01*
X77783950Y-83882478D01*
X77867522Y-83966050D01*
X77965793Y-84031713D01*
X78074986Y-84076942D01*
X78190905Y-84100000D01*
X78309095Y-84100000D01*
X78425014Y-84076942D01*
X78534207Y-84031713D01*
X78632478Y-83966050D01*
X78716050Y-83882478D01*
X78750000Y-83831669D01*
X78783950Y-83882478D01*
X78867522Y-83966050D01*
X78965793Y-84031713D01*
X79074986Y-84076942D01*
X79190905Y-84100000D01*
X79309095Y-84100000D01*
X79425014Y-84076942D01*
X79534207Y-84031713D01*
X79632478Y-83966050D01*
X79716050Y-83882478D01*
X79781713Y-83784207D01*
X79826942Y-83675014D01*
X79850000Y-83559095D01*
X79850000Y-83440905D01*
X79826942Y-83324986D01*
X79781713Y-83215793D01*
X79716050Y-83117522D01*
X79675000Y-83076472D01*
X79675000Y-76770867D01*
X79677055Y-76750000D01*
X79675000Y-76729133D01*
X79675000Y-76729126D01*
X79668850Y-76666686D01*
X79644548Y-76586573D01*
X79605084Y-76512740D01*
X79551974Y-76448026D01*
X79535762Y-76434721D01*
X77175000Y-74073960D01*
X77175000Y-66676040D01*
X78900764Y-64950277D01*
X78916975Y-64936973D01*
X78970085Y-64872259D01*
X78995802Y-64824144D01*
X79009549Y-64798427D01*
X79033851Y-64718313D01*
X79035037Y-64706274D01*
X79040001Y-64655873D01*
X79040001Y-64655866D01*
X79042056Y-64634999D01*
X79040001Y-64614132D01*
X79040001Y-59495867D01*
X79042056Y-59475000D01*
X79040001Y-59454133D01*
X79040001Y-59454127D01*
X79038699Y-59440905D01*
X84400000Y-59440905D01*
X84400000Y-59559095D01*
X84423058Y-59675014D01*
X84468287Y-59784207D01*
X84533950Y-59882478D01*
X84575000Y-59923528D01*
X84575001Y-86229123D01*
X84572945Y-86250000D01*
X84581150Y-86333314D01*
X84604277Y-86409549D01*
X84605453Y-86413427D01*
X84644917Y-86487260D01*
X84698027Y-86551974D01*
X84714239Y-86565279D01*
X85400000Y-87251040D01*
X85400000Y-87309095D01*
X85423058Y-87425014D01*
X85468287Y-87534207D01*
X85533950Y-87632478D01*
X85617522Y-87716050D01*
X85715793Y-87781713D01*
X85824986Y-87826942D01*
X85940905Y-87850000D01*
X86059095Y-87850000D01*
X86175014Y-87826942D01*
X86284207Y-87781713D01*
X86382478Y-87716050D01*
X86466050Y-87632478D01*
X86500000Y-87581669D01*
X86533950Y-87632478D01*
X86617522Y-87716050D01*
X86715793Y-87781713D01*
X86824986Y-87826942D01*
X86940905Y-87850000D01*
X87059095Y-87850000D01*
X87175014Y-87826942D01*
X87284207Y-87781713D01*
X87382478Y-87716050D01*
X87466050Y-87632478D01*
X87500000Y-87581669D01*
X87533950Y-87632478D01*
X87617522Y-87716050D01*
X87715793Y-87781713D01*
X87824986Y-87826942D01*
X87940905Y-87850000D01*
X88059095Y-87850000D01*
X88175014Y-87826942D01*
X88284207Y-87781713D01*
X88382478Y-87716050D01*
X88466050Y-87632478D01*
X88531713Y-87534207D01*
X88576942Y-87425014D01*
X88600000Y-87309095D01*
X88600000Y-87190905D01*
X88576942Y-87074986D01*
X88531713Y-86965793D01*
X88466050Y-86867522D01*
X88382478Y-86783950D01*
X88284207Y-86718287D01*
X88175014Y-86673058D01*
X88059095Y-86650000D01*
X88001040Y-86650000D01*
X87425000Y-86073960D01*
X87425000Y-85925904D01*
X87884999Y-85925904D01*
X87884999Y-86044094D01*
X87908057Y-86160013D01*
X87953286Y-86269206D01*
X88018949Y-86367477D01*
X88102521Y-86451049D01*
X88200792Y-86516712D01*
X88309985Y-86561941D01*
X88425904Y-86584999D01*
X88483959Y-86584999D01*
X93400000Y-91501041D01*
X93400000Y-91559095D01*
X93423058Y-91675014D01*
X93468287Y-91784207D01*
X93533950Y-91882478D01*
X93617522Y-91966050D01*
X93715793Y-92031713D01*
X93824986Y-92076942D01*
X93940905Y-92100000D01*
X94059095Y-92100000D01*
X94175014Y-92076942D01*
X94284207Y-92031713D01*
X94382478Y-91966050D01*
X94466050Y-91882478D01*
X94531713Y-91784207D01*
X94576942Y-91675014D01*
X94600000Y-91559095D01*
X94600000Y-91440905D01*
X94576942Y-91324986D01*
X94531713Y-91215793D01*
X94466050Y-91117522D01*
X94382478Y-91033950D01*
X94284207Y-90968287D01*
X94175014Y-90923058D01*
X94059095Y-90900000D01*
X94001041Y-90900000D01*
X89084999Y-85983959D01*
X89084999Y-85925904D01*
X89061941Y-85809985D01*
X89016712Y-85700792D01*
X88951049Y-85602521D01*
X88867477Y-85518949D01*
X88769206Y-85453286D01*
X88660013Y-85408057D01*
X88544094Y-85384999D01*
X88425904Y-85384999D01*
X88309985Y-85408057D01*
X88200792Y-85453286D01*
X88102521Y-85518949D01*
X88018949Y-85602521D01*
X87953286Y-85700792D01*
X87908057Y-85809985D01*
X87884999Y-85925904D01*
X87425000Y-85925904D01*
X87425000Y-83940905D01*
X91900000Y-83940905D01*
X91900000Y-84059095D01*
X91923058Y-84175014D01*
X91968287Y-84284207D01*
X92033950Y-84382478D01*
X92117522Y-84466050D01*
X92168331Y-84500000D01*
X92117522Y-84533950D01*
X92033950Y-84617522D01*
X91968287Y-84715793D01*
X91923058Y-84824986D01*
X91900000Y-84940905D01*
X91900000Y-85059095D01*
X91923058Y-85175014D01*
X91968287Y-85284207D01*
X92033950Y-85382478D01*
X92117522Y-85466050D01*
X92168331Y-85500000D01*
X92117522Y-85533950D01*
X92033950Y-85617522D01*
X91968287Y-85715793D01*
X91923058Y-85824986D01*
X91900000Y-85940905D01*
X91900000Y-86059095D01*
X91923058Y-86175014D01*
X91968287Y-86284207D01*
X92033950Y-86382478D01*
X92117522Y-86466050D01*
X92168331Y-86500000D01*
X92117522Y-86533950D01*
X92033950Y-86617522D01*
X91968287Y-86715793D01*
X91923058Y-86824986D01*
X91900000Y-86940905D01*
X91900000Y-87059095D01*
X91923058Y-87175014D01*
X91968287Y-87284207D01*
X92033950Y-87382478D01*
X92117522Y-87466050D01*
X92215793Y-87531713D01*
X92324986Y-87576942D01*
X92440905Y-87600000D01*
X92498959Y-87600000D01*
X92499720Y-87600761D01*
X92513025Y-87616973D01*
X92577739Y-87670083D01*
X92625854Y-87695800D01*
X92651571Y-87709547D01*
X92731684Y-87733849D01*
X92739326Y-87734602D01*
X92794125Y-87739999D01*
X92794132Y-87739999D01*
X92814999Y-87742054D01*
X92835866Y-87739999D01*
X97154134Y-87739999D01*
X97175001Y-87742054D01*
X97195868Y-87739999D01*
X97195875Y-87739999D01*
X97258315Y-87733849D01*
X97338428Y-87709547D01*
X97412261Y-87670083D01*
X97476975Y-87616973D01*
X97490284Y-87600756D01*
X98084828Y-87006212D01*
X98204557Y-87055806D01*
X98426735Y-87100000D01*
X98653265Y-87100000D01*
X98875443Y-87055806D01*
X99084729Y-86969116D01*
X99273082Y-86843263D01*
X99433263Y-86683082D01*
X99559116Y-86494729D01*
X99645806Y-86285443D01*
X99690000Y-86063265D01*
X99690000Y-85836735D01*
X99645806Y-85614557D01*
X99559116Y-85405271D01*
X99433263Y-85216918D01*
X99273082Y-85056737D01*
X99084729Y-84930884D01*
X98875443Y-84844194D01*
X98653265Y-84800000D01*
X98426735Y-84800000D01*
X98204557Y-84844194D01*
X97995271Y-84930884D01*
X97806918Y-85056737D01*
X97646737Y-85216918D01*
X97520884Y-85405271D01*
X97434194Y-85614557D01*
X97390000Y-85836735D01*
X97390000Y-86063265D01*
X97434194Y-86285443D01*
X97483788Y-86405172D01*
X96998961Y-86889999D01*
X96663136Y-86889999D01*
X96733082Y-86843263D01*
X96893263Y-86683082D01*
X97019116Y-86494729D01*
X97105806Y-86285443D01*
X97150000Y-86063265D01*
X97150000Y-85836735D01*
X97105806Y-85614557D01*
X97019116Y-85405271D01*
X96893263Y-85216918D01*
X96733082Y-85056737D01*
X96663136Y-85010001D01*
X97344132Y-85010001D01*
X97364999Y-85012056D01*
X97385866Y-85010001D01*
X97385873Y-85010001D01*
X97448313Y-85003851D01*
X97528426Y-84979549D01*
X97602259Y-84940085D01*
X97666973Y-84886975D01*
X97680282Y-84870758D01*
X98084828Y-84466212D01*
X98204557Y-84515806D01*
X98426735Y-84560000D01*
X98653265Y-84560000D01*
X98875443Y-84515806D01*
X99084729Y-84429116D01*
X99273082Y-84303263D01*
X99433263Y-84143082D01*
X99559116Y-83954729D01*
X99645806Y-83745443D01*
X99690000Y-83523265D01*
X99690000Y-83296735D01*
X99645806Y-83074557D01*
X99559116Y-82865271D01*
X99433263Y-82676918D01*
X99273082Y-82516737D01*
X99084729Y-82390884D01*
X98875443Y-82304194D01*
X98653265Y-82260000D01*
X98426735Y-82260000D01*
X98204557Y-82304194D01*
X97995271Y-82390884D01*
X97806918Y-82516737D01*
X97646737Y-82676918D01*
X97520884Y-82865271D01*
X97434194Y-83074557D01*
X97390000Y-83296735D01*
X97390000Y-83523265D01*
X97434194Y-83745443D01*
X97483788Y-83865172D01*
X97188959Y-84160001D01*
X96876344Y-84160001D01*
X96893263Y-84143082D01*
X97019116Y-83954729D01*
X97105806Y-83745443D01*
X97150000Y-83523265D01*
X97150000Y-83296735D01*
X97105806Y-83074557D01*
X97019116Y-82865271D01*
X96893263Y-82676918D01*
X96876344Y-82659999D01*
X97154134Y-82659999D01*
X97175001Y-82662054D01*
X97195868Y-82659999D01*
X97195875Y-82659999D01*
X97258315Y-82653849D01*
X97338428Y-82629547D01*
X97412261Y-82590083D01*
X97476975Y-82536973D01*
X97490284Y-82520756D01*
X98084828Y-81926212D01*
X98204557Y-81975806D01*
X98426735Y-82020000D01*
X98653265Y-82020000D01*
X98875443Y-81975806D01*
X99084729Y-81889116D01*
X99273082Y-81763263D01*
X99433263Y-81603082D01*
X99559116Y-81414729D01*
X99645806Y-81205443D01*
X99690000Y-80983265D01*
X99690000Y-80756735D01*
X99645806Y-80534557D01*
X99559116Y-80325271D01*
X99433263Y-80136918D01*
X99273082Y-79976737D01*
X99084729Y-79850884D01*
X98875443Y-79764194D01*
X98653265Y-79720000D01*
X98426735Y-79720000D01*
X98204557Y-79764194D01*
X97995271Y-79850884D01*
X97806918Y-79976737D01*
X97646737Y-80136918D01*
X97520884Y-80325271D01*
X97434194Y-80534557D01*
X97390000Y-80756735D01*
X97390000Y-80983265D01*
X97434194Y-81205443D01*
X97483788Y-81325172D01*
X96998961Y-81809999D01*
X96663136Y-81809999D01*
X96733082Y-81763263D01*
X96893263Y-81603082D01*
X97019116Y-81414729D01*
X97105806Y-81205443D01*
X97150000Y-80983265D01*
X97150000Y-80756735D01*
X97105806Y-80534557D01*
X97019116Y-80325271D01*
X96893263Y-80136918D01*
X96876344Y-80119999D01*
X97154134Y-80119999D01*
X97175001Y-80122054D01*
X97195868Y-80119999D01*
X97195875Y-80119999D01*
X97258315Y-80113849D01*
X97338428Y-80089547D01*
X97412261Y-80050083D01*
X97476975Y-79996973D01*
X97490284Y-79980756D01*
X98084828Y-79386212D01*
X98204557Y-79435806D01*
X98426735Y-79480000D01*
X98653265Y-79480000D01*
X98875443Y-79435806D01*
X99084729Y-79349116D01*
X99273082Y-79223263D01*
X99433263Y-79063082D01*
X99559116Y-78874729D01*
X99645806Y-78665443D01*
X99690000Y-78443265D01*
X99690000Y-78216735D01*
X99645806Y-77994557D01*
X99559116Y-77785271D01*
X99433263Y-77596918D01*
X99273082Y-77436737D01*
X99084729Y-77310884D01*
X98875443Y-77224194D01*
X98653265Y-77180000D01*
X98426735Y-77180000D01*
X98204557Y-77224194D01*
X97995271Y-77310884D01*
X97806918Y-77436737D01*
X97646737Y-77596918D01*
X97520884Y-77785271D01*
X97434194Y-77994557D01*
X97390000Y-78216735D01*
X97390000Y-78443265D01*
X97434194Y-78665443D01*
X97483788Y-78785172D01*
X96998961Y-79269999D01*
X96663136Y-79269999D01*
X96733082Y-79223263D01*
X96893263Y-79063082D01*
X97019116Y-78874729D01*
X97105806Y-78665443D01*
X97150000Y-78443265D01*
X97150000Y-78216735D01*
X97105806Y-77994557D01*
X97019116Y-77785271D01*
X96893263Y-77596918D01*
X96733082Y-77436737D01*
X96544729Y-77310884D01*
X96335443Y-77224194D01*
X96113265Y-77180000D01*
X95886735Y-77180000D01*
X95664557Y-77224194D01*
X95455271Y-77310884D01*
X95266918Y-77436737D01*
X95106737Y-77596918D01*
X94980884Y-77785271D01*
X94894194Y-77994557D01*
X94850000Y-78216735D01*
X94850000Y-78443265D01*
X94894194Y-78665443D01*
X94980884Y-78874729D01*
X95106737Y-79063082D01*
X95266918Y-79223263D01*
X95348134Y-79277530D01*
X95272572Y-79300451D01*
X95198739Y-79339915D01*
X95134025Y-79393025D01*
X95120715Y-79409243D01*
X92214239Y-82315719D01*
X92198027Y-82329024D01*
X92144917Y-82393738D01*
X92142411Y-82398427D01*
X92105453Y-82467571D01*
X92081150Y-82547684D01*
X92072945Y-82630998D01*
X92075001Y-82651874D01*
X92075000Y-83576472D01*
X92033950Y-83617522D01*
X91968287Y-83715793D01*
X91923058Y-83824986D01*
X91900000Y-83940905D01*
X87425000Y-83940905D01*
X87425000Y-75676735D01*
X94850000Y-75676735D01*
X94850000Y-75903265D01*
X94894194Y-76125443D01*
X94980884Y-76334729D01*
X95106737Y-76523082D01*
X95266918Y-76683263D01*
X95455271Y-76809116D01*
X95664557Y-76895806D01*
X95886735Y-76940000D01*
X96113265Y-76940000D01*
X96335443Y-76895806D01*
X96544729Y-76809116D01*
X96733082Y-76683263D01*
X96893263Y-76523082D01*
X97019116Y-76334729D01*
X97105806Y-76125443D01*
X97150000Y-75903265D01*
X97150000Y-75676735D01*
X97390000Y-75676735D01*
X97390000Y-75903265D01*
X97434194Y-76125443D01*
X97520884Y-76334729D01*
X97646737Y-76523082D01*
X97806918Y-76683263D01*
X97995271Y-76809116D01*
X98204557Y-76895806D01*
X98426735Y-76940000D01*
X98653265Y-76940000D01*
X98875443Y-76895806D01*
X99084729Y-76809116D01*
X99273082Y-76683263D01*
X99433263Y-76523082D01*
X99559116Y-76334729D01*
X99645806Y-76125443D01*
X99690000Y-75903265D01*
X99690000Y-75676735D01*
X99645806Y-75454557D01*
X99559116Y-75245271D01*
X99433263Y-75056918D01*
X99273082Y-74896737D01*
X99084729Y-74770884D01*
X98875443Y-74684194D01*
X98653265Y-74640000D01*
X98426735Y-74640000D01*
X98204557Y-74684194D01*
X97995271Y-74770884D01*
X97806918Y-74896737D01*
X97646737Y-75056918D01*
X97520884Y-75245271D01*
X97434194Y-75454557D01*
X97390000Y-75676735D01*
X97150000Y-75676735D01*
X97105806Y-75454557D01*
X97019116Y-75245271D01*
X96893263Y-75056918D01*
X96733082Y-74896737D01*
X96544729Y-74770884D01*
X96335443Y-74684194D01*
X96113265Y-74640000D01*
X95886735Y-74640000D01*
X95664557Y-74684194D01*
X95455271Y-74770884D01*
X95266918Y-74896737D01*
X95106737Y-75056918D01*
X94980884Y-75245271D01*
X94894194Y-75454557D01*
X94850000Y-75676735D01*
X87425000Y-75676735D01*
X87425000Y-59923528D01*
X87466050Y-59882478D01*
X87531713Y-59784207D01*
X87576942Y-59675014D01*
X87600000Y-59559095D01*
X87600000Y-59440905D01*
X87576942Y-59324986D01*
X87531713Y-59215793D01*
X87466050Y-59117522D01*
X87382478Y-59033950D01*
X87284207Y-58968287D01*
X87175014Y-58923058D01*
X87059095Y-58900000D01*
X86940905Y-58900000D01*
X86824986Y-58923058D01*
X86715793Y-58968287D01*
X86617522Y-59033950D01*
X86533950Y-59117522D01*
X86500000Y-59168331D01*
X86466050Y-59117522D01*
X86382478Y-59033950D01*
X86284207Y-58968287D01*
X86175014Y-58923058D01*
X86059095Y-58900000D01*
X85940905Y-58900000D01*
X85824986Y-58923058D01*
X85715793Y-58968287D01*
X85617522Y-59033950D01*
X85533950Y-59117522D01*
X85500000Y-59168331D01*
X85466050Y-59117522D01*
X85382478Y-59033950D01*
X85284207Y-58968287D01*
X85175014Y-58923058D01*
X85059095Y-58900000D01*
X84940905Y-58900000D01*
X84824986Y-58923058D01*
X84715793Y-58968287D01*
X84617522Y-59033950D01*
X84533950Y-59117522D01*
X84468287Y-59215793D01*
X84423058Y-59324986D01*
X84400000Y-59440905D01*
X79038699Y-59440905D01*
X79033851Y-59391687D01*
X79009549Y-59311574D01*
X78970085Y-59237741D01*
X78937491Y-59198026D01*
X78930281Y-59189240D01*
X78930280Y-59189239D01*
X78916975Y-59173027D01*
X78900763Y-59159722D01*
X78496212Y-58755172D01*
X78545806Y-58635443D01*
X78590000Y-58413265D01*
X78590000Y-58186735D01*
X78545806Y-57964557D01*
X78459116Y-57755271D01*
X78355367Y-57599999D01*
X91822182Y-57599999D01*
X93672182Y-59450000D01*
G04 #@! TA.AperFunction,Conductor*
D24*
G36*
X93672182Y-59450000D02*
G01*
X93436834Y-59450000D01*
X93331574Y-59379668D01*
X93204182Y-59326901D01*
X93068944Y-59300000D01*
X92931056Y-59300000D01*
X92795818Y-59326901D01*
X92668426Y-59379668D01*
X92553776Y-59456274D01*
X92456274Y-59553776D01*
X92379668Y-59668426D01*
X92326901Y-59795818D01*
X92300000Y-59931056D01*
X92300000Y-60068944D01*
X92326901Y-60204182D01*
X92379668Y-60331574D01*
X92456274Y-60446224D01*
X92553776Y-60543726D01*
X92668426Y-60620332D01*
X92795818Y-60673099D01*
X92931056Y-60700000D01*
X93068944Y-60700000D01*
X93204182Y-60673099D01*
X93331574Y-60620332D01*
X93436834Y-60550000D01*
X94772182Y-60550000D01*
X95255195Y-61033013D01*
X95255201Y-61033018D01*
X97700000Y-63477817D01*
X97700001Y-65172183D01*
X97697797Y-65169979D01*
X97673099Y-65045818D01*
X97620332Y-64918426D01*
X97543726Y-64803776D01*
X97446224Y-64706274D01*
X97331574Y-64629668D01*
X97204182Y-64576901D01*
X97068944Y-64550000D01*
X96931056Y-64550000D01*
X96795818Y-64576901D01*
X96668426Y-64629668D01*
X96553776Y-64706274D01*
X96456274Y-64803776D01*
X96379668Y-64918426D01*
X96326901Y-65045818D01*
X96300000Y-65181056D01*
X96300000Y-65318944D01*
X96326901Y-65454182D01*
X96379668Y-65581574D01*
X96456274Y-65696224D01*
X96553776Y-65793726D01*
X96668426Y-65870332D01*
X96795818Y-65923099D01*
X96919979Y-65947797D01*
X97700000Y-66727818D01*
X97700000Y-66972983D01*
X97700001Y-70772182D01*
X96373634Y-72098549D01*
X95150000Y-72098549D01*
X95091190Y-72104341D01*
X95034640Y-72121496D01*
X94982523Y-72149353D01*
X94936842Y-72186842D01*
X94899353Y-72232523D01*
X94871496Y-72284640D01*
X94854341Y-72341190D01*
X94848549Y-72400000D01*
X94848549Y-74100000D01*
X94854341Y-74158810D01*
X94871496Y-74215360D01*
X94899353Y-74267477D01*
X94936842Y-74313158D01*
X94982523Y-74350647D01*
X95034640Y-74378504D01*
X95091190Y-74395659D01*
X95150000Y-74401451D01*
X96850000Y-74401451D01*
X96908810Y-74395659D01*
X96965360Y-74378504D01*
X97017477Y-74350647D01*
X97063158Y-74313158D01*
X97100647Y-74267477D01*
X97128504Y-74215360D01*
X97145659Y-74158810D01*
X97151451Y-74100000D01*
X97151451Y-73136735D01*
X97390000Y-73136735D01*
X97390000Y-73363265D01*
X97434194Y-73585443D01*
X97520884Y-73794729D01*
X97646737Y-73983082D01*
X97806918Y-74143263D01*
X97995271Y-74269116D01*
X98204557Y-74355806D01*
X98426735Y-74400000D01*
X98653265Y-74400000D01*
X98875443Y-74355806D01*
X99084729Y-74269116D01*
X99273082Y-74143263D01*
X99433263Y-73983082D01*
X99559116Y-73794729D01*
X99645806Y-73585443D01*
X99690000Y-73363265D01*
X99690000Y-73136735D01*
X99645806Y-72914557D01*
X99559116Y-72705271D01*
X99433263Y-72516918D01*
X99273082Y-72356737D01*
X99084729Y-72230884D01*
X98875443Y-72144194D01*
X98653265Y-72100000D01*
X98426735Y-72100000D01*
X98204557Y-72144194D01*
X97995271Y-72230884D01*
X97806918Y-72356737D01*
X97646737Y-72516918D01*
X97520884Y-72705271D01*
X97434194Y-72914557D01*
X97390000Y-73136735D01*
X97151451Y-73136735D01*
X97151451Y-72876366D01*
X98619804Y-71408013D01*
X98640790Y-71390790D01*
X98709521Y-71307042D01*
X98760592Y-71211494D01*
X98792042Y-71107819D01*
X98800000Y-71027018D01*
X98800000Y-71027011D01*
X98802660Y-71000000D01*
X98800000Y-70972989D01*
X98800000Y-66527008D01*
X98802660Y-66500000D01*
X98800000Y-66472992D01*
X98800000Y-64577817D01*
X101450001Y-67227819D01*
X101450000Y-89772182D01*
X96022183Y-95200000D01*
X93977817Y-95200000D01*
X93908013Y-95130196D01*
X93890790Y-95109210D01*
X93807042Y-95040479D01*
X93711494Y-94989408D01*
X93607819Y-94957958D01*
X93527018Y-94950000D01*
X93527008Y-94950000D01*
X93500000Y-94947340D01*
X93472992Y-94950000D01*
X92240058Y-94950000D01*
X92175014Y-94923058D01*
X92059095Y-94900000D01*
X91940905Y-94900000D01*
X91824986Y-94923058D01*
X91715793Y-94968287D01*
X91617522Y-95033950D01*
X91533950Y-95117522D01*
X91468287Y-95215793D01*
X91423058Y-95324986D01*
X91400000Y-95440905D01*
X91400000Y-95559095D01*
X91423058Y-95675014D01*
X91468287Y-95784207D01*
X91533950Y-95882478D01*
X91617522Y-95966050D01*
X91715793Y-96031713D01*
X91824986Y-96076942D01*
X91940905Y-96100000D01*
X92059095Y-96100000D01*
X92175014Y-96076942D01*
X92240058Y-96050000D01*
X93200000Y-96050000D01*
X93200001Y-108192183D01*
X92942184Y-108450001D01*
X90375367Y-108450001D01*
X90479116Y-108294729D01*
X90565806Y-108085443D01*
X90610000Y-107863265D01*
X90610000Y-107636735D01*
X90565806Y-107414557D01*
X90479116Y-107205271D01*
X90353263Y-107016918D01*
X90193082Y-106856737D01*
X90004729Y-106730884D01*
X89885000Y-106681290D01*
X89885000Y-99389460D01*
X89887056Y-99368586D01*
X89878850Y-99285272D01*
X89854548Y-99205159D01*
X89815084Y-99131326D01*
X89761974Y-99066612D01*
X89745758Y-99053304D01*
X75800001Y-85107547D01*
X75800001Y-83898529D01*
X75867522Y-83966050D01*
X75965793Y-84031713D01*
X76074986Y-84076942D01*
X76190905Y-84100000D01*
X76309095Y-84100000D01*
X76425014Y-84076942D01*
X76534207Y-84031713D01*
X76632478Y-83966050D01*
X76716050Y-83882478D01*
X76750000Y-83831669D01*
X76783950Y-83882478D01*
X76867522Y-83966050D01*
X76965793Y-84031713D01*
X77074986Y-84076942D01*
X77190905Y-84100000D01*
X77309095Y-84100000D01*
X77425014Y-84076942D01*
X77534207Y-84031713D01*
X77632478Y-83966050D01*
X77716050Y-83882478D01*
X77750000Y-83831669D01*
X77783950Y-83882478D01*
X77867522Y-83966050D01*
X77965793Y-84031713D01*
X78074986Y-84076942D01*
X78190905Y-84100000D01*
X78309095Y-84100000D01*
X78425014Y-84076942D01*
X78534207Y-84031713D01*
X78632478Y-83966050D01*
X78716050Y-83882478D01*
X78750000Y-83831669D01*
X78783950Y-83882478D01*
X78867522Y-83966050D01*
X78965793Y-84031713D01*
X79074986Y-84076942D01*
X79190905Y-84100000D01*
X79309095Y-84100000D01*
X79425014Y-84076942D01*
X79534207Y-84031713D01*
X79632478Y-83966050D01*
X79716050Y-83882478D01*
X79781713Y-83784207D01*
X79826942Y-83675014D01*
X79850000Y-83559095D01*
X79850000Y-83440905D01*
X79826942Y-83324986D01*
X79781713Y-83215793D01*
X79716050Y-83117522D01*
X79675000Y-83076472D01*
X79675000Y-76770867D01*
X79677055Y-76750000D01*
X79675000Y-76729133D01*
X79675000Y-76729126D01*
X79668850Y-76666686D01*
X79644548Y-76586573D01*
X79605084Y-76512740D01*
X79551974Y-76448026D01*
X79535762Y-76434721D01*
X77175000Y-74073960D01*
X77175000Y-66676040D01*
X78900764Y-64950277D01*
X78916975Y-64936973D01*
X78970085Y-64872259D01*
X78995802Y-64824144D01*
X79009549Y-64798427D01*
X79033851Y-64718313D01*
X79035037Y-64706274D01*
X79040001Y-64655873D01*
X79040001Y-64655866D01*
X79042056Y-64634999D01*
X79040001Y-64614132D01*
X79040001Y-59495867D01*
X79042056Y-59475000D01*
X79040001Y-59454133D01*
X79040001Y-59454127D01*
X79038699Y-59440905D01*
X84400000Y-59440905D01*
X84400000Y-59559095D01*
X84423058Y-59675014D01*
X84468287Y-59784207D01*
X84533950Y-59882478D01*
X84575000Y-59923528D01*
X84575001Y-86229123D01*
X84572945Y-86250000D01*
X84581150Y-86333314D01*
X84604277Y-86409549D01*
X84605453Y-86413427D01*
X84644917Y-86487260D01*
X84698027Y-86551974D01*
X84714239Y-86565279D01*
X85400000Y-87251040D01*
X85400000Y-87309095D01*
X85423058Y-87425014D01*
X85468287Y-87534207D01*
X85533950Y-87632478D01*
X85617522Y-87716050D01*
X85715793Y-87781713D01*
X85824986Y-87826942D01*
X85940905Y-87850000D01*
X86059095Y-87850000D01*
X86175014Y-87826942D01*
X86284207Y-87781713D01*
X86382478Y-87716050D01*
X86466050Y-87632478D01*
X86500000Y-87581669D01*
X86533950Y-87632478D01*
X86617522Y-87716050D01*
X86715793Y-87781713D01*
X86824986Y-87826942D01*
X86940905Y-87850000D01*
X87059095Y-87850000D01*
X87175014Y-87826942D01*
X87284207Y-87781713D01*
X87382478Y-87716050D01*
X87466050Y-87632478D01*
X87500000Y-87581669D01*
X87533950Y-87632478D01*
X87617522Y-87716050D01*
X87715793Y-87781713D01*
X87824986Y-87826942D01*
X87940905Y-87850000D01*
X88059095Y-87850000D01*
X88175014Y-87826942D01*
X88284207Y-87781713D01*
X88382478Y-87716050D01*
X88466050Y-87632478D01*
X88531713Y-87534207D01*
X88576942Y-87425014D01*
X88600000Y-87309095D01*
X88600000Y-87190905D01*
X88576942Y-87074986D01*
X88531713Y-86965793D01*
X88466050Y-86867522D01*
X88382478Y-86783950D01*
X88284207Y-86718287D01*
X88175014Y-86673058D01*
X88059095Y-86650000D01*
X88001040Y-86650000D01*
X87425000Y-86073960D01*
X87425000Y-85925904D01*
X87884999Y-85925904D01*
X87884999Y-86044094D01*
X87908057Y-86160013D01*
X87953286Y-86269206D01*
X88018949Y-86367477D01*
X88102521Y-86451049D01*
X88200792Y-86516712D01*
X88309985Y-86561941D01*
X88425904Y-86584999D01*
X88483959Y-86584999D01*
X93400000Y-91501041D01*
X93400000Y-91559095D01*
X93423058Y-91675014D01*
X93468287Y-91784207D01*
X93533950Y-91882478D01*
X93617522Y-91966050D01*
X93715793Y-92031713D01*
X93824986Y-92076942D01*
X93940905Y-92100000D01*
X94059095Y-92100000D01*
X94175014Y-92076942D01*
X94284207Y-92031713D01*
X94382478Y-91966050D01*
X94466050Y-91882478D01*
X94531713Y-91784207D01*
X94576942Y-91675014D01*
X94600000Y-91559095D01*
X94600000Y-91440905D01*
X94576942Y-91324986D01*
X94531713Y-91215793D01*
X94466050Y-91117522D01*
X94382478Y-91033950D01*
X94284207Y-90968287D01*
X94175014Y-90923058D01*
X94059095Y-90900000D01*
X94001041Y-90900000D01*
X89084999Y-85983959D01*
X89084999Y-85925904D01*
X89061941Y-85809985D01*
X89016712Y-85700792D01*
X88951049Y-85602521D01*
X88867477Y-85518949D01*
X88769206Y-85453286D01*
X88660013Y-85408057D01*
X88544094Y-85384999D01*
X88425904Y-85384999D01*
X88309985Y-85408057D01*
X88200792Y-85453286D01*
X88102521Y-85518949D01*
X88018949Y-85602521D01*
X87953286Y-85700792D01*
X87908057Y-85809985D01*
X87884999Y-85925904D01*
X87425000Y-85925904D01*
X87425000Y-83940905D01*
X91900000Y-83940905D01*
X91900000Y-84059095D01*
X91923058Y-84175014D01*
X91968287Y-84284207D01*
X92033950Y-84382478D01*
X92117522Y-84466050D01*
X92168331Y-84500000D01*
X92117522Y-84533950D01*
X92033950Y-84617522D01*
X91968287Y-84715793D01*
X91923058Y-84824986D01*
X91900000Y-84940905D01*
X91900000Y-85059095D01*
X91923058Y-85175014D01*
X91968287Y-85284207D01*
X92033950Y-85382478D01*
X92117522Y-85466050D01*
X92168331Y-85500000D01*
X92117522Y-85533950D01*
X92033950Y-85617522D01*
X91968287Y-85715793D01*
X91923058Y-85824986D01*
X91900000Y-85940905D01*
X91900000Y-86059095D01*
X91923058Y-86175014D01*
X91968287Y-86284207D01*
X92033950Y-86382478D01*
X92117522Y-86466050D01*
X92168331Y-86500000D01*
X92117522Y-86533950D01*
X92033950Y-86617522D01*
X91968287Y-86715793D01*
X91923058Y-86824986D01*
X91900000Y-86940905D01*
X91900000Y-87059095D01*
X91923058Y-87175014D01*
X91968287Y-87284207D01*
X92033950Y-87382478D01*
X92117522Y-87466050D01*
X92215793Y-87531713D01*
X92324986Y-87576942D01*
X92440905Y-87600000D01*
X92498959Y-87600000D01*
X92499720Y-87600761D01*
X92513025Y-87616973D01*
X92577739Y-87670083D01*
X92625854Y-87695800D01*
X92651571Y-87709547D01*
X92731684Y-87733849D01*
X92739326Y-87734602D01*
X92794125Y-87739999D01*
X92794132Y-87739999D01*
X92814999Y-87742054D01*
X92835866Y-87739999D01*
X97154134Y-87739999D01*
X97175001Y-87742054D01*
X97195868Y-87739999D01*
X97195875Y-87739999D01*
X97258315Y-87733849D01*
X97338428Y-87709547D01*
X97412261Y-87670083D01*
X97476975Y-87616973D01*
X97490284Y-87600756D01*
X98084828Y-87006212D01*
X98204557Y-87055806D01*
X98426735Y-87100000D01*
X98653265Y-87100000D01*
X98875443Y-87055806D01*
X99084729Y-86969116D01*
X99273082Y-86843263D01*
X99433263Y-86683082D01*
X99559116Y-86494729D01*
X99645806Y-86285443D01*
X99690000Y-86063265D01*
X99690000Y-85836735D01*
X99645806Y-85614557D01*
X99559116Y-85405271D01*
X99433263Y-85216918D01*
X99273082Y-85056737D01*
X99084729Y-84930884D01*
X98875443Y-84844194D01*
X98653265Y-84800000D01*
X98426735Y-84800000D01*
X98204557Y-84844194D01*
X97995271Y-84930884D01*
X97806918Y-85056737D01*
X97646737Y-85216918D01*
X97520884Y-85405271D01*
X97434194Y-85614557D01*
X97390000Y-85836735D01*
X97390000Y-86063265D01*
X97434194Y-86285443D01*
X97483788Y-86405172D01*
X96998961Y-86889999D01*
X96663136Y-86889999D01*
X96733082Y-86843263D01*
X96893263Y-86683082D01*
X97019116Y-86494729D01*
X97105806Y-86285443D01*
X97150000Y-86063265D01*
X97150000Y-85836735D01*
X97105806Y-85614557D01*
X97019116Y-85405271D01*
X96893263Y-85216918D01*
X96733082Y-85056737D01*
X96663136Y-85010001D01*
X97344132Y-85010001D01*
X97364999Y-85012056D01*
X97385866Y-85010001D01*
X97385873Y-85010001D01*
X97448313Y-85003851D01*
X97528426Y-84979549D01*
X97602259Y-84940085D01*
X97666973Y-84886975D01*
X97680282Y-84870758D01*
X98084828Y-84466212D01*
X98204557Y-84515806D01*
X98426735Y-84560000D01*
X98653265Y-84560000D01*
X98875443Y-84515806D01*
X99084729Y-84429116D01*
X99273082Y-84303263D01*
X99433263Y-84143082D01*
X99559116Y-83954729D01*
X99645806Y-83745443D01*
X99690000Y-83523265D01*
X99690000Y-83296735D01*
X99645806Y-83074557D01*
X99559116Y-82865271D01*
X99433263Y-82676918D01*
X99273082Y-82516737D01*
X99084729Y-82390884D01*
X98875443Y-82304194D01*
X98653265Y-82260000D01*
X98426735Y-82260000D01*
X98204557Y-82304194D01*
X97995271Y-82390884D01*
X97806918Y-82516737D01*
X97646737Y-82676918D01*
X97520884Y-82865271D01*
X97434194Y-83074557D01*
X97390000Y-83296735D01*
X97390000Y-83523265D01*
X97434194Y-83745443D01*
X97483788Y-83865172D01*
X97188959Y-84160001D01*
X96876344Y-84160001D01*
X96893263Y-84143082D01*
X97019116Y-83954729D01*
X97105806Y-83745443D01*
X97150000Y-83523265D01*
X97150000Y-83296735D01*
X97105806Y-83074557D01*
X97019116Y-82865271D01*
X96893263Y-82676918D01*
X96876344Y-82659999D01*
X97154134Y-82659999D01*
X97175001Y-82662054D01*
X97195868Y-82659999D01*
X97195875Y-82659999D01*
X97258315Y-82653849D01*
X97338428Y-82629547D01*
X97412261Y-82590083D01*
X97476975Y-82536973D01*
X97490284Y-82520756D01*
X98084828Y-81926212D01*
X98204557Y-81975806D01*
X98426735Y-82020000D01*
X98653265Y-82020000D01*
X98875443Y-81975806D01*
X99084729Y-81889116D01*
X99273082Y-81763263D01*
X99433263Y-81603082D01*
X99559116Y-81414729D01*
X99645806Y-81205443D01*
X99690000Y-80983265D01*
X99690000Y-80756735D01*
X99645806Y-80534557D01*
X99559116Y-80325271D01*
X99433263Y-80136918D01*
X99273082Y-79976737D01*
X99084729Y-79850884D01*
X98875443Y-79764194D01*
X98653265Y-79720000D01*
X98426735Y-79720000D01*
X98204557Y-79764194D01*
X97995271Y-79850884D01*
X97806918Y-79976737D01*
X97646737Y-80136918D01*
X97520884Y-80325271D01*
X97434194Y-80534557D01*
X97390000Y-80756735D01*
X97390000Y-80983265D01*
X97434194Y-81205443D01*
X97483788Y-81325172D01*
X96998961Y-81809999D01*
X96663136Y-81809999D01*
X96733082Y-81763263D01*
X96893263Y-81603082D01*
X97019116Y-81414729D01*
X97105806Y-81205443D01*
X97150000Y-80983265D01*
X97150000Y-80756735D01*
X97105806Y-80534557D01*
X97019116Y-80325271D01*
X96893263Y-80136918D01*
X96876344Y-80119999D01*
X97154134Y-80119999D01*
X97175001Y-80122054D01*
X97195868Y-80119999D01*
X97195875Y-80119999D01*
X97258315Y-80113849D01*
X97338428Y-80089547D01*
X97412261Y-80050083D01*
X97476975Y-79996973D01*
X97490284Y-79980756D01*
X98084828Y-79386212D01*
X98204557Y-79435806D01*
X98426735Y-79480000D01*
X98653265Y-79480000D01*
X98875443Y-79435806D01*
X99084729Y-79349116D01*
X99273082Y-79223263D01*
X99433263Y-79063082D01*
X99559116Y-78874729D01*
X99645806Y-78665443D01*
X99690000Y-78443265D01*
X99690000Y-78216735D01*
X99645806Y-77994557D01*
X99559116Y-77785271D01*
X99433263Y-77596918D01*
X99273082Y-77436737D01*
X99084729Y-77310884D01*
X98875443Y-77224194D01*
X98653265Y-77180000D01*
X98426735Y-77180000D01*
X98204557Y-77224194D01*
X97995271Y-77310884D01*
X97806918Y-77436737D01*
X97646737Y-77596918D01*
X97520884Y-77785271D01*
X97434194Y-77994557D01*
X97390000Y-78216735D01*
X97390000Y-78443265D01*
X97434194Y-78665443D01*
X97483788Y-78785172D01*
X96998961Y-79269999D01*
X96663136Y-79269999D01*
X96733082Y-79223263D01*
X96893263Y-79063082D01*
X97019116Y-78874729D01*
X97105806Y-78665443D01*
X97150000Y-78443265D01*
X97150000Y-78216735D01*
X97105806Y-77994557D01*
X97019116Y-77785271D01*
X96893263Y-77596918D01*
X96733082Y-77436737D01*
X96544729Y-77310884D01*
X96335443Y-77224194D01*
X96113265Y-77180000D01*
X95886735Y-77180000D01*
X95664557Y-77224194D01*
X95455271Y-77310884D01*
X95266918Y-77436737D01*
X95106737Y-77596918D01*
X94980884Y-77785271D01*
X94894194Y-77994557D01*
X94850000Y-78216735D01*
X94850000Y-78443265D01*
X94894194Y-78665443D01*
X94980884Y-78874729D01*
X95106737Y-79063082D01*
X95266918Y-79223263D01*
X95348134Y-79277530D01*
X95272572Y-79300451D01*
X95198739Y-79339915D01*
X95134025Y-79393025D01*
X95120715Y-79409243D01*
X92214239Y-82315719D01*
X92198027Y-82329024D01*
X92144917Y-82393738D01*
X92142411Y-82398427D01*
X92105453Y-82467571D01*
X92081150Y-82547684D01*
X92072945Y-82630998D01*
X92075001Y-82651874D01*
X92075000Y-83576472D01*
X92033950Y-83617522D01*
X91968287Y-83715793D01*
X91923058Y-83824986D01*
X91900000Y-83940905D01*
X87425000Y-83940905D01*
X87425000Y-75676735D01*
X94850000Y-75676735D01*
X94850000Y-75903265D01*
X94894194Y-76125443D01*
X94980884Y-76334729D01*
X95106737Y-76523082D01*
X95266918Y-76683263D01*
X95455271Y-76809116D01*
X95664557Y-76895806D01*
X95886735Y-76940000D01*
X96113265Y-76940000D01*
X96335443Y-76895806D01*
X96544729Y-76809116D01*
X96733082Y-76683263D01*
X96893263Y-76523082D01*
X97019116Y-76334729D01*
X97105806Y-76125443D01*
X97150000Y-75903265D01*
X97150000Y-75676735D01*
X97390000Y-75676735D01*
X97390000Y-75903265D01*
X97434194Y-76125443D01*
X97520884Y-76334729D01*
X97646737Y-76523082D01*
X97806918Y-76683263D01*
X97995271Y-76809116D01*
X98204557Y-76895806D01*
X98426735Y-76940000D01*
X98653265Y-76940000D01*
X98875443Y-76895806D01*
X99084729Y-76809116D01*
X99273082Y-76683263D01*
X99433263Y-76523082D01*
X99559116Y-76334729D01*
X99645806Y-76125443D01*
X99690000Y-75903265D01*
X99690000Y-75676735D01*
X99645806Y-75454557D01*
X99559116Y-75245271D01*
X99433263Y-75056918D01*
X99273082Y-74896737D01*
X99084729Y-74770884D01*
X98875443Y-74684194D01*
X98653265Y-74640000D01*
X98426735Y-74640000D01*
X98204557Y-74684194D01*
X97995271Y-74770884D01*
X97806918Y-74896737D01*
X97646737Y-75056918D01*
X97520884Y-75245271D01*
X97434194Y-75454557D01*
X97390000Y-75676735D01*
X97150000Y-75676735D01*
X97105806Y-75454557D01*
X97019116Y-75245271D01*
X96893263Y-75056918D01*
X96733082Y-74896737D01*
X96544729Y-74770884D01*
X96335443Y-74684194D01*
X96113265Y-74640000D01*
X95886735Y-74640000D01*
X95664557Y-74684194D01*
X95455271Y-74770884D01*
X95266918Y-74896737D01*
X95106737Y-75056918D01*
X94980884Y-75245271D01*
X94894194Y-75454557D01*
X94850000Y-75676735D01*
X87425000Y-75676735D01*
X87425000Y-59923528D01*
X87466050Y-59882478D01*
X87531713Y-59784207D01*
X87576942Y-59675014D01*
X87600000Y-59559095D01*
X87600000Y-59440905D01*
X87576942Y-59324986D01*
X87531713Y-59215793D01*
X87466050Y-59117522D01*
X87382478Y-59033950D01*
X87284207Y-58968287D01*
X87175014Y-58923058D01*
X87059095Y-58900000D01*
X86940905Y-58900000D01*
X86824986Y-58923058D01*
X86715793Y-58968287D01*
X86617522Y-59033950D01*
X86533950Y-59117522D01*
X86500000Y-59168331D01*
X86466050Y-59117522D01*
X86382478Y-59033950D01*
X86284207Y-58968287D01*
X86175014Y-58923058D01*
X86059095Y-58900000D01*
X85940905Y-58900000D01*
X85824986Y-58923058D01*
X85715793Y-58968287D01*
X85617522Y-59033950D01*
X85533950Y-59117522D01*
X85500000Y-59168331D01*
X85466050Y-59117522D01*
X85382478Y-59033950D01*
X85284207Y-58968287D01*
X85175014Y-58923058D01*
X85059095Y-58900000D01*
X84940905Y-58900000D01*
X84824986Y-58923058D01*
X84715793Y-58968287D01*
X84617522Y-59033950D01*
X84533950Y-59117522D01*
X84468287Y-59215793D01*
X84423058Y-59324986D01*
X84400000Y-59440905D01*
X79038699Y-59440905D01*
X79033851Y-59391687D01*
X79009549Y-59311574D01*
X78970085Y-59237741D01*
X78937491Y-59198026D01*
X78930281Y-59189240D01*
X78930280Y-59189239D01*
X78916975Y-59173027D01*
X78900763Y-59159722D01*
X78496212Y-58755172D01*
X78545806Y-58635443D01*
X78590000Y-58413265D01*
X78590000Y-58186735D01*
X78545806Y-57964557D01*
X78459116Y-57755271D01*
X78355367Y-57599999D01*
X91822182Y-57599999D01*
X93672182Y-59450000D01*
G37*
G04 #@! TD.AperFunction*
D23*
X95266918Y-85056737D02*
X95106737Y-85216918D01*
X94980884Y-85405271D01*
X94894194Y-85614557D01*
X94850000Y-85836735D01*
X94850000Y-86063265D01*
X94894194Y-86285443D01*
X94980884Y-86494729D01*
X95106737Y-86683082D01*
X95266918Y-86843263D01*
X95336864Y-86889999D01*
X93089874Y-86889999D01*
X93076942Y-86824986D01*
X93031713Y-86715793D01*
X92966050Y-86617522D01*
X92882478Y-86533950D01*
X92831669Y-86500000D01*
X92882478Y-86466050D01*
X92966050Y-86382478D01*
X93031713Y-86284207D01*
X93076942Y-86175014D01*
X93100000Y-86059095D01*
X93100000Y-86001040D01*
X94091040Y-85010001D01*
X95336864Y-85010001D01*
X95266918Y-85056737D01*
G04 #@! TA.AperFunction,Conductor*
D24*
G36*
X95266918Y-85056737D02*
G01*
X95106737Y-85216918D01*
X94980884Y-85405271D01*
X94894194Y-85614557D01*
X94850000Y-85836735D01*
X94850000Y-86063265D01*
X94894194Y-86285443D01*
X94980884Y-86494729D01*
X95106737Y-86683082D01*
X95266918Y-86843263D01*
X95336864Y-86889999D01*
X93089874Y-86889999D01*
X93076942Y-86824986D01*
X93031713Y-86715793D01*
X92966050Y-86617522D01*
X92882478Y-86533950D01*
X92831669Y-86500000D01*
X92882478Y-86466050D01*
X92966050Y-86382478D01*
X93031713Y-86284207D01*
X93076942Y-86175014D01*
X93100000Y-86059095D01*
X93100000Y-86001040D01*
X94091040Y-85010001D01*
X95336864Y-85010001D01*
X95266918Y-85056737D01*
G37*
G04 #@! TD.AperFunction*
D23*
X94850000Y-80983265D02*
X94894194Y-81205443D01*
X94980884Y-81414729D01*
X95106737Y-81603082D01*
X95266918Y-81763263D01*
X95336864Y-81809999D01*
X95285868Y-81809999D01*
X95265001Y-81807944D01*
X95244134Y-81809999D01*
X95244127Y-81809999D01*
X95189328Y-81815396D01*
X95181686Y-81816149D01*
X95157384Y-81823521D01*
X95101574Y-81840451D01*
X95027741Y-81879915D01*
X94963027Y-81933025D01*
X94949722Y-81949237D01*
X93076073Y-83822887D01*
X93031713Y-83715793D01*
X92966050Y-83617522D01*
X92925000Y-83576472D01*
X92925000Y-82807038D01*
X94850000Y-80882038D01*
X94850000Y-80983265D01*
G04 #@! TA.AperFunction,Conductor*
D24*
G36*
X94850000Y-80983265D02*
G01*
X94894194Y-81205443D01*
X94980884Y-81414729D01*
X95106737Y-81603082D01*
X95266918Y-81763263D01*
X95336864Y-81809999D01*
X95285868Y-81809999D01*
X95265001Y-81807944D01*
X95244134Y-81809999D01*
X95244127Y-81809999D01*
X95189328Y-81815396D01*
X95181686Y-81816149D01*
X95157384Y-81823521D01*
X95101574Y-81840451D01*
X95027741Y-81879915D01*
X94963027Y-81933025D01*
X94949722Y-81949237D01*
X93076073Y-83822887D01*
X93031713Y-83715793D01*
X92966050Y-83617522D01*
X92925000Y-83576472D01*
X92925000Y-82807038D01*
X94850000Y-80882038D01*
X94850000Y-80983265D01*
G37*
G04 #@! TD.AperFunction*
D23*
X89035000Y-99544626D02*
X89035001Y-106681290D01*
X88915271Y-106730884D01*
X88726918Y-106856737D01*
X88566737Y-107016918D01*
X88440884Y-107205271D01*
X88354194Y-107414557D01*
X88310000Y-107636735D01*
X88310000Y-107863265D01*
X88354194Y-108085443D01*
X88440884Y-108294729D01*
X88544633Y-108450001D01*
X87835367Y-108450001D01*
X87939116Y-108294729D01*
X88025806Y-108085443D01*
X88070000Y-107863265D01*
X88070000Y-107636735D01*
X88025806Y-107414557D01*
X87939116Y-107205271D01*
X87813263Y-107016918D01*
X87653082Y-106856737D01*
X87464729Y-106730884D01*
X87345000Y-106681290D01*
X87345000Y-97854626D01*
X89035000Y-99544626D01*
G04 #@! TA.AperFunction,Conductor*
D24*
G36*
X89035000Y-99544626D02*
G01*
X89035001Y-106681290D01*
X88915271Y-106730884D01*
X88726918Y-106856737D01*
X88566737Y-107016918D01*
X88440884Y-107205271D01*
X88354194Y-107414557D01*
X88310000Y-107636735D01*
X88310000Y-107863265D01*
X88354194Y-108085443D01*
X88440884Y-108294729D01*
X88544633Y-108450001D01*
X87835367Y-108450001D01*
X87939116Y-108294729D01*
X88025806Y-108085443D01*
X88070000Y-107863265D01*
X88070000Y-107636735D01*
X88025806Y-107414557D01*
X87939116Y-107205271D01*
X87813263Y-107016918D01*
X87653082Y-106856737D01*
X87464729Y-106730884D01*
X87345000Y-106681290D01*
X87345000Y-97854626D01*
X89035000Y-99544626D01*
G37*
G04 #@! TD.AperFunction*
D23*
X63450001Y-64477819D02*
X63450000Y-75450000D01*
X62750000Y-75450000D01*
X62691473Y-75455764D01*
X62635195Y-75472836D01*
X62583329Y-75500559D01*
X62537868Y-75537868D01*
X62500559Y-75583329D01*
X62472836Y-75635195D01*
X62455764Y-75691473D01*
X62450000Y-75750000D01*
X62450000Y-77772183D01*
X62260191Y-77961992D01*
X62239211Y-77979210D01*
X62221993Y-78000190D01*
X62221987Y-78000196D01*
X62170479Y-78062958D01*
X62123180Y-78151451D01*
X62119409Y-78158506D01*
X62087959Y-78262181D01*
X62080001Y-78342982D01*
X62077340Y-78370000D01*
X62080001Y-78397018D01*
X62080000Y-83222992D01*
X62077340Y-83250000D01*
X62080000Y-83277008D01*
X62080000Y-83277017D01*
X62087958Y-83357818D01*
X62119408Y-83461493D01*
X62170479Y-83557042D01*
X62239210Y-83640790D01*
X62260196Y-83658013D01*
X62450000Y-83847817D01*
X62450000Y-85948959D01*
X62093980Y-86304980D01*
X62068944Y-86300000D01*
X61931056Y-86300000D01*
X61795818Y-86326901D01*
X61668426Y-86379668D01*
X61553776Y-86456274D01*
X61456274Y-86553776D01*
X61425000Y-86600581D01*
X61425000Y-68777042D01*
X62285758Y-67916284D01*
X62301974Y-67902976D01*
X62355084Y-67838262D01*
X62394548Y-67764429D01*
X62418850Y-67684316D01*
X62425000Y-67621876D01*
X62425000Y-67621875D01*
X62427056Y-67601002D01*
X62425000Y-67580128D01*
X62425000Y-67173528D01*
X62466050Y-67132478D01*
X62531713Y-67034207D01*
X62576942Y-66925014D01*
X62600000Y-66809095D01*
X62600000Y-66690905D01*
X62576942Y-66574986D01*
X62531713Y-66465793D01*
X62466050Y-66367522D01*
X62382478Y-66283950D01*
X62284207Y-66218287D01*
X62175014Y-66173058D01*
X62059095Y-66150000D01*
X61940905Y-66150000D01*
X61824986Y-66173058D01*
X61715793Y-66218287D01*
X61617522Y-66283950D01*
X61533950Y-66367522D01*
X61468287Y-66465793D01*
X61423058Y-66574986D01*
X61400000Y-66690905D01*
X61400000Y-66809095D01*
X61422572Y-66922572D01*
X61309095Y-66900000D01*
X61190905Y-66900000D01*
X61074986Y-66923058D01*
X60965793Y-66968287D01*
X60867522Y-67033950D01*
X60783950Y-67117522D01*
X60718287Y-67215793D01*
X60673058Y-67324986D01*
X60650000Y-67440905D01*
X60650000Y-67498959D01*
X60314236Y-67834724D01*
X60314231Y-67834728D01*
X60274990Y-67873969D01*
X60274990Y-62252827D01*
X60750000Y-61777817D01*
X63450001Y-64477819D01*
G04 #@! TA.AperFunction,Conductor*
D24*
G36*
X63450001Y-64477819D02*
G01*
X63450000Y-75450000D01*
X62750000Y-75450000D01*
X62691473Y-75455764D01*
X62635195Y-75472836D01*
X62583329Y-75500559D01*
X62537868Y-75537868D01*
X62500559Y-75583329D01*
X62472836Y-75635195D01*
X62455764Y-75691473D01*
X62450000Y-75750000D01*
X62450000Y-77772183D01*
X62260191Y-77961992D01*
X62239211Y-77979210D01*
X62221993Y-78000190D01*
X62221987Y-78000196D01*
X62170479Y-78062958D01*
X62123180Y-78151451D01*
X62119409Y-78158506D01*
X62087959Y-78262181D01*
X62080001Y-78342982D01*
X62077340Y-78370000D01*
X62080001Y-78397018D01*
X62080000Y-83222992D01*
X62077340Y-83250000D01*
X62080000Y-83277008D01*
X62080000Y-83277017D01*
X62087958Y-83357818D01*
X62119408Y-83461493D01*
X62170479Y-83557042D01*
X62239210Y-83640790D01*
X62260196Y-83658013D01*
X62450000Y-83847817D01*
X62450000Y-85948959D01*
X62093980Y-86304980D01*
X62068944Y-86300000D01*
X61931056Y-86300000D01*
X61795818Y-86326901D01*
X61668426Y-86379668D01*
X61553776Y-86456274D01*
X61456274Y-86553776D01*
X61425000Y-86600581D01*
X61425000Y-68777042D01*
X62285758Y-67916284D01*
X62301974Y-67902976D01*
X62355084Y-67838262D01*
X62394548Y-67764429D01*
X62418850Y-67684316D01*
X62425000Y-67621876D01*
X62425000Y-67621875D01*
X62427056Y-67601002D01*
X62425000Y-67580128D01*
X62425000Y-67173528D01*
X62466050Y-67132478D01*
X62531713Y-67034207D01*
X62576942Y-66925014D01*
X62600000Y-66809095D01*
X62600000Y-66690905D01*
X62576942Y-66574986D01*
X62531713Y-66465793D01*
X62466050Y-66367522D01*
X62382478Y-66283950D01*
X62284207Y-66218287D01*
X62175014Y-66173058D01*
X62059095Y-66150000D01*
X61940905Y-66150000D01*
X61824986Y-66173058D01*
X61715793Y-66218287D01*
X61617522Y-66283950D01*
X61533950Y-66367522D01*
X61468287Y-66465793D01*
X61423058Y-66574986D01*
X61400000Y-66690905D01*
X61400000Y-66809095D01*
X61422572Y-66922572D01*
X61309095Y-66900000D01*
X61190905Y-66900000D01*
X61074986Y-66923058D01*
X60965793Y-66968287D01*
X60867522Y-67033950D01*
X60783950Y-67117522D01*
X60718287Y-67215793D01*
X60673058Y-67324986D01*
X60650000Y-67440905D01*
X60650000Y-67498959D01*
X60314236Y-67834724D01*
X60314231Y-67834728D01*
X60274990Y-67873969D01*
X60274990Y-62252827D01*
X60750000Y-61777817D01*
X63450001Y-64477819D01*
G37*
G04 #@! TD.AperFunction*
D23*
X76420884Y-57755271D02*
X76334194Y-57964557D01*
X76290000Y-58186735D01*
X76290000Y-58413265D01*
X76334194Y-58635443D01*
X76420884Y-58844729D01*
X76546737Y-59033082D01*
X76706918Y-59193263D01*
X76895271Y-59319116D01*
X77104557Y-59405806D01*
X77326735Y-59450000D01*
X77553265Y-59450000D01*
X77775443Y-59405806D01*
X77895172Y-59356212D01*
X78190002Y-59651043D01*
X78190002Y-59963657D01*
X78173082Y-59946737D01*
X77984729Y-59820884D01*
X77775443Y-59734194D01*
X77553265Y-59690000D01*
X77326735Y-59690000D01*
X77104557Y-59734194D01*
X76895271Y-59820884D01*
X76706918Y-59946737D01*
X76546737Y-60106918D01*
X76420884Y-60295271D01*
X76334194Y-60504557D01*
X76290000Y-60726735D01*
X76290000Y-60953265D01*
X76334194Y-61175443D01*
X76383788Y-61295172D01*
X75979238Y-61699722D01*
X75963026Y-61713027D01*
X75949721Y-61729239D01*
X75949719Y-61729241D01*
X75937453Y-61744188D01*
X75909916Y-61777741D01*
X75890794Y-61813516D01*
X75870452Y-61851574D01*
X75846149Y-61931687D01*
X75837944Y-62015001D01*
X75840000Y-62035878D01*
X75840000Y-62716865D01*
X75793263Y-62646918D01*
X75633082Y-62486737D01*
X75444729Y-62360884D01*
X75235443Y-62274194D01*
X75013265Y-62230000D01*
X74786735Y-62230000D01*
X74564557Y-62274194D01*
X74355271Y-62360884D01*
X74166918Y-62486737D01*
X74006737Y-62646918D01*
X73880884Y-62835271D01*
X73794194Y-63044557D01*
X73750000Y-63266735D01*
X73750000Y-63493265D01*
X73794194Y-63715443D01*
X73843788Y-63835172D01*
X72925000Y-64753960D01*
X72925000Y-63416040D01*
X74444828Y-61896212D01*
X74564557Y-61945806D01*
X74786735Y-61990000D01*
X75013265Y-61990000D01*
X75235443Y-61945806D01*
X75444729Y-61859116D01*
X75633082Y-61733263D01*
X75793263Y-61573082D01*
X75919116Y-61384729D01*
X76005806Y-61175443D01*
X76050000Y-60953265D01*
X76050000Y-60726735D01*
X76005806Y-60504557D01*
X75919116Y-60295271D01*
X75793263Y-60106918D01*
X75633082Y-59946737D01*
X75444729Y-59820884D01*
X75235443Y-59734194D01*
X75013265Y-59690000D01*
X74786735Y-59690000D01*
X74564557Y-59734194D01*
X74355271Y-59820884D01*
X74166918Y-59946737D01*
X74006737Y-60106918D01*
X73880884Y-60295271D01*
X73794194Y-60504557D01*
X73750000Y-60726735D01*
X73750000Y-60953265D01*
X73794194Y-61175443D01*
X73843788Y-61295172D01*
X72214239Y-62924721D01*
X72198027Y-62938026D01*
X72144917Y-63002740D01*
X72105453Y-63076573D01*
X72081150Y-63156686D01*
X72072945Y-63240000D01*
X72075001Y-63260877D01*
X72075000Y-72054131D01*
X72072945Y-72074998D01*
X72075000Y-72095865D01*
X72075000Y-72095871D01*
X72081150Y-72158311D01*
X72105452Y-72238424D01*
X72144916Y-72312257D01*
X72198026Y-72376972D01*
X72214243Y-72390282D01*
X75019855Y-75195894D01*
X74965793Y-75218287D01*
X74867522Y-75283950D01*
X74826472Y-75325000D01*
X71923528Y-75325000D01*
X71882478Y-75283950D01*
X71784207Y-75218287D01*
X71675014Y-75173058D01*
X71559095Y-75150000D01*
X71440905Y-75150000D01*
X71324986Y-75173058D01*
X71215793Y-75218287D01*
X71117522Y-75283950D01*
X71033950Y-75367522D01*
X70968287Y-75465793D01*
X70923058Y-75574986D01*
X70900000Y-75690905D01*
X70900000Y-75809095D01*
X70923058Y-75925014D01*
X70968287Y-76034207D01*
X71033950Y-76132478D01*
X71117522Y-76216050D01*
X71168331Y-76250000D01*
X71117522Y-76283950D01*
X71033950Y-76367522D01*
X70968287Y-76465793D01*
X70923058Y-76574986D01*
X70900000Y-76690905D01*
X70900000Y-76809095D01*
X70923058Y-76925014D01*
X70968287Y-77034207D01*
X71033950Y-77132478D01*
X71117522Y-77216050D01*
X71215793Y-77281713D01*
X71324986Y-77326942D01*
X71440905Y-77350000D01*
X71559095Y-77350000D01*
X71675014Y-77326942D01*
X71784207Y-77281713D01*
X71882478Y-77216050D01*
X71923528Y-77175000D01*
X74826472Y-77175000D01*
X74867522Y-77216050D01*
X74965793Y-77281713D01*
X75074986Y-77326942D01*
X75190905Y-77350000D01*
X75309095Y-77350000D01*
X75425014Y-77326942D01*
X75534207Y-77281713D01*
X75632478Y-77216050D01*
X75716050Y-77132478D01*
X75781713Y-77034207D01*
X75825001Y-76929700D01*
X75825000Y-83076472D01*
X75800001Y-83101471D01*
X75800001Y-81145868D01*
X75802056Y-81125001D01*
X75800001Y-81104134D01*
X75800001Y-81104127D01*
X75793851Y-81041687D01*
X75790826Y-81031713D01*
X75786479Y-81017384D01*
X75769549Y-80961574D01*
X75730085Y-80887741D01*
X75676975Y-80823027D01*
X75660764Y-80809723D01*
X75350000Y-80498960D01*
X75350000Y-80440905D01*
X75326942Y-80324986D01*
X75281713Y-80215793D01*
X75216050Y-80117522D01*
X75132478Y-80033950D01*
X75034207Y-79968287D01*
X74925014Y-79923058D01*
X74809095Y-79900000D01*
X74690905Y-79900000D01*
X74574986Y-79923058D01*
X74465793Y-79968287D01*
X74367522Y-80033950D01*
X74283950Y-80117522D01*
X74218287Y-80215793D01*
X74173058Y-80324986D01*
X74150000Y-80440905D01*
X74150000Y-80559095D01*
X74173058Y-80675014D01*
X74218287Y-80784207D01*
X74283950Y-80882478D01*
X74367522Y-80966050D01*
X74465793Y-81031713D01*
X74574986Y-81076942D01*
X74690905Y-81100000D01*
X74748960Y-81100000D01*
X74950001Y-81301042D01*
X74950001Y-81433408D01*
X74925014Y-81423058D01*
X74809095Y-81400000D01*
X74690905Y-81400000D01*
X74574986Y-81423058D01*
X74465793Y-81468287D01*
X74367522Y-81533950D01*
X74283950Y-81617522D01*
X74218287Y-81715793D01*
X74173058Y-81824986D01*
X74150000Y-81940905D01*
X74150000Y-82059095D01*
X74173058Y-82175014D01*
X74218287Y-82284207D01*
X74283950Y-82382478D01*
X74325000Y-82423528D01*
X74325001Y-85274119D01*
X74322945Y-85294996D01*
X74331150Y-85378310D01*
X74351992Y-85447014D01*
X74355453Y-85458423D01*
X74394917Y-85532256D01*
X74417685Y-85559999D01*
X68050000Y-85559999D01*
X68050000Y-83500000D01*
X68044236Y-83441473D01*
X68027164Y-83385195D01*
X67999441Y-83333329D01*
X67962132Y-83287868D01*
X67916671Y-83250559D01*
X67864805Y-83222836D01*
X67808527Y-83205764D01*
X67750000Y-83200000D01*
X63357817Y-83200000D01*
X63180000Y-83022183D01*
X63180000Y-80346345D01*
X63266918Y-80433263D01*
X63455271Y-80559116D01*
X63664557Y-80645806D01*
X63886735Y-80690000D01*
X64113265Y-80690000D01*
X64335443Y-80645806D01*
X64544729Y-80559116D01*
X64733082Y-80433263D01*
X64893263Y-80273082D01*
X65019116Y-80084729D01*
X65105806Y-79875443D01*
X65150000Y-79653265D01*
X65150000Y-79426735D01*
X65105806Y-79204557D01*
X65019116Y-78995271D01*
X64893263Y-78806918D01*
X64733082Y-78646737D01*
X64588304Y-78550000D01*
X65951696Y-78550000D01*
X65806918Y-78646737D01*
X65646737Y-78806918D01*
X65520884Y-78995271D01*
X65434194Y-79204557D01*
X65390000Y-79426735D01*
X65390000Y-79653265D01*
X65434194Y-79875443D01*
X65520884Y-80084729D01*
X65646737Y-80273082D01*
X65806918Y-80433263D01*
X65995271Y-80559116D01*
X66204557Y-80645806D01*
X66426735Y-80690000D01*
X66653265Y-80690000D01*
X66875443Y-80645806D01*
X67084729Y-80559116D01*
X67273082Y-80433263D01*
X67433263Y-80273082D01*
X67559116Y-80084729D01*
X67645806Y-79875443D01*
X67690000Y-79653265D01*
X67690000Y-79426735D01*
X67645806Y-79204557D01*
X67559116Y-78995271D01*
X67433263Y-78806918D01*
X67273082Y-78646737D01*
X67128304Y-78550000D01*
X67750000Y-78550000D01*
X67808527Y-78544236D01*
X67864805Y-78527164D01*
X67916671Y-78499441D01*
X67962132Y-78462132D01*
X67999441Y-78416671D01*
X68027164Y-78364805D01*
X68044236Y-78308527D01*
X68050000Y-78250000D01*
X68050000Y-75750000D01*
X68044236Y-75691473D01*
X68027164Y-75635195D01*
X67999441Y-75583329D01*
X67962132Y-75537868D01*
X67916671Y-75500559D01*
X67864805Y-75472836D01*
X67808527Y-75455764D01*
X67750000Y-75450000D01*
X67550000Y-75450000D01*
X67550000Y-69240058D01*
X67576942Y-69175014D01*
X67600000Y-69059095D01*
X67600000Y-68940905D01*
X67576942Y-68824986D01*
X67531713Y-68715793D01*
X67466050Y-68617522D01*
X67382478Y-68533950D01*
X67284207Y-68468287D01*
X67175014Y-68423058D01*
X67059095Y-68400000D01*
X66940905Y-68400000D01*
X66824986Y-68423058D01*
X66715793Y-68468287D01*
X66617522Y-68533950D01*
X66533950Y-68617522D01*
X66468287Y-68715793D01*
X66423058Y-68824986D01*
X66400000Y-68940905D01*
X66400000Y-69059095D01*
X66423058Y-69175014D01*
X66450000Y-69240058D01*
X66450001Y-75450000D01*
X64550000Y-75450000D01*
X64550000Y-70816593D01*
X64574986Y-70826942D01*
X64690905Y-70850000D01*
X64809095Y-70850000D01*
X64925014Y-70826942D01*
X65034207Y-70781713D01*
X65132478Y-70716050D01*
X65216050Y-70632478D01*
X65250000Y-70581669D01*
X65283950Y-70632478D01*
X65367522Y-70716050D01*
X65465793Y-70781713D01*
X65574986Y-70826942D01*
X65690905Y-70850000D01*
X65809095Y-70850000D01*
X65925014Y-70826942D01*
X66034207Y-70781713D01*
X66132478Y-70716050D01*
X66216050Y-70632478D01*
X66281713Y-70534207D01*
X66326942Y-70425014D01*
X66350000Y-70309095D01*
X66350000Y-70190905D01*
X66326942Y-70074986D01*
X66281713Y-69965793D01*
X66216050Y-69867522D01*
X66132478Y-69783950D01*
X66034207Y-69718287D01*
X65925014Y-69673058D01*
X65809095Y-69650000D01*
X65775000Y-69650000D01*
X65775000Y-65600000D01*
X65809095Y-65600000D01*
X65925014Y-65576942D01*
X66034207Y-65531713D01*
X66132478Y-65466050D01*
X66216050Y-65382478D01*
X66281713Y-65284207D01*
X66326942Y-65175014D01*
X66350000Y-65059095D01*
X66350000Y-64940905D01*
X66326942Y-64824986D01*
X66281713Y-64715793D01*
X66216050Y-64617522D01*
X66132478Y-64533950D01*
X66034207Y-64468287D01*
X65925014Y-64423058D01*
X65809095Y-64400000D01*
X65690905Y-64400000D01*
X65574986Y-64423058D01*
X65465793Y-64468287D01*
X65367522Y-64533950D01*
X65283950Y-64617522D01*
X65250000Y-64668331D01*
X65216050Y-64617522D01*
X65132478Y-64533950D01*
X65034207Y-64468287D01*
X64925014Y-64423058D01*
X64809095Y-64400000D01*
X64690905Y-64400000D01*
X64574986Y-64423058D01*
X64550000Y-64433407D01*
X64550000Y-64277007D01*
X64552660Y-64249999D01*
X64550000Y-64222991D01*
X64550000Y-64222982D01*
X64542042Y-64142181D01*
X64510592Y-64038506D01*
X64486818Y-63994028D01*
X64459521Y-63942957D01*
X64408013Y-63880195D01*
X64408008Y-63880190D01*
X64390790Y-63859210D01*
X64369810Y-63841992D01*
X61527817Y-61000000D01*
X62927819Y-59599999D01*
X68418083Y-59599999D01*
X68400000Y-59690905D01*
X68400000Y-59809095D01*
X68423058Y-59925014D01*
X68468287Y-60034207D01*
X68533950Y-60132478D01*
X68575000Y-60173528D01*
X68575001Y-64573958D01*
X67248960Y-65900000D01*
X67190905Y-65900000D01*
X67074986Y-65923058D01*
X66965793Y-65968287D01*
X66867522Y-66033950D01*
X66783950Y-66117522D01*
X66718287Y-66215793D01*
X66673058Y-66324986D01*
X66650000Y-66440905D01*
X66650000Y-66559095D01*
X66673058Y-66675014D01*
X66718287Y-66784207D01*
X66783950Y-66882478D01*
X66867522Y-66966050D01*
X66965793Y-67031713D01*
X67074986Y-67076942D01*
X67190905Y-67100000D01*
X67309095Y-67100000D01*
X67425014Y-67076942D01*
X67534207Y-67031713D01*
X67632478Y-66966050D01*
X67716050Y-66882478D01*
X67781713Y-66784207D01*
X67826942Y-66675014D01*
X67850000Y-66559095D01*
X67850000Y-66501040D01*
X69285762Y-65065279D01*
X69301974Y-65051974D01*
X69355084Y-64987260D01*
X69387567Y-64926488D01*
X69394548Y-64913428D01*
X69418850Y-64833314D01*
X69422915Y-64792041D01*
X69425000Y-64770874D01*
X69425000Y-64770867D01*
X69427055Y-64750000D01*
X69425000Y-64729133D01*
X69425000Y-60173528D01*
X69466050Y-60132478D01*
X69531713Y-60034207D01*
X69576942Y-59925014D01*
X69600000Y-59809095D01*
X69600000Y-59690905D01*
X69581917Y-59599999D01*
X74122993Y-59599999D01*
X74150001Y-59602659D01*
X74177009Y-59599999D01*
X74177019Y-59599999D01*
X74257820Y-59592041D01*
X74361495Y-59560591D01*
X74457043Y-59509520D01*
X74527799Y-59451451D01*
X75750000Y-59451451D01*
X75808810Y-59445659D01*
X75865360Y-59428504D01*
X75917477Y-59400647D01*
X75963158Y-59363158D01*
X76000647Y-59317477D01*
X76028504Y-59265360D01*
X76045659Y-59208810D01*
X76051451Y-59150000D01*
X76051451Y-57926367D01*
X76377819Y-57599999D01*
X76524633Y-57599999D01*
X76420884Y-57755271D01*
G04 #@! TA.AperFunction,Conductor*
D24*
G36*
X76420884Y-57755271D02*
G01*
X76334194Y-57964557D01*
X76290000Y-58186735D01*
X76290000Y-58413265D01*
X76334194Y-58635443D01*
X76420884Y-58844729D01*
X76546737Y-59033082D01*
X76706918Y-59193263D01*
X76895271Y-59319116D01*
X77104557Y-59405806D01*
X77326735Y-59450000D01*
X77553265Y-59450000D01*
X77775443Y-59405806D01*
X77895172Y-59356212D01*
X78190002Y-59651043D01*
X78190002Y-59963657D01*
X78173082Y-59946737D01*
X77984729Y-59820884D01*
X77775443Y-59734194D01*
X77553265Y-59690000D01*
X77326735Y-59690000D01*
X77104557Y-59734194D01*
X76895271Y-59820884D01*
X76706918Y-59946737D01*
X76546737Y-60106918D01*
X76420884Y-60295271D01*
X76334194Y-60504557D01*
X76290000Y-60726735D01*
X76290000Y-60953265D01*
X76334194Y-61175443D01*
X76383788Y-61295172D01*
X75979238Y-61699722D01*
X75963026Y-61713027D01*
X75949721Y-61729239D01*
X75949719Y-61729241D01*
X75937453Y-61744188D01*
X75909916Y-61777741D01*
X75890794Y-61813516D01*
X75870452Y-61851574D01*
X75846149Y-61931687D01*
X75837944Y-62015001D01*
X75840000Y-62035878D01*
X75840000Y-62716865D01*
X75793263Y-62646918D01*
X75633082Y-62486737D01*
X75444729Y-62360884D01*
X75235443Y-62274194D01*
X75013265Y-62230000D01*
X74786735Y-62230000D01*
X74564557Y-62274194D01*
X74355271Y-62360884D01*
X74166918Y-62486737D01*
X74006737Y-62646918D01*
X73880884Y-62835271D01*
X73794194Y-63044557D01*
X73750000Y-63266735D01*
X73750000Y-63493265D01*
X73794194Y-63715443D01*
X73843788Y-63835172D01*
X72925000Y-64753960D01*
X72925000Y-63416040D01*
X74444828Y-61896212D01*
X74564557Y-61945806D01*
X74786735Y-61990000D01*
X75013265Y-61990000D01*
X75235443Y-61945806D01*
X75444729Y-61859116D01*
X75633082Y-61733263D01*
X75793263Y-61573082D01*
X75919116Y-61384729D01*
X76005806Y-61175443D01*
X76050000Y-60953265D01*
X76050000Y-60726735D01*
X76005806Y-60504557D01*
X75919116Y-60295271D01*
X75793263Y-60106918D01*
X75633082Y-59946737D01*
X75444729Y-59820884D01*
X75235443Y-59734194D01*
X75013265Y-59690000D01*
X74786735Y-59690000D01*
X74564557Y-59734194D01*
X74355271Y-59820884D01*
X74166918Y-59946737D01*
X74006737Y-60106918D01*
X73880884Y-60295271D01*
X73794194Y-60504557D01*
X73750000Y-60726735D01*
X73750000Y-60953265D01*
X73794194Y-61175443D01*
X73843788Y-61295172D01*
X72214239Y-62924721D01*
X72198027Y-62938026D01*
X72144917Y-63002740D01*
X72105453Y-63076573D01*
X72081150Y-63156686D01*
X72072945Y-63240000D01*
X72075001Y-63260877D01*
X72075000Y-72054131D01*
X72072945Y-72074998D01*
X72075000Y-72095865D01*
X72075000Y-72095871D01*
X72081150Y-72158311D01*
X72105452Y-72238424D01*
X72144916Y-72312257D01*
X72198026Y-72376972D01*
X72214243Y-72390282D01*
X75019855Y-75195894D01*
X74965793Y-75218287D01*
X74867522Y-75283950D01*
X74826472Y-75325000D01*
X71923528Y-75325000D01*
X71882478Y-75283950D01*
X71784207Y-75218287D01*
X71675014Y-75173058D01*
X71559095Y-75150000D01*
X71440905Y-75150000D01*
X71324986Y-75173058D01*
X71215793Y-75218287D01*
X71117522Y-75283950D01*
X71033950Y-75367522D01*
X70968287Y-75465793D01*
X70923058Y-75574986D01*
X70900000Y-75690905D01*
X70900000Y-75809095D01*
X70923058Y-75925014D01*
X70968287Y-76034207D01*
X71033950Y-76132478D01*
X71117522Y-76216050D01*
X71168331Y-76250000D01*
X71117522Y-76283950D01*
X71033950Y-76367522D01*
X70968287Y-76465793D01*
X70923058Y-76574986D01*
X70900000Y-76690905D01*
X70900000Y-76809095D01*
X70923058Y-76925014D01*
X70968287Y-77034207D01*
X71033950Y-77132478D01*
X71117522Y-77216050D01*
X71215793Y-77281713D01*
X71324986Y-77326942D01*
X71440905Y-77350000D01*
X71559095Y-77350000D01*
X71675014Y-77326942D01*
X71784207Y-77281713D01*
X71882478Y-77216050D01*
X71923528Y-77175000D01*
X74826472Y-77175000D01*
X74867522Y-77216050D01*
X74965793Y-77281713D01*
X75074986Y-77326942D01*
X75190905Y-77350000D01*
X75309095Y-77350000D01*
X75425014Y-77326942D01*
X75534207Y-77281713D01*
X75632478Y-77216050D01*
X75716050Y-77132478D01*
X75781713Y-77034207D01*
X75825001Y-76929700D01*
X75825000Y-83076472D01*
X75800001Y-83101471D01*
X75800001Y-81145868D01*
X75802056Y-81125001D01*
X75800001Y-81104134D01*
X75800001Y-81104127D01*
X75793851Y-81041687D01*
X75790826Y-81031713D01*
X75786479Y-81017384D01*
X75769549Y-80961574D01*
X75730085Y-80887741D01*
X75676975Y-80823027D01*
X75660764Y-80809723D01*
X75350000Y-80498960D01*
X75350000Y-80440905D01*
X75326942Y-80324986D01*
X75281713Y-80215793D01*
X75216050Y-80117522D01*
X75132478Y-80033950D01*
X75034207Y-79968287D01*
X74925014Y-79923058D01*
X74809095Y-79900000D01*
X74690905Y-79900000D01*
X74574986Y-79923058D01*
X74465793Y-79968287D01*
X74367522Y-80033950D01*
X74283950Y-80117522D01*
X74218287Y-80215793D01*
X74173058Y-80324986D01*
X74150000Y-80440905D01*
X74150000Y-80559095D01*
X74173058Y-80675014D01*
X74218287Y-80784207D01*
X74283950Y-80882478D01*
X74367522Y-80966050D01*
X74465793Y-81031713D01*
X74574986Y-81076942D01*
X74690905Y-81100000D01*
X74748960Y-81100000D01*
X74950001Y-81301042D01*
X74950001Y-81433408D01*
X74925014Y-81423058D01*
X74809095Y-81400000D01*
X74690905Y-81400000D01*
X74574986Y-81423058D01*
X74465793Y-81468287D01*
X74367522Y-81533950D01*
X74283950Y-81617522D01*
X74218287Y-81715793D01*
X74173058Y-81824986D01*
X74150000Y-81940905D01*
X74150000Y-82059095D01*
X74173058Y-82175014D01*
X74218287Y-82284207D01*
X74283950Y-82382478D01*
X74325000Y-82423528D01*
X74325001Y-85274119D01*
X74322945Y-85294996D01*
X74331150Y-85378310D01*
X74351992Y-85447014D01*
X74355453Y-85458423D01*
X74394917Y-85532256D01*
X74417685Y-85559999D01*
X68050000Y-85559999D01*
X68050000Y-83500000D01*
X68044236Y-83441473D01*
X68027164Y-83385195D01*
X67999441Y-83333329D01*
X67962132Y-83287868D01*
X67916671Y-83250559D01*
X67864805Y-83222836D01*
X67808527Y-83205764D01*
X67750000Y-83200000D01*
X63357817Y-83200000D01*
X63180000Y-83022183D01*
X63180000Y-80346345D01*
X63266918Y-80433263D01*
X63455271Y-80559116D01*
X63664557Y-80645806D01*
X63886735Y-80690000D01*
X64113265Y-80690000D01*
X64335443Y-80645806D01*
X64544729Y-80559116D01*
X64733082Y-80433263D01*
X64893263Y-80273082D01*
X65019116Y-80084729D01*
X65105806Y-79875443D01*
X65150000Y-79653265D01*
X65150000Y-79426735D01*
X65105806Y-79204557D01*
X65019116Y-78995271D01*
X64893263Y-78806918D01*
X64733082Y-78646737D01*
X64588304Y-78550000D01*
X65951696Y-78550000D01*
X65806918Y-78646737D01*
X65646737Y-78806918D01*
X65520884Y-78995271D01*
X65434194Y-79204557D01*
X65390000Y-79426735D01*
X65390000Y-79653265D01*
X65434194Y-79875443D01*
X65520884Y-80084729D01*
X65646737Y-80273082D01*
X65806918Y-80433263D01*
X65995271Y-80559116D01*
X66204557Y-80645806D01*
X66426735Y-80690000D01*
X66653265Y-80690000D01*
X66875443Y-80645806D01*
X67084729Y-80559116D01*
X67273082Y-80433263D01*
X67433263Y-80273082D01*
X67559116Y-80084729D01*
X67645806Y-79875443D01*
X67690000Y-79653265D01*
X67690000Y-79426735D01*
X67645806Y-79204557D01*
X67559116Y-78995271D01*
X67433263Y-78806918D01*
X67273082Y-78646737D01*
X67128304Y-78550000D01*
X67750000Y-78550000D01*
X67808527Y-78544236D01*
X67864805Y-78527164D01*
X67916671Y-78499441D01*
X67962132Y-78462132D01*
X67999441Y-78416671D01*
X68027164Y-78364805D01*
X68044236Y-78308527D01*
X68050000Y-78250000D01*
X68050000Y-75750000D01*
X68044236Y-75691473D01*
X68027164Y-75635195D01*
X67999441Y-75583329D01*
X67962132Y-75537868D01*
X67916671Y-75500559D01*
X67864805Y-75472836D01*
X67808527Y-75455764D01*
X67750000Y-75450000D01*
X67550000Y-75450000D01*
X67550000Y-69240058D01*
X67576942Y-69175014D01*
X67600000Y-69059095D01*
X67600000Y-68940905D01*
X67576942Y-68824986D01*
X67531713Y-68715793D01*
X67466050Y-68617522D01*
X67382478Y-68533950D01*
X67284207Y-68468287D01*
X67175014Y-68423058D01*
X67059095Y-68400000D01*
X66940905Y-68400000D01*
X66824986Y-68423058D01*
X66715793Y-68468287D01*
X66617522Y-68533950D01*
X66533950Y-68617522D01*
X66468287Y-68715793D01*
X66423058Y-68824986D01*
X66400000Y-68940905D01*
X66400000Y-69059095D01*
X66423058Y-69175014D01*
X66450000Y-69240058D01*
X66450001Y-75450000D01*
X64550000Y-75450000D01*
X64550000Y-70816593D01*
X64574986Y-70826942D01*
X64690905Y-70850000D01*
X64809095Y-70850000D01*
X64925014Y-70826942D01*
X65034207Y-70781713D01*
X65132478Y-70716050D01*
X65216050Y-70632478D01*
X65250000Y-70581669D01*
X65283950Y-70632478D01*
X65367522Y-70716050D01*
X65465793Y-70781713D01*
X65574986Y-70826942D01*
X65690905Y-70850000D01*
X65809095Y-70850000D01*
X65925014Y-70826942D01*
X66034207Y-70781713D01*
X66132478Y-70716050D01*
X66216050Y-70632478D01*
X66281713Y-70534207D01*
X66326942Y-70425014D01*
X66350000Y-70309095D01*
X66350000Y-70190905D01*
X66326942Y-70074986D01*
X66281713Y-69965793D01*
X66216050Y-69867522D01*
X66132478Y-69783950D01*
X66034207Y-69718287D01*
X65925014Y-69673058D01*
X65809095Y-69650000D01*
X65775000Y-69650000D01*
X65775000Y-65600000D01*
X65809095Y-65600000D01*
X65925014Y-65576942D01*
X66034207Y-65531713D01*
X66132478Y-65466050D01*
X66216050Y-65382478D01*
X66281713Y-65284207D01*
X66326942Y-65175014D01*
X66350000Y-65059095D01*
X66350000Y-64940905D01*
X66326942Y-64824986D01*
X66281713Y-64715793D01*
X66216050Y-64617522D01*
X66132478Y-64533950D01*
X66034207Y-64468287D01*
X65925014Y-64423058D01*
X65809095Y-64400000D01*
X65690905Y-64400000D01*
X65574986Y-64423058D01*
X65465793Y-64468287D01*
X65367522Y-64533950D01*
X65283950Y-64617522D01*
X65250000Y-64668331D01*
X65216050Y-64617522D01*
X65132478Y-64533950D01*
X65034207Y-64468287D01*
X64925014Y-64423058D01*
X64809095Y-64400000D01*
X64690905Y-64400000D01*
X64574986Y-64423058D01*
X64550000Y-64433407D01*
X64550000Y-64277007D01*
X64552660Y-64249999D01*
X64550000Y-64222991D01*
X64550000Y-64222982D01*
X64542042Y-64142181D01*
X64510592Y-64038506D01*
X64486818Y-63994028D01*
X64459521Y-63942957D01*
X64408013Y-63880195D01*
X64408008Y-63880190D01*
X64390790Y-63859210D01*
X64369810Y-63841992D01*
X61527817Y-61000000D01*
X62927819Y-59599999D01*
X68418083Y-59599999D01*
X68400000Y-59690905D01*
X68400000Y-59809095D01*
X68423058Y-59925014D01*
X68468287Y-60034207D01*
X68533950Y-60132478D01*
X68575000Y-60173528D01*
X68575001Y-64573958D01*
X67248960Y-65900000D01*
X67190905Y-65900000D01*
X67074986Y-65923058D01*
X66965793Y-65968287D01*
X66867522Y-66033950D01*
X66783950Y-66117522D01*
X66718287Y-66215793D01*
X66673058Y-66324986D01*
X66650000Y-66440905D01*
X66650000Y-66559095D01*
X66673058Y-66675014D01*
X66718287Y-66784207D01*
X66783950Y-66882478D01*
X66867522Y-66966050D01*
X66965793Y-67031713D01*
X67074986Y-67076942D01*
X67190905Y-67100000D01*
X67309095Y-67100000D01*
X67425014Y-67076942D01*
X67534207Y-67031713D01*
X67632478Y-66966050D01*
X67716050Y-66882478D01*
X67781713Y-66784207D01*
X67826942Y-66675014D01*
X67850000Y-66559095D01*
X67850000Y-66501040D01*
X69285762Y-65065279D01*
X69301974Y-65051974D01*
X69355084Y-64987260D01*
X69387567Y-64926488D01*
X69394548Y-64913428D01*
X69418850Y-64833314D01*
X69422915Y-64792041D01*
X69425000Y-64770874D01*
X69425000Y-64770867D01*
X69427055Y-64750000D01*
X69425000Y-64729133D01*
X69425000Y-60173528D01*
X69466050Y-60132478D01*
X69531713Y-60034207D01*
X69576942Y-59925014D01*
X69600000Y-59809095D01*
X69600000Y-59690905D01*
X69581917Y-59599999D01*
X74122993Y-59599999D01*
X74150001Y-59602659D01*
X74177009Y-59599999D01*
X74177019Y-59599999D01*
X74257820Y-59592041D01*
X74361495Y-59560591D01*
X74457043Y-59509520D01*
X74527799Y-59451451D01*
X75750000Y-59451451D01*
X75808810Y-59445659D01*
X75865360Y-59428504D01*
X75917477Y-59400647D01*
X75963158Y-59363158D01*
X76000647Y-59317477D01*
X76028504Y-59265360D01*
X76045659Y-59208810D01*
X76051451Y-59150000D01*
X76051451Y-57926367D01*
X76377819Y-57599999D01*
X76524633Y-57599999D01*
X76420884Y-57755271D01*
G37*
G04 #@! TD.AperFunction*
D23*
X75839999Y-74133243D02*
X73375010Y-71668254D01*
X73375010Y-65506030D01*
X74444828Y-64436212D01*
X74564557Y-64485806D01*
X74786735Y-64530000D01*
X75013265Y-64530000D01*
X75235443Y-64485806D01*
X75444729Y-64399116D01*
X75633082Y-64273263D01*
X75793263Y-64113082D01*
X75840000Y-64043135D01*
X75839999Y-74133243D01*
G04 #@! TA.AperFunction,Conductor*
D24*
G36*
X75839999Y-74133243D02*
G01*
X73375010Y-71668254D01*
X73375010Y-65506030D01*
X74444828Y-64436212D01*
X74564557Y-64485806D01*
X74786735Y-64530000D01*
X75013265Y-64530000D01*
X75235443Y-64485806D01*
X75444729Y-64399116D01*
X75633082Y-64273263D01*
X75793263Y-64113082D01*
X75840000Y-64043135D01*
X75839999Y-74133243D01*
G37*
G04 #@! TD.AperFunction*
D23*
X78190001Y-64458958D02*
X76689999Y-65958961D01*
X76689999Y-62191041D01*
X76984828Y-61896212D01*
X77104557Y-61945806D01*
X77326735Y-61990000D01*
X77553265Y-61990000D01*
X77775443Y-61945806D01*
X77984729Y-61859116D01*
X78173082Y-61733263D01*
X78190002Y-61716343D01*
X78190001Y-64458958D01*
G04 #@! TA.AperFunction,Conductor*
D24*
G36*
X78190001Y-64458958D02*
G01*
X76689999Y-65958961D01*
X76689999Y-62191041D01*
X76984828Y-61896212D01*
X77104557Y-61945806D01*
X77326735Y-61990000D01*
X77553265Y-61990000D01*
X77775443Y-61945806D01*
X77984729Y-61859116D01*
X78173082Y-61733263D01*
X78190002Y-61716343D01*
X78190001Y-64458958D01*
G37*
G04 #@! TD.AperFunction*
D23*
X67650000Y-85559999D02*
X63035867Y-85559999D01*
X63015000Y-85557944D01*
X62994133Y-85559999D01*
X62994127Y-85559999D01*
X62940099Y-85565320D01*
X62931686Y-85566149D01*
X62907384Y-85573521D01*
X62851574Y-85590451D01*
X62850000Y-85591292D01*
X62850000Y-83600000D01*
X67650000Y-83600000D01*
X67650000Y-85559999D01*
G04 #@! TA.AperFunction,Conductor*
D24*
G36*
X67650000Y-85559999D02*
G01*
X63035867Y-85559999D01*
X63015000Y-85557944D01*
X62994133Y-85559999D01*
X62994127Y-85559999D01*
X62940099Y-85565320D01*
X62931686Y-85566149D01*
X62907384Y-85573521D01*
X62851574Y-85590451D01*
X62850000Y-85591292D01*
X62850000Y-83600000D01*
X67650000Y-83600000D01*
X67650000Y-85559999D01*
G37*
G04 #@! TD.AperFunction*
D23*
X67650000Y-78150000D02*
X62850000Y-78150000D01*
X62850000Y-75850000D01*
X67650000Y-75850000D01*
X67650000Y-78150000D01*
G04 #@! TA.AperFunction,Conductor*
D24*
G36*
X67650000Y-78150000D02*
G01*
X62850000Y-78150000D01*
X62850000Y-75850000D01*
X67650000Y-75850000D01*
X67650000Y-78150000D01*
G37*
G04 #@! TD.AperFunction*
M02*
