%FSLAX45Y45*%
G04 Gerber Fmt 4.5, Leading zero omitted, Abs format (unit mm)*
G04 Created by KiCad (PCBNEW (5.1.10)-1) date 2022-03-14 11:31:30*
%MOMM*%
%LPD*%
G01*
G04 APERTURE LIST*
%TA.AperFunction,Profile*%
%ADD10C,0.050000*%
%TD*%
%ADD11C,0.200000*%
%ADD12C,0.300000*%
G04 APERTURE END LIST*
D10*
X5500000Y-11000000D02*
X10500000Y-11000000D01*
X5500000Y-9000000D02*
X5500000Y-11000000D01*
X10500000Y-9500000D02*
X10500000Y-11000000D01*
X5500000Y-5000000D02*
X5500000Y-9000000D01*
X10500000Y-5000000D02*
X10500000Y-9500000D01*
X5500000Y-5000000D02*
X10500000Y-5000000D01*
D11*
X8149000Y-8820000D02*
X8169000Y-8840000D01*
X8169000Y-8820000D02*
X8149000Y-8840000D01*
X8149000Y-8970000D02*
X8169000Y-8990000D01*
X8169000Y-8970000D02*
X8149000Y-8990000D01*
X8224000Y-8745000D02*
X8244000Y-8765000D01*
X8244000Y-8745000D02*
X8224000Y-8765000D01*
X8224000Y-8895000D02*
X8244000Y-8915000D01*
X8244000Y-8895000D02*
X8224000Y-8915000D01*
X8224000Y-9045000D02*
X8244000Y-9065000D01*
X8244000Y-9045000D02*
X8224000Y-9065000D01*
X8299000Y-8820000D02*
X8319000Y-8840000D01*
X8319000Y-8820000D02*
X8299000Y-8840000D01*
X8299000Y-8970000D02*
X8319000Y-8990000D01*
X8319000Y-8970000D02*
X8299000Y-8990000D01*
X8374000Y-8745000D02*
X8394000Y-8765000D01*
X8394000Y-8745000D02*
X8374000Y-8765000D01*
X8374000Y-8895000D02*
X8394000Y-8915000D01*
X8394000Y-8895000D02*
X8374000Y-8915000D01*
X8374000Y-9045000D02*
X8394000Y-9065000D01*
X8394000Y-9045000D02*
X8374000Y-9065000D01*
X8449000Y-8820000D02*
X8469000Y-8840000D01*
X8469000Y-8820000D02*
X8449000Y-8840000D01*
X8449000Y-8970000D02*
X8469000Y-8990000D01*
X8469000Y-8970000D02*
X8449000Y-8990000D01*
X5565000Y-7600000D02*
G75*
G03*
X5565000Y-7600000I-15000J0D01*
G01*
X5690000Y-7600000D02*
G75*
G03*
X5690000Y-7600000I-15000J0D01*
G01*
X5690000Y-9675000D02*
G75*
G03*
X5690000Y-9675000I-15000J0D01*
G01*
X5715000Y-5950000D02*
G75*
G03*
X5715000Y-5950000I-15000J0D01*
G01*
X5715000Y-10200000D02*
G75*
G03*
X5715000Y-10200000I-15000J0D01*
G01*
X5715000Y-10550000D02*
G75*
G03*
X5715000Y-10550000I-15000J0D01*
G01*
X5915000Y-10550000D02*
G75*
G03*
X5915000Y-10550000I-15000J0D01*
G01*
X5965000Y-7950000D02*
G75*
G03*
X5965000Y-7950000I-15000J0D01*
G01*
X5965000Y-10400000D02*
G75*
G03*
X5965000Y-10400000I-15000J0D01*
G01*
X6090000Y-6100000D02*
G75*
G03*
X6090000Y-6100000I-15000J0D01*
G01*
X6115000Y-10200000D02*
G75*
G03*
X6115000Y-10200000I-15000J0D01*
G01*
X6140000Y-6400000D02*
G75*
G03*
X6140000Y-6400000I-15000J0D01*
G01*
X6140000Y-6750000D02*
G75*
G03*
X6140000Y-6750000I-15000J0D01*
G01*
X6185000Y-5790000D02*
G75*
G03*
X6185000Y-5790000I-15000J0D01*
G01*
X6215000Y-6675000D02*
G75*
G03*
X6215000Y-6675000I-15000J0D01*
G01*
X6290000Y-5700000D02*
G75*
G03*
X6290000Y-5700000I-15000J0D01*
G01*
X6390000Y-5700000D02*
G75*
G03*
X6390000Y-5700000I-15000J0D01*
G01*
X6415000Y-10400000D02*
G75*
G03*
X6415000Y-10400000I-15000J0D01*
G01*
X6490000Y-6500000D02*
G75*
G03*
X6490000Y-6500000I-15000J0D01*
G01*
X6490000Y-7025000D02*
G75*
G03*
X6490000Y-7025000I-15000J0D01*
G01*
X6540000Y-6100000D02*
G75*
G03*
X6540000Y-6100000I-15000J0D01*
G01*
X6540000Y-10050000D02*
G75*
G03*
X6540000Y-10050000I-15000J0D01*
G01*
X6590000Y-6500000D02*
G75*
G03*
X6590000Y-6500000I-15000J0D01*
G01*
X6590000Y-7025000D02*
G75*
G03*
X6590000Y-7025000I-15000J0D01*
G01*
X6715000Y-6475000D02*
G75*
G03*
X6715000Y-6475000I-15000J0D01*
G01*
X6715000Y-6900000D02*
G75*
G03*
X6715000Y-6900000I-15000J0D01*
G01*
X6715000Y-9700000D02*
G75*
G03*
X6715000Y-9700000I-15000J0D01*
G01*
X6740000Y-6650000D02*
G75*
G03*
X6740000Y-6650000I-15000J0D01*
G01*
X6840000Y-5375000D02*
G75*
G03*
X6840000Y-5375000I-15000J0D01*
G01*
X6915000Y-5975000D02*
G75*
G03*
X6915000Y-5975000I-15000J0D01*
G01*
X6940000Y-5500000D02*
G75*
G03*
X6940000Y-5500000I-15000J0D01*
G01*
X7040000Y-5500000D02*
G75*
G03*
X7040000Y-5500000I-15000J0D01*
G01*
X7040000Y-9350000D02*
G75*
G03*
X7040000Y-9350000I-15000J0D01*
G01*
X7165000Y-7575000D02*
G75*
G03*
X7165000Y-7575000I-15000J0D01*
G01*
X7165000Y-7675000D02*
G75*
G03*
X7165000Y-7675000I-15000J0D01*
G01*
X7165000Y-9050000D02*
G75*
G03*
X7165000Y-9050000I-15000J0D01*
G01*
X7165000Y-9150000D02*
G75*
G03*
X7165000Y-9150000I-15000J0D01*
G01*
X7165000Y-9875000D02*
G75*
G03*
X7165000Y-9875000I-15000J0D01*
G01*
X7490000Y-8050000D02*
G75*
G03*
X7490000Y-8050000I-15000J0D01*
G01*
X7490000Y-8200000D02*
G75*
G03*
X7490000Y-8200000I-15000J0D01*
G01*
X7540000Y-7575000D02*
G75*
G03*
X7540000Y-7575000I-15000J0D01*
G01*
X7540000Y-7675000D02*
G75*
G03*
X7540000Y-7675000I-15000J0D01*
G01*
X7640000Y-8350000D02*
G75*
G03*
X7640000Y-8350000I-15000J0D01*
G01*
X7740000Y-8350000D02*
G75*
G03*
X7740000Y-8350000I-15000J0D01*
G01*
X7740000Y-8875000D02*
G75*
G03*
X7740000Y-8875000I-15000J0D01*
G01*
X7840000Y-8350000D02*
G75*
G03*
X7840000Y-8350000I-15000J0D01*
G01*
X7940000Y-8350000D02*
G75*
G03*
X7940000Y-8350000I-15000J0D01*
G01*
X8240000Y-5175000D02*
G75*
G03*
X8240000Y-5175000I-15000J0D01*
G01*
X8315000Y-6300000D02*
G75*
G03*
X8315000Y-6300000I-15000J0D01*
G01*
X8515000Y-5950000D02*
G75*
G03*
X8515000Y-5950000I-15000J0D01*
G01*
X8615000Y-5950000D02*
G75*
G03*
X8615000Y-5950000I-15000J0D01*
G01*
X8615000Y-8725000D02*
G75*
G03*
X8615000Y-8725000I-15000J0D01*
G01*
X8715000Y-5950000D02*
G75*
G03*
X8715000Y-5950000I-15000J0D01*
G01*
X8715000Y-8725000D02*
G75*
G03*
X8715000Y-8725000I-15000J0D01*
G01*
X8740000Y-5175000D02*
G75*
G03*
X8740000Y-5175000I-15000J0D01*
G01*
X8815000Y-8725000D02*
G75*
G03*
X8815000Y-8725000I-15000J0D01*
G01*
X8863500Y-8598500D02*
G75*
G03*
X8863500Y-8598500I-15000J0D01*
G01*
X9215000Y-9550000D02*
G75*
G03*
X9215000Y-9550000I-15000J0D01*
G01*
X9240000Y-5175000D02*
G75*
G03*
X9240000Y-5175000I-15000J0D01*
G01*
X9265000Y-8400000D02*
G75*
G03*
X9265000Y-8400000I-15000J0D01*
G01*
X9265000Y-8500000D02*
G75*
G03*
X9265000Y-8500000I-15000J0D01*
G01*
X9265000Y-8600000D02*
G75*
G03*
X9265000Y-8600000I-15000J0D01*
G01*
X9265000Y-8700000D02*
G75*
G03*
X9265000Y-8700000I-15000J0D01*
G01*
X9265000Y-9875000D02*
G75*
G03*
X9265000Y-9875000I-15000J0D01*
G01*
X9265000Y-10550000D02*
G75*
G03*
X9265000Y-10550000I-15000J0D01*
G01*
X9390000Y-8225000D02*
G75*
G03*
X9390000Y-8225000I-15000J0D01*
G01*
X9415000Y-8600000D02*
G75*
G03*
X9415000Y-8600000I-15000J0D01*
G01*
X9415000Y-9150000D02*
G75*
G03*
X9415000Y-9150000I-15000J0D01*
G01*
X9715000Y-9300000D02*
G75*
G03*
X9715000Y-9300000I-15000J0D01*
G01*
X9865000Y-10550000D02*
G75*
G03*
X9865000Y-10550000I-15000J0D01*
G01*
X6025000Y-5555000D02*
X6025000Y-5595000D01*
X6005000Y-5575000D02*
X6045000Y-5575000D01*
X6200000Y-7255000D02*
X6200000Y-7295000D01*
X6180000Y-7275000D02*
X6220000Y-7275000D01*
X6200000Y-8680000D02*
X6200000Y-8720000D01*
X6180000Y-8700000D02*
X6220000Y-8700000D01*
X6425000Y-9255000D02*
X6425000Y-9295000D01*
X6405000Y-9275000D02*
X6445000Y-9275000D01*
X7425000Y-6755000D02*
X7425000Y-6795000D01*
X7405000Y-6775000D02*
X7445000Y-6775000D01*
X8825000Y-10155000D02*
X8825000Y-10195000D01*
X8805000Y-10175000D02*
X8845000Y-10175000D01*
X9300000Y-5980000D02*
X9300000Y-6020000D01*
X9280000Y-6000000D02*
X9320000Y-6000000D01*
X9700000Y-6505000D02*
X9700000Y-6545000D01*
X9680000Y-6525000D02*
X9720000Y-6525000D01*
X9700000Y-6955000D02*
X9700000Y-6995000D01*
X9680000Y-6975000D02*
X9720000Y-6975000D01*
X9975000Y-6980000D02*
X9975000Y-7020000D01*
X9955000Y-7000000D02*
X9995000Y-7000000D01*
X5887678Y-5167678D02*
X5887678Y-5132322D01*
X5852322Y-5132322D01*
X5852322Y-5167678D01*
X5887678Y-5167678D01*
X5885000Y-5185000D02*
X5885000Y-5115000D01*
X5855000Y-5185000D02*
X5855000Y-5115000D01*
X5885000Y-5115000D02*
G75*
G03*
X5855000Y-5115000I-15000J0D01*
G01*
X5855000Y-5185000D02*
G75*
G03*
X5885000Y-5185000I15000J0D01*
G01*
X6547678Y-5167678D02*
X6547678Y-5132322D01*
X6512322Y-5132322D01*
X6512322Y-5167678D01*
X6547678Y-5167678D01*
X6545000Y-5185000D02*
X6545000Y-5115000D01*
X6515000Y-5185000D02*
X6515000Y-5115000D01*
X6545000Y-5115000D02*
G75*
G03*
X6515000Y-5115000I-15000J0D01*
G01*
X6515000Y-5185000D02*
G75*
G03*
X6545000Y-5185000I15000J0D01*
G01*
X6775000Y-10290000D02*
X6815000Y-10250000D01*
X6775000Y-10210000D01*
X6735000Y-10250000D01*
X6775000Y-10290000D01*
X6775000Y-10490000D02*
X6815000Y-10450000D01*
X6775000Y-10410000D01*
X6735000Y-10450000D01*
X6775000Y-10490000D01*
X9730000Y-5540000D02*
X9770000Y-5500000D01*
X9730000Y-5460000D01*
X9690000Y-5500000D01*
X9730000Y-5540000D01*
X9760000Y-5535000D02*
X9760000Y-5465000D01*
X9700000Y-5535000D02*
X9700000Y-5465000D01*
X9760000Y-5465000D02*
G75*
G03*
X9700000Y-5465000I-30000J0D01*
G01*
X9700000Y-5535000D02*
G75*
G03*
X9760000Y-5535000I30000J0D01*
G01*
X10000000Y-5290000D02*
X10040000Y-5250000D01*
X10000000Y-5210000D01*
X9960000Y-5250000D01*
X10000000Y-5290000D01*
X9965000Y-5280000D02*
X10035000Y-5280000D01*
X9965000Y-5220000D02*
X10035000Y-5220000D01*
X10035000Y-5280000D02*
G75*
G03*
X10035000Y-5220000I0J30000D01*
G01*
X9965000Y-5220000D02*
G75*
G03*
X9965000Y-5280000I0J-30000D01*
G01*
X10000000Y-5790000D02*
X10040000Y-5750000D01*
X10000000Y-5710000D01*
X9960000Y-5750000D01*
X10000000Y-5790000D01*
X9965000Y-5780000D02*
X10035000Y-5780000D01*
X9965000Y-5720000D02*
X10035000Y-5720000D01*
X10035000Y-5780000D02*
G75*
G03*
X10035000Y-5720000I0J30000D01*
G01*
X9965000Y-5720000D02*
G75*
G03*
X9965000Y-5780000I0J-30000D01*
G01*
X5680000Y-6710000D02*
X5780000Y-6810000D01*
X5780000Y-6710000D02*
X5680000Y-6810000D01*
X5780000Y-6760000D02*
G75*
G03*
X5780000Y-6760000I-50000J0D01*
G01*
X5680000Y-6964000D02*
X5780000Y-7064000D01*
X5780000Y-6964000D02*
X5680000Y-7064000D01*
X5780000Y-7014000D02*
G75*
G03*
X5780000Y-7014000I-50000J0D01*
G01*
X5680000Y-7218000D02*
X5780000Y-7318000D01*
X5780000Y-7218000D02*
X5680000Y-7318000D01*
X5780000Y-7268000D02*
G75*
G03*
X5780000Y-7268000I-50000J0D01*
G01*
X6350000Y-7650000D02*
X6450000Y-7750000D01*
X6450000Y-7650000D02*
X6350000Y-7750000D01*
X6450000Y-7700000D02*
G75*
G03*
X6450000Y-7700000I-50000J0D01*
G01*
X6350000Y-7904000D02*
X6450000Y-8004000D01*
X6450000Y-7904000D02*
X6350000Y-8004000D01*
X6450000Y-7954000D02*
G75*
G03*
X6450000Y-7954000I-50000J0D01*
G01*
X6350000Y-8158000D02*
X6450000Y-8258000D01*
X6450000Y-8158000D02*
X6350000Y-8258000D01*
X6450000Y-8208000D02*
G75*
G03*
X6450000Y-8208000I-50000J0D01*
G01*
X6350000Y-8412000D02*
X6450000Y-8512000D01*
X6450000Y-8412000D02*
X6350000Y-8512000D01*
X6450000Y-8462000D02*
G75*
G03*
X6450000Y-8462000I-50000J0D01*
G01*
X6350000Y-8666000D02*
X6450000Y-8766000D01*
X6450000Y-8666000D02*
X6350000Y-8766000D01*
X6450000Y-8716000D02*
G75*
G03*
X6450000Y-8716000I-50000J0D01*
G01*
X6350000Y-8920000D02*
X6450000Y-9020000D01*
X6450000Y-8920000D02*
X6350000Y-9020000D01*
X6450000Y-8970000D02*
G75*
G03*
X6450000Y-8970000I-50000J0D01*
G01*
X6604000Y-7650000D02*
X6704000Y-7750000D01*
X6704000Y-7650000D02*
X6604000Y-7750000D01*
X6704000Y-7700000D02*
G75*
G03*
X6704000Y-7700000I-50000J0D01*
G01*
X6604000Y-7904000D02*
X6704000Y-8004000D01*
X6704000Y-7904000D02*
X6604000Y-8004000D01*
X6704000Y-7954000D02*
G75*
G03*
X6704000Y-7954000I-50000J0D01*
G01*
X6604000Y-8158000D02*
X6704000Y-8258000D01*
X6704000Y-8158000D02*
X6604000Y-8258000D01*
X6704000Y-8208000D02*
G75*
G03*
X6704000Y-8208000I-50000J0D01*
G01*
X6604000Y-8412000D02*
X6704000Y-8512000D01*
X6704000Y-8412000D02*
X6604000Y-8512000D01*
X6704000Y-8462000D02*
G75*
G03*
X6704000Y-8462000I-50000J0D01*
G01*
X6604000Y-8666000D02*
X6704000Y-8766000D01*
X6704000Y-8666000D02*
X6604000Y-8766000D01*
X6704000Y-8716000D02*
G75*
G03*
X6704000Y-8716000I-50000J0D01*
G01*
X6604000Y-8920000D02*
X6704000Y-9020000D01*
X6704000Y-8920000D02*
X6604000Y-9020000D01*
X6704000Y-8970000D02*
G75*
G03*
X6704000Y-8970000I-50000J0D01*
G01*
X7342000Y-10750000D02*
X7442000Y-10850000D01*
X7442000Y-10750000D02*
X7342000Y-10850000D01*
X7442000Y-10800000D02*
G75*
G03*
X7442000Y-10800000I-50000J0D01*
G01*
X7440000Y-5780000D02*
X7540000Y-5880000D01*
X7540000Y-5780000D02*
X7440000Y-5880000D01*
X7540000Y-5830000D02*
G75*
G03*
X7540000Y-5830000I-50000J0D01*
G01*
X7440000Y-6034000D02*
X7540000Y-6134000D01*
X7540000Y-6034000D02*
X7440000Y-6134000D01*
X7540000Y-6084000D02*
G75*
G03*
X7540000Y-6084000I-50000J0D01*
G01*
X7440000Y-6288000D02*
X7540000Y-6388000D01*
X7540000Y-6288000D02*
X7440000Y-6388000D01*
X7540000Y-6338000D02*
G75*
G03*
X7540000Y-6338000I-50000J0D01*
G01*
X7596000Y-10750000D02*
X7696000Y-10850000D01*
X7696000Y-10750000D02*
X7596000Y-10850000D01*
X7696000Y-10800000D02*
G75*
G03*
X7696000Y-10800000I-50000J0D01*
G01*
X7694000Y-5780000D02*
X7794000Y-5880000D01*
X7794000Y-5780000D02*
X7694000Y-5880000D01*
X7794000Y-5830000D02*
G75*
G03*
X7794000Y-5830000I-50000J0D01*
G01*
X7694000Y-6034000D02*
X7794000Y-6134000D01*
X7794000Y-6034000D02*
X7694000Y-6134000D01*
X7794000Y-6084000D02*
G75*
G03*
X7794000Y-6084000I-50000J0D01*
G01*
X7694000Y-6288000D02*
X7794000Y-6388000D01*
X7794000Y-6288000D02*
X7694000Y-6388000D01*
X7794000Y-6338000D02*
G75*
G03*
X7794000Y-6338000I-50000J0D01*
G01*
X7850000Y-10750000D02*
X7950000Y-10850000D01*
X7950000Y-10750000D02*
X7850000Y-10850000D01*
X7950000Y-10800000D02*
G75*
G03*
X7950000Y-10800000I-50000J0D01*
G01*
X8388000Y-10725000D02*
X8488000Y-10825000D01*
X8488000Y-10725000D02*
X8388000Y-10825000D01*
X8488000Y-10775000D02*
G75*
G03*
X8488000Y-10775000I-50000J0D01*
G01*
X8642000Y-10725000D02*
X8742000Y-10825000D01*
X8742000Y-10725000D02*
X8642000Y-10825000D01*
X8742000Y-10775000D02*
G75*
G03*
X8742000Y-10775000I-50000J0D01*
G01*
X8896000Y-10725000D02*
X8996000Y-10825000D01*
X8996000Y-10725000D02*
X8896000Y-10825000D01*
X8996000Y-10775000D02*
G75*
G03*
X8996000Y-10775000I-50000J0D01*
G01*
X9150000Y-10725000D02*
X9250000Y-10825000D01*
X9250000Y-10725000D02*
X9150000Y-10825000D01*
X9250000Y-10775000D02*
G75*
G03*
X9250000Y-10775000I-50000J0D01*
G01*
X9550000Y-7275000D02*
X9650000Y-7375000D01*
X9650000Y-7275000D02*
X9550000Y-7375000D01*
X9650000Y-7325000D02*
G75*
G03*
X9650000Y-7325000I-50000J0D01*
G01*
X9550000Y-7529000D02*
X9650000Y-7629000D01*
X9650000Y-7529000D02*
X9550000Y-7629000D01*
X9650000Y-7579000D02*
G75*
G03*
X9650000Y-7579000I-50000J0D01*
G01*
X9550000Y-7783000D02*
X9650000Y-7883000D01*
X9650000Y-7783000D02*
X9550000Y-7883000D01*
X9650000Y-7833000D02*
G75*
G03*
X9650000Y-7833000I-50000J0D01*
G01*
X9550000Y-8037000D02*
X9650000Y-8137000D01*
X9650000Y-8037000D02*
X9550000Y-8137000D01*
X9650000Y-8087000D02*
G75*
G03*
X9650000Y-8087000I-50000J0D01*
G01*
X9550000Y-8291000D02*
X9650000Y-8391000D01*
X9650000Y-8291000D02*
X9550000Y-8391000D01*
X9650000Y-8341000D02*
G75*
G03*
X9650000Y-8341000I-50000J0D01*
G01*
X9550000Y-8545000D02*
X9650000Y-8645000D01*
X9650000Y-8545000D02*
X9550000Y-8645000D01*
X9650000Y-8595000D02*
G75*
G03*
X9650000Y-8595000I-50000J0D01*
G01*
X9550000Y-8799000D02*
X9650000Y-8899000D01*
X9650000Y-8799000D02*
X9550000Y-8899000D01*
X9650000Y-8849000D02*
G75*
G03*
X9650000Y-8849000I-50000J0D01*
G01*
X9742000Y-10725000D02*
X9842000Y-10825000D01*
X9842000Y-10725000D02*
X9742000Y-10825000D01*
X9842000Y-10775000D02*
G75*
G03*
X9842000Y-10775000I-50000J0D01*
G01*
X9804000Y-7275000D02*
X9904000Y-7375000D01*
X9904000Y-7275000D02*
X9804000Y-7375000D01*
X9904000Y-7325000D02*
G75*
G03*
X9904000Y-7325000I-50000J0D01*
G01*
X9804000Y-7529000D02*
X9904000Y-7629000D01*
X9904000Y-7529000D02*
X9804000Y-7629000D01*
X9904000Y-7579000D02*
G75*
G03*
X9904000Y-7579000I-50000J0D01*
G01*
X9804000Y-7783000D02*
X9904000Y-7883000D01*
X9904000Y-7783000D02*
X9804000Y-7883000D01*
X9904000Y-7833000D02*
G75*
G03*
X9904000Y-7833000I-50000J0D01*
G01*
X9804000Y-8037000D02*
X9904000Y-8137000D01*
X9904000Y-8037000D02*
X9804000Y-8137000D01*
X9904000Y-8087000D02*
G75*
G03*
X9904000Y-8087000I-50000J0D01*
G01*
X9804000Y-8291000D02*
X9904000Y-8391000D01*
X9904000Y-8291000D02*
X9804000Y-8391000D01*
X9904000Y-8341000D02*
G75*
G03*
X9904000Y-8341000I-50000J0D01*
G01*
X9804000Y-8545000D02*
X9904000Y-8645000D01*
X9904000Y-8545000D02*
X9804000Y-8645000D01*
X9904000Y-8595000D02*
G75*
G03*
X9904000Y-8595000I-50000J0D01*
G01*
X9804000Y-8799000D02*
X9904000Y-8899000D01*
X9904000Y-8799000D02*
X9804000Y-8899000D01*
X9904000Y-8849000D02*
G75*
G03*
X9904000Y-8849000I-50000J0D01*
G01*
X9996000Y-10725000D02*
X10096000Y-10825000D01*
X10096000Y-10725000D02*
X9996000Y-10825000D01*
X10096000Y-10775000D02*
G75*
G03*
X10096000Y-10775000I-50000J0D01*
G01*
X10250000Y-10725000D02*
X10350000Y-10825000D01*
X10350000Y-10725000D02*
X10250000Y-10825000D01*
X10350000Y-10775000D02*
G75*
G03*
X10350000Y-10775000I-50000J0D01*
G01*
D12*
X5783928Y-11468214D02*
X5783928Y-11168214D01*
X5855357Y-11168214D01*
X5898214Y-11182500D01*
X5926786Y-11211071D01*
X5941071Y-11239643D01*
X5955357Y-11296786D01*
X5955357Y-11339643D01*
X5941071Y-11396786D01*
X5926786Y-11425357D01*
X5898214Y-11453929D01*
X5855357Y-11468214D01*
X5783928Y-11468214D01*
X6083928Y-11468214D02*
X6083928Y-11268214D01*
X6083928Y-11325357D02*
X6098214Y-11296786D01*
X6112500Y-11282500D01*
X6141071Y-11268214D01*
X6169643Y-11268214D01*
X6269643Y-11468214D02*
X6269643Y-11268214D01*
X6269643Y-11168214D02*
X6255357Y-11182500D01*
X6269643Y-11196786D01*
X6283928Y-11182500D01*
X6269643Y-11168214D01*
X6269643Y-11196786D01*
X6455357Y-11468214D02*
X6426786Y-11453929D01*
X6412500Y-11425357D01*
X6412500Y-11168214D01*
X6612500Y-11468214D02*
X6583928Y-11453929D01*
X6569643Y-11425357D01*
X6569643Y-11168214D01*
X6955357Y-11468214D02*
X6955357Y-11168214D01*
X7055357Y-11382500D01*
X7155357Y-11168214D01*
X7155357Y-11468214D01*
X7426786Y-11468214D02*
X7426786Y-11311071D01*
X7412500Y-11282500D01*
X7383928Y-11268214D01*
X7326786Y-11268214D01*
X7298214Y-11282500D01*
X7426786Y-11453929D02*
X7398214Y-11468214D01*
X7326786Y-11468214D01*
X7298214Y-11453929D01*
X7283928Y-11425357D01*
X7283928Y-11396786D01*
X7298214Y-11368214D01*
X7326786Y-11353929D01*
X7398214Y-11353929D01*
X7426786Y-11339643D01*
X7569643Y-11268214D02*
X7569643Y-11568214D01*
X7569643Y-11282500D02*
X7598214Y-11268214D01*
X7655357Y-11268214D01*
X7683928Y-11282500D01*
X7698214Y-11296786D01*
X7712500Y-11325357D01*
X7712500Y-11411071D01*
X7698214Y-11439643D01*
X7683928Y-11453929D01*
X7655357Y-11468214D01*
X7598214Y-11468214D01*
X7569643Y-11453929D01*
X7841071Y-11439643D02*
X7855357Y-11453929D01*
X7841071Y-11468214D01*
X7826786Y-11453929D01*
X7841071Y-11439643D01*
X7841071Y-11468214D01*
X7841071Y-11282500D02*
X7855357Y-11296786D01*
X7841071Y-11311071D01*
X7826786Y-11296786D01*
X7841071Y-11282500D01*
X7841071Y-11311071D01*
X5477500Y-11952500D02*
X5497500Y-11972500D01*
X5497500Y-11952500D02*
X5477500Y-11972500D01*
X5841071Y-11798214D02*
X5869643Y-11798214D01*
X5898214Y-11812500D01*
X5912500Y-11826786D01*
X5926786Y-11855357D01*
X5941071Y-11912500D01*
X5941071Y-11983929D01*
X5926786Y-12041071D01*
X5912500Y-12069643D01*
X5898214Y-12083929D01*
X5869643Y-12098214D01*
X5841071Y-12098214D01*
X5812500Y-12083929D01*
X5798214Y-12069643D01*
X5783928Y-12041071D01*
X5769643Y-11983929D01*
X5769643Y-11912500D01*
X5783928Y-11855357D01*
X5798214Y-11826786D01*
X5812500Y-11812500D01*
X5841071Y-11798214D01*
X6069643Y-12069643D02*
X6083928Y-12083929D01*
X6069643Y-12098214D01*
X6055357Y-12083929D01*
X6069643Y-12069643D01*
X6069643Y-12098214D01*
X6198214Y-11826786D02*
X6212500Y-11812500D01*
X6241071Y-11798214D01*
X6312500Y-11798214D01*
X6341071Y-11812500D01*
X6355357Y-11826786D01*
X6369643Y-11855357D01*
X6369643Y-11883929D01*
X6355357Y-11926786D01*
X6183928Y-12098214D01*
X6369643Y-12098214D01*
X6555357Y-11798214D02*
X6583928Y-11798214D01*
X6612500Y-11812500D01*
X6626786Y-11826786D01*
X6641071Y-11855357D01*
X6655357Y-11912500D01*
X6655357Y-11983929D01*
X6641071Y-12041071D01*
X6626786Y-12069643D01*
X6612500Y-12083929D01*
X6583928Y-12098214D01*
X6555357Y-12098214D01*
X6526786Y-12083929D01*
X6512500Y-12069643D01*
X6498214Y-12041071D01*
X6483928Y-11983929D01*
X6483928Y-11912500D01*
X6498214Y-11855357D01*
X6512500Y-11826786D01*
X6526786Y-11812500D01*
X6555357Y-11798214D01*
X6841071Y-11798214D02*
X6869643Y-11798214D01*
X6898214Y-11812500D01*
X6912500Y-11826786D01*
X6926786Y-11855357D01*
X6941071Y-11912500D01*
X6941071Y-11983929D01*
X6926786Y-12041071D01*
X6912500Y-12069643D01*
X6898214Y-12083929D01*
X6869643Y-12098214D01*
X6841071Y-12098214D01*
X6812500Y-12083929D01*
X6798214Y-12069643D01*
X6783928Y-12041071D01*
X6769643Y-11983929D01*
X6769643Y-11912500D01*
X6783928Y-11855357D01*
X6798214Y-11826786D01*
X6812500Y-11812500D01*
X6841071Y-11798214D01*
X7069643Y-12098214D02*
X7069643Y-11898214D01*
X7069643Y-11926786D02*
X7083928Y-11912500D01*
X7112500Y-11898214D01*
X7155357Y-11898214D01*
X7183928Y-11912500D01*
X7198214Y-11941071D01*
X7198214Y-12098214D01*
X7198214Y-11941071D02*
X7212500Y-11912500D01*
X7241071Y-11898214D01*
X7283928Y-11898214D01*
X7312500Y-11912500D01*
X7326786Y-11941071D01*
X7326786Y-12098214D01*
X7469643Y-12098214D02*
X7469643Y-11898214D01*
X7469643Y-11926786D02*
X7483928Y-11912500D01*
X7512500Y-11898214D01*
X7555357Y-11898214D01*
X7583928Y-11912500D01*
X7598214Y-11941071D01*
X7598214Y-12098214D01*
X7598214Y-11941071D02*
X7612500Y-11912500D01*
X7641071Y-11898214D01*
X7683928Y-11898214D01*
X7712500Y-11912500D01*
X7726786Y-11941071D01*
X7726786Y-12098214D01*
X8312500Y-11783929D02*
X8055357Y-12169643D01*
X8698214Y-11798214D02*
X8726786Y-11798214D01*
X8755357Y-11812500D01*
X8769643Y-11826786D01*
X8783928Y-11855357D01*
X8798214Y-11912500D01*
X8798214Y-11983929D01*
X8783928Y-12041071D01*
X8769643Y-12069643D01*
X8755357Y-12083929D01*
X8726786Y-12098214D01*
X8698214Y-12098214D01*
X8669643Y-12083929D01*
X8655357Y-12069643D01*
X8641071Y-12041071D01*
X8626786Y-11983929D01*
X8626786Y-11912500D01*
X8641071Y-11855357D01*
X8655357Y-11826786D01*
X8669643Y-11812500D01*
X8698214Y-11798214D01*
X8926786Y-12069643D02*
X8941071Y-12083929D01*
X8926786Y-12098214D01*
X8912500Y-12083929D01*
X8926786Y-12069643D01*
X8926786Y-12098214D01*
X9126786Y-11798214D02*
X9155357Y-11798214D01*
X9183928Y-11812500D01*
X9198214Y-11826786D01*
X9212500Y-11855357D01*
X9226786Y-11912500D01*
X9226786Y-11983929D01*
X9212500Y-12041071D01*
X9198214Y-12069643D01*
X9183928Y-12083929D01*
X9155357Y-12098214D01*
X9126786Y-12098214D01*
X9098214Y-12083929D01*
X9083928Y-12069643D01*
X9069643Y-12041071D01*
X9055357Y-11983929D01*
X9055357Y-11912500D01*
X9069643Y-11855357D01*
X9083928Y-11826786D01*
X9098214Y-11812500D01*
X9126786Y-11798214D01*
X9412500Y-11798214D02*
X9441071Y-11798214D01*
X9469643Y-11812500D01*
X9483928Y-11826786D01*
X9498214Y-11855357D01*
X9512500Y-11912500D01*
X9512500Y-11983929D01*
X9498214Y-12041071D01*
X9483928Y-12069643D01*
X9469643Y-12083929D01*
X9441071Y-12098214D01*
X9412500Y-12098214D01*
X9383928Y-12083929D01*
X9369643Y-12069643D01*
X9355357Y-12041071D01*
X9341071Y-11983929D01*
X9341071Y-11912500D01*
X9355357Y-11855357D01*
X9369643Y-11826786D01*
X9383928Y-11812500D01*
X9412500Y-11798214D01*
X9612500Y-11798214D02*
X9812500Y-11798214D01*
X9683928Y-12098214D01*
X9941071Y-12098214D02*
X9998214Y-12098214D01*
X10026786Y-12083929D01*
X10041071Y-12069643D01*
X10069643Y-12026786D01*
X10083928Y-11969643D01*
X10083928Y-11855357D01*
X10069643Y-11826786D01*
X10055357Y-11812500D01*
X10026786Y-11798214D01*
X9969643Y-11798214D01*
X9941071Y-11812500D01*
X9926786Y-11826786D01*
X9912500Y-11855357D01*
X9912500Y-11926786D01*
X9926786Y-11955357D01*
X9941071Y-11969643D01*
X9969643Y-11983929D01*
X10026786Y-11983929D01*
X10055357Y-11969643D01*
X10069643Y-11955357D01*
X10083928Y-11926786D01*
X10198214Y-11798214D02*
X10198214Y-11855357D01*
X10312500Y-11798214D02*
X10312500Y-11855357D01*
X10755357Y-12212500D02*
X10741071Y-12198214D01*
X10712500Y-12155357D01*
X10698214Y-12126786D01*
X10683928Y-12083929D01*
X10669643Y-12012500D01*
X10669643Y-11955357D01*
X10683928Y-11883929D01*
X10698214Y-11841071D01*
X10712500Y-11812500D01*
X10741071Y-11769643D01*
X10755357Y-11755357D01*
X11026786Y-12098214D02*
X10855357Y-12098214D01*
X10941071Y-12098214D02*
X10941071Y-11798214D01*
X10912500Y-11841071D01*
X10883928Y-11869643D01*
X10855357Y-11883929D01*
X11141071Y-11826786D02*
X11155357Y-11812500D01*
X11183928Y-11798214D01*
X11255357Y-11798214D01*
X11283928Y-11812500D01*
X11298214Y-11826786D01*
X11312500Y-11855357D01*
X11312500Y-11883929D01*
X11298214Y-11926786D01*
X11126786Y-12098214D01*
X11312500Y-12098214D01*
X11669643Y-12098214D02*
X11669643Y-11798214D01*
X11798214Y-12098214D02*
X11798214Y-11941071D01*
X11783928Y-11912500D01*
X11755357Y-11898214D01*
X11712500Y-11898214D01*
X11683928Y-11912500D01*
X11669643Y-11926786D01*
X11983928Y-12098214D02*
X11955357Y-12083929D01*
X11941071Y-12069643D01*
X11926786Y-12041071D01*
X11926786Y-11955357D01*
X11941071Y-11926786D01*
X11955357Y-11912500D01*
X11983928Y-11898214D01*
X12026786Y-11898214D01*
X12055357Y-11912500D01*
X12069643Y-11926786D01*
X12083928Y-11955357D01*
X12083928Y-12041071D01*
X12069643Y-12069643D01*
X12055357Y-12083929D01*
X12026786Y-12098214D01*
X11983928Y-12098214D01*
X12255357Y-12098214D02*
X12226786Y-12083929D01*
X12212500Y-12055357D01*
X12212500Y-11798214D01*
X12483928Y-12083929D02*
X12455357Y-12098214D01*
X12398214Y-12098214D01*
X12369643Y-12083929D01*
X12355357Y-12055357D01*
X12355357Y-11941071D01*
X12369643Y-11912500D01*
X12398214Y-11898214D01*
X12455357Y-11898214D01*
X12483928Y-11912500D01*
X12498214Y-11941071D01*
X12498214Y-11969643D01*
X12355357Y-11998214D01*
X12612500Y-12083929D02*
X12641071Y-12098214D01*
X12698214Y-12098214D01*
X12726786Y-12083929D01*
X12741071Y-12055357D01*
X12741071Y-12041071D01*
X12726786Y-12012500D01*
X12698214Y-11998214D01*
X12655357Y-11998214D01*
X12626786Y-11983929D01*
X12612500Y-11955357D01*
X12612500Y-11941071D01*
X12626786Y-11912500D01*
X12655357Y-11898214D01*
X12698214Y-11898214D01*
X12726786Y-11912500D01*
X12841071Y-12212500D02*
X12855357Y-12198214D01*
X12883928Y-12155357D01*
X12898214Y-12126786D01*
X12912500Y-12083929D01*
X12926786Y-12012500D01*
X12926786Y-11955357D01*
X12912500Y-11883929D01*
X12898214Y-11841071D01*
X12883928Y-11812500D01*
X12855357Y-11769643D01*
X12841071Y-11755357D01*
X5497500Y-12358500D02*
G75*
G03*
X5497500Y-12358500I-15000J0D01*
G01*
X5841071Y-12194214D02*
X5869643Y-12194214D01*
X5898214Y-12208500D01*
X5912500Y-12222786D01*
X5926786Y-12251357D01*
X5941071Y-12308500D01*
X5941071Y-12379929D01*
X5926786Y-12437071D01*
X5912500Y-12465643D01*
X5898214Y-12479929D01*
X5869643Y-12494214D01*
X5841071Y-12494214D01*
X5812500Y-12479929D01*
X5798214Y-12465643D01*
X5783928Y-12437071D01*
X5769643Y-12379929D01*
X5769643Y-12308500D01*
X5783928Y-12251357D01*
X5798214Y-12222786D01*
X5812500Y-12208500D01*
X5841071Y-12194214D01*
X6069643Y-12465643D02*
X6083928Y-12479929D01*
X6069643Y-12494214D01*
X6055357Y-12479929D01*
X6069643Y-12465643D01*
X6069643Y-12494214D01*
X6183928Y-12194214D02*
X6369643Y-12194214D01*
X6269643Y-12308500D01*
X6312500Y-12308500D01*
X6341071Y-12322786D01*
X6355357Y-12337071D01*
X6369643Y-12365643D01*
X6369643Y-12437071D01*
X6355357Y-12465643D01*
X6341071Y-12479929D01*
X6312500Y-12494214D01*
X6226786Y-12494214D01*
X6198214Y-12479929D01*
X6183928Y-12465643D01*
X6555357Y-12194214D02*
X6583928Y-12194214D01*
X6612500Y-12208500D01*
X6626786Y-12222786D01*
X6641071Y-12251357D01*
X6655357Y-12308500D01*
X6655357Y-12379929D01*
X6641071Y-12437071D01*
X6626786Y-12465643D01*
X6612500Y-12479929D01*
X6583928Y-12494214D01*
X6555357Y-12494214D01*
X6526786Y-12479929D01*
X6512500Y-12465643D01*
X6498214Y-12437071D01*
X6483928Y-12379929D01*
X6483928Y-12308500D01*
X6498214Y-12251357D01*
X6512500Y-12222786D01*
X6526786Y-12208500D01*
X6555357Y-12194214D01*
X6841071Y-12194214D02*
X6869643Y-12194214D01*
X6898214Y-12208500D01*
X6912500Y-12222786D01*
X6926786Y-12251357D01*
X6941071Y-12308500D01*
X6941071Y-12379929D01*
X6926786Y-12437071D01*
X6912500Y-12465643D01*
X6898214Y-12479929D01*
X6869643Y-12494214D01*
X6841071Y-12494214D01*
X6812500Y-12479929D01*
X6798214Y-12465643D01*
X6783928Y-12437071D01*
X6769643Y-12379929D01*
X6769643Y-12308500D01*
X6783928Y-12251357D01*
X6798214Y-12222786D01*
X6812500Y-12208500D01*
X6841071Y-12194214D01*
X7069643Y-12494214D02*
X7069643Y-12294214D01*
X7069643Y-12322786D02*
X7083928Y-12308500D01*
X7112500Y-12294214D01*
X7155357Y-12294214D01*
X7183928Y-12308500D01*
X7198214Y-12337071D01*
X7198214Y-12494214D01*
X7198214Y-12337071D02*
X7212500Y-12308500D01*
X7241071Y-12294214D01*
X7283928Y-12294214D01*
X7312500Y-12308500D01*
X7326786Y-12337071D01*
X7326786Y-12494214D01*
X7469643Y-12494214D02*
X7469643Y-12294214D01*
X7469643Y-12322786D02*
X7483928Y-12308500D01*
X7512500Y-12294214D01*
X7555357Y-12294214D01*
X7583928Y-12308500D01*
X7598214Y-12337071D01*
X7598214Y-12494214D01*
X7598214Y-12337071D02*
X7612500Y-12308500D01*
X7641071Y-12294214D01*
X7683928Y-12294214D01*
X7712500Y-12308500D01*
X7726786Y-12337071D01*
X7726786Y-12494214D01*
X8312500Y-12179929D02*
X8055357Y-12565643D01*
X8698214Y-12194214D02*
X8726786Y-12194214D01*
X8755357Y-12208500D01*
X8769643Y-12222786D01*
X8783928Y-12251357D01*
X8798214Y-12308500D01*
X8798214Y-12379929D01*
X8783928Y-12437071D01*
X8769643Y-12465643D01*
X8755357Y-12479929D01*
X8726786Y-12494214D01*
X8698214Y-12494214D01*
X8669643Y-12479929D01*
X8655357Y-12465643D01*
X8641071Y-12437071D01*
X8626786Y-12379929D01*
X8626786Y-12308500D01*
X8641071Y-12251357D01*
X8655357Y-12222786D01*
X8669643Y-12208500D01*
X8698214Y-12194214D01*
X8926786Y-12465643D02*
X8941071Y-12479929D01*
X8926786Y-12494214D01*
X8912500Y-12479929D01*
X8926786Y-12465643D01*
X8926786Y-12494214D01*
X9126786Y-12194214D02*
X9155357Y-12194214D01*
X9183928Y-12208500D01*
X9198214Y-12222786D01*
X9212500Y-12251357D01*
X9226786Y-12308500D01*
X9226786Y-12379929D01*
X9212500Y-12437071D01*
X9198214Y-12465643D01*
X9183928Y-12479929D01*
X9155357Y-12494214D01*
X9126786Y-12494214D01*
X9098214Y-12479929D01*
X9083928Y-12465643D01*
X9069643Y-12437071D01*
X9055357Y-12379929D01*
X9055357Y-12308500D01*
X9069643Y-12251357D01*
X9083928Y-12222786D01*
X9098214Y-12208500D01*
X9126786Y-12194214D01*
X9512500Y-12494214D02*
X9341071Y-12494214D01*
X9426786Y-12494214D02*
X9426786Y-12194214D01*
X9398214Y-12237071D01*
X9369643Y-12265643D01*
X9341071Y-12279929D01*
X9798214Y-12494214D02*
X9626786Y-12494214D01*
X9712500Y-12494214D02*
X9712500Y-12194214D01*
X9683928Y-12237071D01*
X9655357Y-12265643D01*
X9626786Y-12279929D01*
X9969643Y-12322786D02*
X9941071Y-12308500D01*
X9926786Y-12294214D01*
X9912500Y-12265643D01*
X9912500Y-12251357D01*
X9926786Y-12222786D01*
X9941071Y-12208500D01*
X9969643Y-12194214D01*
X10026786Y-12194214D01*
X10055357Y-12208500D01*
X10069643Y-12222786D01*
X10083928Y-12251357D01*
X10083928Y-12265643D01*
X10069643Y-12294214D01*
X10055357Y-12308500D01*
X10026786Y-12322786D01*
X9969643Y-12322786D01*
X9941071Y-12337071D01*
X9926786Y-12351357D01*
X9912500Y-12379929D01*
X9912500Y-12437071D01*
X9926786Y-12465643D01*
X9941071Y-12479929D01*
X9969643Y-12494214D01*
X10026786Y-12494214D01*
X10055357Y-12479929D01*
X10069643Y-12465643D01*
X10083928Y-12437071D01*
X10083928Y-12379929D01*
X10069643Y-12351357D01*
X10055357Y-12337071D01*
X10026786Y-12322786D01*
X10198214Y-12194214D02*
X10198214Y-12251357D01*
X10312500Y-12194214D02*
X10312500Y-12251357D01*
X10755357Y-12608500D02*
X10741071Y-12594214D01*
X10712500Y-12551357D01*
X10698214Y-12522786D01*
X10683928Y-12479929D01*
X10669643Y-12408500D01*
X10669643Y-12351357D01*
X10683928Y-12279929D01*
X10698214Y-12237071D01*
X10712500Y-12208500D01*
X10741071Y-12165643D01*
X10755357Y-12151357D01*
X10841071Y-12194214D02*
X11041071Y-12194214D01*
X10912500Y-12494214D01*
X11212500Y-12194214D02*
X11241071Y-12194214D01*
X11269643Y-12208500D01*
X11283928Y-12222786D01*
X11298214Y-12251357D01*
X11312500Y-12308500D01*
X11312500Y-12379929D01*
X11298214Y-12437071D01*
X11283928Y-12465643D01*
X11269643Y-12479929D01*
X11241071Y-12494214D01*
X11212500Y-12494214D01*
X11183928Y-12479929D01*
X11169643Y-12465643D01*
X11155357Y-12437071D01*
X11141071Y-12379929D01*
X11141071Y-12308500D01*
X11155357Y-12251357D01*
X11169643Y-12222786D01*
X11183928Y-12208500D01*
X11212500Y-12194214D01*
X11669643Y-12494214D02*
X11669643Y-12194214D01*
X11798214Y-12494214D02*
X11798214Y-12337071D01*
X11783928Y-12308500D01*
X11755357Y-12294214D01*
X11712500Y-12294214D01*
X11683928Y-12308500D01*
X11669643Y-12322786D01*
X11983928Y-12494214D02*
X11955357Y-12479929D01*
X11941071Y-12465643D01*
X11926786Y-12437071D01*
X11926786Y-12351357D01*
X11941071Y-12322786D01*
X11955357Y-12308500D01*
X11983928Y-12294214D01*
X12026786Y-12294214D01*
X12055357Y-12308500D01*
X12069643Y-12322786D01*
X12083928Y-12351357D01*
X12083928Y-12437071D01*
X12069643Y-12465643D01*
X12055357Y-12479929D01*
X12026786Y-12494214D01*
X11983928Y-12494214D01*
X12255357Y-12494214D02*
X12226786Y-12479929D01*
X12212500Y-12451357D01*
X12212500Y-12194214D01*
X12483928Y-12479929D02*
X12455357Y-12494214D01*
X12398214Y-12494214D01*
X12369643Y-12479929D01*
X12355357Y-12451357D01*
X12355357Y-12337071D01*
X12369643Y-12308500D01*
X12398214Y-12294214D01*
X12455357Y-12294214D01*
X12483928Y-12308500D01*
X12498214Y-12337071D01*
X12498214Y-12365643D01*
X12355357Y-12394214D01*
X12612500Y-12479929D02*
X12641071Y-12494214D01*
X12698214Y-12494214D01*
X12726786Y-12479929D01*
X12741071Y-12451357D01*
X12741071Y-12437071D01*
X12726786Y-12408500D01*
X12698214Y-12394214D01*
X12655357Y-12394214D01*
X12626786Y-12379929D01*
X12612500Y-12351357D01*
X12612500Y-12337071D01*
X12626786Y-12308500D01*
X12655357Y-12294214D01*
X12698214Y-12294214D01*
X12726786Y-12308500D01*
X12841071Y-12608500D02*
X12855357Y-12594214D01*
X12883928Y-12551357D01*
X12898214Y-12522786D01*
X12912500Y-12479929D01*
X12926786Y-12408500D01*
X12926786Y-12351357D01*
X12912500Y-12279929D01*
X12898214Y-12237071D01*
X12883928Y-12208500D01*
X12855357Y-12165643D01*
X12841071Y-12151357D01*
X5477500Y-12734500D02*
X5477500Y-12774500D01*
X5457500Y-12754500D02*
X5497500Y-12754500D01*
X5841071Y-12590214D02*
X5869643Y-12590214D01*
X5898214Y-12604500D01*
X5912500Y-12618786D01*
X5926786Y-12647357D01*
X5941071Y-12704500D01*
X5941071Y-12775929D01*
X5926786Y-12833071D01*
X5912500Y-12861643D01*
X5898214Y-12875929D01*
X5869643Y-12890214D01*
X5841071Y-12890214D01*
X5812500Y-12875929D01*
X5798214Y-12861643D01*
X5783928Y-12833071D01*
X5769643Y-12775929D01*
X5769643Y-12704500D01*
X5783928Y-12647357D01*
X5798214Y-12618786D01*
X5812500Y-12604500D01*
X5841071Y-12590214D01*
X6069643Y-12861643D02*
X6083928Y-12875929D01*
X6069643Y-12890214D01*
X6055357Y-12875929D01*
X6069643Y-12861643D01*
X6069643Y-12890214D01*
X6341071Y-12690214D02*
X6341071Y-12890214D01*
X6269643Y-12575929D02*
X6198214Y-12790214D01*
X6383928Y-12790214D01*
X6555357Y-12590214D02*
X6583928Y-12590214D01*
X6612500Y-12604500D01*
X6626786Y-12618786D01*
X6641071Y-12647357D01*
X6655357Y-12704500D01*
X6655357Y-12775929D01*
X6641071Y-12833071D01*
X6626786Y-12861643D01*
X6612500Y-12875929D01*
X6583928Y-12890214D01*
X6555357Y-12890214D01*
X6526786Y-12875929D01*
X6512500Y-12861643D01*
X6498214Y-12833071D01*
X6483928Y-12775929D01*
X6483928Y-12704500D01*
X6498214Y-12647357D01*
X6512500Y-12618786D01*
X6526786Y-12604500D01*
X6555357Y-12590214D01*
X6841071Y-12590214D02*
X6869643Y-12590214D01*
X6898214Y-12604500D01*
X6912500Y-12618786D01*
X6926786Y-12647357D01*
X6941071Y-12704500D01*
X6941071Y-12775929D01*
X6926786Y-12833071D01*
X6912500Y-12861643D01*
X6898214Y-12875929D01*
X6869643Y-12890214D01*
X6841071Y-12890214D01*
X6812500Y-12875929D01*
X6798214Y-12861643D01*
X6783928Y-12833071D01*
X6769643Y-12775929D01*
X6769643Y-12704500D01*
X6783928Y-12647357D01*
X6798214Y-12618786D01*
X6812500Y-12604500D01*
X6841071Y-12590214D01*
X7069643Y-12890214D02*
X7069643Y-12690214D01*
X7069643Y-12718786D02*
X7083928Y-12704500D01*
X7112500Y-12690214D01*
X7155357Y-12690214D01*
X7183928Y-12704500D01*
X7198214Y-12733071D01*
X7198214Y-12890214D01*
X7198214Y-12733071D02*
X7212500Y-12704500D01*
X7241071Y-12690214D01*
X7283928Y-12690214D01*
X7312500Y-12704500D01*
X7326786Y-12733071D01*
X7326786Y-12890214D01*
X7469643Y-12890214D02*
X7469643Y-12690214D01*
X7469643Y-12718786D02*
X7483928Y-12704500D01*
X7512500Y-12690214D01*
X7555357Y-12690214D01*
X7583928Y-12704500D01*
X7598214Y-12733071D01*
X7598214Y-12890214D01*
X7598214Y-12733071D02*
X7612500Y-12704500D01*
X7641071Y-12690214D01*
X7683928Y-12690214D01*
X7712500Y-12704500D01*
X7726786Y-12733071D01*
X7726786Y-12890214D01*
X8312500Y-12575929D02*
X8055357Y-12961643D01*
X8698214Y-12590214D02*
X8726786Y-12590214D01*
X8755357Y-12604500D01*
X8769643Y-12618786D01*
X8783928Y-12647357D01*
X8798214Y-12704500D01*
X8798214Y-12775929D01*
X8783928Y-12833071D01*
X8769643Y-12861643D01*
X8755357Y-12875929D01*
X8726786Y-12890214D01*
X8698214Y-12890214D01*
X8669643Y-12875929D01*
X8655357Y-12861643D01*
X8641071Y-12833071D01*
X8626786Y-12775929D01*
X8626786Y-12704500D01*
X8641071Y-12647357D01*
X8655357Y-12618786D01*
X8669643Y-12604500D01*
X8698214Y-12590214D01*
X8926786Y-12861643D02*
X8941071Y-12875929D01*
X8926786Y-12890214D01*
X8912500Y-12875929D01*
X8926786Y-12861643D01*
X8926786Y-12890214D01*
X9126786Y-12590214D02*
X9155357Y-12590214D01*
X9183928Y-12604500D01*
X9198214Y-12618786D01*
X9212500Y-12647357D01*
X9226786Y-12704500D01*
X9226786Y-12775929D01*
X9212500Y-12833071D01*
X9198214Y-12861643D01*
X9183928Y-12875929D01*
X9155357Y-12890214D01*
X9126786Y-12890214D01*
X9098214Y-12875929D01*
X9083928Y-12861643D01*
X9069643Y-12833071D01*
X9055357Y-12775929D01*
X9055357Y-12704500D01*
X9069643Y-12647357D01*
X9083928Y-12618786D01*
X9098214Y-12604500D01*
X9126786Y-12590214D01*
X9512500Y-12890214D02*
X9341071Y-12890214D01*
X9426786Y-12890214D02*
X9426786Y-12590214D01*
X9398214Y-12633071D01*
X9369643Y-12661643D01*
X9341071Y-12675929D01*
X9783928Y-12590214D02*
X9641071Y-12590214D01*
X9626786Y-12733071D01*
X9641071Y-12718786D01*
X9669643Y-12704500D01*
X9741071Y-12704500D01*
X9769643Y-12718786D01*
X9783928Y-12733071D01*
X9798214Y-12761643D01*
X9798214Y-12833071D01*
X9783928Y-12861643D01*
X9769643Y-12875929D01*
X9741071Y-12890214D01*
X9669643Y-12890214D01*
X9641071Y-12875929D01*
X9626786Y-12861643D01*
X9898214Y-12590214D02*
X10098214Y-12590214D01*
X9969643Y-12890214D01*
X10198214Y-12590214D02*
X10198214Y-12647357D01*
X10312500Y-12590214D02*
X10312500Y-12647357D01*
X10755357Y-13004500D02*
X10741071Y-12990214D01*
X10712500Y-12947357D01*
X10698214Y-12918786D01*
X10683928Y-12875929D01*
X10669643Y-12804500D01*
X10669643Y-12747357D01*
X10683928Y-12675929D01*
X10698214Y-12633071D01*
X10712500Y-12604500D01*
X10741071Y-12561643D01*
X10755357Y-12547357D01*
X11026786Y-12890214D02*
X10855357Y-12890214D01*
X10941071Y-12890214D02*
X10941071Y-12590214D01*
X10912500Y-12633071D01*
X10883928Y-12661643D01*
X10855357Y-12675929D01*
X11212500Y-12590214D02*
X11241071Y-12590214D01*
X11269643Y-12604500D01*
X11283928Y-12618786D01*
X11298214Y-12647357D01*
X11312500Y-12704500D01*
X11312500Y-12775929D01*
X11298214Y-12833071D01*
X11283928Y-12861643D01*
X11269643Y-12875929D01*
X11241071Y-12890214D01*
X11212500Y-12890214D01*
X11183928Y-12875929D01*
X11169643Y-12861643D01*
X11155357Y-12833071D01*
X11141071Y-12775929D01*
X11141071Y-12704500D01*
X11155357Y-12647357D01*
X11169643Y-12618786D01*
X11183928Y-12604500D01*
X11212500Y-12590214D01*
X11669643Y-12890214D02*
X11669643Y-12590214D01*
X11798214Y-12890214D02*
X11798214Y-12733071D01*
X11783928Y-12704500D01*
X11755357Y-12690214D01*
X11712500Y-12690214D01*
X11683928Y-12704500D01*
X11669643Y-12718786D01*
X11983928Y-12890214D02*
X11955357Y-12875929D01*
X11941071Y-12861643D01*
X11926786Y-12833071D01*
X11926786Y-12747357D01*
X11941071Y-12718786D01*
X11955357Y-12704500D01*
X11983928Y-12690214D01*
X12026786Y-12690214D01*
X12055357Y-12704500D01*
X12069643Y-12718786D01*
X12083928Y-12747357D01*
X12083928Y-12833071D01*
X12069643Y-12861643D01*
X12055357Y-12875929D01*
X12026786Y-12890214D01*
X11983928Y-12890214D01*
X12255357Y-12890214D02*
X12226786Y-12875929D01*
X12212500Y-12847357D01*
X12212500Y-12590214D01*
X12483928Y-12875929D02*
X12455357Y-12890214D01*
X12398214Y-12890214D01*
X12369643Y-12875929D01*
X12355357Y-12847357D01*
X12355357Y-12733071D01*
X12369643Y-12704500D01*
X12398214Y-12690214D01*
X12455357Y-12690214D01*
X12483928Y-12704500D01*
X12498214Y-12733071D01*
X12498214Y-12761643D01*
X12355357Y-12790214D01*
X12612500Y-12875929D02*
X12641071Y-12890214D01*
X12698214Y-12890214D01*
X12726786Y-12875929D01*
X12741071Y-12847357D01*
X12741071Y-12833071D01*
X12726786Y-12804500D01*
X12698214Y-12790214D01*
X12655357Y-12790214D01*
X12626786Y-12775929D01*
X12612500Y-12747357D01*
X12612500Y-12733071D01*
X12626786Y-12704500D01*
X12655357Y-12690214D01*
X12698214Y-12690214D01*
X12726786Y-12704500D01*
X12841071Y-13004500D02*
X12855357Y-12990214D01*
X12883928Y-12947357D01*
X12898214Y-12918786D01*
X12912500Y-12875929D01*
X12926786Y-12804500D01*
X12926786Y-12747357D01*
X12912500Y-12675929D01*
X12898214Y-12633071D01*
X12883928Y-12604500D01*
X12855357Y-12561643D01*
X12841071Y-12547357D01*
X5490178Y-13168178D02*
X5490178Y-13132822D01*
X5454822Y-13132822D01*
X5454822Y-13168178D01*
X5490178Y-13168178D01*
X5841071Y-12986214D02*
X5869643Y-12986214D01*
X5898214Y-13000500D01*
X5912500Y-13014786D01*
X5926786Y-13043357D01*
X5941071Y-13100500D01*
X5941071Y-13171929D01*
X5926786Y-13229071D01*
X5912500Y-13257643D01*
X5898214Y-13271929D01*
X5869643Y-13286214D01*
X5841071Y-13286214D01*
X5812500Y-13271929D01*
X5798214Y-13257643D01*
X5783928Y-13229071D01*
X5769643Y-13171929D01*
X5769643Y-13100500D01*
X5783928Y-13043357D01*
X5798214Y-13014786D01*
X5812500Y-13000500D01*
X5841071Y-12986214D01*
X6069643Y-13257643D02*
X6083928Y-13271929D01*
X6069643Y-13286214D01*
X6055357Y-13271929D01*
X6069643Y-13257643D01*
X6069643Y-13286214D01*
X6355357Y-12986214D02*
X6212500Y-12986214D01*
X6198214Y-13129071D01*
X6212500Y-13114786D01*
X6241071Y-13100500D01*
X6312500Y-13100500D01*
X6341071Y-13114786D01*
X6355357Y-13129071D01*
X6369643Y-13157643D01*
X6369643Y-13229071D01*
X6355357Y-13257643D01*
X6341071Y-13271929D01*
X6312500Y-13286214D01*
X6241071Y-13286214D01*
X6212500Y-13271929D01*
X6198214Y-13257643D01*
X6555357Y-12986214D02*
X6583928Y-12986214D01*
X6612500Y-13000500D01*
X6626786Y-13014786D01*
X6641071Y-13043357D01*
X6655357Y-13100500D01*
X6655357Y-13171929D01*
X6641071Y-13229071D01*
X6626786Y-13257643D01*
X6612500Y-13271929D01*
X6583928Y-13286214D01*
X6555357Y-13286214D01*
X6526786Y-13271929D01*
X6512500Y-13257643D01*
X6498214Y-13229071D01*
X6483928Y-13171929D01*
X6483928Y-13100500D01*
X6498214Y-13043357D01*
X6512500Y-13014786D01*
X6526786Y-13000500D01*
X6555357Y-12986214D01*
X6841071Y-12986214D02*
X6869643Y-12986214D01*
X6898214Y-13000500D01*
X6912500Y-13014786D01*
X6926786Y-13043357D01*
X6941071Y-13100500D01*
X6941071Y-13171929D01*
X6926786Y-13229071D01*
X6912500Y-13257643D01*
X6898214Y-13271929D01*
X6869643Y-13286214D01*
X6841071Y-13286214D01*
X6812500Y-13271929D01*
X6798214Y-13257643D01*
X6783928Y-13229071D01*
X6769643Y-13171929D01*
X6769643Y-13100500D01*
X6783928Y-13043357D01*
X6798214Y-13014786D01*
X6812500Y-13000500D01*
X6841071Y-12986214D01*
X7069643Y-13286214D02*
X7069643Y-13086214D01*
X7069643Y-13114786D02*
X7083928Y-13100500D01*
X7112500Y-13086214D01*
X7155357Y-13086214D01*
X7183928Y-13100500D01*
X7198214Y-13129071D01*
X7198214Y-13286214D01*
X7198214Y-13129071D02*
X7212500Y-13100500D01*
X7241071Y-13086214D01*
X7283928Y-13086214D01*
X7312500Y-13100500D01*
X7326786Y-13129071D01*
X7326786Y-13286214D01*
X7469643Y-13286214D02*
X7469643Y-13086214D01*
X7469643Y-13114786D02*
X7483928Y-13100500D01*
X7512500Y-13086214D01*
X7555357Y-13086214D01*
X7583928Y-13100500D01*
X7598214Y-13129071D01*
X7598214Y-13286214D01*
X7598214Y-13129071D02*
X7612500Y-13100500D01*
X7641071Y-13086214D01*
X7683928Y-13086214D01*
X7712500Y-13100500D01*
X7726786Y-13129071D01*
X7726786Y-13286214D01*
X8312500Y-12971929D02*
X8055357Y-13357643D01*
X8698214Y-12986214D02*
X8726786Y-12986214D01*
X8755357Y-13000500D01*
X8769643Y-13014786D01*
X8783928Y-13043357D01*
X8798214Y-13100500D01*
X8798214Y-13171929D01*
X8783928Y-13229071D01*
X8769643Y-13257643D01*
X8755357Y-13271929D01*
X8726786Y-13286214D01*
X8698214Y-13286214D01*
X8669643Y-13271929D01*
X8655357Y-13257643D01*
X8641071Y-13229071D01*
X8626786Y-13171929D01*
X8626786Y-13100500D01*
X8641071Y-13043357D01*
X8655357Y-13014786D01*
X8669643Y-13000500D01*
X8698214Y-12986214D01*
X8926786Y-13257643D02*
X8941071Y-13271929D01*
X8926786Y-13286214D01*
X8912500Y-13271929D01*
X8926786Y-13257643D01*
X8926786Y-13286214D01*
X9126786Y-12986214D02*
X9155357Y-12986214D01*
X9183928Y-13000500D01*
X9198214Y-13014786D01*
X9212500Y-13043357D01*
X9226786Y-13100500D01*
X9226786Y-13171929D01*
X9212500Y-13229071D01*
X9198214Y-13257643D01*
X9183928Y-13271929D01*
X9155357Y-13286214D01*
X9126786Y-13286214D01*
X9098214Y-13271929D01*
X9083928Y-13257643D01*
X9069643Y-13229071D01*
X9055357Y-13171929D01*
X9055357Y-13100500D01*
X9069643Y-13043357D01*
X9083928Y-13014786D01*
X9098214Y-13000500D01*
X9126786Y-12986214D01*
X9512500Y-13286214D02*
X9341071Y-13286214D01*
X9426786Y-13286214D02*
X9426786Y-12986214D01*
X9398214Y-13029071D01*
X9369643Y-13057643D01*
X9341071Y-13071929D01*
X9655357Y-13286214D02*
X9712500Y-13286214D01*
X9741071Y-13271929D01*
X9755357Y-13257643D01*
X9783928Y-13214786D01*
X9798214Y-13157643D01*
X9798214Y-13043357D01*
X9783928Y-13014786D01*
X9769643Y-13000500D01*
X9741071Y-12986214D01*
X9683928Y-12986214D01*
X9655357Y-13000500D01*
X9641071Y-13014786D01*
X9626786Y-13043357D01*
X9626786Y-13114786D01*
X9641071Y-13143357D01*
X9655357Y-13157643D01*
X9683928Y-13171929D01*
X9741071Y-13171929D01*
X9769643Y-13157643D01*
X9783928Y-13143357D01*
X9798214Y-13114786D01*
X9898214Y-12986214D02*
X10098214Y-12986214D01*
X9969643Y-13286214D01*
X10198214Y-12986214D02*
X10198214Y-13043357D01*
X10312500Y-12986214D02*
X10312500Y-13043357D01*
X10755357Y-13400500D02*
X10741071Y-13386214D01*
X10712500Y-13343357D01*
X10698214Y-13314786D01*
X10683928Y-13271929D01*
X10669643Y-13200500D01*
X10669643Y-13143357D01*
X10683928Y-13071929D01*
X10698214Y-13029071D01*
X10712500Y-13000500D01*
X10741071Y-12957643D01*
X10755357Y-12943357D01*
X10926786Y-12986214D02*
X10955357Y-12986214D01*
X10983928Y-13000500D01*
X10998214Y-13014786D01*
X11012500Y-13043357D01*
X11026786Y-13100500D01*
X11026786Y-13171929D01*
X11012500Y-13229071D01*
X10998214Y-13257643D01*
X10983928Y-13271929D01*
X10955357Y-13286214D01*
X10926786Y-13286214D01*
X10898214Y-13271929D01*
X10883928Y-13257643D01*
X10869643Y-13229071D01*
X10855357Y-13171929D01*
X10855357Y-13100500D01*
X10869643Y-13043357D01*
X10883928Y-13014786D01*
X10898214Y-13000500D01*
X10926786Y-12986214D01*
X11383928Y-13286214D02*
X11383928Y-12986214D01*
X11512500Y-13286214D02*
X11512500Y-13129071D01*
X11498214Y-13100500D01*
X11469643Y-13086214D01*
X11426786Y-13086214D01*
X11398214Y-13100500D01*
X11383928Y-13114786D01*
X11698214Y-13286214D02*
X11669643Y-13271929D01*
X11655357Y-13257643D01*
X11641071Y-13229071D01*
X11641071Y-13143357D01*
X11655357Y-13114786D01*
X11669643Y-13100500D01*
X11698214Y-13086214D01*
X11741071Y-13086214D01*
X11769643Y-13100500D01*
X11783928Y-13114786D01*
X11798214Y-13143357D01*
X11798214Y-13229071D01*
X11783928Y-13257643D01*
X11769643Y-13271929D01*
X11741071Y-13286214D01*
X11698214Y-13286214D01*
X11969643Y-13286214D02*
X11941071Y-13271929D01*
X11926786Y-13243357D01*
X11926786Y-12986214D01*
X12198214Y-13271929D02*
X12169643Y-13286214D01*
X12112500Y-13286214D01*
X12083928Y-13271929D01*
X12069643Y-13243357D01*
X12069643Y-13129071D01*
X12083928Y-13100500D01*
X12112500Y-13086214D01*
X12169643Y-13086214D01*
X12198214Y-13100500D01*
X12212500Y-13129071D01*
X12212500Y-13157643D01*
X12069643Y-13186214D01*
X12326786Y-13271929D02*
X12355357Y-13286214D01*
X12412500Y-13286214D01*
X12441071Y-13271929D01*
X12455357Y-13243357D01*
X12455357Y-13229071D01*
X12441071Y-13200500D01*
X12412500Y-13186214D01*
X12369643Y-13186214D01*
X12341071Y-13171929D01*
X12326786Y-13143357D01*
X12326786Y-13129071D01*
X12341071Y-13100500D01*
X12369643Y-13086214D01*
X12412500Y-13086214D01*
X12441071Y-13100500D01*
X12812500Y-13171929D02*
X13041071Y-13171929D01*
X12926786Y-13286214D02*
X12926786Y-13057643D01*
X13398214Y-13014786D02*
X13412500Y-13000500D01*
X13441071Y-12986214D01*
X13512500Y-12986214D01*
X13541071Y-13000500D01*
X13555357Y-13014786D01*
X13569643Y-13043357D01*
X13569643Y-13071929D01*
X13555357Y-13114786D01*
X13383928Y-13286214D01*
X13569643Y-13286214D01*
X13912500Y-13271929D02*
X13941071Y-13286214D01*
X13998214Y-13286214D01*
X14026786Y-13271929D01*
X14041071Y-13243357D01*
X14041071Y-13229071D01*
X14026786Y-13200500D01*
X13998214Y-13186214D01*
X13955357Y-13186214D01*
X13926786Y-13171929D01*
X13912500Y-13143357D01*
X13912500Y-13129071D01*
X13926786Y-13100500D01*
X13955357Y-13086214D01*
X13998214Y-13086214D01*
X14026786Y-13100500D01*
X14212500Y-13286214D02*
X14183928Y-13271929D01*
X14169643Y-13243357D01*
X14169643Y-12986214D01*
X14369643Y-13286214D02*
X14341071Y-13271929D01*
X14326786Y-13257643D01*
X14312500Y-13229071D01*
X14312500Y-13143357D01*
X14326786Y-13114786D01*
X14341071Y-13100500D01*
X14369643Y-13086214D01*
X14412500Y-13086214D01*
X14441071Y-13100500D01*
X14455357Y-13114786D01*
X14469643Y-13143357D01*
X14469643Y-13229071D01*
X14455357Y-13257643D01*
X14441071Y-13271929D01*
X14412500Y-13286214D01*
X14369643Y-13286214D01*
X14555357Y-13086214D02*
X14669643Y-13086214D01*
X14598214Y-12986214D02*
X14598214Y-13243357D01*
X14612500Y-13271929D01*
X14641071Y-13286214D01*
X14669643Y-13286214D01*
X14755357Y-13271929D02*
X14783928Y-13286214D01*
X14841071Y-13286214D01*
X14869643Y-13271929D01*
X14883928Y-13243357D01*
X14883928Y-13229071D01*
X14869643Y-13200500D01*
X14841071Y-13186214D01*
X14798214Y-13186214D01*
X14769643Y-13171929D01*
X14755357Y-13143357D01*
X14755357Y-13129071D01*
X14769643Y-13100500D01*
X14798214Y-13086214D01*
X14841071Y-13086214D01*
X14869643Y-13100500D01*
X14983928Y-13400500D02*
X14998214Y-13386214D01*
X15026786Y-13343357D01*
X15041071Y-13314786D01*
X15055357Y-13271929D01*
X15069643Y-13200500D01*
X15069643Y-13143357D01*
X15055357Y-13071929D01*
X15041071Y-13029071D01*
X15026786Y-13000500D01*
X14998214Y-12957643D01*
X14983928Y-12943357D01*
X5457500Y-13586500D02*
X5497500Y-13546500D01*
X5457500Y-13506500D01*
X5417500Y-13546500D01*
X5457500Y-13586500D01*
X5841071Y-13382214D02*
X5869643Y-13382214D01*
X5898214Y-13396500D01*
X5912500Y-13410786D01*
X5926786Y-13439357D01*
X5941071Y-13496500D01*
X5941071Y-13567929D01*
X5926786Y-13625071D01*
X5912500Y-13653643D01*
X5898214Y-13667929D01*
X5869643Y-13682214D01*
X5841071Y-13682214D01*
X5812500Y-13667929D01*
X5798214Y-13653643D01*
X5783928Y-13625071D01*
X5769643Y-13567929D01*
X5769643Y-13496500D01*
X5783928Y-13439357D01*
X5798214Y-13410786D01*
X5812500Y-13396500D01*
X5841071Y-13382214D01*
X6069643Y-13653643D02*
X6083928Y-13667929D01*
X6069643Y-13682214D01*
X6055357Y-13667929D01*
X6069643Y-13653643D01*
X6069643Y-13682214D01*
X6255357Y-13510786D02*
X6226786Y-13496500D01*
X6212500Y-13482214D01*
X6198214Y-13453643D01*
X6198214Y-13439357D01*
X6212500Y-13410786D01*
X6226786Y-13396500D01*
X6255357Y-13382214D01*
X6312500Y-13382214D01*
X6341071Y-13396500D01*
X6355357Y-13410786D01*
X6369643Y-13439357D01*
X6369643Y-13453643D01*
X6355357Y-13482214D01*
X6341071Y-13496500D01*
X6312500Y-13510786D01*
X6255357Y-13510786D01*
X6226786Y-13525071D01*
X6212500Y-13539357D01*
X6198214Y-13567929D01*
X6198214Y-13625071D01*
X6212500Y-13653643D01*
X6226786Y-13667929D01*
X6255357Y-13682214D01*
X6312500Y-13682214D01*
X6341071Y-13667929D01*
X6355357Y-13653643D01*
X6369643Y-13625071D01*
X6369643Y-13567929D01*
X6355357Y-13539357D01*
X6341071Y-13525071D01*
X6312500Y-13510786D01*
X6555357Y-13382214D02*
X6583928Y-13382214D01*
X6612500Y-13396500D01*
X6626786Y-13410786D01*
X6641071Y-13439357D01*
X6655357Y-13496500D01*
X6655357Y-13567929D01*
X6641071Y-13625071D01*
X6626786Y-13653643D01*
X6612500Y-13667929D01*
X6583928Y-13682214D01*
X6555357Y-13682214D01*
X6526786Y-13667929D01*
X6512500Y-13653643D01*
X6498214Y-13625071D01*
X6483928Y-13567929D01*
X6483928Y-13496500D01*
X6498214Y-13439357D01*
X6512500Y-13410786D01*
X6526786Y-13396500D01*
X6555357Y-13382214D01*
X6841071Y-13382214D02*
X6869643Y-13382214D01*
X6898214Y-13396500D01*
X6912500Y-13410786D01*
X6926786Y-13439357D01*
X6941071Y-13496500D01*
X6941071Y-13567929D01*
X6926786Y-13625071D01*
X6912500Y-13653643D01*
X6898214Y-13667929D01*
X6869643Y-13682214D01*
X6841071Y-13682214D01*
X6812500Y-13667929D01*
X6798214Y-13653643D01*
X6783928Y-13625071D01*
X6769643Y-13567929D01*
X6769643Y-13496500D01*
X6783928Y-13439357D01*
X6798214Y-13410786D01*
X6812500Y-13396500D01*
X6841071Y-13382214D01*
X7069643Y-13682214D02*
X7069643Y-13482214D01*
X7069643Y-13510786D02*
X7083928Y-13496500D01*
X7112500Y-13482214D01*
X7155357Y-13482214D01*
X7183928Y-13496500D01*
X7198214Y-13525071D01*
X7198214Y-13682214D01*
X7198214Y-13525071D02*
X7212500Y-13496500D01*
X7241071Y-13482214D01*
X7283928Y-13482214D01*
X7312500Y-13496500D01*
X7326786Y-13525071D01*
X7326786Y-13682214D01*
X7469643Y-13682214D02*
X7469643Y-13482214D01*
X7469643Y-13510786D02*
X7483928Y-13496500D01*
X7512500Y-13482214D01*
X7555357Y-13482214D01*
X7583928Y-13496500D01*
X7598214Y-13525071D01*
X7598214Y-13682214D01*
X7598214Y-13525071D02*
X7612500Y-13496500D01*
X7641071Y-13482214D01*
X7683928Y-13482214D01*
X7712500Y-13496500D01*
X7726786Y-13525071D01*
X7726786Y-13682214D01*
X8312500Y-13367929D02*
X8055357Y-13753643D01*
X8698214Y-13382214D02*
X8726786Y-13382214D01*
X8755357Y-13396500D01*
X8769643Y-13410786D01*
X8783928Y-13439357D01*
X8798214Y-13496500D01*
X8798214Y-13567929D01*
X8783928Y-13625071D01*
X8769643Y-13653643D01*
X8755357Y-13667929D01*
X8726786Y-13682214D01*
X8698214Y-13682214D01*
X8669643Y-13667929D01*
X8655357Y-13653643D01*
X8641071Y-13625071D01*
X8626786Y-13567929D01*
X8626786Y-13496500D01*
X8641071Y-13439357D01*
X8655357Y-13410786D01*
X8669643Y-13396500D01*
X8698214Y-13382214D01*
X8926786Y-13653643D02*
X8941071Y-13667929D01*
X8926786Y-13682214D01*
X8912500Y-13667929D01*
X8926786Y-13653643D01*
X8926786Y-13682214D01*
X9126786Y-13382214D02*
X9155357Y-13382214D01*
X9183928Y-13396500D01*
X9198214Y-13410786D01*
X9212500Y-13439357D01*
X9226786Y-13496500D01*
X9226786Y-13567929D01*
X9212500Y-13625071D01*
X9198214Y-13653643D01*
X9183928Y-13667929D01*
X9155357Y-13682214D01*
X9126786Y-13682214D01*
X9098214Y-13667929D01*
X9083928Y-13653643D01*
X9069643Y-13625071D01*
X9055357Y-13567929D01*
X9055357Y-13496500D01*
X9069643Y-13439357D01*
X9083928Y-13410786D01*
X9098214Y-13396500D01*
X9126786Y-13382214D01*
X9326786Y-13382214D02*
X9512500Y-13382214D01*
X9412500Y-13496500D01*
X9455357Y-13496500D01*
X9483928Y-13510786D01*
X9498214Y-13525071D01*
X9512500Y-13553643D01*
X9512500Y-13625071D01*
X9498214Y-13653643D01*
X9483928Y-13667929D01*
X9455357Y-13682214D01*
X9369643Y-13682214D01*
X9341071Y-13667929D01*
X9326786Y-13653643D01*
X9798214Y-13682214D02*
X9626786Y-13682214D01*
X9712500Y-13682214D02*
X9712500Y-13382214D01*
X9683928Y-13425071D01*
X9655357Y-13453643D01*
X9626786Y-13467929D01*
X10069643Y-13382214D02*
X9926786Y-13382214D01*
X9912500Y-13525071D01*
X9926786Y-13510786D01*
X9955357Y-13496500D01*
X10026786Y-13496500D01*
X10055357Y-13510786D01*
X10069643Y-13525071D01*
X10083928Y-13553643D01*
X10083928Y-13625071D01*
X10069643Y-13653643D01*
X10055357Y-13667929D01*
X10026786Y-13682214D01*
X9955357Y-13682214D01*
X9926786Y-13667929D01*
X9912500Y-13653643D01*
X10198214Y-13382214D02*
X10198214Y-13439357D01*
X10312500Y-13382214D02*
X10312500Y-13439357D01*
X10755357Y-13796500D02*
X10741071Y-13782214D01*
X10712500Y-13739357D01*
X10698214Y-13710786D01*
X10683928Y-13667929D01*
X10669643Y-13596500D01*
X10669643Y-13539357D01*
X10683928Y-13467929D01*
X10698214Y-13425071D01*
X10712500Y-13396500D01*
X10741071Y-13353643D01*
X10755357Y-13339357D01*
X10855357Y-13410786D02*
X10869643Y-13396500D01*
X10898214Y-13382214D01*
X10969643Y-13382214D01*
X10998214Y-13396500D01*
X11012500Y-13410786D01*
X11026786Y-13439357D01*
X11026786Y-13467929D01*
X11012500Y-13510786D01*
X10841071Y-13682214D01*
X11026786Y-13682214D01*
X11383928Y-13682214D02*
X11383928Y-13382214D01*
X11512500Y-13682214D02*
X11512500Y-13525071D01*
X11498214Y-13496500D01*
X11469643Y-13482214D01*
X11426786Y-13482214D01*
X11398214Y-13496500D01*
X11383928Y-13510786D01*
X11698214Y-13682214D02*
X11669643Y-13667929D01*
X11655357Y-13653643D01*
X11641071Y-13625071D01*
X11641071Y-13539357D01*
X11655357Y-13510786D01*
X11669643Y-13496500D01*
X11698214Y-13482214D01*
X11741071Y-13482214D01*
X11769643Y-13496500D01*
X11783928Y-13510786D01*
X11798214Y-13539357D01*
X11798214Y-13625071D01*
X11783928Y-13653643D01*
X11769643Y-13667929D01*
X11741071Y-13682214D01*
X11698214Y-13682214D01*
X11969643Y-13682214D02*
X11941071Y-13667929D01*
X11926786Y-13639357D01*
X11926786Y-13382214D01*
X12198214Y-13667929D02*
X12169643Y-13682214D01*
X12112500Y-13682214D01*
X12083928Y-13667929D01*
X12069643Y-13639357D01*
X12069643Y-13525071D01*
X12083928Y-13496500D01*
X12112500Y-13482214D01*
X12169643Y-13482214D01*
X12198214Y-13496500D01*
X12212500Y-13525071D01*
X12212500Y-13553643D01*
X12069643Y-13582214D01*
X12326786Y-13667929D02*
X12355357Y-13682214D01*
X12412500Y-13682214D01*
X12441071Y-13667929D01*
X12455357Y-13639357D01*
X12455357Y-13625071D01*
X12441071Y-13596500D01*
X12412500Y-13582214D01*
X12369643Y-13582214D01*
X12341071Y-13567929D01*
X12326786Y-13539357D01*
X12326786Y-13525071D01*
X12341071Y-13496500D01*
X12369643Y-13482214D01*
X12412500Y-13482214D01*
X12441071Y-13496500D01*
X12812500Y-13567929D02*
X13041071Y-13567929D01*
X12926786Y-13682214D02*
X12926786Y-13453643D01*
X13383928Y-13382214D02*
X13569643Y-13382214D01*
X13469643Y-13496500D01*
X13512500Y-13496500D01*
X13541071Y-13510786D01*
X13555357Y-13525071D01*
X13569643Y-13553643D01*
X13569643Y-13625071D01*
X13555357Y-13653643D01*
X13541071Y-13667929D01*
X13512500Y-13682214D01*
X13426786Y-13682214D01*
X13398214Y-13667929D01*
X13383928Y-13653643D01*
X13912500Y-13667929D02*
X13941071Y-13682214D01*
X13998214Y-13682214D01*
X14026786Y-13667929D01*
X14041071Y-13639357D01*
X14041071Y-13625071D01*
X14026786Y-13596500D01*
X13998214Y-13582214D01*
X13955357Y-13582214D01*
X13926786Y-13567929D01*
X13912500Y-13539357D01*
X13912500Y-13525071D01*
X13926786Y-13496500D01*
X13955357Y-13482214D01*
X13998214Y-13482214D01*
X14026786Y-13496500D01*
X14212500Y-13682214D02*
X14183928Y-13667929D01*
X14169643Y-13639357D01*
X14169643Y-13382214D01*
X14369643Y-13682214D02*
X14341071Y-13667929D01*
X14326786Y-13653643D01*
X14312500Y-13625071D01*
X14312500Y-13539357D01*
X14326786Y-13510786D01*
X14341071Y-13496500D01*
X14369643Y-13482214D01*
X14412500Y-13482214D01*
X14441071Y-13496500D01*
X14455357Y-13510786D01*
X14469643Y-13539357D01*
X14469643Y-13625071D01*
X14455357Y-13653643D01*
X14441071Y-13667929D01*
X14412500Y-13682214D01*
X14369643Y-13682214D01*
X14555357Y-13482214D02*
X14669643Y-13482214D01*
X14598214Y-13382214D02*
X14598214Y-13639357D01*
X14612500Y-13667929D01*
X14641071Y-13682214D01*
X14669643Y-13682214D01*
X14755357Y-13667929D02*
X14783928Y-13682214D01*
X14841071Y-13682214D01*
X14869643Y-13667929D01*
X14883928Y-13639357D01*
X14883928Y-13625071D01*
X14869643Y-13596500D01*
X14841071Y-13582214D01*
X14798214Y-13582214D01*
X14769643Y-13567929D01*
X14755357Y-13539357D01*
X14755357Y-13525071D01*
X14769643Y-13496500D01*
X14798214Y-13482214D01*
X14841071Y-13482214D01*
X14869643Y-13496500D01*
X14983928Y-13796500D02*
X14998214Y-13782214D01*
X15026786Y-13739357D01*
X15041071Y-13710786D01*
X15055357Y-13667929D01*
X15069643Y-13596500D01*
X15069643Y-13539357D01*
X15055357Y-13467929D01*
X15041071Y-13425071D01*
X15026786Y-13396500D01*
X14998214Y-13353643D01*
X14983928Y-13339357D01*
X5397500Y-13892500D02*
X5497500Y-13992500D01*
X5497500Y-13892500D02*
X5397500Y-13992500D01*
X5497500Y-13942500D02*
G75*
G03*
X5497500Y-13942500I-50000J0D01*
G01*
X5941071Y-14078214D02*
X5769643Y-14078214D01*
X5855357Y-14078214D02*
X5855357Y-13778214D01*
X5826786Y-13821071D01*
X5798214Y-13849643D01*
X5769643Y-13863929D01*
X6069643Y-14049643D02*
X6083928Y-14063929D01*
X6069643Y-14078214D01*
X6055357Y-14063929D01*
X6069643Y-14049643D01*
X6069643Y-14078214D01*
X6269643Y-13778214D02*
X6298214Y-13778214D01*
X6326786Y-13792500D01*
X6341071Y-13806786D01*
X6355357Y-13835357D01*
X6369643Y-13892500D01*
X6369643Y-13963929D01*
X6355357Y-14021071D01*
X6341071Y-14049643D01*
X6326786Y-14063929D01*
X6298214Y-14078214D01*
X6269643Y-14078214D01*
X6241071Y-14063929D01*
X6226786Y-14049643D01*
X6212500Y-14021071D01*
X6198214Y-13963929D01*
X6198214Y-13892500D01*
X6212500Y-13835357D01*
X6226786Y-13806786D01*
X6241071Y-13792500D01*
X6269643Y-13778214D01*
X6555357Y-13778214D02*
X6583928Y-13778214D01*
X6612500Y-13792500D01*
X6626786Y-13806786D01*
X6641071Y-13835357D01*
X6655357Y-13892500D01*
X6655357Y-13963929D01*
X6641071Y-14021071D01*
X6626786Y-14049643D01*
X6612500Y-14063929D01*
X6583928Y-14078214D01*
X6555357Y-14078214D01*
X6526786Y-14063929D01*
X6512500Y-14049643D01*
X6498214Y-14021071D01*
X6483928Y-13963929D01*
X6483928Y-13892500D01*
X6498214Y-13835357D01*
X6512500Y-13806786D01*
X6526786Y-13792500D01*
X6555357Y-13778214D01*
X6841071Y-13778214D02*
X6869643Y-13778214D01*
X6898214Y-13792500D01*
X6912500Y-13806786D01*
X6926786Y-13835357D01*
X6941071Y-13892500D01*
X6941071Y-13963929D01*
X6926786Y-14021071D01*
X6912500Y-14049643D01*
X6898214Y-14063929D01*
X6869643Y-14078214D01*
X6841071Y-14078214D01*
X6812500Y-14063929D01*
X6798214Y-14049643D01*
X6783928Y-14021071D01*
X6769643Y-13963929D01*
X6769643Y-13892500D01*
X6783928Y-13835357D01*
X6798214Y-13806786D01*
X6812500Y-13792500D01*
X6841071Y-13778214D01*
X7069643Y-14078214D02*
X7069643Y-13878214D01*
X7069643Y-13906786D02*
X7083928Y-13892500D01*
X7112500Y-13878214D01*
X7155357Y-13878214D01*
X7183928Y-13892500D01*
X7198214Y-13921071D01*
X7198214Y-14078214D01*
X7198214Y-13921071D02*
X7212500Y-13892500D01*
X7241071Y-13878214D01*
X7283928Y-13878214D01*
X7312500Y-13892500D01*
X7326786Y-13921071D01*
X7326786Y-14078214D01*
X7469643Y-14078214D02*
X7469643Y-13878214D01*
X7469643Y-13906786D02*
X7483928Y-13892500D01*
X7512500Y-13878214D01*
X7555357Y-13878214D01*
X7583928Y-13892500D01*
X7598214Y-13921071D01*
X7598214Y-14078214D01*
X7598214Y-13921071D02*
X7612500Y-13892500D01*
X7641071Y-13878214D01*
X7683928Y-13878214D01*
X7712500Y-13892500D01*
X7726786Y-13921071D01*
X7726786Y-14078214D01*
X8312500Y-13763929D02*
X8055357Y-14149643D01*
X8698214Y-13778214D02*
X8726786Y-13778214D01*
X8755357Y-13792500D01*
X8769643Y-13806786D01*
X8783928Y-13835357D01*
X8798214Y-13892500D01*
X8798214Y-13963929D01*
X8783928Y-14021071D01*
X8769643Y-14049643D01*
X8755357Y-14063929D01*
X8726786Y-14078214D01*
X8698214Y-14078214D01*
X8669643Y-14063929D01*
X8655357Y-14049643D01*
X8641071Y-14021071D01*
X8626786Y-13963929D01*
X8626786Y-13892500D01*
X8641071Y-13835357D01*
X8655357Y-13806786D01*
X8669643Y-13792500D01*
X8698214Y-13778214D01*
X8926786Y-14049643D02*
X8941071Y-14063929D01*
X8926786Y-14078214D01*
X8912500Y-14063929D01*
X8926786Y-14049643D01*
X8926786Y-14078214D01*
X9126786Y-13778214D02*
X9155357Y-13778214D01*
X9183928Y-13792500D01*
X9198214Y-13806786D01*
X9212500Y-13835357D01*
X9226786Y-13892500D01*
X9226786Y-13963929D01*
X9212500Y-14021071D01*
X9198214Y-14049643D01*
X9183928Y-14063929D01*
X9155357Y-14078214D01*
X9126786Y-14078214D01*
X9098214Y-14063929D01*
X9083928Y-14049643D01*
X9069643Y-14021071D01*
X9055357Y-13963929D01*
X9055357Y-13892500D01*
X9069643Y-13835357D01*
X9083928Y-13806786D01*
X9098214Y-13792500D01*
X9126786Y-13778214D01*
X9326786Y-13778214D02*
X9512500Y-13778214D01*
X9412500Y-13892500D01*
X9455357Y-13892500D01*
X9483928Y-13906786D01*
X9498214Y-13921071D01*
X9512500Y-13949643D01*
X9512500Y-14021071D01*
X9498214Y-14049643D01*
X9483928Y-14063929D01*
X9455357Y-14078214D01*
X9369643Y-14078214D01*
X9341071Y-14063929D01*
X9326786Y-14049643D01*
X9655357Y-14078214D02*
X9712500Y-14078214D01*
X9741071Y-14063929D01*
X9755357Y-14049643D01*
X9783928Y-14006786D01*
X9798214Y-13949643D01*
X9798214Y-13835357D01*
X9783928Y-13806786D01*
X9769643Y-13792500D01*
X9741071Y-13778214D01*
X9683928Y-13778214D01*
X9655357Y-13792500D01*
X9641071Y-13806786D01*
X9626786Y-13835357D01*
X9626786Y-13906786D01*
X9641071Y-13935357D01*
X9655357Y-13949643D01*
X9683928Y-13963929D01*
X9741071Y-13963929D01*
X9769643Y-13949643D01*
X9783928Y-13935357D01*
X9798214Y-13906786D01*
X10055357Y-13878214D02*
X10055357Y-14078214D01*
X9983928Y-13763929D02*
X9912500Y-13978214D01*
X10098214Y-13978214D01*
X10198214Y-13778214D02*
X10198214Y-13835357D01*
X10312500Y-13778214D02*
X10312500Y-13835357D01*
X10755357Y-14192500D02*
X10741071Y-14178214D01*
X10712500Y-14135357D01*
X10698214Y-14106786D01*
X10683928Y-14063929D01*
X10669643Y-13992500D01*
X10669643Y-13935357D01*
X10683928Y-13863929D01*
X10698214Y-13821071D01*
X10712500Y-13792500D01*
X10741071Y-13749643D01*
X10755357Y-13735357D01*
X10998214Y-13878214D02*
X10998214Y-14078214D01*
X10926786Y-13763929D02*
X10855357Y-13978214D01*
X11041071Y-13978214D01*
X11298214Y-13778214D02*
X11155357Y-13778214D01*
X11141071Y-13921071D01*
X11155357Y-13906786D01*
X11183928Y-13892500D01*
X11255357Y-13892500D01*
X11283928Y-13906786D01*
X11298214Y-13921071D01*
X11312500Y-13949643D01*
X11312500Y-14021071D01*
X11298214Y-14049643D01*
X11283928Y-14063929D01*
X11255357Y-14078214D01*
X11183928Y-14078214D01*
X11155357Y-14063929D01*
X11141071Y-14049643D01*
X11669643Y-14078214D02*
X11669643Y-13778214D01*
X11798214Y-14078214D02*
X11798214Y-13921071D01*
X11783928Y-13892500D01*
X11755357Y-13878214D01*
X11712500Y-13878214D01*
X11683928Y-13892500D01*
X11669643Y-13906786D01*
X11983928Y-14078214D02*
X11955357Y-14063929D01*
X11941071Y-14049643D01*
X11926786Y-14021071D01*
X11926786Y-13935357D01*
X11941071Y-13906786D01*
X11955357Y-13892500D01*
X11983928Y-13878214D01*
X12026786Y-13878214D01*
X12055357Y-13892500D01*
X12069643Y-13906786D01*
X12083928Y-13935357D01*
X12083928Y-14021071D01*
X12069643Y-14049643D01*
X12055357Y-14063929D01*
X12026786Y-14078214D01*
X11983928Y-14078214D01*
X12255357Y-14078214D02*
X12226786Y-14063929D01*
X12212500Y-14035357D01*
X12212500Y-13778214D01*
X12483928Y-14063929D02*
X12455357Y-14078214D01*
X12398214Y-14078214D01*
X12369643Y-14063929D01*
X12355357Y-14035357D01*
X12355357Y-13921071D01*
X12369643Y-13892500D01*
X12398214Y-13878214D01*
X12455357Y-13878214D01*
X12483928Y-13892500D01*
X12498214Y-13921071D01*
X12498214Y-13949643D01*
X12355357Y-13978214D01*
X12612500Y-14063929D02*
X12641071Y-14078214D01*
X12698214Y-14078214D01*
X12726786Y-14063929D01*
X12741071Y-14035357D01*
X12741071Y-14021071D01*
X12726786Y-13992500D01*
X12698214Y-13978214D01*
X12655357Y-13978214D01*
X12626786Y-13963929D01*
X12612500Y-13935357D01*
X12612500Y-13921071D01*
X12626786Y-13892500D01*
X12655357Y-13878214D01*
X12698214Y-13878214D01*
X12726786Y-13892500D01*
X12841071Y-14192500D02*
X12855357Y-14178214D01*
X12883928Y-14135357D01*
X12898214Y-14106786D01*
X12912500Y-14063929D01*
X12926786Y-13992500D01*
X12926786Y-13935357D01*
X12912500Y-13863929D01*
X12898214Y-13821071D01*
X12883928Y-13792500D01*
X12855357Y-13749643D01*
X12841071Y-13735357D01*
M02*
