G04 #@! TF.GenerationSoftware,KiCad,Pcbnew,(5.1.10)-1*
G04 #@! TF.CreationDate,2022-03-14T11:30:17-04:00*
G04 #@! TF.ProjectId,overhead,6f766572-6865-4616-942e-6b696361645f,rev?*
G04 #@! TF.SameCoordinates,Original*
G04 #@! TF.FileFunction,Legend,Top*
G04 #@! TF.FilePolarity,Positive*
%FSLAX46Y46*%
G04 Gerber Fmt 4.6, Leading zero omitted, Abs format (unit mm)*
G04 Created by KiCad (PCBNEW (5.1.10)-1) date 2022-03-14 11:30:17*
%MOMM*%
%LPD*%
G01*
G04 APERTURE LIST*
%ADD10C,0.150000*%
%ADD11C,0.127000*%
%ADD12C,0.200000*%
%ADD13C,0.120000*%
%ADD14C,0.203200*%
%ADD15C,0.300000*%
%ADD16C,0.380000*%
%ADD17C,2.200000*%
%ADD18O,0.900000X1.800000*%
%ADD19R,1.900000X1.900000*%
%ADD20R,1.600000X1.400000*%
%ADD21R,0.400000X1.350000*%
%ADD22R,0.450000X0.300000*%
%ADD23R,1.500000X2.400000*%
%ADD24R,0.600000X1.100000*%
%ADD25R,1.100000X0.400000*%
%ADD26R,2.150000X3.250000*%
%ADD27R,2.150000X1.000000*%
%ADD28C,1.600000*%
%ADD29R,1.600000X1.600000*%
%ADD30R,2.389200X1.601800*%
%ADD31R,0.254000X0.863600*%
%ADD32R,2.108200X0.558800*%
%ADD33R,0.558800X2.108200*%
%ADD34C,0.400000*%
%ADD35R,1.000000X1.000000*%
%ADD36R,0.900000X1.500000*%
%ADD37R,1.500000X0.900000*%
%ADD38R,1.501800X1.501800*%
%ADD39R,0.812800X0.254000*%
%ADD40R,0.355600X0.355600*%
%ADD41R,0.254000X0.812800*%
%ADD42O,1.700000X1.700000*%
%ADD43R,1.700000X1.700000*%
%ADD44O,1.524000X3.048000*%
%ADD45O,3.048000X1.524000*%
G04 APERTURE END LIST*
D10*
X68738095Y-69952380D02*
X68738095Y-68952380D01*
X68738095Y-69428571D02*
X69309523Y-69428571D01*
X69309523Y-69952380D02*
X69309523Y-68952380D01*
X69785714Y-69952380D02*
X69785714Y-68952380D01*
X70119047Y-68952380D02*
X70452380Y-69952380D01*
X70785714Y-68952380D01*
X71119047Y-69428571D02*
X71452380Y-69428571D01*
X71595238Y-69952380D02*
X71119047Y-69952380D01*
X71119047Y-68952380D01*
X71595238Y-68952380D01*
X73261904Y-69952380D02*
X72785714Y-69952380D01*
X72785714Y-68952380D01*
X73595238Y-69952380D02*
X73595238Y-69285714D01*
X73595238Y-68952380D02*
X73547619Y-69000000D01*
X73595238Y-69047619D01*
X73642857Y-69000000D01*
X73595238Y-68952380D01*
X73595238Y-69047619D01*
X74500000Y-69285714D02*
X74500000Y-70095238D01*
X74452380Y-70190476D01*
X74404761Y-70238095D01*
X74309523Y-70285714D01*
X74166666Y-70285714D01*
X74071428Y-70238095D01*
X74500000Y-69904761D02*
X74404761Y-69952380D01*
X74214285Y-69952380D01*
X74119047Y-69904761D01*
X74071428Y-69857142D01*
X74023809Y-69761904D01*
X74023809Y-69476190D01*
X74071428Y-69380952D01*
X74119047Y-69333333D01*
X74214285Y-69285714D01*
X74404761Y-69285714D01*
X74500000Y-69333333D01*
X74976190Y-69952380D02*
X74976190Y-68952380D01*
X75404761Y-69952380D02*
X75404761Y-69428571D01*
X75357142Y-69333333D01*
X75261904Y-69285714D01*
X75119047Y-69285714D01*
X75023809Y-69333333D01*
X74976190Y-69380952D01*
X75738095Y-69285714D02*
X76119047Y-69285714D01*
X75880952Y-68952380D02*
X75880952Y-69809523D01*
X75928571Y-69904761D01*
X76023809Y-69952380D01*
X76119047Y-69952380D01*
X76404761Y-69904761D02*
X76500000Y-69952380D01*
X76690476Y-69952380D01*
X76785714Y-69904761D01*
X76833333Y-69809523D01*
X76833333Y-69761904D01*
X76785714Y-69666666D01*
X76690476Y-69619047D01*
X76547619Y-69619047D01*
X76452380Y-69571428D01*
X76404761Y-69476190D01*
X76404761Y-69428571D01*
X76452380Y-69333333D01*
X76547619Y-69285714D01*
X76690476Y-69285714D01*
X76785714Y-69333333D01*
X77928571Y-69285714D02*
X78166666Y-69952380D01*
X78404761Y-69285714D01*
X79309523Y-69952380D02*
X78738095Y-69952380D01*
X79023809Y-69952380D02*
X79023809Y-68952380D01*
X78928571Y-69095238D01*
X78833333Y-69190476D01*
X78738095Y-69238095D01*
X85798809Y-105979761D02*
X85941666Y-106027380D01*
X86179761Y-106027380D01*
X86275000Y-105979761D01*
X86322619Y-105932142D01*
X86370238Y-105836904D01*
X86370238Y-105741666D01*
X86322619Y-105646428D01*
X86275000Y-105598809D01*
X86179761Y-105551190D01*
X85989285Y-105503571D01*
X85894047Y-105455952D01*
X85846428Y-105408333D01*
X85798809Y-105313095D01*
X85798809Y-105217857D01*
X85846428Y-105122619D01*
X85894047Y-105075000D01*
X85989285Y-105027380D01*
X86227380Y-105027380D01*
X86370238Y-105075000D01*
X86798809Y-106027380D02*
X86798809Y-105027380D01*
X87036904Y-105027380D01*
X87179761Y-105075000D01*
X87275000Y-105170238D01*
X87322619Y-105265476D01*
X87370238Y-105455952D01*
X87370238Y-105598809D01*
X87322619Y-105789285D01*
X87275000Y-105884523D01*
X87179761Y-105979761D01*
X87036904Y-106027380D01*
X86798809Y-106027380D01*
X87751190Y-105741666D02*
X88227380Y-105741666D01*
X87655952Y-106027380D02*
X87989285Y-105027380D01*
X88322619Y-106027380D01*
X89370238Y-105979761D02*
X89513095Y-106027380D01*
X89751190Y-106027380D01*
X89846428Y-105979761D01*
X89894047Y-105932142D01*
X89941666Y-105836904D01*
X89941666Y-105741666D01*
X89894047Y-105646428D01*
X89846428Y-105598809D01*
X89751190Y-105551190D01*
X89560714Y-105503571D01*
X89465476Y-105455952D01*
X89417857Y-105408333D01*
X89370238Y-105313095D01*
X89370238Y-105217857D01*
X89417857Y-105122619D01*
X89465476Y-105075000D01*
X89560714Y-105027380D01*
X89798809Y-105027380D01*
X89941666Y-105075000D01*
X90941666Y-105932142D02*
X90894047Y-105979761D01*
X90751190Y-106027380D01*
X90655952Y-106027380D01*
X90513095Y-105979761D01*
X90417857Y-105884523D01*
X90370238Y-105789285D01*
X90322619Y-105598809D01*
X90322619Y-105455952D01*
X90370238Y-105265476D01*
X90417857Y-105170238D01*
X90513095Y-105075000D01*
X90655952Y-105027380D01*
X90751190Y-105027380D01*
X90894047Y-105075000D01*
X90941666Y-105122619D01*
X91846428Y-106027380D02*
X91370238Y-106027380D01*
X91370238Y-105027380D01*
X82809523Y-105052380D02*
X83428571Y-105052380D01*
X83095238Y-105433333D01*
X83238095Y-105433333D01*
X83333333Y-105480952D01*
X83380952Y-105528571D01*
X83428571Y-105623809D01*
X83428571Y-105861904D01*
X83380952Y-105957142D01*
X83333333Y-106004761D01*
X83238095Y-106052380D01*
X82952380Y-106052380D01*
X82857142Y-106004761D01*
X82809523Y-105957142D01*
X83761904Y-105385714D02*
X84000000Y-106052380D01*
X84238095Y-105385714D01*
X84523809Y-105052380D02*
X85142857Y-105052380D01*
X84809523Y-105433333D01*
X84952380Y-105433333D01*
X85047619Y-105480952D01*
X85095238Y-105528571D01*
X85142857Y-105623809D01*
X85142857Y-105861904D01*
X85095238Y-105957142D01*
X85047619Y-106004761D01*
X84952380Y-106052380D01*
X84666666Y-106052380D01*
X84571428Y-106004761D01*
X84523809Y-105957142D01*
X99651190Y-105977380D02*
X99651190Y-104977380D01*
X99889285Y-104977380D01*
X100032142Y-105025000D01*
X100127380Y-105120238D01*
X100175000Y-105215476D01*
X100222619Y-105405952D01*
X100222619Y-105548809D01*
X100175000Y-105739285D01*
X100127380Y-105834523D01*
X100032142Y-105929761D01*
X99889285Y-105977380D01*
X99651190Y-105977380D01*
X100651190Y-105977380D02*
X100651190Y-104977380D01*
X101127380Y-105977380D02*
X101127380Y-104977380D01*
X101698809Y-105977380D01*
X101698809Y-104977380D01*
X95688095Y-105000000D02*
X95592857Y-104952380D01*
X95450000Y-104952380D01*
X95307142Y-105000000D01*
X95211904Y-105095238D01*
X95164285Y-105190476D01*
X95116666Y-105380952D01*
X95116666Y-105523809D01*
X95164285Y-105714285D01*
X95211904Y-105809523D01*
X95307142Y-105904761D01*
X95450000Y-105952380D01*
X95545238Y-105952380D01*
X95688095Y-105904761D01*
X95735714Y-105857142D01*
X95735714Y-105523809D01*
X95545238Y-105523809D01*
X96164285Y-105952380D02*
X96164285Y-104952380D01*
X96735714Y-105952380D01*
X96735714Y-104952380D01*
X97211904Y-105952380D02*
X97211904Y-104952380D01*
X97450000Y-104952380D01*
X97592857Y-105000000D01*
X97688095Y-105095238D01*
X97735714Y-105190476D01*
X97783333Y-105380952D01*
X97783333Y-105523809D01*
X97735714Y-105714285D01*
X97688095Y-105809523D01*
X97592857Y-105904761D01*
X97450000Y-105952380D01*
X97211904Y-105952380D01*
X102907142Y-105027380D02*
X102430952Y-105027380D01*
X102383333Y-105503571D01*
X102430952Y-105455952D01*
X102526190Y-105408333D01*
X102764285Y-105408333D01*
X102859523Y-105455952D01*
X102907142Y-105503571D01*
X102954761Y-105598809D01*
X102954761Y-105836904D01*
X102907142Y-105932142D01*
X102859523Y-105979761D01*
X102764285Y-106027380D01*
X102526190Y-106027380D01*
X102430952Y-105979761D01*
X102383333Y-105932142D01*
X103288095Y-105360714D02*
X103526190Y-106027380D01*
X103764285Y-105360714D01*
X72913095Y-105300000D02*
X72817857Y-105252380D01*
X72675000Y-105252380D01*
X72532142Y-105300000D01*
X72436904Y-105395238D01*
X72389285Y-105490476D01*
X72341666Y-105680952D01*
X72341666Y-105823809D01*
X72389285Y-106014285D01*
X72436904Y-106109523D01*
X72532142Y-106204761D01*
X72675000Y-106252380D01*
X72770238Y-106252380D01*
X72913095Y-106204761D01*
X72960714Y-106157142D01*
X72960714Y-105823809D01*
X72770238Y-105823809D01*
X73389285Y-106252380D02*
X73389285Y-105252380D01*
X73960714Y-106252380D01*
X73960714Y-105252380D01*
X74436904Y-106252380D02*
X74436904Y-105252380D01*
X74675000Y-105252380D01*
X74817857Y-105300000D01*
X74913095Y-105395238D01*
X74960714Y-105490476D01*
X75008333Y-105680952D01*
X75008333Y-105823809D01*
X74960714Y-106014285D01*
X74913095Y-106109523D01*
X74817857Y-106204761D01*
X74675000Y-106252380D01*
X74436904Y-106252380D01*
X75601190Y-106277380D02*
X75601190Y-105277380D01*
X75839285Y-105277380D01*
X75982142Y-105325000D01*
X76077380Y-105420238D01*
X76125000Y-105515476D01*
X76172619Y-105705952D01*
X76172619Y-105848809D01*
X76125000Y-106039285D01*
X76077380Y-106134523D01*
X75982142Y-106229761D01*
X75839285Y-106277380D01*
X75601190Y-106277380D01*
X76601190Y-106277380D02*
X76601190Y-105277380D01*
X77077380Y-106277380D02*
X77077380Y-105277380D01*
X77648809Y-106277380D01*
X77648809Y-105277380D01*
X78857142Y-105327380D02*
X78380952Y-105327380D01*
X78333333Y-105803571D01*
X78380952Y-105755952D01*
X78476190Y-105708333D01*
X78714285Y-105708333D01*
X78809523Y-105755952D01*
X78857142Y-105803571D01*
X78904761Y-105898809D01*
X78904761Y-106136904D01*
X78857142Y-106232142D01*
X78809523Y-106279761D01*
X78714285Y-106327380D01*
X78476190Y-106327380D01*
X78380952Y-106279761D01*
X78333333Y-106232142D01*
X79238095Y-105660714D02*
X79476190Y-106327380D01*
X79714285Y-105660714D01*
X79197619Y-61427380D02*
X79197619Y-60427380D01*
X79530952Y-61141666D01*
X79864285Y-60427380D01*
X79864285Y-61427380D01*
X80197619Y-60427380D02*
X80769047Y-60427380D01*
X80483333Y-61427380D02*
X80483333Y-60427380D01*
X81102380Y-61427380D02*
X81102380Y-60427380D01*
X81340476Y-60427380D01*
X81483333Y-60475000D01*
X81578571Y-60570238D01*
X81626190Y-60665476D01*
X81673809Y-60855952D01*
X81673809Y-60998809D01*
X81626190Y-61189285D01*
X81578571Y-61284523D01*
X81483333Y-61379761D01*
X81340476Y-61427380D01*
X81102380Y-61427380D01*
X82102380Y-61427380D02*
X82102380Y-60427380D01*
X69735714Y-61502380D02*
X69735714Y-60502380D01*
X70069047Y-61216666D01*
X70402380Y-60502380D01*
X70402380Y-61502380D01*
X70735714Y-60502380D02*
X71307142Y-60502380D01*
X71021428Y-61502380D02*
X71021428Y-60502380D01*
X72211904Y-61407142D02*
X72164285Y-61454761D01*
X72021428Y-61502380D01*
X71926190Y-61502380D01*
X71783333Y-61454761D01*
X71688095Y-61359523D01*
X71640476Y-61264285D01*
X71592857Y-61073809D01*
X71592857Y-60930952D01*
X71640476Y-60740476D01*
X71688095Y-60645238D01*
X71783333Y-60550000D01*
X71926190Y-60502380D01*
X72021428Y-60502380D01*
X72164285Y-60550000D01*
X72211904Y-60597619D01*
X72640476Y-61502380D02*
X72640476Y-60502380D01*
X73211904Y-61502380D02*
X72783333Y-60930952D01*
X73211904Y-60502380D02*
X72640476Y-61073809D01*
X69711904Y-64002380D02*
X69711904Y-63002380D01*
X70045238Y-63716666D01*
X70378571Y-63002380D01*
X70378571Y-64002380D01*
X70711904Y-63002380D02*
X71283333Y-63002380D01*
X70997619Y-64002380D02*
X70997619Y-63002380D01*
X71616666Y-64002380D02*
X71616666Y-63002380D01*
X71854761Y-63002380D01*
X71997619Y-63050000D01*
X72092857Y-63145238D01*
X72140476Y-63240476D01*
X72188095Y-63430952D01*
X72188095Y-63573809D01*
X72140476Y-63764285D01*
X72092857Y-63859523D01*
X71997619Y-63954761D01*
X71854761Y-64002380D01*
X71616666Y-64002380D01*
X72807142Y-63002380D02*
X72997619Y-63002380D01*
X73092857Y-63050000D01*
X73188095Y-63145238D01*
X73235714Y-63335714D01*
X73235714Y-63669047D01*
X73188095Y-63859523D01*
X73092857Y-63954761D01*
X72997619Y-64002380D01*
X72807142Y-64002380D01*
X72711904Y-63954761D01*
X72616666Y-63859523D01*
X72569047Y-63669047D01*
X72569047Y-63335714D01*
X72616666Y-63145238D01*
X72711904Y-63050000D01*
X72807142Y-63002380D01*
X79638095Y-63075000D02*
X79542857Y-63027380D01*
X79400000Y-63027380D01*
X79257142Y-63075000D01*
X79161904Y-63170238D01*
X79114285Y-63265476D01*
X79066666Y-63455952D01*
X79066666Y-63598809D01*
X79114285Y-63789285D01*
X79161904Y-63884523D01*
X79257142Y-63979761D01*
X79400000Y-64027380D01*
X79495238Y-64027380D01*
X79638095Y-63979761D01*
X79685714Y-63932142D01*
X79685714Y-63598809D01*
X79495238Y-63598809D01*
X80114285Y-64027380D02*
X80114285Y-63027380D01*
X80685714Y-64027380D01*
X80685714Y-63027380D01*
X81161904Y-64027380D02*
X81161904Y-63027380D01*
X81400000Y-63027380D01*
X81542857Y-63075000D01*
X81638095Y-63170238D01*
X81685714Y-63265476D01*
X81733333Y-63455952D01*
X81733333Y-63598809D01*
X81685714Y-63789285D01*
X81638095Y-63884523D01*
X81542857Y-63979761D01*
X81400000Y-64027380D01*
X81161904Y-64027380D01*
X58977380Y-70879761D02*
X59072619Y-70927380D01*
X59263095Y-70927380D01*
X59358333Y-70879761D01*
X59405952Y-70784523D01*
X59405952Y-70736904D01*
X59358333Y-70641666D01*
X59263095Y-70594047D01*
X59120238Y-70594047D01*
X59025000Y-70546428D01*
X58977380Y-70451190D01*
X58977380Y-70403571D01*
X59025000Y-70308333D01*
X59120238Y-70260714D01*
X59263095Y-70260714D01*
X59358333Y-70308333D01*
X60215476Y-70879761D02*
X60120238Y-70927380D01*
X59929761Y-70927380D01*
X59834523Y-70879761D01*
X59786904Y-70784523D01*
X59786904Y-70403571D01*
X59834523Y-70308333D01*
X59929761Y-70260714D01*
X60120238Y-70260714D01*
X60215476Y-70308333D01*
X60263095Y-70403571D01*
X60263095Y-70498809D01*
X59786904Y-70594047D01*
X60834523Y-70927380D02*
X60739285Y-70879761D01*
X60691666Y-70784523D01*
X60691666Y-69927380D01*
X61596428Y-70879761D02*
X61501190Y-70927380D01*
X61310714Y-70927380D01*
X61215476Y-70879761D01*
X61167857Y-70784523D01*
X61167857Y-70403571D01*
X61215476Y-70308333D01*
X61310714Y-70260714D01*
X61501190Y-70260714D01*
X61596428Y-70308333D01*
X61644047Y-70403571D01*
X61644047Y-70498809D01*
X61167857Y-70594047D01*
X62501190Y-70879761D02*
X62405952Y-70927380D01*
X62215476Y-70927380D01*
X62120238Y-70879761D01*
X62072619Y-70832142D01*
X62025000Y-70736904D01*
X62025000Y-70451190D01*
X62072619Y-70355952D01*
X62120238Y-70308333D01*
X62215476Y-70260714D01*
X62405952Y-70260714D01*
X62501190Y-70308333D01*
X62786904Y-70260714D02*
X63167857Y-70260714D01*
X62929761Y-69927380D02*
X62929761Y-70784523D01*
X62977380Y-70879761D01*
X63072619Y-70927380D01*
X63167857Y-70927380D01*
X58975000Y-68736904D02*
X58927380Y-68832142D01*
X58927380Y-68975000D01*
X58975000Y-69117857D01*
X59070238Y-69213095D01*
X59165476Y-69260714D01*
X59355952Y-69308333D01*
X59498809Y-69308333D01*
X59689285Y-69260714D01*
X59784523Y-69213095D01*
X59879761Y-69117857D01*
X59927380Y-68975000D01*
X59927380Y-68879761D01*
X59879761Y-68736904D01*
X59832142Y-68689285D01*
X59498809Y-68689285D01*
X59498809Y-68879761D01*
X59927380Y-68260714D02*
X58927380Y-68260714D01*
X59927380Y-67689285D01*
X58927380Y-67689285D01*
X59927380Y-67213095D02*
X58927380Y-67213095D01*
X58927380Y-66975000D01*
X58975000Y-66832142D01*
X59070238Y-66736904D01*
X59165476Y-66689285D01*
X59355952Y-66641666D01*
X59498809Y-66641666D01*
X59689285Y-66689285D01*
X59784523Y-66736904D01*
X59879761Y-66832142D01*
X59927380Y-66975000D01*
X59927380Y-67213095D01*
X58977380Y-74190476D02*
X58977380Y-73571428D01*
X59358333Y-73904761D01*
X59358333Y-73761904D01*
X59405952Y-73666666D01*
X59453571Y-73619047D01*
X59548809Y-73571428D01*
X59786904Y-73571428D01*
X59882142Y-73619047D01*
X59929761Y-73666666D01*
X59977380Y-73761904D01*
X59977380Y-74047619D01*
X59929761Y-74142857D01*
X59882142Y-74190476D01*
X59310714Y-73238095D02*
X59977380Y-73000000D01*
X59310714Y-72761904D01*
X58977380Y-72476190D02*
X58977380Y-71857142D01*
X59358333Y-72190476D01*
X59358333Y-72047619D01*
X59405952Y-71952380D01*
X59453571Y-71904761D01*
X59548809Y-71857142D01*
X59786904Y-71857142D01*
X59882142Y-71904761D01*
X59929761Y-71952380D01*
X59977380Y-72047619D01*
X59977380Y-72333333D01*
X59929761Y-72428571D01*
X59882142Y-72476190D01*
X60338095Y-89075000D02*
X60242857Y-89027380D01*
X60100000Y-89027380D01*
X59957142Y-89075000D01*
X59861904Y-89170238D01*
X59814285Y-89265476D01*
X59766666Y-89455952D01*
X59766666Y-89598809D01*
X59814285Y-89789285D01*
X59861904Y-89884523D01*
X59957142Y-89979761D01*
X60100000Y-90027380D01*
X60195238Y-90027380D01*
X60338095Y-89979761D01*
X60385714Y-89932142D01*
X60385714Y-89598809D01*
X60195238Y-89598809D01*
X60814285Y-90027380D02*
X60814285Y-89027380D01*
X61385714Y-90027380D01*
X61385714Y-89027380D01*
X61861904Y-90027380D02*
X61861904Y-89027380D01*
X62100000Y-89027380D01*
X62242857Y-89075000D01*
X62338095Y-89170238D01*
X62385714Y-89265476D01*
X62433333Y-89455952D01*
X62433333Y-89598809D01*
X62385714Y-89789285D01*
X62338095Y-89884523D01*
X62242857Y-89979761D01*
X62100000Y-90027380D01*
X61861904Y-90027380D01*
X60238095Y-81550000D02*
X60142857Y-81502380D01*
X60000000Y-81502380D01*
X59857142Y-81550000D01*
X59761904Y-81645238D01*
X59714285Y-81740476D01*
X59666666Y-81930952D01*
X59666666Y-82073809D01*
X59714285Y-82264285D01*
X59761904Y-82359523D01*
X59857142Y-82454761D01*
X60000000Y-82502380D01*
X60095238Y-82502380D01*
X60238095Y-82454761D01*
X60285714Y-82407142D01*
X60285714Y-82073809D01*
X60095238Y-82073809D01*
X60714285Y-82502380D02*
X60714285Y-81502380D01*
X61285714Y-82502380D01*
X61285714Y-81502380D01*
X61761904Y-82502380D02*
X61761904Y-81502380D01*
X62000000Y-81502380D01*
X62142857Y-81550000D01*
X62238095Y-81645238D01*
X62285714Y-81740476D01*
X62333333Y-81930952D01*
X62333333Y-82073809D01*
X62285714Y-82264285D01*
X62238095Y-82359523D01*
X62142857Y-82454761D01*
X62000000Y-82502380D01*
X61761904Y-82502380D01*
X61252380Y-85665476D02*
X61252380Y-85046428D01*
X61633333Y-85379761D01*
X61633333Y-85236904D01*
X61680952Y-85141666D01*
X61728571Y-85094047D01*
X61823809Y-85046428D01*
X62061904Y-85046428D01*
X62157142Y-85094047D01*
X62204761Y-85141666D01*
X62252380Y-85236904D01*
X62252380Y-85522619D01*
X62204761Y-85617857D01*
X62157142Y-85665476D01*
X61585714Y-84713095D02*
X62252380Y-84475000D01*
X61585714Y-84236904D01*
X61252380Y-83951190D02*
X61252380Y-83332142D01*
X61633333Y-83665476D01*
X61633333Y-83522619D01*
X61680952Y-83427380D01*
X61728571Y-83379761D01*
X61823809Y-83332142D01*
X62061904Y-83332142D01*
X62157142Y-83379761D01*
X62204761Y-83427380D01*
X62252380Y-83522619D01*
X62252380Y-83808333D01*
X62204761Y-83903571D01*
X62157142Y-83951190D01*
X68077380Y-85765476D02*
X68077380Y-85146428D01*
X68458333Y-85479761D01*
X68458333Y-85336904D01*
X68505952Y-85241666D01*
X68553571Y-85194047D01*
X68648809Y-85146428D01*
X68886904Y-85146428D01*
X68982142Y-85194047D01*
X69029761Y-85241666D01*
X69077380Y-85336904D01*
X69077380Y-85622619D01*
X69029761Y-85717857D01*
X68982142Y-85765476D01*
X68410714Y-84813095D02*
X69077380Y-84575000D01*
X68410714Y-84336904D01*
X68077380Y-84051190D02*
X68077380Y-83432142D01*
X68458333Y-83765476D01*
X68458333Y-83622619D01*
X68505952Y-83527380D01*
X68553571Y-83479761D01*
X68648809Y-83432142D01*
X68886904Y-83432142D01*
X68982142Y-83479761D01*
X69029761Y-83527380D01*
X69077380Y-83622619D01*
X69077380Y-83908333D01*
X69029761Y-84003571D01*
X68982142Y-84051190D01*
X68127380Y-78315476D02*
X68127380Y-77696428D01*
X68508333Y-78029761D01*
X68508333Y-77886904D01*
X68555952Y-77791666D01*
X68603571Y-77744047D01*
X68698809Y-77696428D01*
X68936904Y-77696428D01*
X69032142Y-77744047D01*
X69079761Y-77791666D01*
X69127380Y-77886904D01*
X69127380Y-78172619D01*
X69079761Y-78267857D01*
X69032142Y-78315476D01*
X68460714Y-77363095D02*
X69127380Y-77125000D01*
X68460714Y-76886904D01*
X68127380Y-76601190D02*
X68127380Y-75982142D01*
X68508333Y-76315476D01*
X68508333Y-76172619D01*
X68555952Y-76077380D01*
X68603571Y-76029761D01*
X68698809Y-75982142D01*
X68936904Y-75982142D01*
X69032142Y-76029761D01*
X69079761Y-76077380D01*
X69127380Y-76172619D01*
X69127380Y-76458333D01*
X69079761Y-76553571D01*
X69032142Y-76601190D01*
X61302380Y-78215476D02*
X61302380Y-77596428D01*
X61683333Y-77929761D01*
X61683333Y-77786904D01*
X61730952Y-77691666D01*
X61778571Y-77644047D01*
X61873809Y-77596428D01*
X62111904Y-77596428D01*
X62207142Y-77644047D01*
X62254761Y-77691666D01*
X62302380Y-77786904D01*
X62302380Y-78072619D01*
X62254761Y-78167857D01*
X62207142Y-78215476D01*
X61635714Y-77263095D02*
X62302380Y-77025000D01*
X61635714Y-76786904D01*
X61302380Y-76501190D02*
X61302380Y-75882142D01*
X61683333Y-76215476D01*
X61683333Y-76072619D01*
X61730952Y-75977380D01*
X61778571Y-75929761D01*
X61873809Y-75882142D01*
X62111904Y-75882142D01*
X62207142Y-75929761D01*
X62254761Y-75977380D01*
X62302380Y-76072619D01*
X62302380Y-76358333D01*
X62254761Y-76453571D01*
X62207142Y-76501190D01*
X93300000Y-89511904D02*
X93252380Y-89607142D01*
X93252380Y-89750000D01*
X93300000Y-89892857D01*
X93395238Y-89988095D01*
X93490476Y-90035714D01*
X93680952Y-90083333D01*
X93823809Y-90083333D01*
X94014285Y-90035714D01*
X94109523Y-89988095D01*
X94204761Y-89892857D01*
X94252380Y-89750000D01*
X94252380Y-89654761D01*
X94204761Y-89511904D01*
X94157142Y-89464285D01*
X93823809Y-89464285D01*
X93823809Y-89654761D01*
X94252380Y-89035714D02*
X93252380Y-89035714D01*
X94252380Y-88464285D01*
X93252380Y-88464285D01*
X94252380Y-87988095D02*
X93252380Y-87988095D01*
X93252380Y-87750000D01*
X93300000Y-87607142D01*
X93395238Y-87511904D01*
X93490476Y-87464285D01*
X93680952Y-87416666D01*
X93823809Y-87416666D01*
X94014285Y-87464285D01*
X94109523Y-87511904D01*
X94204761Y-87607142D01*
X94252380Y-87750000D01*
X94252380Y-87988095D01*
X100325000Y-89186904D02*
X100277380Y-89282142D01*
X100277380Y-89425000D01*
X100325000Y-89567857D01*
X100420238Y-89663095D01*
X100515476Y-89710714D01*
X100705952Y-89758333D01*
X100848809Y-89758333D01*
X101039285Y-89710714D01*
X101134523Y-89663095D01*
X101229761Y-89567857D01*
X101277380Y-89425000D01*
X101277380Y-89329761D01*
X101229761Y-89186904D01*
X101182142Y-89139285D01*
X100848809Y-89139285D01*
X100848809Y-89329761D01*
X101277380Y-88710714D02*
X100277380Y-88710714D01*
X101277380Y-88139285D01*
X100277380Y-88139285D01*
X101277380Y-87663095D02*
X100277380Y-87663095D01*
X100277380Y-87425000D01*
X100325000Y-87282142D01*
X100420238Y-87186904D01*
X100515476Y-87139285D01*
X100705952Y-87091666D01*
X100848809Y-87091666D01*
X101039285Y-87139285D01*
X101134523Y-87186904D01*
X101229761Y-87282142D01*
X101277380Y-87425000D01*
X101277380Y-87663095D01*
X100757142Y-72727380D02*
X100280952Y-72727380D01*
X100233333Y-73203571D01*
X100280952Y-73155952D01*
X100376190Y-73108333D01*
X100614285Y-73108333D01*
X100709523Y-73155952D01*
X100757142Y-73203571D01*
X100804761Y-73298809D01*
X100804761Y-73536904D01*
X100757142Y-73632142D01*
X100709523Y-73679761D01*
X100614285Y-73727380D01*
X100376190Y-73727380D01*
X100280952Y-73679761D01*
X100233333Y-73632142D01*
X101138095Y-73060714D02*
X101376190Y-73727380D01*
X101614285Y-73060714D01*
X91859523Y-72177380D02*
X92478571Y-72177380D01*
X92145238Y-72558333D01*
X92288095Y-72558333D01*
X92383333Y-72605952D01*
X92430952Y-72653571D01*
X92478571Y-72748809D01*
X92478571Y-72986904D01*
X92430952Y-73082142D01*
X92383333Y-73129761D01*
X92288095Y-73177380D01*
X92002380Y-73177380D01*
X91907142Y-73129761D01*
X91859523Y-73082142D01*
X92811904Y-72510714D02*
X93050000Y-73177380D01*
X93288095Y-72510714D01*
X93573809Y-72177380D02*
X94192857Y-72177380D01*
X93859523Y-72558333D01*
X94002380Y-72558333D01*
X94097619Y-72605952D01*
X94145238Y-72653571D01*
X94192857Y-72748809D01*
X94192857Y-72986904D01*
X94145238Y-73082142D01*
X94097619Y-73129761D01*
X94002380Y-73177380D01*
X93716666Y-73177380D01*
X93621428Y-73129761D01*
X93573809Y-73082142D01*
D11*
X58200000Y-50400000D02*
X58200000Y-50100000D01*
X65800000Y-50400000D02*
X65800000Y-50100000D01*
X58200000Y-52600000D02*
X58200000Y-53000000D01*
X65800000Y-53000000D02*
X65800000Y-52600000D01*
X65800000Y-50050000D02*
X58200000Y-50050000D01*
D12*
X64100000Y-55000000D02*
G75*
G03*
X64100000Y-55000000I-100000J0D01*
G01*
D13*
X68800000Y-51700000D02*
X70350000Y-51700000D01*
X70350000Y-53500000D02*
X69050000Y-53500000D01*
D11*
X86200000Y-68730000D02*
X86200000Y-65570000D01*
X84800000Y-65570000D02*
X84800000Y-68730000D01*
D10*
X60125000Y-100750000D02*
X59050000Y-100750000D01*
X60125000Y-103875000D02*
X63375000Y-103875000D01*
X60125000Y-100625000D02*
X63375000Y-100625000D01*
X60125000Y-103875000D02*
X60125000Y-103650000D01*
X63375000Y-103875000D02*
X63375000Y-103650000D01*
X63375000Y-100625000D02*
X63375000Y-100850000D01*
X60125000Y-100625000D02*
X60125000Y-100750000D01*
D11*
X100302000Y-69183000D02*
G75*
G03*
X100302000Y-69183000I-127000J0D01*
G01*
D14*
X95500000Y-68750000D02*
X95500000Y-62250000D01*
X98500000Y-68750000D02*
X95500000Y-68750000D01*
X98500000Y-62250000D02*
X98500000Y-68750000D01*
X95500000Y-62250000D02*
X98500000Y-62250000D01*
D13*
X61727064Y-104765000D02*
X61272936Y-104765000D01*
X61727064Y-106235000D02*
X61272936Y-106235000D01*
X69475000Y-100945225D02*
X68975000Y-100945225D01*
X69225000Y-100695225D02*
X69225000Y-101195225D01*
X68034000Y-106101000D02*
X67466000Y-106101000D01*
X68268000Y-106061000D02*
X67232000Y-106061000D01*
X68427000Y-106021000D02*
X67073000Y-106021000D01*
X68555000Y-105981000D02*
X66945000Y-105981000D01*
X68665000Y-105941000D02*
X66835000Y-105941000D01*
X68761000Y-105901000D02*
X66739000Y-105901000D01*
X68848000Y-105861000D02*
X66652000Y-105861000D01*
X68928000Y-105821000D02*
X66572000Y-105821000D01*
X69001000Y-105781000D02*
X66499000Y-105781000D01*
X69069000Y-105741000D02*
X66431000Y-105741000D01*
X69133000Y-105701000D02*
X66367000Y-105701000D01*
X69193000Y-105661000D02*
X66307000Y-105661000D01*
X69250000Y-105621000D02*
X66250000Y-105621000D01*
X69304000Y-105581000D02*
X66196000Y-105581000D01*
X69355000Y-105541000D02*
X66145000Y-105541000D01*
X66710000Y-105501000D02*
X66097000Y-105501000D01*
X69403000Y-105501000D02*
X68790000Y-105501000D01*
X66710000Y-105461000D02*
X66051000Y-105461000D01*
X69449000Y-105461000D02*
X68790000Y-105461000D01*
X66710000Y-105421000D02*
X66007000Y-105421000D01*
X69493000Y-105421000D02*
X68790000Y-105421000D01*
X66710000Y-105381000D02*
X65965000Y-105381000D01*
X69535000Y-105381000D02*
X68790000Y-105381000D01*
X66710000Y-105341000D02*
X65924000Y-105341000D01*
X69576000Y-105341000D02*
X68790000Y-105341000D01*
X66710000Y-105301000D02*
X65886000Y-105301000D01*
X69614000Y-105301000D02*
X68790000Y-105301000D01*
X66710000Y-105261000D02*
X65849000Y-105261000D01*
X69651000Y-105261000D02*
X68790000Y-105261000D01*
X66710000Y-105221000D02*
X65813000Y-105221000D01*
X69687000Y-105221000D02*
X68790000Y-105221000D01*
X66710000Y-105181000D02*
X65779000Y-105181000D01*
X69721000Y-105181000D02*
X68790000Y-105181000D01*
X66710000Y-105141000D02*
X65746000Y-105141000D01*
X69754000Y-105141000D02*
X68790000Y-105141000D01*
X66710000Y-105101000D02*
X65715000Y-105101000D01*
X69785000Y-105101000D02*
X68790000Y-105101000D01*
X66710000Y-105061000D02*
X65685000Y-105061000D01*
X69815000Y-105061000D02*
X68790000Y-105061000D01*
X66710000Y-105021000D02*
X65655000Y-105021000D01*
X69845000Y-105021000D02*
X68790000Y-105021000D01*
X66710000Y-104981000D02*
X65628000Y-104981000D01*
X69872000Y-104981000D02*
X68790000Y-104981000D01*
X66710000Y-104941000D02*
X65601000Y-104941000D01*
X69899000Y-104941000D02*
X68790000Y-104941000D01*
X66710000Y-104901000D02*
X65575000Y-104901000D01*
X69925000Y-104901000D02*
X68790000Y-104901000D01*
X66710000Y-104861000D02*
X65550000Y-104861000D01*
X69950000Y-104861000D02*
X68790000Y-104861000D01*
X66710000Y-104821000D02*
X65526000Y-104821000D01*
X69974000Y-104821000D02*
X68790000Y-104821000D01*
X66710000Y-104781000D02*
X65503000Y-104781000D01*
X69997000Y-104781000D02*
X68790000Y-104781000D01*
X66710000Y-104741000D02*
X65482000Y-104741000D01*
X70018000Y-104741000D02*
X68790000Y-104741000D01*
X66710000Y-104701000D02*
X65460000Y-104701000D01*
X70040000Y-104701000D02*
X68790000Y-104701000D01*
X66710000Y-104661000D02*
X65440000Y-104661000D01*
X70060000Y-104661000D02*
X68790000Y-104661000D01*
X66710000Y-104621000D02*
X65421000Y-104621000D01*
X70079000Y-104621000D02*
X68790000Y-104621000D01*
X66710000Y-104581000D02*
X65402000Y-104581000D01*
X70098000Y-104581000D02*
X68790000Y-104581000D01*
X66710000Y-104541000D02*
X65385000Y-104541000D01*
X70115000Y-104541000D02*
X68790000Y-104541000D01*
X66710000Y-104501000D02*
X65368000Y-104501000D01*
X70132000Y-104501000D02*
X68790000Y-104501000D01*
X66710000Y-104461000D02*
X65352000Y-104461000D01*
X70148000Y-104461000D02*
X68790000Y-104461000D01*
X66710000Y-104421000D02*
X65336000Y-104421000D01*
X70164000Y-104421000D02*
X68790000Y-104421000D01*
X66710000Y-104381000D02*
X65322000Y-104381000D01*
X70178000Y-104381000D02*
X68790000Y-104381000D01*
X66710000Y-104341000D02*
X65308000Y-104341000D01*
X70192000Y-104341000D02*
X68790000Y-104341000D01*
X66710000Y-104301000D02*
X65295000Y-104301000D01*
X70205000Y-104301000D02*
X68790000Y-104301000D01*
X66710000Y-104261000D02*
X65282000Y-104261000D01*
X70218000Y-104261000D02*
X68790000Y-104261000D01*
X66710000Y-104221000D02*
X65270000Y-104221000D01*
X70230000Y-104221000D02*
X68790000Y-104221000D01*
X66710000Y-104180000D02*
X65259000Y-104180000D01*
X70241000Y-104180000D02*
X68790000Y-104180000D01*
X66710000Y-104140000D02*
X65249000Y-104140000D01*
X70251000Y-104140000D02*
X68790000Y-104140000D01*
X66710000Y-104100000D02*
X65239000Y-104100000D01*
X70261000Y-104100000D02*
X68790000Y-104100000D01*
X66710000Y-104060000D02*
X65230000Y-104060000D01*
X70270000Y-104060000D02*
X68790000Y-104060000D01*
X66710000Y-104020000D02*
X65222000Y-104020000D01*
X70278000Y-104020000D02*
X68790000Y-104020000D01*
X66710000Y-103980000D02*
X65214000Y-103980000D01*
X70286000Y-103980000D02*
X68790000Y-103980000D01*
X66710000Y-103940000D02*
X65207000Y-103940000D01*
X70293000Y-103940000D02*
X68790000Y-103940000D01*
X66710000Y-103900000D02*
X65200000Y-103900000D01*
X70300000Y-103900000D02*
X68790000Y-103900000D01*
X66710000Y-103860000D02*
X65194000Y-103860000D01*
X70306000Y-103860000D02*
X68790000Y-103860000D01*
X66710000Y-103820000D02*
X65189000Y-103820000D01*
X70311000Y-103820000D02*
X68790000Y-103820000D01*
X66710000Y-103780000D02*
X65185000Y-103780000D01*
X70315000Y-103780000D02*
X68790000Y-103780000D01*
X66710000Y-103740000D02*
X65181000Y-103740000D01*
X70319000Y-103740000D02*
X68790000Y-103740000D01*
X66710000Y-103700000D02*
X65177000Y-103700000D01*
X70323000Y-103700000D02*
X68790000Y-103700000D01*
X66710000Y-103660000D02*
X65174000Y-103660000D01*
X70326000Y-103660000D02*
X68790000Y-103660000D01*
X66710000Y-103620000D02*
X65172000Y-103620000D01*
X70328000Y-103620000D02*
X68790000Y-103620000D01*
X66710000Y-103580000D02*
X65171000Y-103580000D01*
X70329000Y-103580000D02*
X68790000Y-103580000D01*
X70330000Y-103540000D02*
X68790000Y-103540000D01*
X66710000Y-103540000D02*
X65170000Y-103540000D01*
X70330000Y-103500000D02*
X68790000Y-103500000D01*
X66710000Y-103500000D02*
X65170000Y-103500000D01*
X70370000Y-103500000D02*
G75*
G03*
X70370000Y-103500000I-2620000J0D01*
G01*
X56840000Y-62538748D02*
X56840000Y-63961252D01*
X58660000Y-62538748D02*
X58660000Y-63961252D01*
X99238748Y-61235000D02*
X99761252Y-61235000D01*
X99238748Y-59765000D02*
X99761252Y-59765000D01*
X95238748Y-61235000D02*
X95761252Y-61235000D01*
X95238748Y-59765000D02*
X95761252Y-59765000D01*
X57490000Y-103603733D02*
X57490000Y-103896267D01*
X58510000Y-103603733D02*
X58510000Y-103896267D01*
X62101600Y-63405000D02*
G75*
G03*
X62101600Y-63405000I-101600J0D01*
G01*
X61540259Y-59323600D02*
X61323600Y-59323600D01*
X64459741Y-62676400D02*
X64676400Y-62676400D01*
X61323600Y-62676400D02*
X61540259Y-62676400D01*
X61323600Y-59323600D02*
X61323600Y-62676400D01*
X64676400Y-59323600D02*
X64459741Y-59323600D01*
X64676400Y-62676400D02*
X64676400Y-59323600D01*
X63276600Y-91917200D02*
X56723400Y-91917200D01*
X56723400Y-91917200D02*
X56723400Y-93387860D01*
X56723400Y-96082800D02*
X63276600Y-96082800D01*
X63276600Y-96082800D02*
X63276600Y-94612140D01*
X63276600Y-93387860D02*
X63276600Y-91917200D01*
X56723400Y-94612140D02*
X56723400Y-96082800D01*
X99082800Y-101526600D02*
X99082800Y-94973400D01*
X99082800Y-94973400D02*
X97612140Y-94973400D01*
X94917200Y-94973400D02*
X94917200Y-101526600D01*
X94917200Y-101526600D02*
X96387860Y-101526600D01*
X97612140Y-101526600D02*
X99082800Y-101526600D01*
X96387860Y-94973400D02*
X94917200Y-94973400D01*
D11*
X72900000Y-73600000D02*
X74380000Y-73600000D01*
X72900000Y-73830000D02*
X72900000Y-73600000D01*
X90900000Y-73600000D02*
X89420000Y-73600000D01*
X90900000Y-73830000D02*
X90900000Y-73600000D01*
X72900000Y-98300000D02*
X72900000Y-97870000D01*
D15*
X92177000Y-96888000D02*
G75*
G03*
X92177000Y-96888000I-100000J0D01*
G01*
D11*
X90860000Y-98300000D02*
X72900000Y-98300000D01*
X90900000Y-97870000D02*
X90900000Y-104600000D01*
X72900000Y-104600000D02*
X72900000Y-98300000D01*
X90900000Y-104600000D02*
X72900000Y-104600000D01*
D13*
X63734000Y-65849000D02*
X63099000Y-65849000D01*
X63099000Y-65849000D02*
X63099000Y-66484000D01*
X63099000Y-68516000D02*
X63099000Y-69151000D01*
X63099000Y-69151000D02*
X63734000Y-69151000D01*
X65766000Y-65849000D02*
X66401000Y-65849000D01*
X66401000Y-65849000D02*
X66401000Y-66484000D01*
X66401000Y-68516000D02*
X66401000Y-69024000D01*
X66401000Y-69024000D02*
X66401000Y-69151000D01*
X66401000Y-69151000D02*
X65766000Y-69151000D01*
D12*
X63226000Y-69151000D02*
G75*
G03*
X63226000Y-69151000I-127000J0D01*
G01*
D13*
X70735000Y-87727064D02*
X70735000Y-87272936D01*
X69265000Y-87727064D02*
X69265000Y-87272936D01*
X70735000Y-81227064D02*
X70735000Y-80772936D01*
X69265000Y-81227064D02*
X69265000Y-80772936D01*
X93772936Y-93735000D02*
X94227064Y-93735000D01*
X93772936Y-92265000D02*
X94227064Y-92265000D01*
X66115000Y-62122936D02*
X66115000Y-62577064D01*
X67585000Y-62122936D02*
X67585000Y-62577064D01*
X66115000Y-58222936D02*
X66115000Y-58677064D01*
X67585000Y-58222936D02*
X67585000Y-58677064D01*
X70527064Y-57565000D02*
X70072936Y-57565000D01*
X70527064Y-59035000D02*
X70072936Y-59035000D01*
X81735000Y-57227064D02*
X81735000Y-56772936D01*
X80265000Y-57227064D02*
X80265000Y-56772936D01*
X86735000Y-57139564D02*
X86735000Y-56685436D01*
X85265000Y-57139564D02*
X85265000Y-56685436D01*
X91735000Y-57227064D02*
X91735000Y-56772936D01*
X90265000Y-57227064D02*
X90265000Y-56772936D01*
X68015000Y-94272936D02*
X68015000Y-94727064D01*
X69485000Y-94272936D02*
X69485000Y-94727064D01*
X65515000Y-94272936D02*
X65515000Y-94727064D01*
X66985000Y-94272936D02*
X66985000Y-94727064D01*
X73570000Y-56970000D02*
X74900000Y-56970000D01*
X73570000Y-58300000D02*
X73570000Y-56970000D01*
X76170000Y-56970000D02*
X78770000Y-56970000D01*
X76170000Y-59570000D02*
X76170000Y-56970000D01*
X73570000Y-59570000D02*
X76170000Y-59570000D01*
X78770000Y-56970000D02*
X78770000Y-64710000D01*
X73570000Y-59570000D02*
X73570000Y-64710000D01*
X73570000Y-64710000D02*
X78770000Y-64710000D01*
X80265000Y-51340000D02*
X80265000Y-53800000D01*
X81735000Y-51340000D02*
X80265000Y-51340000D01*
X81735000Y-53800000D02*
X81735000Y-51340000D01*
X85265000Y-51340000D02*
X85265000Y-53800000D01*
X86735000Y-51340000D02*
X85265000Y-51340000D01*
X86735000Y-53800000D02*
X86735000Y-51340000D01*
X90265000Y-51340000D02*
X90265000Y-53800000D01*
X91735000Y-51340000D02*
X90265000Y-51340000D01*
X91735000Y-53800000D02*
X91735000Y-51340000D01*
X59490000Y-63103733D02*
X59490000Y-63396267D01*
X60510000Y-63103733D02*
X60510000Y-63396267D01*
X59396267Y-58990000D02*
X59103733Y-58990000D01*
X59396267Y-60010000D02*
X59103733Y-60010000D01*
X94010000Y-96646267D02*
X94010000Y-96353733D01*
X92990000Y-96646267D02*
X92990000Y-96353733D01*
X70240000Y-96353733D02*
X70240000Y-96646267D01*
X71260000Y-96353733D02*
X71260000Y-96646267D01*
X84010000Y-69146267D02*
X84010000Y-68853733D01*
X82990000Y-69146267D02*
X82990000Y-68853733D01*
X88010000Y-69283767D02*
X88010000Y-68991233D01*
X86990000Y-69283767D02*
X86990000Y-68991233D01*
X62670000Y-75670000D02*
X64000000Y-75670000D01*
X62670000Y-77000000D02*
X62670000Y-75670000D01*
X65270000Y-75670000D02*
X67870000Y-75670000D01*
X65270000Y-78270000D02*
X65270000Y-75670000D01*
X62670000Y-78270000D02*
X65270000Y-78270000D01*
X67870000Y-75670000D02*
X67870000Y-91030000D01*
X62670000Y-78270000D02*
X62670000Y-91030000D01*
X62670000Y-91030000D02*
X67870000Y-91030000D01*
X55970000Y-66270000D02*
X57300000Y-66270000D01*
X55970000Y-67600000D02*
X55970000Y-66270000D01*
X55970000Y-68870000D02*
X58630000Y-68870000D01*
X58630000Y-68870000D02*
X58630000Y-74010000D01*
X55970000Y-68870000D02*
X55970000Y-74010000D01*
X55970000Y-74010000D02*
X58630000Y-74010000D01*
X104330000Y-106420000D02*
X104330000Y-107750000D01*
X103000000Y-106420000D02*
X104330000Y-106420000D01*
X101730000Y-106420000D02*
X101730000Y-109080000D01*
X101730000Y-109080000D02*
X96590000Y-109080000D01*
X101730000Y-106420000D02*
X96590000Y-106420000D01*
X96590000Y-106420000D02*
X96590000Y-109080000D01*
X80330000Y-106670000D02*
X80330000Y-108000000D01*
X79000000Y-106670000D02*
X80330000Y-106670000D01*
X77730000Y-106670000D02*
X77730000Y-109330000D01*
X77730000Y-109330000D02*
X72590000Y-109330000D01*
X77730000Y-106670000D02*
X72590000Y-106670000D01*
X72590000Y-106670000D02*
X72590000Y-109330000D01*
X94670000Y-71920000D02*
X96000000Y-71920000D01*
X94670000Y-73250000D02*
X94670000Y-71920000D01*
X97270000Y-71920000D02*
X99870000Y-71920000D01*
X97270000Y-74520000D02*
X97270000Y-71920000D01*
X94670000Y-74520000D02*
X97270000Y-74520000D01*
X99870000Y-71920000D02*
X99870000Y-89820000D01*
X94670000Y-74520000D02*
X94670000Y-89820000D01*
X94670000Y-89820000D02*
X99870000Y-89820000D01*
X93330000Y-106420000D02*
X93330000Y-107750000D01*
X92000000Y-106420000D02*
X93330000Y-106420000D01*
X90730000Y-106420000D02*
X90730000Y-109080000D01*
X90730000Y-109080000D02*
X83050000Y-109080000D01*
X90730000Y-106420000D02*
X83050000Y-106420000D01*
X83050000Y-106420000D02*
X83050000Y-109080000D01*
D11*
X102500000Y-57700000D02*
X102150000Y-57700000D01*
X97500000Y-57700000D02*
X98050000Y-57700000D01*
X97500000Y-57050000D02*
X97500000Y-57700000D01*
X97500000Y-52850000D02*
X97500000Y-46300000D01*
D16*
X100190000Y-58950000D02*
G75*
G03*
X100190000Y-58950000I-190000J0D01*
G01*
D11*
X102500000Y-46300000D02*
X102500000Y-57700000D01*
X97500000Y-46300000D02*
X102500000Y-46300000D01*
D16*
X100190000Y-58950000D02*
G75*
G03*
X100190000Y-58950000I-190000J0D01*
G01*
D10*
X62346076Y-55441300D02*
X62346076Y-56155586D01*
X62298457Y-56298443D01*
X62203219Y-56393681D01*
X62060362Y-56441300D01*
X61965124Y-56441300D01*
X63250838Y-55441300D02*
X63060362Y-55441300D01*
X62965124Y-55488920D01*
X62917505Y-55536539D01*
X62822267Y-55679396D01*
X62774648Y-55869872D01*
X62774648Y-56250824D01*
X62822267Y-56346062D01*
X62869886Y-56393681D01*
X62965124Y-56441300D01*
X63155600Y-56441300D01*
X63250838Y-56393681D01*
X63298457Y-56346062D01*
X63346076Y-56250824D01*
X63346076Y-56012729D01*
X63298457Y-55917491D01*
X63250838Y-55869872D01*
X63155600Y-55822253D01*
X62965124Y-55822253D01*
X62869886Y-55869872D01*
X62822267Y-55917491D01*
X62774648Y-56012729D01*
X68961904Y-51352380D02*
X68961904Y-50352380D01*
X69200000Y-50352380D01*
X69342857Y-50400000D01*
X69438095Y-50495238D01*
X69485714Y-50590476D01*
X69533333Y-50780952D01*
X69533333Y-50923809D01*
X69485714Y-51114285D01*
X69438095Y-51209523D01*
X69342857Y-51304761D01*
X69200000Y-51352380D01*
X68961904Y-51352380D01*
X70390476Y-50685714D02*
X70390476Y-51352380D01*
X70152380Y-50304761D02*
X69914285Y-51019047D01*
X70533333Y-51019047D01*
X87248809Y-61691190D02*
X87248809Y-62167380D01*
X86915476Y-61167380D02*
X87248809Y-61691190D01*
X87582142Y-61167380D01*
X88439285Y-62167380D02*
X87867857Y-62167380D01*
X88153571Y-62167380D02*
X88153571Y-61167380D01*
X88058333Y-61310238D01*
X87963095Y-61405476D01*
X87867857Y-61453095D01*
X60988095Y-99152380D02*
X60988095Y-99961904D01*
X61035714Y-100057142D01*
X61083333Y-100104761D01*
X61178571Y-100152380D01*
X61369047Y-100152380D01*
X61464285Y-100104761D01*
X61511904Y-100057142D01*
X61559523Y-99961904D01*
X61559523Y-99152380D01*
X62511904Y-99152380D02*
X62035714Y-99152380D01*
X61988095Y-99628571D01*
X62035714Y-99580952D01*
X62130952Y-99533333D01*
X62369047Y-99533333D01*
X62464285Y-99580952D01*
X62511904Y-99628571D01*
X62559523Y-99723809D01*
X62559523Y-99961904D01*
X62511904Y-100057142D01*
X62464285Y-100104761D01*
X62369047Y-100152380D01*
X62130952Y-100152380D01*
X62035714Y-100104761D01*
X61988095Y-100057142D01*
X93237735Y-67952122D02*
X93237735Y-68762028D01*
X93285377Y-68857311D01*
X93333018Y-68904952D01*
X93428301Y-68952594D01*
X93618867Y-68952594D01*
X93714150Y-68904952D01*
X93761792Y-68857311D01*
X93809433Y-68762028D01*
X93809433Y-67952122D01*
X94809905Y-68952594D02*
X94238207Y-68952594D01*
X94524056Y-68952594D02*
X94524056Y-67952122D01*
X94428773Y-68095047D01*
X94333490Y-68190330D01*
X94238207Y-68237971D01*
X61333333Y-107602380D02*
X61000000Y-107126190D01*
X60761904Y-107602380D02*
X60761904Y-106602380D01*
X61142857Y-106602380D01*
X61238095Y-106650000D01*
X61285714Y-106697619D01*
X61333333Y-106792857D01*
X61333333Y-106935714D01*
X61285714Y-107030952D01*
X61238095Y-107078571D01*
X61142857Y-107126190D01*
X60761904Y-107126190D01*
X61666666Y-106602380D02*
X62285714Y-106602380D01*
X61952380Y-106983333D01*
X62095238Y-106983333D01*
X62190476Y-107030952D01*
X62238095Y-107078571D01*
X62285714Y-107173809D01*
X62285714Y-107411904D01*
X62238095Y-107507142D01*
X62190476Y-107554761D01*
X62095238Y-107602380D01*
X61809523Y-107602380D01*
X61714285Y-107554761D01*
X61666666Y-107507142D01*
X71857142Y-104142857D02*
X71904761Y-104190476D01*
X71952380Y-104333333D01*
X71952380Y-104428571D01*
X71904761Y-104571428D01*
X71809523Y-104666666D01*
X71714285Y-104714285D01*
X71523809Y-104761904D01*
X71380952Y-104761904D01*
X71190476Y-104714285D01*
X71095238Y-104666666D01*
X71000000Y-104571428D01*
X70952380Y-104428571D01*
X70952380Y-104333333D01*
X71000000Y-104190476D01*
X71047619Y-104142857D01*
X71952380Y-103190476D02*
X71952380Y-103761904D01*
X71952380Y-103476190D02*
X70952380Y-103476190D01*
X71095238Y-103571428D01*
X71190476Y-103666666D01*
X71238095Y-103761904D01*
X70952380Y-102857142D02*
X70952380Y-102238095D01*
X71333333Y-102571428D01*
X71333333Y-102428571D01*
X71380952Y-102333333D01*
X71428571Y-102285714D01*
X71523809Y-102238095D01*
X71761904Y-102238095D01*
X71857142Y-102285714D01*
X71904761Y-102333333D01*
X71952380Y-102428571D01*
X71952380Y-102714285D01*
X71904761Y-102809523D01*
X71857142Y-102857142D01*
X56357142Y-63392857D02*
X56404761Y-63440476D01*
X56452380Y-63583333D01*
X56452380Y-63678571D01*
X56404761Y-63821428D01*
X56309523Y-63916666D01*
X56214285Y-63964285D01*
X56023809Y-64011904D01*
X55880952Y-64011904D01*
X55690476Y-63964285D01*
X55595238Y-63916666D01*
X55500000Y-63821428D01*
X55452380Y-63678571D01*
X55452380Y-63583333D01*
X55500000Y-63440476D01*
X55547619Y-63392857D01*
X56452380Y-62440476D02*
X56452380Y-63011904D01*
X56452380Y-62726190D02*
X55452380Y-62726190D01*
X55595238Y-62821428D01*
X55690476Y-62916666D01*
X55738095Y-63011904D01*
X55547619Y-62059523D02*
X55500000Y-62011904D01*
X55452380Y-61916666D01*
X55452380Y-61678571D01*
X55500000Y-61583333D01*
X55547619Y-61535714D01*
X55642857Y-61488095D01*
X55738095Y-61488095D01*
X55880952Y-61535714D01*
X56452380Y-62107142D01*
X56452380Y-61488095D01*
X102333333Y-60857142D02*
X102285714Y-60904761D01*
X102142857Y-60952380D01*
X102047619Y-60952380D01*
X101904761Y-60904761D01*
X101809523Y-60809523D01*
X101761904Y-60714285D01*
X101714285Y-60523809D01*
X101714285Y-60380952D01*
X101761904Y-60190476D01*
X101809523Y-60095238D01*
X101904761Y-60000000D01*
X102047619Y-59952380D01*
X102142857Y-59952380D01*
X102285714Y-60000000D01*
X102333333Y-60047619D01*
X102666666Y-59952380D02*
X103333333Y-59952380D01*
X102904761Y-60952380D01*
X94833333Y-59107142D02*
X94785714Y-59154761D01*
X94642857Y-59202380D01*
X94547619Y-59202380D01*
X94404761Y-59154761D01*
X94309523Y-59059523D01*
X94261904Y-58964285D01*
X94214285Y-58773809D01*
X94214285Y-58630952D01*
X94261904Y-58440476D01*
X94309523Y-58345238D01*
X94404761Y-58250000D01*
X94547619Y-58202380D01*
X94642857Y-58202380D01*
X94785714Y-58250000D01*
X94833333Y-58297619D01*
X95690476Y-58535714D02*
X95690476Y-59202380D01*
X95452380Y-58154761D02*
X95214285Y-58869047D01*
X95833333Y-58869047D01*
X56857142Y-103916666D02*
X56904761Y-103964285D01*
X56952380Y-104107142D01*
X56952380Y-104202380D01*
X56904761Y-104345238D01*
X56809523Y-104440476D01*
X56714285Y-104488095D01*
X56523809Y-104535714D01*
X56380952Y-104535714D01*
X56190476Y-104488095D01*
X56095238Y-104440476D01*
X56000000Y-104345238D01*
X55952380Y-104202380D01*
X55952380Y-104107142D01*
X56000000Y-103964285D01*
X56047619Y-103916666D01*
X56952380Y-102964285D02*
X56952380Y-103535714D01*
X56952380Y-103250000D02*
X55952380Y-103250000D01*
X56095238Y-103345238D01*
X56190476Y-103440476D01*
X56238095Y-103535714D01*
X62738095Y-63452380D02*
X62738095Y-64261904D01*
X62785714Y-64357142D01*
X62833333Y-64404761D01*
X62928571Y-64452380D01*
X63119047Y-64452380D01*
X63214285Y-64404761D01*
X63261904Y-64357142D01*
X63309523Y-64261904D01*
X63309523Y-63452380D01*
X63690476Y-63452380D02*
X64309523Y-63452380D01*
X63976190Y-63833333D01*
X64119047Y-63833333D01*
X64214285Y-63880952D01*
X64261904Y-63928571D01*
X64309523Y-64023809D01*
X64309523Y-64261904D01*
X64261904Y-64357142D01*
X64214285Y-64404761D01*
X64119047Y-64452380D01*
X63833333Y-64452380D01*
X63738095Y-64404761D01*
X63690476Y-64357142D01*
X57166666Y-91404761D02*
X57309523Y-91452380D01*
X57547619Y-91452380D01*
X57642857Y-91404761D01*
X57690476Y-91357142D01*
X57738095Y-91261904D01*
X57738095Y-91166666D01*
X57690476Y-91071428D01*
X57642857Y-91023809D01*
X57547619Y-90976190D01*
X57357142Y-90928571D01*
X57261904Y-90880952D01*
X57214285Y-90833333D01*
X57166666Y-90738095D01*
X57166666Y-90642857D01*
X57214285Y-90547619D01*
X57261904Y-90500000D01*
X57357142Y-90452380D01*
X57595238Y-90452380D01*
X57738095Y-90500000D01*
X58071428Y-90452380D02*
X58309523Y-91452380D01*
X58500000Y-90738095D01*
X58690476Y-91452380D01*
X58928571Y-90452380D01*
X59833333Y-91452380D02*
X59261904Y-91452380D01*
X59547619Y-91452380D02*
X59547619Y-90452380D01*
X59452380Y-90595238D01*
X59357142Y-90690476D01*
X59261904Y-90738095D01*
X100404761Y-99583333D02*
X100452380Y-99440476D01*
X100452380Y-99202380D01*
X100404761Y-99107142D01*
X100357142Y-99059523D01*
X100261904Y-99011904D01*
X100166666Y-99011904D01*
X100071428Y-99059523D01*
X100023809Y-99107142D01*
X99976190Y-99202380D01*
X99928571Y-99392857D01*
X99880952Y-99488095D01*
X99833333Y-99535714D01*
X99738095Y-99583333D01*
X99642857Y-99583333D01*
X99547619Y-99535714D01*
X99500000Y-99488095D01*
X99452380Y-99392857D01*
X99452380Y-99154761D01*
X99500000Y-99011904D01*
X99452380Y-98678571D02*
X100452380Y-98440476D01*
X99738095Y-98250000D01*
X100452380Y-98059523D01*
X99452380Y-97821428D01*
X99547619Y-97488095D02*
X99500000Y-97440476D01*
X99452380Y-97345238D01*
X99452380Y-97107142D01*
X99500000Y-97011904D01*
X99547619Y-96964285D01*
X99642857Y-96916666D01*
X99738095Y-96916666D01*
X99880952Y-96964285D01*
X100452380Y-97535714D01*
X100452380Y-96916666D01*
X91452380Y-103261904D02*
X92261904Y-103261904D01*
X92357142Y-103214285D01*
X92404761Y-103166666D01*
X92452380Y-103071428D01*
X92452380Y-102880952D01*
X92404761Y-102785714D01*
X92357142Y-102738095D01*
X92261904Y-102690476D01*
X91452380Y-102690476D01*
X91547619Y-102261904D02*
X91500000Y-102214285D01*
X91452380Y-102119047D01*
X91452380Y-101880952D01*
X91500000Y-101785714D01*
X91547619Y-101738095D01*
X91642857Y-101690476D01*
X91738095Y-101690476D01*
X91880952Y-101738095D01*
X92452380Y-102309523D01*
X92452380Y-101690476D01*
X66988095Y-65202380D02*
X66988095Y-66011904D01*
X67035714Y-66107142D01*
X67083333Y-66154761D01*
X67178571Y-66202380D01*
X67369047Y-66202380D01*
X67464285Y-66154761D01*
X67511904Y-66107142D01*
X67559523Y-66011904D01*
X67559523Y-65202380D01*
X68464285Y-65535714D02*
X68464285Y-66202380D01*
X68226190Y-65154761D02*
X67988095Y-65869047D01*
X68607142Y-65869047D01*
X70452380Y-91642857D02*
X69976190Y-91976190D01*
X70452380Y-92214285D02*
X69452380Y-92214285D01*
X69452380Y-91833333D01*
X69500000Y-91738095D01*
X69547619Y-91690476D01*
X69642857Y-91642857D01*
X69785714Y-91642857D01*
X69880952Y-91690476D01*
X69928571Y-91738095D01*
X69976190Y-91833333D01*
X69976190Y-92214285D01*
X70452380Y-90690476D02*
X70452380Y-91261904D01*
X70452380Y-90976190D02*
X69452380Y-90976190D01*
X69595238Y-91071428D01*
X69690476Y-91166666D01*
X69738095Y-91261904D01*
X69785714Y-89833333D02*
X70452380Y-89833333D01*
X69404761Y-90071428D02*
X70119047Y-90309523D01*
X70119047Y-89690476D01*
X70852380Y-78142857D02*
X70376190Y-78476190D01*
X70852380Y-78714285D02*
X69852380Y-78714285D01*
X69852380Y-78333333D01*
X69900000Y-78238095D01*
X69947619Y-78190476D01*
X70042857Y-78142857D01*
X70185714Y-78142857D01*
X70280952Y-78190476D01*
X70328571Y-78238095D01*
X70376190Y-78333333D01*
X70376190Y-78714285D01*
X70852380Y-77190476D02*
X70852380Y-77761904D01*
X70852380Y-77476190D02*
X69852380Y-77476190D01*
X69995238Y-77571428D01*
X70090476Y-77666666D01*
X70138095Y-77761904D01*
X69852380Y-76857142D02*
X69852380Y-76238095D01*
X70233333Y-76571428D01*
X70233333Y-76428571D01*
X70280952Y-76333333D01*
X70328571Y-76285714D01*
X70423809Y-76238095D01*
X70661904Y-76238095D01*
X70757142Y-76285714D01*
X70804761Y-76333333D01*
X70852380Y-76428571D01*
X70852380Y-76714285D01*
X70804761Y-76809523D01*
X70757142Y-76857142D01*
X95357142Y-91802380D02*
X95023809Y-91326190D01*
X94785714Y-91802380D02*
X94785714Y-90802380D01*
X95166666Y-90802380D01*
X95261904Y-90850000D01*
X95309523Y-90897619D01*
X95357142Y-90992857D01*
X95357142Y-91135714D01*
X95309523Y-91230952D01*
X95261904Y-91278571D01*
X95166666Y-91326190D01*
X94785714Y-91326190D01*
X96309523Y-91802380D02*
X95738095Y-91802380D01*
X96023809Y-91802380D02*
X96023809Y-90802380D01*
X95928571Y-90945238D01*
X95833333Y-91040476D01*
X95738095Y-91088095D01*
X97261904Y-91802380D02*
X96690476Y-91802380D01*
X96976190Y-91802380D02*
X96976190Y-90802380D01*
X96880952Y-90945238D01*
X96785714Y-91040476D01*
X96690476Y-91088095D01*
X68952380Y-63142857D02*
X68476190Y-63476190D01*
X68952380Y-63714285D02*
X67952380Y-63714285D01*
X67952380Y-63333333D01*
X68000000Y-63238095D01*
X68047619Y-63190476D01*
X68142857Y-63142857D01*
X68285714Y-63142857D01*
X68380952Y-63190476D01*
X68428571Y-63238095D01*
X68476190Y-63333333D01*
X68476190Y-63714285D01*
X68952380Y-62190476D02*
X68952380Y-62761904D01*
X68952380Y-62476190D02*
X67952380Y-62476190D01*
X68095238Y-62571428D01*
X68190476Y-62666666D01*
X68238095Y-62761904D01*
X67952380Y-61571428D02*
X67952380Y-61476190D01*
X68000000Y-61380952D01*
X68047619Y-61333333D01*
X68142857Y-61285714D01*
X68333333Y-61238095D01*
X68571428Y-61238095D01*
X68761904Y-61285714D01*
X68857142Y-61333333D01*
X68904761Y-61380952D01*
X68952380Y-61476190D01*
X68952380Y-61571428D01*
X68904761Y-61666666D01*
X68857142Y-61714285D01*
X68761904Y-61761904D01*
X68571428Y-61809523D01*
X68333333Y-61809523D01*
X68142857Y-61761904D01*
X68047619Y-61714285D01*
X68000000Y-61666666D01*
X67952380Y-61571428D01*
X65702380Y-57916666D02*
X65226190Y-58250000D01*
X65702380Y-58488095D02*
X64702380Y-58488095D01*
X64702380Y-58107142D01*
X64750000Y-58011904D01*
X64797619Y-57964285D01*
X64892857Y-57916666D01*
X65035714Y-57916666D01*
X65130952Y-57964285D01*
X65178571Y-58011904D01*
X65226190Y-58107142D01*
X65226190Y-58488095D01*
X65702380Y-57440476D02*
X65702380Y-57250000D01*
X65654761Y-57154761D01*
X65607142Y-57107142D01*
X65464285Y-57011904D01*
X65273809Y-56964285D01*
X64892857Y-56964285D01*
X64797619Y-57011904D01*
X64750000Y-57059523D01*
X64702380Y-57154761D01*
X64702380Y-57345238D01*
X64750000Y-57440476D01*
X64797619Y-57488095D01*
X64892857Y-57535714D01*
X65130952Y-57535714D01*
X65226190Y-57488095D01*
X65273809Y-57440476D01*
X65321428Y-57345238D01*
X65321428Y-57154761D01*
X65273809Y-57059523D01*
X65226190Y-57011904D01*
X65130952Y-56964285D01*
X71833333Y-56952380D02*
X71500000Y-56476190D01*
X71261904Y-56952380D02*
X71261904Y-55952380D01*
X71642857Y-55952380D01*
X71738095Y-56000000D01*
X71785714Y-56047619D01*
X71833333Y-56142857D01*
X71833333Y-56285714D01*
X71785714Y-56380952D01*
X71738095Y-56428571D01*
X71642857Y-56476190D01*
X71261904Y-56476190D01*
X72404761Y-56380952D02*
X72309523Y-56333333D01*
X72261904Y-56285714D01*
X72214285Y-56190476D01*
X72214285Y-56142857D01*
X72261904Y-56047619D01*
X72309523Y-56000000D01*
X72404761Y-55952380D01*
X72595238Y-55952380D01*
X72690476Y-56000000D01*
X72738095Y-56047619D01*
X72785714Y-56142857D01*
X72785714Y-56190476D01*
X72738095Y-56285714D01*
X72690476Y-56333333D01*
X72595238Y-56380952D01*
X72404761Y-56380952D01*
X72309523Y-56428571D01*
X72261904Y-56476190D01*
X72214285Y-56571428D01*
X72214285Y-56761904D01*
X72261904Y-56857142D01*
X72309523Y-56904761D01*
X72404761Y-56952380D01*
X72595238Y-56952380D01*
X72690476Y-56904761D01*
X72738095Y-56857142D01*
X72785714Y-56761904D01*
X72785714Y-56571428D01*
X72738095Y-56476190D01*
X72690476Y-56428571D01*
X72595238Y-56380952D01*
X83202380Y-57166666D02*
X82726190Y-57500000D01*
X83202380Y-57738095D02*
X82202380Y-57738095D01*
X82202380Y-57357142D01*
X82250000Y-57261904D01*
X82297619Y-57214285D01*
X82392857Y-57166666D01*
X82535714Y-57166666D01*
X82630952Y-57214285D01*
X82678571Y-57261904D01*
X82726190Y-57357142D01*
X82726190Y-57738095D01*
X82202380Y-56833333D02*
X82202380Y-56166666D01*
X83202380Y-56595238D01*
X88202380Y-57166666D02*
X87726190Y-57500000D01*
X88202380Y-57738095D02*
X87202380Y-57738095D01*
X87202380Y-57357142D01*
X87250000Y-57261904D01*
X87297619Y-57214285D01*
X87392857Y-57166666D01*
X87535714Y-57166666D01*
X87630952Y-57214285D01*
X87678571Y-57261904D01*
X87726190Y-57357142D01*
X87726190Y-57738095D01*
X87202380Y-56309523D02*
X87202380Y-56500000D01*
X87250000Y-56595238D01*
X87297619Y-56642857D01*
X87440476Y-56738095D01*
X87630952Y-56785714D01*
X88011904Y-56785714D01*
X88107142Y-56738095D01*
X88154761Y-56690476D01*
X88202380Y-56595238D01*
X88202380Y-56404761D01*
X88154761Y-56309523D01*
X88107142Y-56261904D01*
X88011904Y-56214285D01*
X87773809Y-56214285D01*
X87678571Y-56261904D01*
X87630952Y-56309523D01*
X87583333Y-56404761D01*
X87583333Y-56595238D01*
X87630952Y-56690476D01*
X87678571Y-56738095D01*
X87773809Y-56785714D01*
X93202380Y-57166666D02*
X92726190Y-57500000D01*
X93202380Y-57738095D02*
X92202380Y-57738095D01*
X92202380Y-57357142D01*
X92250000Y-57261904D01*
X92297619Y-57214285D01*
X92392857Y-57166666D01*
X92535714Y-57166666D01*
X92630952Y-57214285D01*
X92678571Y-57261904D01*
X92726190Y-57357142D01*
X92726190Y-57738095D01*
X92535714Y-56309523D02*
X93202380Y-56309523D01*
X92154761Y-56547619D02*
X92869047Y-56785714D01*
X92869047Y-56166666D01*
X69452380Y-97666666D02*
X68976190Y-98000000D01*
X69452380Y-98238095D02*
X68452380Y-98238095D01*
X68452380Y-97857142D01*
X68500000Y-97761904D01*
X68547619Y-97714285D01*
X68642857Y-97666666D01*
X68785714Y-97666666D01*
X68880952Y-97714285D01*
X68928571Y-97761904D01*
X68976190Y-97857142D01*
X68976190Y-98238095D01*
X68547619Y-97285714D02*
X68500000Y-97238095D01*
X68452380Y-97142857D01*
X68452380Y-96904761D01*
X68500000Y-96809523D01*
X68547619Y-96761904D01*
X68642857Y-96714285D01*
X68738095Y-96714285D01*
X68880952Y-96761904D01*
X69452380Y-97333333D01*
X69452380Y-96714285D01*
X64952380Y-95666666D02*
X64476190Y-96000000D01*
X64952380Y-96238095D02*
X63952380Y-96238095D01*
X63952380Y-95857142D01*
X64000000Y-95761904D01*
X64047619Y-95714285D01*
X64142857Y-95666666D01*
X64285714Y-95666666D01*
X64380952Y-95714285D01*
X64428571Y-95761904D01*
X64476190Y-95857142D01*
X64476190Y-96238095D01*
X64952380Y-94714285D02*
X64952380Y-95285714D01*
X64952380Y-95000000D02*
X63952380Y-95000000D01*
X64095238Y-95095238D01*
X64190476Y-95190476D01*
X64238095Y-95285714D01*
X75836666Y-55422380D02*
X75836666Y-56136666D01*
X75789047Y-56279523D01*
X75693809Y-56374761D01*
X75550952Y-56422380D01*
X75455714Y-56422380D01*
X76360476Y-56422380D02*
X76550952Y-56422380D01*
X76646190Y-56374761D01*
X76693809Y-56327142D01*
X76789047Y-56184285D01*
X76836666Y-55993809D01*
X76836666Y-55612857D01*
X76789047Y-55517619D01*
X76741428Y-55470000D01*
X76646190Y-55422380D01*
X76455714Y-55422380D01*
X76360476Y-55470000D01*
X76312857Y-55517619D01*
X76265238Y-55612857D01*
X76265238Y-55850952D01*
X76312857Y-55946190D01*
X76360476Y-55993809D01*
X76455714Y-56041428D01*
X76646190Y-56041428D01*
X76741428Y-55993809D01*
X76789047Y-55946190D01*
X76836666Y-55850952D01*
X82882380Y-53738095D02*
X81882380Y-53738095D01*
X81882380Y-53500000D01*
X81930000Y-53357142D01*
X82025238Y-53261904D01*
X82120476Y-53214285D01*
X82310952Y-53166666D01*
X82453809Y-53166666D01*
X82644285Y-53214285D01*
X82739523Y-53261904D01*
X82834761Y-53357142D01*
X82882380Y-53500000D01*
X82882380Y-53738095D01*
X81882380Y-52833333D02*
X81882380Y-52214285D01*
X82263333Y-52547619D01*
X82263333Y-52404761D01*
X82310952Y-52309523D01*
X82358571Y-52261904D01*
X82453809Y-52214285D01*
X82691904Y-52214285D01*
X82787142Y-52261904D01*
X82834761Y-52309523D01*
X82882380Y-52404761D01*
X82882380Y-52690476D01*
X82834761Y-52785714D01*
X82787142Y-52833333D01*
X87882380Y-53738095D02*
X86882380Y-53738095D01*
X86882380Y-53500000D01*
X86930000Y-53357142D01*
X87025238Y-53261904D01*
X87120476Y-53214285D01*
X87310952Y-53166666D01*
X87453809Y-53166666D01*
X87644285Y-53214285D01*
X87739523Y-53261904D01*
X87834761Y-53357142D01*
X87882380Y-53500000D01*
X87882380Y-53738095D01*
X86977619Y-52785714D02*
X86930000Y-52738095D01*
X86882380Y-52642857D01*
X86882380Y-52404761D01*
X86930000Y-52309523D01*
X86977619Y-52261904D01*
X87072857Y-52214285D01*
X87168095Y-52214285D01*
X87310952Y-52261904D01*
X87882380Y-52833333D01*
X87882380Y-52214285D01*
X92882380Y-53738095D02*
X91882380Y-53738095D01*
X91882380Y-53500000D01*
X91930000Y-53357142D01*
X92025238Y-53261904D01*
X92120476Y-53214285D01*
X92310952Y-53166666D01*
X92453809Y-53166666D01*
X92644285Y-53214285D01*
X92739523Y-53261904D01*
X92834761Y-53357142D01*
X92882380Y-53500000D01*
X92882380Y-53738095D01*
X92882380Y-52214285D02*
X92882380Y-52785714D01*
X92882380Y-52500000D02*
X91882380Y-52500000D01*
X92025238Y-52595238D01*
X92120476Y-52690476D01*
X92168095Y-52785714D01*
X61857142Y-65642857D02*
X61904761Y-65690476D01*
X61952380Y-65833333D01*
X61952380Y-65928571D01*
X61904761Y-66071428D01*
X61809523Y-66166666D01*
X61714285Y-66214285D01*
X61523809Y-66261904D01*
X61380952Y-66261904D01*
X61190476Y-66214285D01*
X61095238Y-66166666D01*
X61000000Y-66071428D01*
X60952380Y-65928571D01*
X60952380Y-65833333D01*
X61000000Y-65690476D01*
X61047619Y-65642857D01*
X61952380Y-64690476D02*
X61952380Y-65261904D01*
X61952380Y-64976190D02*
X60952380Y-64976190D01*
X61095238Y-65071428D01*
X61190476Y-65166666D01*
X61238095Y-65261904D01*
X61952380Y-63738095D02*
X61952380Y-64309523D01*
X61952380Y-64023809D02*
X60952380Y-64023809D01*
X61095238Y-64119047D01*
X61190476Y-64214285D01*
X61238095Y-64309523D01*
X58857142Y-58357142D02*
X58809523Y-58404761D01*
X58666666Y-58452380D01*
X58571428Y-58452380D01*
X58428571Y-58404761D01*
X58333333Y-58309523D01*
X58285714Y-58214285D01*
X58238095Y-58023809D01*
X58238095Y-57880952D01*
X58285714Y-57690476D01*
X58333333Y-57595238D01*
X58428571Y-57500000D01*
X58571428Y-57452380D01*
X58666666Y-57452380D01*
X58809523Y-57500000D01*
X58857142Y-57547619D01*
X59809523Y-58452380D02*
X59238095Y-58452380D01*
X59523809Y-58452380D02*
X59523809Y-57452380D01*
X59428571Y-57595238D01*
X59333333Y-57690476D01*
X59238095Y-57738095D01*
X60428571Y-57452380D02*
X60523809Y-57452380D01*
X60619047Y-57500000D01*
X60666666Y-57547619D01*
X60714285Y-57642857D01*
X60761904Y-57833333D01*
X60761904Y-58071428D01*
X60714285Y-58261904D01*
X60666666Y-58357142D01*
X60619047Y-58404761D01*
X60523809Y-58452380D01*
X60428571Y-58452380D01*
X60333333Y-58404761D01*
X60285714Y-58357142D01*
X60238095Y-58261904D01*
X60190476Y-58071428D01*
X60190476Y-57833333D01*
X60238095Y-57642857D01*
X60285714Y-57547619D01*
X60333333Y-57500000D01*
X60428571Y-57452380D01*
X93857142Y-99666666D02*
X93904761Y-99714285D01*
X93952380Y-99857142D01*
X93952380Y-99952380D01*
X93904761Y-100095238D01*
X93809523Y-100190476D01*
X93714285Y-100238095D01*
X93523809Y-100285714D01*
X93380952Y-100285714D01*
X93190476Y-100238095D01*
X93095238Y-100190476D01*
X93000000Y-100095238D01*
X92952380Y-99952380D01*
X92952380Y-99857142D01*
X93000000Y-99714285D01*
X93047619Y-99666666D01*
X92952380Y-98809523D02*
X92952380Y-99000000D01*
X93000000Y-99095238D01*
X93047619Y-99142857D01*
X93190476Y-99238095D01*
X93380952Y-99285714D01*
X93761904Y-99285714D01*
X93857142Y-99238095D01*
X93904761Y-99190476D01*
X93952380Y-99095238D01*
X93952380Y-98904761D01*
X93904761Y-98809523D01*
X93857142Y-98761904D01*
X93761904Y-98714285D01*
X93523809Y-98714285D01*
X93428571Y-98761904D01*
X93380952Y-98809523D01*
X93333333Y-98904761D01*
X93333333Y-99095238D01*
X93380952Y-99190476D01*
X93428571Y-99238095D01*
X93523809Y-99285714D01*
X71107142Y-99416666D02*
X71154761Y-99464285D01*
X71202380Y-99607142D01*
X71202380Y-99702380D01*
X71154761Y-99845238D01*
X71059523Y-99940476D01*
X70964285Y-99988095D01*
X70773809Y-100035714D01*
X70630952Y-100035714D01*
X70440476Y-99988095D01*
X70345238Y-99940476D01*
X70250000Y-99845238D01*
X70202380Y-99702380D01*
X70202380Y-99607142D01*
X70250000Y-99464285D01*
X70297619Y-99416666D01*
X70202380Y-98511904D02*
X70202380Y-98988095D01*
X70678571Y-99035714D01*
X70630952Y-98988095D01*
X70583333Y-98892857D01*
X70583333Y-98654761D01*
X70630952Y-98559523D01*
X70678571Y-98511904D01*
X70773809Y-98464285D01*
X71011904Y-98464285D01*
X71107142Y-98511904D01*
X71154761Y-98559523D01*
X71202380Y-98654761D01*
X71202380Y-98892857D01*
X71154761Y-98988095D01*
X71107142Y-99035714D01*
X82427142Y-69166666D02*
X82474761Y-69214285D01*
X82522380Y-69357142D01*
X82522380Y-69452380D01*
X82474761Y-69595238D01*
X82379523Y-69690476D01*
X82284285Y-69738095D01*
X82093809Y-69785714D01*
X81950952Y-69785714D01*
X81760476Y-69738095D01*
X81665238Y-69690476D01*
X81570000Y-69595238D01*
X81522380Y-69452380D01*
X81522380Y-69357142D01*
X81570000Y-69214285D01*
X81617619Y-69166666D01*
X81522380Y-68833333D02*
X81522380Y-68214285D01*
X81903333Y-68547619D01*
X81903333Y-68404761D01*
X81950952Y-68309523D01*
X81998571Y-68261904D01*
X82093809Y-68214285D01*
X82331904Y-68214285D01*
X82427142Y-68261904D01*
X82474761Y-68309523D01*
X82522380Y-68404761D01*
X82522380Y-68690476D01*
X82474761Y-68785714D01*
X82427142Y-68833333D01*
X89257142Y-69304166D02*
X89304761Y-69351785D01*
X89352380Y-69494642D01*
X89352380Y-69589880D01*
X89304761Y-69732738D01*
X89209523Y-69827976D01*
X89114285Y-69875595D01*
X88923809Y-69923214D01*
X88780952Y-69923214D01*
X88590476Y-69875595D01*
X88495238Y-69827976D01*
X88400000Y-69732738D01*
X88352380Y-69589880D01*
X88352380Y-69494642D01*
X88400000Y-69351785D01*
X88447619Y-69304166D01*
X88447619Y-68923214D02*
X88400000Y-68875595D01*
X88352380Y-68780357D01*
X88352380Y-68542261D01*
X88400000Y-68447023D01*
X88447619Y-68399404D01*
X88542857Y-68351785D01*
X88638095Y-68351785D01*
X88780952Y-68399404D01*
X89352380Y-68970833D01*
X89352380Y-68351785D01*
X64936666Y-73952380D02*
X64936666Y-74666666D01*
X64889047Y-74809523D01*
X64793809Y-74904761D01*
X64650952Y-74952380D01*
X64555714Y-74952380D01*
X65555714Y-74380952D02*
X65460476Y-74333333D01*
X65412857Y-74285714D01*
X65365238Y-74190476D01*
X65365238Y-74142857D01*
X65412857Y-74047619D01*
X65460476Y-74000000D01*
X65555714Y-73952380D01*
X65746190Y-73952380D01*
X65841428Y-74000000D01*
X65889047Y-74047619D01*
X65936666Y-74142857D01*
X65936666Y-74190476D01*
X65889047Y-74285714D01*
X65841428Y-74333333D01*
X65746190Y-74380952D01*
X65555714Y-74380952D01*
X65460476Y-74428571D01*
X65412857Y-74476190D01*
X65365238Y-74571428D01*
X65365238Y-74761904D01*
X65412857Y-74857142D01*
X65460476Y-74904761D01*
X65555714Y-74952380D01*
X65746190Y-74952380D01*
X65841428Y-74904761D01*
X65889047Y-74857142D01*
X65936666Y-74761904D01*
X65936666Y-74571428D01*
X65889047Y-74476190D01*
X65841428Y-74428571D01*
X65746190Y-74380952D01*
X57666666Y-74452380D02*
X57666666Y-75166666D01*
X57619047Y-75309523D01*
X57523809Y-75404761D01*
X57380952Y-75452380D01*
X57285714Y-75452380D01*
X58047619Y-74452380D02*
X58714285Y-74452380D01*
X58285714Y-75452380D01*
X94952380Y-108333333D02*
X95666666Y-108333333D01*
X95809523Y-108380952D01*
X95904761Y-108476190D01*
X95952380Y-108619047D01*
X95952380Y-108714285D01*
X94952380Y-107380952D02*
X94952380Y-107857142D01*
X95428571Y-107904761D01*
X95380952Y-107857142D01*
X95333333Y-107761904D01*
X95333333Y-107523809D01*
X95380952Y-107428571D01*
X95428571Y-107380952D01*
X95523809Y-107333333D01*
X95761904Y-107333333D01*
X95857142Y-107380952D01*
X95904761Y-107428571D01*
X95952380Y-107523809D01*
X95952380Y-107761904D01*
X95904761Y-107857142D01*
X95857142Y-107904761D01*
X70952380Y-108333333D02*
X71666666Y-108333333D01*
X71809523Y-108380952D01*
X71904761Y-108476190D01*
X71952380Y-108619047D01*
X71952380Y-108714285D01*
X71285714Y-107428571D02*
X71952380Y-107428571D01*
X70904761Y-107666666D02*
X71619047Y-107904761D01*
X71619047Y-107285714D01*
X96936666Y-70372380D02*
X96936666Y-71086666D01*
X96889047Y-71229523D01*
X96793809Y-71324761D01*
X96650952Y-71372380D01*
X96555714Y-71372380D01*
X97317619Y-70372380D02*
X97936666Y-70372380D01*
X97603333Y-70753333D01*
X97746190Y-70753333D01*
X97841428Y-70800952D01*
X97889047Y-70848571D01*
X97936666Y-70943809D01*
X97936666Y-71181904D01*
X97889047Y-71277142D01*
X97841428Y-71324761D01*
X97746190Y-71372380D01*
X97460476Y-71372380D01*
X97365238Y-71324761D01*
X97317619Y-71277142D01*
X81452380Y-108333333D02*
X82166666Y-108333333D01*
X82309523Y-108380952D01*
X82404761Y-108476190D01*
X82452380Y-108619047D01*
X82452380Y-108714285D01*
X81547619Y-107904761D02*
X81500000Y-107857142D01*
X81452380Y-107761904D01*
X81452380Y-107523809D01*
X81500000Y-107428571D01*
X81547619Y-107380952D01*
X81642857Y-107333333D01*
X81738095Y-107333333D01*
X81880952Y-107380952D01*
X82452380Y-107952380D01*
X82452380Y-107333333D01*
X94777109Y-54929082D02*
X95492773Y-54929082D01*
X95635905Y-54976793D01*
X95731327Y-55072215D01*
X95779038Y-55215347D01*
X95779038Y-55310769D01*
X95779038Y-53927153D02*
X95779038Y-54499684D01*
X95779038Y-54213418D02*
X94777109Y-54213418D01*
X94920242Y-54308840D01*
X95015664Y-54404262D01*
X95063375Y-54499684D01*
%LPC*%
D17*
X75500000Y-53250000D03*
X58000000Y-87500000D03*
X101500000Y-103000000D03*
D18*
X58700000Y-51500000D03*
X65300000Y-51500000D03*
D19*
X60800000Y-51500000D03*
X63200000Y-51500000D03*
D20*
X58800000Y-53950000D03*
X65200000Y-53950000D03*
D21*
X60700000Y-54175000D03*
X61350000Y-54175000D03*
X62000000Y-54175000D03*
X62650000Y-54175000D03*
X63300000Y-54175000D03*
D22*
X70400000Y-53100000D03*
X69000000Y-52600000D03*
X70400000Y-52100000D03*
X69000000Y-53100000D03*
X69000000Y-52100000D03*
D23*
X85500000Y-64050000D03*
D24*
X85950000Y-69600000D03*
X85050000Y-69600000D03*
D25*
X63900000Y-101275000D03*
X63900000Y-101925000D03*
X63900000Y-102575000D03*
X63900000Y-103225000D03*
X59600000Y-103225000D03*
X59600000Y-102575000D03*
X59600000Y-101925000D03*
X59600000Y-101275000D03*
D26*
X94100000Y-65500000D03*
D27*
X99900000Y-63200000D03*
X99900000Y-65500000D03*
X99900000Y-67800000D03*
G36*
G01*
X61100000Y-105049999D02*
X61100000Y-105950001D01*
G75*
G02*
X60850001Y-106200000I-249999J0D01*
G01*
X60149999Y-106200000D01*
G75*
G02*
X59900000Y-105950001I0J249999D01*
G01*
X59900000Y-105049999D01*
G75*
G02*
X60149999Y-104800000I249999J0D01*
G01*
X60850001Y-104800000D01*
G75*
G02*
X61100000Y-105049999I0J-249999D01*
G01*
G37*
G36*
G01*
X63100000Y-105049999D02*
X63100000Y-105950001D01*
G75*
G02*
X62850001Y-106200000I-249999J0D01*
G01*
X62149999Y-106200000D01*
G75*
G02*
X61900000Y-105950001I0J249999D01*
G01*
X61900000Y-105049999D01*
G75*
G02*
X62149999Y-104800000I249999J0D01*
G01*
X62850001Y-104800000D01*
G75*
G02*
X63100000Y-105049999I0J-249999D01*
G01*
G37*
D28*
X67750000Y-104500000D03*
D29*
X67750000Y-102500000D03*
G36*
G01*
X57099999Y-64150000D02*
X58400001Y-64150000D01*
G75*
G02*
X58650000Y-64399999I0J-249999D01*
G01*
X58650000Y-65225001D01*
G75*
G02*
X58400001Y-65475000I-249999J0D01*
G01*
X57099999Y-65475000D01*
G75*
G02*
X56850000Y-65225001I0J249999D01*
G01*
X56850000Y-64399999D01*
G75*
G02*
X57099999Y-64150000I249999J0D01*
G01*
G37*
G36*
G01*
X57099999Y-61025000D02*
X58400001Y-61025000D01*
G75*
G02*
X58650000Y-61274999I0J-249999D01*
G01*
X58650000Y-62100001D01*
G75*
G02*
X58400001Y-62350000I-249999J0D01*
G01*
X57099999Y-62350000D01*
G75*
G02*
X56850000Y-62100001I0J249999D01*
G01*
X56850000Y-61274999D01*
G75*
G02*
X57099999Y-61025000I249999J0D01*
G01*
G37*
G36*
G01*
X99950000Y-60975000D02*
X99950000Y-60025000D01*
G75*
G02*
X100200000Y-59775000I250000J0D01*
G01*
X100875000Y-59775000D01*
G75*
G02*
X101125000Y-60025000I0J-250000D01*
G01*
X101125000Y-60975000D01*
G75*
G02*
X100875000Y-61225000I-250000J0D01*
G01*
X100200000Y-61225000D01*
G75*
G02*
X99950000Y-60975000I0J250000D01*
G01*
G37*
G36*
G01*
X97875000Y-60975000D02*
X97875000Y-60025000D01*
G75*
G02*
X98125000Y-59775000I250000J0D01*
G01*
X98800000Y-59775000D01*
G75*
G02*
X99050000Y-60025000I0J-250000D01*
G01*
X99050000Y-60975000D01*
G75*
G02*
X98800000Y-61225000I-250000J0D01*
G01*
X98125000Y-61225000D01*
G75*
G02*
X97875000Y-60975000I0J250000D01*
G01*
G37*
G36*
G01*
X95950000Y-60975000D02*
X95950000Y-60025000D01*
G75*
G02*
X96200000Y-59775000I250000J0D01*
G01*
X96875000Y-59775000D01*
G75*
G02*
X97125000Y-60025000I0J-250000D01*
G01*
X97125000Y-60975000D01*
G75*
G02*
X96875000Y-61225000I-250000J0D01*
G01*
X96200000Y-61225000D01*
G75*
G02*
X95950000Y-60975000I0J250000D01*
G01*
G37*
G36*
G01*
X93875000Y-60975000D02*
X93875000Y-60025000D01*
G75*
G02*
X94125000Y-59775000I250000J0D01*
G01*
X94800000Y-59775000D01*
G75*
G02*
X95050000Y-60025000I0J-250000D01*
G01*
X95050000Y-60975000D01*
G75*
G02*
X94800000Y-61225000I-250000J0D01*
G01*
X94125000Y-61225000D01*
G75*
G02*
X93875000Y-60975000I0J250000D01*
G01*
G37*
G36*
G01*
X57762500Y-104075000D02*
X58237500Y-104075000D01*
G75*
G02*
X58475000Y-104312500I0J-237500D01*
G01*
X58475000Y-104912500D01*
G75*
G02*
X58237500Y-105150000I-237500J0D01*
G01*
X57762500Y-105150000D01*
G75*
G02*
X57525000Y-104912500I0J237500D01*
G01*
X57525000Y-104312500D01*
G75*
G02*
X57762500Y-104075000I237500J0D01*
G01*
G37*
G36*
G01*
X57762500Y-102350000D02*
X58237500Y-102350000D01*
G75*
G02*
X58475000Y-102587500I0J-237500D01*
G01*
X58475000Y-103187500D01*
G75*
G02*
X58237500Y-103425000I-237500J0D01*
G01*
X57762500Y-103425000D01*
G75*
G02*
X57525000Y-103187500I0J237500D01*
G01*
X57525000Y-102587500D01*
G75*
G02*
X57762500Y-102350000I237500J0D01*
G01*
G37*
D30*
X63000000Y-61000000D03*
D31*
X61999999Y-59577600D03*
X62500001Y-59577600D03*
X63000000Y-59577600D03*
X63499999Y-59577600D03*
X64000001Y-59577600D03*
X64000001Y-62422400D03*
X63499999Y-62422400D03*
X63000000Y-62422400D03*
X62500001Y-62422400D03*
X61999999Y-62422400D03*
D32*
X56699300Y-94000000D03*
X63300700Y-94000000D03*
D33*
X97000000Y-94949300D03*
X97000000Y-101550700D03*
D34*
X82340000Y-87550000D03*
X83840000Y-87550000D03*
X82340000Y-89050000D03*
X83840000Y-89050000D03*
X82340000Y-90550000D03*
X83840000Y-90550000D03*
X81590000Y-88300000D03*
X83090000Y-88300000D03*
X84590000Y-88300000D03*
X81590000Y-89800000D03*
X84590000Y-89800000D03*
X83090000Y-89800000D03*
D35*
X81590000Y-90550000D03*
X83090000Y-90550000D03*
X84590000Y-90550000D03*
X81590000Y-87550000D03*
X83090000Y-87550000D03*
X84590000Y-87550000D03*
X81590000Y-89050000D03*
X84590000Y-89050000D03*
D36*
X75150000Y-73850000D03*
X76650000Y-73850000D03*
X78150000Y-73850000D03*
X79650000Y-73850000D03*
X81150000Y-73850000D03*
X82650000Y-73850000D03*
X84150000Y-73850000D03*
X85650000Y-73850000D03*
X87150000Y-73850000D03*
X88650000Y-73850000D03*
D37*
X73150000Y-74600000D03*
X73150000Y-76100000D03*
X73150000Y-77600000D03*
X73150000Y-79100000D03*
X73150000Y-80600000D03*
X73150000Y-82100000D03*
X73150000Y-83600000D03*
X73150000Y-85100000D03*
X73150000Y-86600000D03*
X73150000Y-88100000D03*
X73150000Y-89600000D03*
X73150000Y-91100000D03*
X73150000Y-92600000D03*
X73150000Y-94100000D03*
X73150000Y-95600000D03*
X73150000Y-97100000D03*
X90650000Y-74600000D03*
X90650000Y-76100000D03*
X90650000Y-77600000D03*
X90650000Y-79100000D03*
X90650000Y-80600000D03*
X90650000Y-82100000D03*
X90650000Y-83600000D03*
X90650000Y-85100000D03*
X90650000Y-86600000D03*
X90650000Y-88100000D03*
X90650000Y-89600000D03*
X90650000Y-91100000D03*
X90650000Y-92600000D03*
X90650000Y-94100000D03*
X90650000Y-95600000D03*
X90650000Y-97100000D03*
D35*
X83090000Y-89050000D03*
D38*
X64750000Y-67500000D03*
D39*
X63353000Y-68250001D03*
X63353000Y-67750000D03*
X63353000Y-67250000D03*
X63353000Y-66749999D03*
D40*
X63499050Y-66249050D03*
D41*
X63999999Y-66103000D03*
X64500000Y-66103000D03*
X65000000Y-66103000D03*
X65500001Y-66103000D03*
D40*
X66000950Y-66249050D03*
D39*
X66147000Y-66749999D03*
X66147000Y-67250000D03*
X66147000Y-67750000D03*
X66147000Y-68250001D03*
D40*
X66000950Y-68750950D03*
D41*
X65500001Y-68897000D03*
X65000000Y-68897000D03*
X64500000Y-68897000D03*
X63999999Y-68897000D03*
D40*
X63499050Y-68750950D03*
G36*
G01*
X70450001Y-87100000D02*
X69549999Y-87100000D01*
G75*
G02*
X69300000Y-86850001I0J249999D01*
G01*
X69300000Y-86149999D01*
G75*
G02*
X69549999Y-85900000I249999J0D01*
G01*
X70450001Y-85900000D01*
G75*
G02*
X70700000Y-86149999I0J-249999D01*
G01*
X70700000Y-86850001D01*
G75*
G02*
X70450001Y-87100000I-249999J0D01*
G01*
G37*
G36*
G01*
X70450001Y-89100000D02*
X69549999Y-89100000D01*
G75*
G02*
X69300000Y-88850001I0J249999D01*
G01*
X69300000Y-88149999D01*
G75*
G02*
X69549999Y-87900000I249999J0D01*
G01*
X70450001Y-87900000D01*
G75*
G02*
X70700000Y-88149999I0J-249999D01*
G01*
X70700000Y-88850001D01*
G75*
G02*
X70450001Y-89100000I-249999J0D01*
G01*
G37*
G36*
G01*
X70450001Y-80600000D02*
X69549999Y-80600000D01*
G75*
G02*
X69300000Y-80350001I0J249999D01*
G01*
X69300000Y-79649999D01*
G75*
G02*
X69549999Y-79400000I249999J0D01*
G01*
X70450001Y-79400000D01*
G75*
G02*
X70700000Y-79649999I0J-249999D01*
G01*
X70700000Y-80350001D01*
G75*
G02*
X70450001Y-80600000I-249999J0D01*
G01*
G37*
G36*
G01*
X70450001Y-82600000D02*
X69549999Y-82600000D01*
G75*
G02*
X69300000Y-82350001I0J249999D01*
G01*
X69300000Y-81649999D01*
G75*
G02*
X69549999Y-81400000I249999J0D01*
G01*
X70450001Y-81400000D01*
G75*
G02*
X70700000Y-81649999I0J-249999D01*
G01*
X70700000Y-82350001D01*
G75*
G02*
X70450001Y-82600000I-249999J0D01*
G01*
G37*
G36*
G01*
X94400000Y-93450001D02*
X94400000Y-92549999D01*
G75*
G02*
X94649999Y-92300000I249999J0D01*
G01*
X95350001Y-92300000D01*
G75*
G02*
X95600000Y-92549999I0J-249999D01*
G01*
X95600000Y-93450001D01*
G75*
G02*
X95350001Y-93700000I-249999J0D01*
G01*
X94649999Y-93700000D01*
G75*
G02*
X94400000Y-93450001I0J249999D01*
G01*
G37*
G36*
G01*
X92400000Y-93450001D02*
X92400000Y-92549999D01*
G75*
G02*
X92649999Y-92300000I249999J0D01*
G01*
X93350001Y-92300000D01*
G75*
G02*
X93600000Y-92549999I0J-249999D01*
G01*
X93600000Y-93450001D01*
G75*
G02*
X93350001Y-93700000I-249999J0D01*
G01*
X92649999Y-93700000D01*
G75*
G02*
X92400000Y-93450001I0J249999D01*
G01*
G37*
G36*
G01*
X66399999Y-62750000D02*
X67300001Y-62750000D01*
G75*
G02*
X67550000Y-62999999I0J-249999D01*
G01*
X67550000Y-63700001D01*
G75*
G02*
X67300001Y-63950000I-249999J0D01*
G01*
X66399999Y-63950000D01*
G75*
G02*
X66150000Y-63700001I0J249999D01*
G01*
X66150000Y-62999999D01*
G75*
G02*
X66399999Y-62750000I249999J0D01*
G01*
G37*
G36*
G01*
X66399999Y-60750000D02*
X67300001Y-60750000D01*
G75*
G02*
X67550000Y-60999999I0J-249999D01*
G01*
X67550000Y-61700001D01*
G75*
G02*
X67300001Y-61950000I-249999J0D01*
G01*
X66399999Y-61950000D01*
G75*
G02*
X66150000Y-61700001I0J249999D01*
G01*
X66150000Y-60999999D01*
G75*
G02*
X66399999Y-60750000I249999J0D01*
G01*
G37*
G36*
G01*
X66399999Y-58850000D02*
X67300001Y-58850000D01*
G75*
G02*
X67550000Y-59099999I0J-249999D01*
G01*
X67550000Y-59800001D01*
G75*
G02*
X67300001Y-60050000I-249999J0D01*
G01*
X66399999Y-60050000D01*
G75*
G02*
X66150000Y-59800001I0J249999D01*
G01*
X66150000Y-59099999D01*
G75*
G02*
X66399999Y-58850000I249999J0D01*
G01*
G37*
G36*
G01*
X66399999Y-56850000D02*
X67300001Y-56850000D01*
G75*
G02*
X67550000Y-57099999I0J-249999D01*
G01*
X67550000Y-57800001D01*
G75*
G02*
X67300001Y-58050000I-249999J0D01*
G01*
X66399999Y-58050000D01*
G75*
G02*
X66150000Y-57800001I0J249999D01*
G01*
X66150000Y-57099999D01*
G75*
G02*
X66399999Y-56850000I249999J0D01*
G01*
G37*
G36*
G01*
X69900000Y-57849999D02*
X69900000Y-58750001D01*
G75*
G02*
X69650001Y-59000000I-249999J0D01*
G01*
X68949999Y-59000000D01*
G75*
G02*
X68700000Y-58750001I0J249999D01*
G01*
X68700000Y-57849999D01*
G75*
G02*
X68949999Y-57600000I249999J0D01*
G01*
X69650001Y-57600000D01*
G75*
G02*
X69900000Y-57849999I0J-249999D01*
G01*
G37*
G36*
G01*
X71900000Y-57849999D02*
X71900000Y-58750001D01*
G75*
G02*
X71650001Y-59000000I-249999J0D01*
G01*
X70949999Y-59000000D01*
G75*
G02*
X70700000Y-58750001I0J249999D01*
G01*
X70700000Y-57849999D01*
G75*
G02*
X70949999Y-57600000I249999J0D01*
G01*
X71650001Y-57600000D01*
G75*
G02*
X71900000Y-57849999I0J-249999D01*
G01*
G37*
G36*
G01*
X81450001Y-56600000D02*
X80549999Y-56600000D01*
G75*
G02*
X80300000Y-56350001I0J249999D01*
G01*
X80300000Y-55649999D01*
G75*
G02*
X80549999Y-55400000I249999J0D01*
G01*
X81450001Y-55400000D01*
G75*
G02*
X81700000Y-55649999I0J-249999D01*
G01*
X81700000Y-56350001D01*
G75*
G02*
X81450001Y-56600000I-249999J0D01*
G01*
G37*
G36*
G01*
X81450001Y-58600000D02*
X80549999Y-58600000D01*
G75*
G02*
X80300000Y-58350001I0J249999D01*
G01*
X80300000Y-57649999D01*
G75*
G02*
X80549999Y-57400000I249999J0D01*
G01*
X81450001Y-57400000D01*
G75*
G02*
X81700000Y-57649999I0J-249999D01*
G01*
X81700000Y-58350001D01*
G75*
G02*
X81450001Y-58600000I-249999J0D01*
G01*
G37*
G36*
G01*
X86450001Y-56512500D02*
X85549999Y-56512500D01*
G75*
G02*
X85300000Y-56262501I0J249999D01*
G01*
X85300000Y-55562499D01*
G75*
G02*
X85549999Y-55312500I249999J0D01*
G01*
X86450001Y-55312500D01*
G75*
G02*
X86700000Y-55562499I0J-249999D01*
G01*
X86700000Y-56262501D01*
G75*
G02*
X86450001Y-56512500I-249999J0D01*
G01*
G37*
G36*
G01*
X86450001Y-58512500D02*
X85549999Y-58512500D01*
G75*
G02*
X85300000Y-58262501I0J249999D01*
G01*
X85300000Y-57562499D01*
G75*
G02*
X85549999Y-57312500I249999J0D01*
G01*
X86450001Y-57312500D01*
G75*
G02*
X86700000Y-57562499I0J-249999D01*
G01*
X86700000Y-58262501D01*
G75*
G02*
X86450001Y-58512500I-249999J0D01*
G01*
G37*
G36*
G01*
X91450001Y-56600000D02*
X90549999Y-56600000D01*
G75*
G02*
X90300000Y-56350001I0J249999D01*
G01*
X90300000Y-55649999D01*
G75*
G02*
X90549999Y-55400000I249999J0D01*
G01*
X91450001Y-55400000D01*
G75*
G02*
X91700000Y-55649999I0J-249999D01*
G01*
X91700000Y-56350001D01*
G75*
G02*
X91450001Y-56600000I-249999J0D01*
G01*
G37*
G36*
G01*
X91450001Y-58600000D02*
X90549999Y-58600000D01*
G75*
G02*
X90300000Y-58350001I0J249999D01*
G01*
X90300000Y-57649999D01*
G75*
G02*
X90549999Y-57400000I249999J0D01*
G01*
X91450001Y-57400000D01*
G75*
G02*
X91700000Y-57649999I0J-249999D01*
G01*
X91700000Y-58350001D01*
G75*
G02*
X91450001Y-58600000I-249999J0D01*
G01*
G37*
G36*
G01*
X68299999Y-94900000D02*
X69200001Y-94900000D01*
G75*
G02*
X69450000Y-95149999I0J-249999D01*
G01*
X69450000Y-95850001D01*
G75*
G02*
X69200001Y-96100000I-249999J0D01*
G01*
X68299999Y-96100000D01*
G75*
G02*
X68050000Y-95850001I0J249999D01*
G01*
X68050000Y-95149999D01*
G75*
G02*
X68299999Y-94900000I249999J0D01*
G01*
G37*
G36*
G01*
X68299999Y-92900000D02*
X69200001Y-92900000D01*
G75*
G02*
X69450000Y-93149999I0J-249999D01*
G01*
X69450000Y-93850001D01*
G75*
G02*
X69200001Y-94100000I-249999J0D01*
G01*
X68299999Y-94100000D01*
G75*
G02*
X68050000Y-93850001I0J249999D01*
G01*
X68050000Y-93149999D01*
G75*
G02*
X68299999Y-92900000I249999J0D01*
G01*
G37*
G36*
G01*
X65799999Y-94900000D02*
X66700001Y-94900000D01*
G75*
G02*
X66950000Y-95149999I0J-249999D01*
G01*
X66950000Y-95850001D01*
G75*
G02*
X66700001Y-96100000I-249999J0D01*
G01*
X65799999Y-96100000D01*
G75*
G02*
X65550000Y-95850001I0J249999D01*
G01*
X65550000Y-95149999D01*
G75*
G02*
X65799999Y-94900000I249999J0D01*
G01*
G37*
G36*
G01*
X65799999Y-92900000D02*
X66700001Y-92900000D01*
G75*
G02*
X66950000Y-93149999I0J-249999D01*
G01*
X66950000Y-93850001D01*
G75*
G02*
X66700001Y-94100000I-249999J0D01*
G01*
X65799999Y-94100000D01*
G75*
G02*
X65550000Y-93850001I0J249999D01*
G01*
X65550000Y-93149999D01*
G75*
G02*
X65799999Y-92900000I249999J0D01*
G01*
G37*
D42*
X77440000Y-63380000D03*
X74900000Y-63380000D03*
X77440000Y-60840000D03*
X74900000Y-60840000D03*
X77440000Y-58300000D03*
D43*
X74900000Y-58300000D03*
G36*
G01*
X80762500Y-53350000D02*
X81237500Y-53350000D01*
G75*
G02*
X81475000Y-53587500I0J-237500D01*
G01*
X81475000Y-54162500D01*
G75*
G02*
X81237500Y-54400000I-237500J0D01*
G01*
X80762500Y-54400000D01*
G75*
G02*
X80525000Y-54162500I0J237500D01*
G01*
X80525000Y-53587500D01*
G75*
G02*
X80762500Y-53350000I237500J0D01*
G01*
G37*
G36*
G01*
X80762500Y-51600000D02*
X81237500Y-51600000D01*
G75*
G02*
X81475000Y-51837500I0J-237500D01*
G01*
X81475000Y-52412500D01*
G75*
G02*
X81237500Y-52650000I-237500J0D01*
G01*
X80762500Y-52650000D01*
G75*
G02*
X80525000Y-52412500I0J237500D01*
G01*
X80525000Y-51837500D01*
G75*
G02*
X80762500Y-51600000I237500J0D01*
G01*
G37*
G36*
G01*
X85762500Y-53350000D02*
X86237500Y-53350000D01*
G75*
G02*
X86475000Y-53587500I0J-237500D01*
G01*
X86475000Y-54162500D01*
G75*
G02*
X86237500Y-54400000I-237500J0D01*
G01*
X85762500Y-54400000D01*
G75*
G02*
X85525000Y-54162500I0J237500D01*
G01*
X85525000Y-53587500D01*
G75*
G02*
X85762500Y-53350000I237500J0D01*
G01*
G37*
G36*
G01*
X85762500Y-51600000D02*
X86237500Y-51600000D01*
G75*
G02*
X86475000Y-51837500I0J-237500D01*
G01*
X86475000Y-52412500D01*
G75*
G02*
X86237500Y-52650000I-237500J0D01*
G01*
X85762500Y-52650000D01*
G75*
G02*
X85525000Y-52412500I0J237500D01*
G01*
X85525000Y-51837500D01*
G75*
G02*
X85762500Y-51600000I237500J0D01*
G01*
G37*
G36*
G01*
X90762500Y-53350000D02*
X91237500Y-53350000D01*
G75*
G02*
X91475000Y-53587500I0J-237500D01*
G01*
X91475000Y-54162500D01*
G75*
G02*
X91237500Y-54400000I-237500J0D01*
G01*
X90762500Y-54400000D01*
G75*
G02*
X90525000Y-54162500I0J237500D01*
G01*
X90525000Y-53587500D01*
G75*
G02*
X90762500Y-53350000I237500J0D01*
G01*
G37*
G36*
G01*
X90762500Y-51600000D02*
X91237500Y-51600000D01*
G75*
G02*
X91475000Y-51837500I0J-237500D01*
G01*
X91475000Y-52412500D01*
G75*
G02*
X91237500Y-52650000I-237500J0D01*
G01*
X90762500Y-52650000D01*
G75*
G02*
X90525000Y-52412500I0J237500D01*
G01*
X90525000Y-51837500D01*
G75*
G02*
X90762500Y-51600000I237500J0D01*
G01*
G37*
G36*
G01*
X59762500Y-63575000D02*
X60237500Y-63575000D01*
G75*
G02*
X60475000Y-63812500I0J-237500D01*
G01*
X60475000Y-64412500D01*
G75*
G02*
X60237500Y-64650000I-237500J0D01*
G01*
X59762500Y-64650000D01*
G75*
G02*
X59525000Y-64412500I0J237500D01*
G01*
X59525000Y-63812500D01*
G75*
G02*
X59762500Y-63575000I237500J0D01*
G01*
G37*
G36*
G01*
X59762500Y-61850000D02*
X60237500Y-61850000D01*
G75*
G02*
X60475000Y-62087500I0J-237500D01*
G01*
X60475000Y-62687500D01*
G75*
G02*
X60237500Y-62925000I-237500J0D01*
G01*
X59762500Y-62925000D01*
G75*
G02*
X59525000Y-62687500I0J237500D01*
G01*
X59525000Y-62087500D01*
G75*
G02*
X59762500Y-61850000I237500J0D01*
G01*
G37*
G36*
G01*
X58925000Y-59262500D02*
X58925000Y-59737500D01*
G75*
G02*
X58687500Y-59975000I-237500J0D01*
G01*
X58087500Y-59975000D01*
G75*
G02*
X57850000Y-59737500I0J237500D01*
G01*
X57850000Y-59262500D01*
G75*
G02*
X58087500Y-59025000I237500J0D01*
G01*
X58687500Y-59025000D01*
G75*
G02*
X58925000Y-59262500I0J-237500D01*
G01*
G37*
G36*
G01*
X60650000Y-59262500D02*
X60650000Y-59737500D01*
G75*
G02*
X60412500Y-59975000I-237500J0D01*
G01*
X59812500Y-59975000D01*
G75*
G02*
X59575000Y-59737500I0J237500D01*
G01*
X59575000Y-59262500D01*
G75*
G02*
X59812500Y-59025000I237500J0D01*
G01*
X60412500Y-59025000D01*
G75*
G02*
X60650000Y-59262500I0J-237500D01*
G01*
G37*
G36*
G01*
X93737500Y-96175000D02*
X93262500Y-96175000D01*
G75*
G02*
X93025000Y-95937500I0J237500D01*
G01*
X93025000Y-95337500D01*
G75*
G02*
X93262500Y-95100000I237500J0D01*
G01*
X93737500Y-95100000D01*
G75*
G02*
X93975000Y-95337500I0J-237500D01*
G01*
X93975000Y-95937500D01*
G75*
G02*
X93737500Y-96175000I-237500J0D01*
G01*
G37*
G36*
G01*
X93737500Y-97900000D02*
X93262500Y-97900000D01*
G75*
G02*
X93025000Y-97662500I0J237500D01*
G01*
X93025000Y-97062500D01*
G75*
G02*
X93262500Y-96825000I237500J0D01*
G01*
X93737500Y-96825000D01*
G75*
G02*
X93975000Y-97062500I0J-237500D01*
G01*
X93975000Y-97662500D01*
G75*
G02*
X93737500Y-97900000I-237500J0D01*
G01*
G37*
G36*
G01*
X70512500Y-96825000D02*
X70987500Y-96825000D01*
G75*
G02*
X71225000Y-97062500I0J-237500D01*
G01*
X71225000Y-97662500D01*
G75*
G02*
X70987500Y-97900000I-237500J0D01*
G01*
X70512500Y-97900000D01*
G75*
G02*
X70275000Y-97662500I0J237500D01*
G01*
X70275000Y-97062500D01*
G75*
G02*
X70512500Y-96825000I237500J0D01*
G01*
G37*
G36*
G01*
X70512500Y-95100000D02*
X70987500Y-95100000D01*
G75*
G02*
X71225000Y-95337500I0J-237500D01*
G01*
X71225000Y-95937500D01*
G75*
G02*
X70987500Y-96175000I-237500J0D01*
G01*
X70512500Y-96175000D01*
G75*
G02*
X70275000Y-95937500I0J237500D01*
G01*
X70275000Y-95337500D01*
G75*
G02*
X70512500Y-95100000I237500J0D01*
G01*
G37*
G36*
G01*
X83737500Y-68675000D02*
X83262500Y-68675000D01*
G75*
G02*
X83025000Y-68437500I0J237500D01*
G01*
X83025000Y-67837500D01*
G75*
G02*
X83262500Y-67600000I237500J0D01*
G01*
X83737500Y-67600000D01*
G75*
G02*
X83975000Y-67837500I0J-237500D01*
G01*
X83975000Y-68437500D01*
G75*
G02*
X83737500Y-68675000I-237500J0D01*
G01*
G37*
G36*
G01*
X83737500Y-70400000D02*
X83262500Y-70400000D01*
G75*
G02*
X83025000Y-70162500I0J237500D01*
G01*
X83025000Y-69562500D01*
G75*
G02*
X83262500Y-69325000I237500J0D01*
G01*
X83737500Y-69325000D01*
G75*
G02*
X83975000Y-69562500I0J-237500D01*
G01*
X83975000Y-70162500D01*
G75*
G02*
X83737500Y-70400000I-237500J0D01*
G01*
G37*
G36*
G01*
X87737500Y-68812500D02*
X87262500Y-68812500D01*
G75*
G02*
X87025000Y-68575000I0J237500D01*
G01*
X87025000Y-67975000D01*
G75*
G02*
X87262500Y-67737500I237500J0D01*
G01*
X87737500Y-67737500D01*
G75*
G02*
X87975000Y-67975000I0J-237500D01*
G01*
X87975000Y-68575000D01*
G75*
G02*
X87737500Y-68812500I-237500J0D01*
G01*
G37*
G36*
G01*
X87737500Y-70537500D02*
X87262500Y-70537500D01*
G75*
G02*
X87025000Y-70300000I0J237500D01*
G01*
X87025000Y-69700000D01*
G75*
G02*
X87262500Y-69462500I237500J0D01*
G01*
X87737500Y-69462500D01*
G75*
G02*
X87975000Y-69700000I0J-237500D01*
G01*
X87975000Y-70300000D01*
G75*
G02*
X87737500Y-70537500I-237500J0D01*
G01*
G37*
D42*
X66540000Y-89700000D03*
X64000000Y-89700000D03*
X66540000Y-87160000D03*
X64000000Y-87160000D03*
X66540000Y-84620000D03*
X64000000Y-84620000D03*
X66540000Y-82080000D03*
X64000000Y-82080000D03*
X66540000Y-79540000D03*
X64000000Y-79540000D03*
X66540000Y-77000000D03*
D43*
X64000000Y-77000000D03*
D42*
X57300000Y-72680000D03*
X57300000Y-70140000D03*
D43*
X57300000Y-67600000D03*
D42*
X97920000Y-107750000D03*
X100460000Y-107750000D03*
D43*
X103000000Y-107750000D03*
D42*
X73920000Y-108000000D03*
X76460000Y-108000000D03*
D43*
X79000000Y-108000000D03*
D42*
X98540000Y-88490000D03*
X96000000Y-88490000D03*
X98540000Y-85950000D03*
X96000000Y-85950000D03*
X98540000Y-83410000D03*
X96000000Y-83410000D03*
X98540000Y-80870000D03*
X96000000Y-80870000D03*
X98540000Y-78330000D03*
X96000000Y-78330000D03*
X98540000Y-75790000D03*
X96000000Y-75790000D03*
X98540000Y-73250000D03*
D43*
X96000000Y-73250000D03*
D42*
X84380000Y-107750000D03*
X86920000Y-107750000D03*
X89460000Y-107750000D03*
D43*
X92000000Y-107750000D03*
D44*
X97300000Y-55000000D03*
D45*
X100000000Y-52500000D03*
X100000000Y-57500000D03*
M02*
