G04 #@! TF.GenerationSoftware,KiCad,Pcbnew,(5.1.10)-1*
G04 #@! TF.CreationDate,2022-03-14T11:30:17-04:00*
G04 #@! TF.ProjectId,overhead,6f766572-6865-4616-942e-6b696361645f,rev?*
G04 #@! TF.SameCoordinates,Original*
G04 #@! TF.FileFunction,Soldermask,Top*
G04 #@! TF.FilePolarity,Negative*
%FSLAX46Y46*%
G04 Gerber Fmt 4.6, Leading zero omitted, Abs format (unit mm)*
G04 Created by KiCad (PCBNEW (5.1.10)-1) date 2022-03-14 11:30:17*
%MOMM*%
%LPD*%
G01*
G04 APERTURE LIST*
%ADD10C,2.200000*%
%ADD11O,0.900000X1.800000*%
%ADD12R,1.900000X1.900000*%
%ADD13R,1.600000X1.400000*%
%ADD14R,0.400000X1.350000*%
%ADD15R,0.450000X0.300000*%
%ADD16R,1.500000X2.400000*%
%ADD17R,0.600000X1.100000*%
%ADD18R,1.100000X0.400000*%
%ADD19R,2.150000X3.250000*%
%ADD20R,2.150000X1.000000*%
%ADD21C,1.600000*%
%ADD22R,1.600000X1.600000*%
%ADD23R,2.389200X1.601800*%
%ADD24R,0.254000X0.863600*%
%ADD25R,2.108200X0.558800*%
%ADD26R,0.558800X2.108200*%
%ADD27C,0.400000*%
%ADD28R,1.000000X1.000000*%
%ADD29R,0.900000X1.500000*%
%ADD30R,1.500000X0.900000*%
%ADD31R,1.501800X1.501800*%
%ADD32R,0.812800X0.254000*%
%ADD33R,0.355600X0.355600*%
%ADD34R,0.254000X0.812800*%
%ADD35O,1.700000X1.700000*%
%ADD36R,1.700000X1.700000*%
%ADD37O,1.524000X3.048000*%
%ADD38O,3.048000X1.524000*%
G04 APERTURE END LIST*
D10*
X75500000Y-53250000D03*
X58000000Y-87500000D03*
X101500000Y-103000000D03*
D11*
X58700000Y-51500000D03*
X65300000Y-51500000D03*
D12*
X60800000Y-51500000D03*
X63200000Y-51500000D03*
D13*
X58800000Y-53950000D03*
X65200000Y-53950000D03*
D14*
X60700000Y-54175000D03*
X61350000Y-54175000D03*
X62000000Y-54175000D03*
X62650000Y-54175000D03*
X63300000Y-54175000D03*
D15*
X70400000Y-53100000D03*
X69000000Y-52600000D03*
X70400000Y-52100000D03*
X69000000Y-53100000D03*
X69000000Y-52100000D03*
D16*
X85500000Y-64050000D03*
D17*
X85950000Y-69600000D03*
X85050000Y-69600000D03*
D18*
X63900000Y-101275000D03*
X63900000Y-101925000D03*
X63900000Y-102575000D03*
X63900000Y-103225000D03*
X59600000Y-103225000D03*
X59600000Y-102575000D03*
X59600000Y-101925000D03*
X59600000Y-101275000D03*
D19*
X94100000Y-65500000D03*
D20*
X99900000Y-63200000D03*
X99900000Y-65500000D03*
X99900000Y-67800000D03*
G36*
G01*
X61100000Y-105049999D02*
X61100000Y-105950001D01*
G75*
G02*
X60850001Y-106200000I-249999J0D01*
G01*
X60149999Y-106200000D01*
G75*
G02*
X59900000Y-105950001I0J249999D01*
G01*
X59900000Y-105049999D01*
G75*
G02*
X60149999Y-104800000I249999J0D01*
G01*
X60850001Y-104800000D01*
G75*
G02*
X61100000Y-105049999I0J-249999D01*
G01*
G37*
G36*
G01*
X63100000Y-105049999D02*
X63100000Y-105950001D01*
G75*
G02*
X62850001Y-106200000I-249999J0D01*
G01*
X62149999Y-106200000D01*
G75*
G02*
X61900000Y-105950001I0J249999D01*
G01*
X61900000Y-105049999D01*
G75*
G02*
X62149999Y-104800000I249999J0D01*
G01*
X62850001Y-104800000D01*
G75*
G02*
X63100000Y-105049999I0J-249999D01*
G01*
G37*
D21*
X67750000Y-104500000D03*
D22*
X67750000Y-102500000D03*
G36*
G01*
X57099999Y-64150000D02*
X58400001Y-64150000D01*
G75*
G02*
X58650000Y-64399999I0J-249999D01*
G01*
X58650000Y-65225001D01*
G75*
G02*
X58400001Y-65475000I-249999J0D01*
G01*
X57099999Y-65475000D01*
G75*
G02*
X56850000Y-65225001I0J249999D01*
G01*
X56850000Y-64399999D01*
G75*
G02*
X57099999Y-64150000I249999J0D01*
G01*
G37*
G36*
G01*
X57099999Y-61025000D02*
X58400001Y-61025000D01*
G75*
G02*
X58650000Y-61274999I0J-249999D01*
G01*
X58650000Y-62100001D01*
G75*
G02*
X58400001Y-62350000I-249999J0D01*
G01*
X57099999Y-62350000D01*
G75*
G02*
X56850000Y-62100001I0J249999D01*
G01*
X56850000Y-61274999D01*
G75*
G02*
X57099999Y-61025000I249999J0D01*
G01*
G37*
G36*
G01*
X99950000Y-60975000D02*
X99950000Y-60025000D01*
G75*
G02*
X100200000Y-59775000I250000J0D01*
G01*
X100875000Y-59775000D01*
G75*
G02*
X101125000Y-60025000I0J-250000D01*
G01*
X101125000Y-60975000D01*
G75*
G02*
X100875000Y-61225000I-250000J0D01*
G01*
X100200000Y-61225000D01*
G75*
G02*
X99950000Y-60975000I0J250000D01*
G01*
G37*
G36*
G01*
X97875000Y-60975000D02*
X97875000Y-60025000D01*
G75*
G02*
X98125000Y-59775000I250000J0D01*
G01*
X98800000Y-59775000D01*
G75*
G02*
X99050000Y-60025000I0J-250000D01*
G01*
X99050000Y-60975000D01*
G75*
G02*
X98800000Y-61225000I-250000J0D01*
G01*
X98125000Y-61225000D01*
G75*
G02*
X97875000Y-60975000I0J250000D01*
G01*
G37*
G36*
G01*
X95950000Y-60975000D02*
X95950000Y-60025000D01*
G75*
G02*
X96200000Y-59775000I250000J0D01*
G01*
X96875000Y-59775000D01*
G75*
G02*
X97125000Y-60025000I0J-250000D01*
G01*
X97125000Y-60975000D01*
G75*
G02*
X96875000Y-61225000I-250000J0D01*
G01*
X96200000Y-61225000D01*
G75*
G02*
X95950000Y-60975000I0J250000D01*
G01*
G37*
G36*
G01*
X93875000Y-60975000D02*
X93875000Y-60025000D01*
G75*
G02*
X94125000Y-59775000I250000J0D01*
G01*
X94800000Y-59775000D01*
G75*
G02*
X95050000Y-60025000I0J-250000D01*
G01*
X95050000Y-60975000D01*
G75*
G02*
X94800000Y-61225000I-250000J0D01*
G01*
X94125000Y-61225000D01*
G75*
G02*
X93875000Y-60975000I0J250000D01*
G01*
G37*
G36*
G01*
X57762500Y-104075000D02*
X58237500Y-104075000D01*
G75*
G02*
X58475000Y-104312500I0J-237500D01*
G01*
X58475000Y-104912500D01*
G75*
G02*
X58237500Y-105150000I-237500J0D01*
G01*
X57762500Y-105150000D01*
G75*
G02*
X57525000Y-104912500I0J237500D01*
G01*
X57525000Y-104312500D01*
G75*
G02*
X57762500Y-104075000I237500J0D01*
G01*
G37*
G36*
G01*
X57762500Y-102350000D02*
X58237500Y-102350000D01*
G75*
G02*
X58475000Y-102587500I0J-237500D01*
G01*
X58475000Y-103187500D01*
G75*
G02*
X58237500Y-103425000I-237500J0D01*
G01*
X57762500Y-103425000D01*
G75*
G02*
X57525000Y-103187500I0J237500D01*
G01*
X57525000Y-102587500D01*
G75*
G02*
X57762500Y-102350000I237500J0D01*
G01*
G37*
D23*
X63000000Y-61000000D03*
D24*
X61999999Y-59577600D03*
X62500001Y-59577600D03*
X63000000Y-59577600D03*
X63499999Y-59577600D03*
X64000001Y-59577600D03*
X64000001Y-62422400D03*
X63499999Y-62422400D03*
X63000000Y-62422400D03*
X62500001Y-62422400D03*
X61999999Y-62422400D03*
D25*
X56699300Y-94000000D03*
X63300700Y-94000000D03*
D26*
X97000000Y-94949300D03*
X97000000Y-101550700D03*
D27*
X82340000Y-87550000D03*
X83840000Y-87550000D03*
X82340000Y-89050000D03*
X83840000Y-89050000D03*
X82340000Y-90550000D03*
X83840000Y-90550000D03*
X81590000Y-88300000D03*
X83090000Y-88300000D03*
X84590000Y-88300000D03*
X81590000Y-89800000D03*
X84590000Y-89800000D03*
X83090000Y-89800000D03*
D28*
X81590000Y-90550000D03*
X83090000Y-90550000D03*
X84590000Y-90550000D03*
X81590000Y-87550000D03*
X83090000Y-87550000D03*
X84590000Y-87550000D03*
X81590000Y-89050000D03*
X84590000Y-89050000D03*
D29*
X75150000Y-73850000D03*
X76650000Y-73850000D03*
X78150000Y-73850000D03*
X79650000Y-73850000D03*
X81150000Y-73850000D03*
X82650000Y-73850000D03*
X84150000Y-73850000D03*
X85650000Y-73850000D03*
X87150000Y-73850000D03*
X88650000Y-73850000D03*
D30*
X73150000Y-74600000D03*
X73150000Y-76100000D03*
X73150000Y-77600000D03*
X73150000Y-79100000D03*
X73150000Y-80600000D03*
X73150000Y-82100000D03*
X73150000Y-83600000D03*
X73150000Y-85100000D03*
X73150000Y-86600000D03*
X73150000Y-88100000D03*
X73150000Y-89600000D03*
X73150000Y-91100000D03*
X73150000Y-92600000D03*
X73150000Y-94100000D03*
X73150000Y-95600000D03*
X73150000Y-97100000D03*
X90650000Y-74600000D03*
X90650000Y-76100000D03*
X90650000Y-77600000D03*
X90650000Y-79100000D03*
X90650000Y-80600000D03*
X90650000Y-82100000D03*
X90650000Y-83600000D03*
X90650000Y-85100000D03*
X90650000Y-86600000D03*
X90650000Y-88100000D03*
X90650000Y-89600000D03*
X90650000Y-91100000D03*
X90650000Y-92600000D03*
X90650000Y-94100000D03*
X90650000Y-95600000D03*
X90650000Y-97100000D03*
D28*
X83090000Y-89050000D03*
D31*
X64750000Y-67500000D03*
D32*
X63353000Y-68250001D03*
X63353000Y-67750000D03*
X63353000Y-67250000D03*
X63353000Y-66749999D03*
D33*
X63499050Y-66249050D03*
D34*
X63999999Y-66103000D03*
X64500000Y-66103000D03*
X65000000Y-66103000D03*
X65500001Y-66103000D03*
D33*
X66000950Y-66249050D03*
D32*
X66147000Y-66749999D03*
X66147000Y-67250000D03*
X66147000Y-67750000D03*
X66147000Y-68250001D03*
D33*
X66000950Y-68750950D03*
D34*
X65500001Y-68897000D03*
X65000000Y-68897000D03*
X64500000Y-68897000D03*
X63999999Y-68897000D03*
D33*
X63499050Y-68750950D03*
G36*
G01*
X70450001Y-87100000D02*
X69549999Y-87100000D01*
G75*
G02*
X69300000Y-86850001I0J249999D01*
G01*
X69300000Y-86149999D01*
G75*
G02*
X69549999Y-85900000I249999J0D01*
G01*
X70450001Y-85900000D01*
G75*
G02*
X70700000Y-86149999I0J-249999D01*
G01*
X70700000Y-86850001D01*
G75*
G02*
X70450001Y-87100000I-249999J0D01*
G01*
G37*
G36*
G01*
X70450001Y-89100000D02*
X69549999Y-89100000D01*
G75*
G02*
X69300000Y-88850001I0J249999D01*
G01*
X69300000Y-88149999D01*
G75*
G02*
X69549999Y-87900000I249999J0D01*
G01*
X70450001Y-87900000D01*
G75*
G02*
X70700000Y-88149999I0J-249999D01*
G01*
X70700000Y-88850001D01*
G75*
G02*
X70450001Y-89100000I-249999J0D01*
G01*
G37*
G36*
G01*
X70450001Y-80600000D02*
X69549999Y-80600000D01*
G75*
G02*
X69300000Y-80350001I0J249999D01*
G01*
X69300000Y-79649999D01*
G75*
G02*
X69549999Y-79400000I249999J0D01*
G01*
X70450001Y-79400000D01*
G75*
G02*
X70700000Y-79649999I0J-249999D01*
G01*
X70700000Y-80350001D01*
G75*
G02*
X70450001Y-80600000I-249999J0D01*
G01*
G37*
G36*
G01*
X70450001Y-82600000D02*
X69549999Y-82600000D01*
G75*
G02*
X69300000Y-82350001I0J249999D01*
G01*
X69300000Y-81649999D01*
G75*
G02*
X69549999Y-81400000I249999J0D01*
G01*
X70450001Y-81400000D01*
G75*
G02*
X70700000Y-81649999I0J-249999D01*
G01*
X70700000Y-82350001D01*
G75*
G02*
X70450001Y-82600000I-249999J0D01*
G01*
G37*
G36*
G01*
X94400000Y-93450001D02*
X94400000Y-92549999D01*
G75*
G02*
X94649999Y-92300000I249999J0D01*
G01*
X95350001Y-92300000D01*
G75*
G02*
X95600000Y-92549999I0J-249999D01*
G01*
X95600000Y-93450001D01*
G75*
G02*
X95350001Y-93700000I-249999J0D01*
G01*
X94649999Y-93700000D01*
G75*
G02*
X94400000Y-93450001I0J249999D01*
G01*
G37*
G36*
G01*
X92400000Y-93450001D02*
X92400000Y-92549999D01*
G75*
G02*
X92649999Y-92300000I249999J0D01*
G01*
X93350001Y-92300000D01*
G75*
G02*
X93600000Y-92549999I0J-249999D01*
G01*
X93600000Y-93450001D01*
G75*
G02*
X93350001Y-93700000I-249999J0D01*
G01*
X92649999Y-93700000D01*
G75*
G02*
X92400000Y-93450001I0J249999D01*
G01*
G37*
G36*
G01*
X66399999Y-62750000D02*
X67300001Y-62750000D01*
G75*
G02*
X67550000Y-62999999I0J-249999D01*
G01*
X67550000Y-63700001D01*
G75*
G02*
X67300001Y-63950000I-249999J0D01*
G01*
X66399999Y-63950000D01*
G75*
G02*
X66150000Y-63700001I0J249999D01*
G01*
X66150000Y-62999999D01*
G75*
G02*
X66399999Y-62750000I249999J0D01*
G01*
G37*
G36*
G01*
X66399999Y-60750000D02*
X67300001Y-60750000D01*
G75*
G02*
X67550000Y-60999999I0J-249999D01*
G01*
X67550000Y-61700001D01*
G75*
G02*
X67300001Y-61950000I-249999J0D01*
G01*
X66399999Y-61950000D01*
G75*
G02*
X66150000Y-61700001I0J249999D01*
G01*
X66150000Y-60999999D01*
G75*
G02*
X66399999Y-60750000I249999J0D01*
G01*
G37*
G36*
G01*
X66399999Y-58850000D02*
X67300001Y-58850000D01*
G75*
G02*
X67550000Y-59099999I0J-249999D01*
G01*
X67550000Y-59800001D01*
G75*
G02*
X67300001Y-60050000I-249999J0D01*
G01*
X66399999Y-60050000D01*
G75*
G02*
X66150000Y-59800001I0J249999D01*
G01*
X66150000Y-59099999D01*
G75*
G02*
X66399999Y-58850000I249999J0D01*
G01*
G37*
G36*
G01*
X66399999Y-56850000D02*
X67300001Y-56850000D01*
G75*
G02*
X67550000Y-57099999I0J-249999D01*
G01*
X67550000Y-57800001D01*
G75*
G02*
X67300001Y-58050000I-249999J0D01*
G01*
X66399999Y-58050000D01*
G75*
G02*
X66150000Y-57800001I0J249999D01*
G01*
X66150000Y-57099999D01*
G75*
G02*
X66399999Y-56850000I249999J0D01*
G01*
G37*
G36*
G01*
X69900000Y-57849999D02*
X69900000Y-58750001D01*
G75*
G02*
X69650001Y-59000000I-249999J0D01*
G01*
X68949999Y-59000000D01*
G75*
G02*
X68700000Y-58750001I0J249999D01*
G01*
X68700000Y-57849999D01*
G75*
G02*
X68949999Y-57600000I249999J0D01*
G01*
X69650001Y-57600000D01*
G75*
G02*
X69900000Y-57849999I0J-249999D01*
G01*
G37*
G36*
G01*
X71900000Y-57849999D02*
X71900000Y-58750001D01*
G75*
G02*
X71650001Y-59000000I-249999J0D01*
G01*
X70949999Y-59000000D01*
G75*
G02*
X70700000Y-58750001I0J249999D01*
G01*
X70700000Y-57849999D01*
G75*
G02*
X70949999Y-57600000I249999J0D01*
G01*
X71650001Y-57600000D01*
G75*
G02*
X71900000Y-57849999I0J-249999D01*
G01*
G37*
G36*
G01*
X81450001Y-56600000D02*
X80549999Y-56600000D01*
G75*
G02*
X80300000Y-56350001I0J249999D01*
G01*
X80300000Y-55649999D01*
G75*
G02*
X80549999Y-55400000I249999J0D01*
G01*
X81450001Y-55400000D01*
G75*
G02*
X81700000Y-55649999I0J-249999D01*
G01*
X81700000Y-56350001D01*
G75*
G02*
X81450001Y-56600000I-249999J0D01*
G01*
G37*
G36*
G01*
X81450001Y-58600000D02*
X80549999Y-58600000D01*
G75*
G02*
X80300000Y-58350001I0J249999D01*
G01*
X80300000Y-57649999D01*
G75*
G02*
X80549999Y-57400000I249999J0D01*
G01*
X81450001Y-57400000D01*
G75*
G02*
X81700000Y-57649999I0J-249999D01*
G01*
X81700000Y-58350001D01*
G75*
G02*
X81450001Y-58600000I-249999J0D01*
G01*
G37*
G36*
G01*
X86450001Y-56512500D02*
X85549999Y-56512500D01*
G75*
G02*
X85300000Y-56262501I0J249999D01*
G01*
X85300000Y-55562499D01*
G75*
G02*
X85549999Y-55312500I249999J0D01*
G01*
X86450001Y-55312500D01*
G75*
G02*
X86700000Y-55562499I0J-249999D01*
G01*
X86700000Y-56262501D01*
G75*
G02*
X86450001Y-56512500I-249999J0D01*
G01*
G37*
G36*
G01*
X86450001Y-58512500D02*
X85549999Y-58512500D01*
G75*
G02*
X85300000Y-58262501I0J249999D01*
G01*
X85300000Y-57562499D01*
G75*
G02*
X85549999Y-57312500I249999J0D01*
G01*
X86450001Y-57312500D01*
G75*
G02*
X86700000Y-57562499I0J-249999D01*
G01*
X86700000Y-58262501D01*
G75*
G02*
X86450001Y-58512500I-249999J0D01*
G01*
G37*
G36*
G01*
X91450001Y-56600000D02*
X90549999Y-56600000D01*
G75*
G02*
X90300000Y-56350001I0J249999D01*
G01*
X90300000Y-55649999D01*
G75*
G02*
X90549999Y-55400000I249999J0D01*
G01*
X91450001Y-55400000D01*
G75*
G02*
X91700000Y-55649999I0J-249999D01*
G01*
X91700000Y-56350001D01*
G75*
G02*
X91450001Y-56600000I-249999J0D01*
G01*
G37*
G36*
G01*
X91450001Y-58600000D02*
X90549999Y-58600000D01*
G75*
G02*
X90300000Y-58350001I0J249999D01*
G01*
X90300000Y-57649999D01*
G75*
G02*
X90549999Y-57400000I249999J0D01*
G01*
X91450001Y-57400000D01*
G75*
G02*
X91700000Y-57649999I0J-249999D01*
G01*
X91700000Y-58350001D01*
G75*
G02*
X91450001Y-58600000I-249999J0D01*
G01*
G37*
G36*
G01*
X68299999Y-94900000D02*
X69200001Y-94900000D01*
G75*
G02*
X69450000Y-95149999I0J-249999D01*
G01*
X69450000Y-95850001D01*
G75*
G02*
X69200001Y-96100000I-249999J0D01*
G01*
X68299999Y-96100000D01*
G75*
G02*
X68050000Y-95850001I0J249999D01*
G01*
X68050000Y-95149999D01*
G75*
G02*
X68299999Y-94900000I249999J0D01*
G01*
G37*
G36*
G01*
X68299999Y-92900000D02*
X69200001Y-92900000D01*
G75*
G02*
X69450000Y-93149999I0J-249999D01*
G01*
X69450000Y-93850001D01*
G75*
G02*
X69200001Y-94100000I-249999J0D01*
G01*
X68299999Y-94100000D01*
G75*
G02*
X68050000Y-93850001I0J249999D01*
G01*
X68050000Y-93149999D01*
G75*
G02*
X68299999Y-92900000I249999J0D01*
G01*
G37*
G36*
G01*
X65799999Y-94900000D02*
X66700001Y-94900000D01*
G75*
G02*
X66950000Y-95149999I0J-249999D01*
G01*
X66950000Y-95850001D01*
G75*
G02*
X66700001Y-96100000I-249999J0D01*
G01*
X65799999Y-96100000D01*
G75*
G02*
X65550000Y-95850001I0J249999D01*
G01*
X65550000Y-95149999D01*
G75*
G02*
X65799999Y-94900000I249999J0D01*
G01*
G37*
G36*
G01*
X65799999Y-92900000D02*
X66700001Y-92900000D01*
G75*
G02*
X66950000Y-93149999I0J-249999D01*
G01*
X66950000Y-93850001D01*
G75*
G02*
X66700001Y-94100000I-249999J0D01*
G01*
X65799999Y-94100000D01*
G75*
G02*
X65550000Y-93850001I0J249999D01*
G01*
X65550000Y-93149999D01*
G75*
G02*
X65799999Y-92900000I249999J0D01*
G01*
G37*
D35*
X77440000Y-63380000D03*
X74900000Y-63380000D03*
X77440000Y-60840000D03*
X74900000Y-60840000D03*
X77440000Y-58300000D03*
D36*
X74900000Y-58300000D03*
G36*
G01*
X80762500Y-53350000D02*
X81237500Y-53350000D01*
G75*
G02*
X81475000Y-53587500I0J-237500D01*
G01*
X81475000Y-54162500D01*
G75*
G02*
X81237500Y-54400000I-237500J0D01*
G01*
X80762500Y-54400000D01*
G75*
G02*
X80525000Y-54162500I0J237500D01*
G01*
X80525000Y-53587500D01*
G75*
G02*
X80762500Y-53350000I237500J0D01*
G01*
G37*
G36*
G01*
X80762500Y-51600000D02*
X81237500Y-51600000D01*
G75*
G02*
X81475000Y-51837500I0J-237500D01*
G01*
X81475000Y-52412500D01*
G75*
G02*
X81237500Y-52650000I-237500J0D01*
G01*
X80762500Y-52650000D01*
G75*
G02*
X80525000Y-52412500I0J237500D01*
G01*
X80525000Y-51837500D01*
G75*
G02*
X80762500Y-51600000I237500J0D01*
G01*
G37*
G36*
G01*
X85762500Y-53350000D02*
X86237500Y-53350000D01*
G75*
G02*
X86475000Y-53587500I0J-237500D01*
G01*
X86475000Y-54162500D01*
G75*
G02*
X86237500Y-54400000I-237500J0D01*
G01*
X85762500Y-54400000D01*
G75*
G02*
X85525000Y-54162500I0J237500D01*
G01*
X85525000Y-53587500D01*
G75*
G02*
X85762500Y-53350000I237500J0D01*
G01*
G37*
G36*
G01*
X85762500Y-51600000D02*
X86237500Y-51600000D01*
G75*
G02*
X86475000Y-51837500I0J-237500D01*
G01*
X86475000Y-52412500D01*
G75*
G02*
X86237500Y-52650000I-237500J0D01*
G01*
X85762500Y-52650000D01*
G75*
G02*
X85525000Y-52412500I0J237500D01*
G01*
X85525000Y-51837500D01*
G75*
G02*
X85762500Y-51600000I237500J0D01*
G01*
G37*
G36*
G01*
X90762500Y-53350000D02*
X91237500Y-53350000D01*
G75*
G02*
X91475000Y-53587500I0J-237500D01*
G01*
X91475000Y-54162500D01*
G75*
G02*
X91237500Y-54400000I-237500J0D01*
G01*
X90762500Y-54400000D01*
G75*
G02*
X90525000Y-54162500I0J237500D01*
G01*
X90525000Y-53587500D01*
G75*
G02*
X90762500Y-53350000I237500J0D01*
G01*
G37*
G36*
G01*
X90762500Y-51600000D02*
X91237500Y-51600000D01*
G75*
G02*
X91475000Y-51837500I0J-237500D01*
G01*
X91475000Y-52412500D01*
G75*
G02*
X91237500Y-52650000I-237500J0D01*
G01*
X90762500Y-52650000D01*
G75*
G02*
X90525000Y-52412500I0J237500D01*
G01*
X90525000Y-51837500D01*
G75*
G02*
X90762500Y-51600000I237500J0D01*
G01*
G37*
G36*
G01*
X59762500Y-63575000D02*
X60237500Y-63575000D01*
G75*
G02*
X60475000Y-63812500I0J-237500D01*
G01*
X60475000Y-64412500D01*
G75*
G02*
X60237500Y-64650000I-237500J0D01*
G01*
X59762500Y-64650000D01*
G75*
G02*
X59525000Y-64412500I0J237500D01*
G01*
X59525000Y-63812500D01*
G75*
G02*
X59762500Y-63575000I237500J0D01*
G01*
G37*
G36*
G01*
X59762500Y-61850000D02*
X60237500Y-61850000D01*
G75*
G02*
X60475000Y-62087500I0J-237500D01*
G01*
X60475000Y-62687500D01*
G75*
G02*
X60237500Y-62925000I-237500J0D01*
G01*
X59762500Y-62925000D01*
G75*
G02*
X59525000Y-62687500I0J237500D01*
G01*
X59525000Y-62087500D01*
G75*
G02*
X59762500Y-61850000I237500J0D01*
G01*
G37*
G36*
G01*
X58925000Y-59262500D02*
X58925000Y-59737500D01*
G75*
G02*
X58687500Y-59975000I-237500J0D01*
G01*
X58087500Y-59975000D01*
G75*
G02*
X57850000Y-59737500I0J237500D01*
G01*
X57850000Y-59262500D01*
G75*
G02*
X58087500Y-59025000I237500J0D01*
G01*
X58687500Y-59025000D01*
G75*
G02*
X58925000Y-59262500I0J-237500D01*
G01*
G37*
G36*
G01*
X60650000Y-59262500D02*
X60650000Y-59737500D01*
G75*
G02*
X60412500Y-59975000I-237500J0D01*
G01*
X59812500Y-59975000D01*
G75*
G02*
X59575000Y-59737500I0J237500D01*
G01*
X59575000Y-59262500D01*
G75*
G02*
X59812500Y-59025000I237500J0D01*
G01*
X60412500Y-59025000D01*
G75*
G02*
X60650000Y-59262500I0J-237500D01*
G01*
G37*
G36*
G01*
X93737500Y-96175000D02*
X93262500Y-96175000D01*
G75*
G02*
X93025000Y-95937500I0J237500D01*
G01*
X93025000Y-95337500D01*
G75*
G02*
X93262500Y-95100000I237500J0D01*
G01*
X93737500Y-95100000D01*
G75*
G02*
X93975000Y-95337500I0J-237500D01*
G01*
X93975000Y-95937500D01*
G75*
G02*
X93737500Y-96175000I-237500J0D01*
G01*
G37*
G36*
G01*
X93737500Y-97900000D02*
X93262500Y-97900000D01*
G75*
G02*
X93025000Y-97662500I0J237500D01*
G01*
X93025000Y-97062500D01*
G75*
G02*
X93262500Y-96825000I237500J0D01*
G01*
X93737500Y-96825000D01*
G75*
G02*
X93975000Y-97062500I0J-237500D01*
G01*
X93975000Y-97662500D01*
G75*
G02*
X93737500Y-97900000I-237500J0D01*
G01*
G37*
G36*
G01*
X70512500Y-96825000D02*
X70987500Y-96825000D01*
G75*
G02*
X71225000Y-97062500I0J-237500D01*
G01*
X71225000Y-97662500D01*
G75*
G02*
X70987500Y-97900000I-237500J0D01*
G01*
X70512500Y-97900000D01*
G75*
G02*
X70275000Y-97662500I0J237500D01*
G01*
X70275000Y-97062500D01*
G75*
G02*
X70512500Y-96825000I237500J0D01*
G01*
G37*
G36*
G01*
X70512500Y-95100000D02*
X70987500Y-95100000D01*
G75*
G02*
X71225000Y-95337500I0J-237500D01*
G01*
X71225000Y-95937500D01*
G75*
G02*
X70987500Y-96175000I-237500J0D01*
G01*
X70512500Y-96175000D01*
G75*
G02*
X70275000Y-95937500I0J237500D01*
G01*
X70275000Y-95337500D01*
G75*
G02*
X70512500Y-95100000I237500J0D01*
G01*
G37*
G36*
G01*
X83737500Y-68675000D02*
X83262500Y-68675000D01*
G75*
G02*
X83025000Y-68437500I0J237500D01*
G01*
X83025000Y-67837500D01*
G75*
G02*
X83262500Y-67600000I237500J0D01*
G01*
X83737500Y-67600000D01*
G75*
G02*
X83975000Y-67837500I0J-237500D01*
G01*
X83975000Y-68437500D01*
G75*
G02*
X83737500Y-68675000I-237500J0D01*
G01*
G37*
G36*
G01*
X83737500Y-70400000D02*
X83262500Y-70400000D01*
G75*
G02*
X83025000Y-70162500I0J237500D01*
G01*
X83025000Y-69562500D01*
G75*
G02*
X83262500Y-69325000I237500J0D01*
G01*
X83737500Y-69325000D01*
G75*
G02*
X83975000Y-69562500I0J-237500D01*
G01*
X83975000Y-70162500D01*
G75*
G02*
X83737500Y-70400000I-237500J0D01*
G01*
G37*
G36*
G01*
X87737500Y-68812500D02*
X87262500Y-68812500D01*
G75*
G02*
X87025000Y-68575000I0J237500D01*
G01*
X87025000Y-67975000D01*
G75*
G02*
X87262500Y-67737500I237500J0D01*
G01*
X87737500Y-67737500D01*
G75*
G02*
X87975000Y-67975000I0J-237500D01*
G01*
X87975000Y-68575000D01*
G75*
G02*
X87737500Y-68812500I-237500J0D01*
G01*
G37*
G36*
G01*
X87737500Y-70537500D02*
X87262500Y-70537500D01*
G75*
G02*
X87025000Y-70300000I0J237500D01*
G01*
X87025000Y-69700000D01*
G75*
G02*
X87262500Y-69462500I237500J0D01*
G01*
X87737500Y-69462500D01*
G75*
G02*
X87975000Y-69700000I0J-237500D01*
G01*
X87975000Y-70300000D01*
G75*
G02*
X87737500Y-70537500I-237500J0D01*
G01*
G37*
D35*
X66540000Y-89700000D03*
X64000000Y-89700000D03*
X66540000Y-87160000D03*
X64000000Y-87160000D03*
X66540000Y-84620000D03*
X64000000Y-84620000D03*
X66540000Y-82080000D03*
X64000000Y-82080000D03*
X66540000Y-79540000D03*
X64000000Y-79540000D03*
X66540000Y-77000000D03*
D36*
X64000000Y-77000000D03*
D35*
X57300000Y-72680000D03*
X57300000Y-70140000D03*
D36*
X57300000Y-67600000D03*
D35*
X97920000Y-107750000D03*
X100460000Y-107750000D03*
D36*
X103000000Y-107750000D03*
D35*
X73920000Y-108000000D03*
X76460000Y-108000000D03*
D36*
X79000000Y-108000000D03*
D35*
X98540000Y-88490000D03*
X96000000Y-88490000D03*
X98540000Y-85950000D03*
X96000000Y-85950000D03*
X98540000Y-83410000D03*
X96000000Y-83410000D03*
X98540000Y-80870000D03*
X96000000Y-80870000D03*
X98540000Y-78330000D03*
X96000000Y-78330000D03*
X98540000Y-75790000D03*
X96000000Y-75790000D03*
X98540000Y-73250000D03*
D36*
X96000000Y-73250000D03*
D35*
X84380000Y-107750000D03*
X86920000Y-107750000D03*
X89460000Y-107750000D03*
D36*
X92000000Y-107750000D03*
D37*
X97300000Y-55000000D03*
D38*
X100000000Y-52500000D03*
X100000000Y-57500000D03*
M02*
