%FSLAX45Y45*%
G04 Gerber Fmt 4.5, Leading zero omitted, Abs format (unit mm)*
G04 Created by KiCad (PCBNEW (5.1.10)-1) date 2022-03-14 11:31:30*
%MOMM*%
%LPD*%
G01*
G04 APERTURE LIST*
%TA.AperFunction,Profile*%
%ADD10C,0.050000*%
%TD*%
%ADD11C,0.200000*%
%ADD12C,0.300000*%
G04 APERTURE END LIST*
D10*
X5500000Y-11000000D02*
X10500000Y-11000000D01*
X5500000Y-9000000D02*
X5500000Y-11000000D01*
X10500000Y-9500000D02*
X10500000Y-11000000D01*
X5500000Y-5000000D02*
X5500000Y-9000000D01*
X10500000Y-5000000D02*
X10500000Y-9500000D01*
X5500000Y-5000000D02*
X10500000Y-5000000D01*
D11*
X5690000Y-8640000D02*
X5910000Y-8860000D01*
X5910000Y-8640000D02*
X5690000Y-8860000D01*
X7440000Y-5215000D02*
X7660000Y-5435000D01*
X7660000Y-5215000D02*
X7440000Y-5435000D01*
X10040000Y-10190000D02*
X10260000Y-10410000D01*
X10260000Y-10190000D02*
X10040000Y-10410000D01*
D12*
X5783928Y-11468214D02*
X5783928Y-11168214D01*
X5855357Y-11168214D01*
X5898214Y-11182500D01*
X5926786Y-11211071D01*
X5941071Y-11239643D01*
X5955357Y-11296786D01*
X5955357Y-11339643D01*
X5941071Y-11396786D01*
X5926786Y-11425357D01*
X5898214Y-11453929D01*
X5855357Y-11468214D01*
X5783928Y-11468214D01*
X6083928Y-11468214D02*
X6083928Y-11268214D01*
X6083928Y-11325357D02*
X6098214Y-11296786D01*
X6112500Y-11282500D01*
X6141071Y-11268214D01*
X6169643Y-11268214D01*
X6269643Y-11468214D02*
X6269643Y-11268214D01*
X6269643Y-11168214D02*
X6255357Y-11182500D01*
X6269643Y-11196786D01*
X6283928Y-11182500D01*
X6269643Y-11168214D01*
X6269643Y-11196786D01*
X6455357Y-11468214D02*
X6426786Y-11453929D01*
X6412500Y-11425357D01*
X6412500Y-11168214D01*
X6612500Y-11468214D02*
X6583928Y-11453929D01*
X6569643Y-11425357D01*
X6569643Y-11168214D01*
X6955357Y-11468214D02*
X6955357Y-11168214D01*
X7055357Y-11382500D01*
X7155357Y-11168214D01*
X7155357Y-11468214D01*
X7426786Y-11468214D02*
X7426786Y-11311071D01*
X7412500Y-11282500D01*
X7383928Y-11268214D01*
X7326786Y-11268214D01*
X7298214Y-11282500D01*
X7426786Y-11453929D02*
X7398214Y-11468214D01*
X7326786Y-11468214D01*
X7298214Y-11453929D01*
X7283928Y-11425357D01*
X7283928Y-11396786D01*
X7298214Y-11368214D01*
X7326786Y-11353929D01*
X7398214Y-11353929D01*
X7426786Y-11339643D01*
X7569643Y-11268214D02*
X7569643Y-11568214D01*
X7569643Y-11282500D02*
X7598214Y-11268214D01*
X7655357Y-11268214D01*
X7683928Y-11282500D01*
X7698214Y-11296786D01*
X7712500Y-11325357D01*
X7712500Y-11411071D01*
X7698214Y-11439643D01*
X7683928Y-11453929D01*
X7655357Y-11468214D01*
X7598214Y-11468214D01*
X7569643Y-11453929D01*
X7841071Y-11439643D02*
X7855357Y-11453929D01*
X7841071Y-11468214D01*
X7826786Y-11453929D01*
X7841071Y-11439643D01*
X7841071Y-11468214D01*
X7841071Y-11282500D02*
X7855357Y-11296786D01*
X7841071Y-11311071D01*
X7826786Y-11296786D01*
X7841071Y-11282500D01*
X7841071Y-11311071D01*
X5277500Y-11852500D02*
X5497500Y-12072500D01*
X5497500Y-11852500D02*
X5277500Y-12072500D01*
X5769643Y-11826786D02*
X5783928Y-11812500D01*
X5812500Y-11798214D01*
X5883928Y-11798214D01*
X5912500Y-11812500D01*
X5926786Y-11826786D01*
X5941071Y-11855357D01*
X5941071Y-11883929D01*
X5926786Y-11926786D01*
X5755357Y-12098214D01*
X5941071Y-12098214D01*
X6069643Y-12069643D02*
X6083928Y-12083929D01*
X6069643Y-12098214D01*
X6055357Y-12083929D01*
X6069643Y-12069643D01*
X6069643Y-12098214D01*
X6198214Y-11826786D02*
X6212500Y-11812500D01*
X6241071Y-11798214D01*
X6312500Y-11798214D01*
X6341071Y-11812500D01*
X6355357Y-11826786D01*
X6369643Y-11855357D01*
X6369643Y-11883929D01*
X6355357Y-11926786D01*
X6183928Y-12098214D01*
X6369643Y-12098214D01*
X6555357Y-11798214D02*
X6583928Y-11798214D01*
X6612500Y-11812500D01*
X6626786Y-11826786D01*
X6641071Y-11855357D01*
X6655357Y-11912500D01*
X6655357Y-11983929D01*
X6641071Y-12041071D01*
X6626786Y-12069643D01*
X6612500Y-12083929D01*
X6583928Y-12098214D01*
X6555357Y-12098214D01*
X6526786Y-12083929D01*
X6512500Y-12069643D01*
X6498214Y-12041071D01*
X6483928Y-11983929D01*
X6483928Y-11912500D01*
X6498214Y-11855357D01*
X6512500Y-11826786D01*
X6526786Y-11812500D01*
X6555357Y-11798214D01*
X6841071Y-11798214D02*
X6869643Y-11798214D01*
X6898214Y-11812500D01*
X6912500Y-11826786D01*
X6926786Y-11855357D01*
X6941071Y-11912500D01*
X6941071Y-11983929D01*
X6926786Y-12041071D01*
X6912500Y-12069643D01*
X6898214Y-12083929D01*
X6869643Y-12098214D01*
X6841071Y-12098214D01*
X6812500Y-12083929D01*
X6798214Y-12069643D01*
X6783928Y-12041071D01*
X6769643Y-11983929D01*
X6769643Y-11912500D01*
X6783928Y-11855357D01*
X6798214Y-11826786D01*
X6812500Y-11812500D01*
X6841071Y-11798214D01*
X7069643Y-12098214D02*
X7069643Y-11898214D01*
X7069643Y-11926786D02*
X7083928Y-11912500D01*
X7112500Y-11898214D01*
X7155357Y-11898214D01*
X7183928Y-11912500D01*
X7198214Y-11941071D01*
X7198214Y-12098214D01*
X7198214Y-11941071D02*
X7212500Y-11912500D01*
X7241071Y-11898214D01*
X7283928Y-11898214D01*
X7312500Y-11912500D01*
X7326786Y-11941071D01*
X7326786Y-12098214D01*
X7469643Y-12098214D02*
X7469643Y-11898214D01*
X7469643Y-11926786D02*
X7483928Y-11912500D01*
X7512500Y-11898214D01*
X7555357Y-11898214D01*
X7583928Y-11912500D01*
X7598214Y-11941071D01*
X7598214Y-12098214D01*
X7598214Y-11941071D02*
X7612500Y-11912500D01*
X7641071Y-11898214D01*
X7683928Y-11898214D01*
X7712500Y-11912500D01*
X7726786Y-11941071D01*
X7726786Y-12098214D01*
X8312500Y-11783929D02*
X8055357Y-12169643D01*
X8698214Y-11798214D02*
X8726786Y-11798214D01*
X8755357Y-11812500D01*
X8769643Y-11826786D01*
X8783928Y-11855357D01*
X8798214Y-11912500D01*
X8798214Y-11983929D01*
X8783928Y-12041071D01*
X8769643Y-12069643D01*
X8755357Y-12083929D01*
X8726786Y-12098214D01*
X8698214Y-12098214D01*
X8669643Y-12083929D01*
X8655357Y-12069643D01*
X8641071Y-12041071D01*
X8626786Y-11983929D01*
X8626786Y-11912500D01*
X8641071Y-11855357D01*
X8655357Y-11826786D01*
X8669643Y-11812500D01*
X8698214Y-11798214D01*
X8926786Y-12069643D02*
X8941071Y-12083929D01*
X8926786Y-12098214D01*
X8912500Y-12083929D01*
X8926786Y-12069643D01*
X8926786Y-12098214D01*
X9126786Y-11798214D02*
X9155357Y-11798214D01*
X9183928Y-11812500D01*
X9198214Y-11826786D01*
X9212500Y-11855357D01*
X9226786Y-11912500D01*
X9226786Y-11983929D01*
X9212500Y-12041071D01*
X9198214Y-12069643D01*
X9183928Y-12083929D01*
X9155357Y-12098214D01*
X9126786Y-12098214D01*
X9098214Y-12083929D01*
X9083928Y-12069643D01*
X9069643Y-12041071D01*
X9055357Y-11983929D01*
X9055357Y-11912500D01*
X9069643Y-11855357D01*
X9083928Y-11826786D01*
X9098214Y-11812500D01*
X9126786Y-11798214D01*
X9398214Y-11926786D02*
X9369643Y-11912500D01*
X9355357Y-11898214D01*
X9341071Y-11869643D01*
X9341071Y-11855357D01*
X9355357Y-11826786D01*
X9369643Y-11812500D01*
X9398214Y-11798214D01*
X9455357Y-11798214D01*
X9483928Y-11812500D01*
X9498214Y-11826786D01*
X9512500Y-11855357D01*
X9512500Y-11869643D01*
X9498214Y-11898214D01*
X9483928Y-11912500D01*
X9455357Y-11926786D01*
X9398214Y-11926786D01*
X9369643Y-11941071D01*
X9355357Y-11955357D01*
X9341071Y-11983929D01*
X9341071Y-12041071D01*
X9355357Y-12069643D01*
X9369643Y-12083929D01*
X9398214Y-12098214D01*
X9455357Y-12098214D01*
X9483928Y-12083929D01*
X9498214Y-12069643D01*
X9512500Y-12041071D01*
X9512500Y-11983929D01*
X9498214Y-11955357D01*
X9483928Y-11941071D01*
X9455357Y-11926786D01*
X9769643Y-11798214D02*
X9712500Y-11798214D01*
X9683928Y-11812500D01*
X9669643Y-11826786D01*
X9641071Y-11869643D01*
X9626786Y-11926786D01*
X9626786Y-12041071D01*
X9641071Y-12069643D01*
X9655357Y-12083929D01*
X9683928Y-12098214D01*
X9741071Y-12098214D01*
X9769643Y-12083929D01*
X9783928Y-12069643D01*
X9798214Y-12041071D01*
X9798214Y-11969643D01*
X9783928Y-11941071D01*
X9769643Y-11926786D01*
X9741071Y-11912500D01*
X9683928Y-11912500D01*
X9655357Y-11926786D01*
X9641071Y-11941071D01*
X9626786Y-11969643D01*
X10055357Y-11798214D02*
X9998214Y-11798214D01*
X9969643Y-11812500D01*
X9955357Y-11826786D01*
X9926786Y-11869643D01*
X9912500Y-11926786D01*
X9912500Y-12041071D01*
X9926786Y-12069643D01*
X9941071Y-12083929D01*
X9969643Y-12098214D01*
X10026786Y-12098214D01*
X10055357Y-12083929D01*
X10069643Y-12069643D01*
X10083928Y-12041071D01*
X10083928Y-11969643D01*
X10069643Y-11941071D01*
X10055357Y-11926786D01*
X10026786Y-11912500D01*
X9969643Y-11912500D01*
X9941071Y-11926786D01*
X9926786Y-11941071D01*
X9912500Y-11969643D01*
X10198214Y-11798214D02*
X10198214Y-11855357D01*
X10312500Y-11798214D02*
X10312500Y-11855357D01*
X10755357Y-12212500D02*
X10741071Y-12198214D01*
X10712500Y-12155357D01*
X10698214Y-12126786D01*
X10683928Y-12083929D01*
X10669643Y-12012500D01*
X10669643Y-11955357D01*
X10683928Y-11883929D01*
X10698214Y-11841071D01*
X10712500Y-11812500D01*
X10741071Y-11769643D01*
X10755357Y-11755357D01*
X10841071Y-11798214D02*
X11026786Y-11798214D01*
X10926786Y-11912500D01*
X10969643Y-11912500D01*
X10998214Y-11926786D01*
X11012500Y-11941071D01*
X11026786Y-11969643D01*
X11026786Y-12041071D01*
X11012500Y-12069643D01*
X10998214Y-12083929D01*
X10969643Y-12098214D01*
X10883928Y-12098214D01*
X10855357Y-12083929D01*
X10841071Y-12069643D01*
X11383928Y-12098214D02*
X11383928Y-11798214D01*
X11512500Y-12098214D02*
X11512500Y-11941071D01*
X11498214Y-11912500D01*
X11469643Y-11898214D01*
X11426786Y-11898214D01*
X11398214Y-11912500D01*
X11383928Y-11926786D01*
X11698214Y-12098214D02*
X11669643Y-12083929D01*
X11655357Y-12069643D01*
X11641071Y-12041071D01*
X11641071Y-11955357D01*
X11655357Y-11926786D01*
X11669643Y-11912500D01*
X11698214Y-11898214D01*
X11741071Y-11898214D01*
X11769643Y-11912500D01*
X11783928Y-11926786D01*
X11798214Y-11955357D01*
X11798214Y-12041071D01*
X11783928Y-12069643D01*
X11769643Y-12083929D01*
X11741071Y-12098214D01*
X11698214Y-12098214D01*
X11969643Y-12098214D02*
X11941071Y-12083929D01*
X11926786Y-12055357D01*
X11926786Y-11798214D01*
X12198214Y-12083929D02*
X12169643Y-12098214D01*
X12112500Y-12098214D01*
X12083928Y-12083929D01*
X12069643Y-12055357D01*
X12069643Y-11941071D01*
X12083928Y-11912500D01*
X12112500Y-11898214D01*
X12169643Y-11898214D01*
X12198214Y-11912500D01*
X12212500Y-11941071D01*
X12212500Y-11969643D01*
X12069643Y-11998214D01*
X12326786Y-12083929D02*
X12355357Y-12098214D01*
X12412500Y-12098214D01*
X12441071Y-12083929D01*
X12455357Y-12055357D01*
X12455357Y-12041071D01*
X12441071Y-12012500D01*
X12412500Y-11998214D01*
X12369643Y-11998214D01*
X12341071Y-11983929D01*
X12326786Y-11955357D01*
X12326786Y-11941071D01*
X12341071Y-11912500D01*
X12369643Y-11898214D01*
X12412500Y-11898214D01*
X12441071Y-11912500D01*
X12555357Y-12212500D02*
X12569643Y-12198214D01*
X12598214Y-12155357D01*
X12612500Y-12126786D01*
X12626786Y-12083929D01*
X12641071Y-12012500D01*
X12641071Y-11955357D01*
X12626786Y-11883929D01*
X12612500Y-11841071D01*
X12598214Y-11812500D01*
X12569643Y-11769643D01*
X12555357Y-11755357D01*
X13098214Y-12212500D02*
X13083928Y-12198214D01*
X13055357Y-12155357D01*
X13041071Y-12126786D01*
X13026786Y-12083929D01*
X13012500Y-12012500D01*
X13012500Y-11955357D01*
X13026786Y-11883929D01*
X13041071Y-11841071D01*
X13055357Y-11812500D01*
X13083928Y-11769643D01*
X13098214Y-11755357D01*
X13212500Y-11898214D02*
X13212500Y-12098214D01*
X13212500Y-11926786D02*
X13226786Y-11912500D01*
X13255357Y-11898214D01*
X13298214Y-11898214D01*
X13326786Y-11912500D01*
X13341071Y-11941071D01*
X13341071Y-12098214D01*
X13526786Y-12098214D02*
X13498214Y-12083929D01*
X13483928Y-12069643D01*
X13469643Y-12041071D01*
X13469643Y-11955357D01*
X13483928Y-11926786D01*
X13498214Y-11912500D01*
X13526786Y-11898214D01*
X13569643Y-11898214D01*
X13598214Y-11912500D01*
X13612500Y-11926786D01*
X13626786Y-11955357D01*
X13626786Y-12041071D01*
X13612500Y-12069643D01*
X13598214Y-12083929D01*
X13569643Y-12098214D01*
X13526786Y-12098214D01*
X13712500Y-11898214D02*
X13826786Y-11898214D01*
X13755357Y-11798214D02*
X13755357Y-12055357D01*
X13769643Y-12083929D01*
X13798214Y-12098214D01*
X13826786Y-12098214D01*
X14155357Y-11898214D02*
X14155357Y-12198214D01*
X14155357Y-11912500D02*
X14183928Y-11898214D01*
X14241071Y-11898214D01*
X14269643Y-11912500D01*
X14283928Y-11926786D01*
X14298214Y-11955357D01*
X14298214Y-12041071D01*
X14283928Y-12069643D01*
X14269643Y-12083929D01*
X14241071Y-12098214D01*
X14183928Y-12098214D01*
X14155357Y-12083929D01*
X14469643Y-12098214D02*
X14441071Y-12083929D01*
X14426786Y-12055357D01*
X14426786Y-11798214D01*
X14712500Y-12098214D02*
X14712500Y-11941071D01*
X14698214Y-11912500D01*
X14669643Y-11898214D01*
X14612500Y-11898214D01*
X14583928Y-11912500D01*
X14712500Y-12083929D02*
X14683928Y-12098214D01*
X14612500Y-12098214D01*
X14583928Y-12083929D01*
X14569643Y-12055357D01*
X14569643Y-12026786D01*
X14583928Y-11998214D01*
X14612500Y-11983929D01*
X14683928Y-11983929D01*
X14712500Y-11969643D01*
X14812500Y-11898214D02*
X14926786Y-11898214D01*
X14855357Y-11798214D02*
X14855357Y-12055357D01*
X14869643Y-12083929D01*
X14898214Y-12098214D01*
X14926786Y-12098214D01*
X15141071Y-12083929D02*
X15112500Y-12098214D01*
X15055357Y-12098214D01*
X15026786Y-12083929D01*
X15012500Y-12055357D01*
X15012500Y-11941071D01*
X15026786Y-11912500D01*
X15055357Y-11898214D01*
X15112500Y-11898214D01*
X15141071Y-11912500D01*
X15155357Y-11941071D01*
X15155357Y-11969643D01*
X15012500Y-11998214D01*
X15412500Y-12098214D02*
X15412500Y-11798214D01*
X15412500Y-12083929D02*
X15383928Y-12098214D01*
X15326786Y-12098214D01*
X15298214Y-12083929D01*
X15283928Y-12069643D01*
X15269643Y-12041071D01*
X15269643Y-11955357D01*
X15283928Y-11926786D01*
X15298214Y-11912500D01*
X15326786Y-11898214D01*
X15383928Y-11898214D01*
X15412500Y-11912500D01*
X15526786Y-12212500D02*
X15541071Y-12198214D01*
X15569643Y-12155357D01*
X15583928Y-12126786D01*
X15598214Y-12083929D01*
X15612500Y-12012500D01*
X15612500Y-11955357D01*
X15598214Y-11883929D01*
X15583928Y-11841071D01*
X15569643Y-11812500D01*
X15541071Y-11769643D01*
X15526786Y-11755357D01*
M02*
