G04 #@! TF.GenerationSoftware,KiCad,Pcbnew,(5.1.10)-1*
G04 #@! TF.CreationDate,2022-03-14T11:30:17-04:00*
G04 #@! TF.ProjectId,overhead,6f766572-6865-4616-942e-6b696361645f,rev?*
G04 #@! TF.SameCoordinates,Original*
G04 #@! TF.FileFunction,Soldermask,Bot*
G04 #@! TF.FilePolarity,Negative*
%FSLAX46Y46*%
G04 Gerber Fmt 4.6, Leading zero omitted, Abs format (unit mm)*
G04 Created by KiCad (PCBNEW (5.1.10)-1) date 2022-03-14 11:30:17*
%MOMM*%
%LPD*%
G01*
G04 APERTURE LIST*
%ADD10C,2.200000*%
%ADD11O,0.900000X1.800000*%
%ADD12C,1.600000*%
%ADD13R,1.600000X1.600000*%
%ADD14C,0.400000*%
%ADD15O,1.700000X1.700000*%
%ADD16R,1.700000X1.700000*%
%ADD17O,1.524000X3.048000*%
%ADD18O,3.048000X1.524000*%
G04 APERTURE END LIST*
D10*
X75500000Y-53250000D03*
X58000000Y-87500000D03*
X101500000Y-103000000D03*
D11*
X58700000Y-51500000D03*
X65300000Y-51500000D03*
D12*
X67750000Y-104500000D03*
D13*
X67750000Y-102500000D03*
D14*
X82340000Y-87550000D03*
X83840000Y-87550000D03*
X82340000Y-89050000D03*
X83840000Y-89050000D03*
X82340000Y-90550000D03*
X83840000Y-90550000D03*
X81590000Y-88300000D03*
X83090000Y-88300000D03*
X84590000Y-88300000D03*
X81590000Y-89800000D03*
X84590000Y-89800000D03*
X83090000Y-89800000D03*
D15*
X77440000Y-63380000D03*
X74900000Y-63380000D03*
X77440000Y-60840000D03*
X74900000Y-60840000D03*
X77440000Y-58300000D03*
D16*
X74900000Y-58300000D03*
D15*
X66540000Y-89700000D03*
X64000000Y-89700000D03*
X66540000Y-87160000D03*
X64000000Y-87160000D03*
X66540000Y-84620000D03*
X64000000Y-84620000D03*
X66540000Y-82080000D03*
X64000000Y-82080000D03*
X66540000Y-79540000D03*
X64000000Y-79540000D03*
X66540000Y-77000000D03*
D16*
X64000000Y-77000000D03*
D15*
X57300000Y-72680000D03*
X57300000Y-70140000D03*
D16*
X57300000Y-67600000D03*
D15*
X97920000Y-107750000D03*
X100460000Y-107750000D03*
D16*
X103000000Y-107750000D03*
D15*
X73920000Y-108000000D03*
X76460000Y-108000000D03*
D16*
X79000000Y-108000000D03*
D15*
X98540000Y-88490000D03*
X96000000Y-88490000D03*
X98540000Y-85950000D03*
X96000000Y-85950000D03*
X98540000Y-83410000D03*
X96000000Y-83410000D03*
X98540000Y-80870000D03*
X96000000Y-80870000D03*
X98540000Y-78330000D03*
X96000000Y-78330000D03*
X98540000Y-75790000D03*
X96000000Y-75790000D03*
X98540000Y-73250000D03*
D16*
X96000000Y-73250000D03*
D15*
X84380000Y-107750000D03*
X86920000Y-107750000D03*
X89460000Y-107750000D03*
D16*
X92000000Y-107750000D03*
D17*
X97300000Y-55000000D03*
D18*
X100000000Y-52500000D03*
X100000000Y-57500000D03*
M02*
