M48
; DRILL file {KiCad (5.1.10)-1} date 03/14/22 11:31:12
; FORMAT={-:-/ absolute / metric / decimal}
; #@! TF.CreationDate,2022-03-14T11:31:12-04:00
; #@! TF.GenerationSoftware,Kicad,Pcbnew,(5.1.10)-1
; #@! TF.FileFunction,Plated,1,2,PTH
FMAT,2
METRIC
T1C0.200
T2C0.300
T3C0.400
T4C0.500
T5C0.800
T6C1.000
%
G90
G05
T1
X81.59Y-88.3
X81.59Y-89.8
X82.34Y-87.55
X82.34Y-89.05
X82.34Y-90.55
X83.09Y-88.3
X83.09Y-89.8
X83.84Y-87.55
X83.84Y-89.05
X83.84Y-90.55
X84.59Y-88.3
X84.59Y-89.8
T2
X55.5Y-76.0
X56.75Y-76.0
X56.75Y-96.75
X57.0Y-59.5
X57.0Y-102.0
X57.0Y-105.5
X59.0Y-105.5
X59.5Y-79.5
X59.5Y-104.0
X60.75Y-61.0
X61.0Y-102.0
X61.25Y-64.0
X61.25Y-67.5
X61.7Y-57.9
X62.0Y-66.75
X62.75Y-57.0
X63.75Y-57.0
X64.0Y-104.0
X64.75Y-65.0
X64.75Y-70.25
X65.25Y-61.0
X65.25Y-100.5
X65.75Y-65.0
X65.75Y-70.25
X67.0Y-64.75
X67.0Y-69.0
X67.0Y-97.0
X67.25Y-66.5
X68.25Y-53.75
X69.0Y-59.75
X69.25Y-55.0
X70.25Y-55.0
X70.25Y-93.5
X71.5Y-75.75
X71.5Y-76.75
X71.5Y-90.5
X71.5Y-91.5
X71.5Y-98.75
X74.75Y-80.5
X74.75Y-82.0
X75.25Y-75.75
X75.25Y-76.75
X76.25Y-83.5
X77.25Y-83.5
X77.25Y-88.75
X78.25Y-83.5
X79.25Y-83.5
X82.25Y-51.75
X83.0Y-63.0
X85.0Y-59.5
X86.0Y-59.5
X86.0Y-87.25
X87.0Y-59.5
X87.0Y-87.25
X87.25Y-51.75
X88.0Y-87.25
X88.485Y-85.985
X92.0Y-95.5
X92.25Y-51.75
X92.5Y-84.0
X92.5Y-85.0
X92.5Y-86.0
X92.5Y-87.0
X92.5Y-98.75
X92.5Y-105.5
X93.75Y-82.25
X94.0Y-86.0
X94.0Y-91.5
X97.0Y-93.0
X98.5Y-105.5
T3
X60.25Y-55.75
X62.0Y-72.75
X62.0Y-87.0
X64.25Y-92.75
X74.25Y-67.75
X88.25Y-101.75
X93.0Y-60.0
X97.0Y-65.25
X97.0Y-69.75
X99.75Y-70.0
T5
X67.75Y-102.5
X67.75Y-104.5
T6
X57.3Y-67.6
X57.3Y-70.14
X57.3Y-72.68
X64.0Y-77.0
X64.0Y-79.54
X64.0Y-82.08
X64.0Y-84.62
X64.0Y-87.16
X64.0Y-89.7
X66.54Y-77.0
X66.54Y-79.54
X66.54Y-82.08
X66.54Y-84.62
X66.54Y-87.16
X66.54Y-89.7
X73.92Y-108.0
X74.9Y-58.3
X74.9Y-60.84
X74.9Y-63.38
X76.46Y-108.0
X77.44Y-58.3
X77.44Y-60.84
X77.44Y-63.38
X79.0Y-108.0
X84.38Y-107.75
X86.92Y-107.75
X89.46Y-107.75
X92.0Y-107.75
X96.0Y-73.25
X96.0Y-75.79
X96.0Y-78.33
X96.0Y-80.87
X96.0Y-83.41
X96.0Y-85.95
X96.0Y-88.49
X97.92Y-107.75
X98.54Y-73.25
X98.54Y-75.79
X98.54Y-78.33
X98.54Y-80.87
X98.54Y-83.41
X98.54Y-85.95
X98.54Y-88.49
X100.46Y-107.75
X103.0Y-107.75
T4
X58.7Y-51.85G85X58.7Y-51.15
G05
X65.3Y-51.85G85X65.3Y-51.15
G05
T5
X97.3Y-55.35G85X97.3Y-54.65
G05
X99.65Y-52.5G85X100.35Y-52.5
G05
X99.65Y-57.5G85X100.35Y-57.5
G05
T0
M30
